<?xml version="1.0" encoding="UTF-8"?>
<svg width="100mm" height="100mm" version="1.1" viewBox="0 0 100 100" xmlns="http://www.w3.org/2000/svg"><path d="m34.184 0.011886c-2.0429 0.081395-4.1145 0.58774-6.102 1.6004-5.3 2.7005-8.0409 7.998-8.2005 13.274-0.15962 5.2756 1.6865 10.683 4.5641 15.803 1.0252 1.824 2.2234 3.5999 3.4949 5.3351-2.1513-0.0088-4.2917 0.06527-6.3702 0.30799-5.8331 0.68119-11.293 2.366-15.467 5.596-4.1742 3.23-6.8485 8.5612-5.918 14.436 0.93052 5.8751 5.1213 10.119 10.089 11.901 4.968 1.782 10.681 1.6973 16.439 0.5426 2.0518-0.41144 4.1113-1.0022 6.1547-1.6754-0.67318 2.0433-1.2644 4.1024-1.6759 6.1541-1.1547 5.7581-1.2394 11.471 0.5426 16.439 1.782 4.968 6.026 9.1588 11.901 10.089 5.8751 0.93052 11.206-1.7438 14.436-5.918 3.23-4.1742 4.9148-9.6342 5.596-15.467 0.24269-2.0782 0.31729-4.2191 0.30851-6.3702 1.735 1.2714 3.5107 2.4697 5.3346 3.4949 5.1195 2.8775 10.527 4.7237 15.803 4.5641 5.2756-0.15961 10.573-2.9005 13.273-8.2005 2.7005-5.3 1.8044-11.196-1.1674-15.558-2.9718-4.3619-7.644-7.6518-12.981-10.102-1.9017-0.8731-3.9143-1.6055-5.9629-2.2619 1.7456-1.2573 3.4335-2.5755 4.9723-3.9936 4.3187-3.9797 7.7458-8.5521 9.2242-13.619 1.4784-5.0667 0.50813-10.952-3.698-15.158-4.2061-4.2061-10.091-5.1764-15.158-3.698s-9.6391 4.9056-13.619 9.2242c-1.4179 1.5387-2.7363 3.2268-3.9936 4.9723-0.65637-2.0486-1.3888-4.0613-2.2619-5.9629-2.4504-5.3371-5.7399-10.01-10.102-12.982-2.7262-1.8574-6.0519-2.9034-9.4568-2.7678zm0.46044 7.8279c0.30102-0.019671 0.59638-0.013351 0.88987 0.018087 1.174 0.12575 2.3121 0.65466 3.6024 1.5338 2.5806 1.7582 5.3097 5.294 7.336 9.7074 1.8996 4.1374 3.0866 8.9883 3.513 13.635-0.97304 2.5476-1.7146 5.1447-2.0986 7.7478-2.3315-1.2193-4.8682-2.1454-7.5008-2.8556-3.5089-3.0762-6.7355-6.8881-8.9664-10.857-2.3795-4.2334-3.6363-8.5194-3.5419-11.641 0.09444-3.1212 0.96399-4.9244 3.8359-6.3877 1.077-0.54875 2.0275-0.84171 2.9306-0.90072zm43.998 6.9066c1.6112 0.0097 2.9795 0.64058 4.4752 2.1363 2.2792 2.2792 2.5495 4.2619 1.6748 7.2595-0.87469 2.9976-3.3947 6.6857-6.966 9.9767-3.3479 3.0852-7.5941 5.7143-11.881 7.5556-2.7236-0.13816-5.4226-0.0413-8.0171 0.39791 0.43913-2.5941 0.53546-5.2934 0.39739-8.0166 1.8414-4.2877 4.4697-8.5348 7.5551-11.883 3.2909-3.5712 6.9795-6.0908 9.9772-6.9655 0.7494-0.21867 1.4354-0.36585 2.0784-0.42788 0.24115-0.02326 0.47625-0.03446 0.70642-0.03307zm-52.443 29.291c3.4538-0.05651 7.0145 0.35644 10.352 1.1121 2.122 1.7125 4.3626 3.2208 6.7195 4.3904-1.88 1.8405-3.5444 3.9676-5.0333 6.2518-4.0099 2.3865-8.6327 4.2766-13.097 5.1718-4.7615 0.95483-9.2264 0.82591-12.166-0.22841-2.9393-1.0543-4.3849-2.4388-4.8891-5.6224-0.50423-3.1836 0.44237-4.947 2.912-6.858 2.4696-1.911 6.6765-3.4137 11.5-3.977 1.2059-0.14082 2.4456-0.21975 3.7016-0.2403zm41.066 5.9764c4.6465 0.42637 9.4969 1.6144 13.634 3.514 4.4134 2.0263 7.9497 4.7549 9.7079 7.3355 1.7582 2.5806 2.1145 4.5509 0.65112 7.4228-1.4633 2.8719-3.266 3.7415-6.3872 3.8359-3.1212 0.09443-7.4082-1.1624-11.642-3.5419-3.9688-2.2308-7.7806-5.4572-10.857-8.9659-0.71023-2.6328-1.6358-5.1703-2.8551-7.5019 2.6031-0.38404 5.1998-1.1256 7.7473-2.0986zm-16.806 6.7148c1.1697 2.3571 2.6772 4.5978 4.3899 6.72 1.0303 4.5508 1.4004 9.5311 0.8723 14.053-0.5633 4.8236-2.0665 9.03-3.9775 11.5-1.911 2.4696-3.6744 3.4167-6.858 2.9125-3.1836-0.50423-4.5681-1.9499-5.6224-4.8891s-1.1832-7.4041-0.22841-12.166c0.89517-4.464 2.7854-9.0865 5.1718-13.096 2.2845-1.4891 4.4116-3.1536 6.2523-5.0338z" fill="#24a6b3"/></svg>
