<?xml version="1.0" encoding="UTF-8"?>
<svg width="63.805" height="81.071" shape-rendering="crispEdges" version="1.1" viewBox="0 0 16.882 21.45" xmlns="http://www.w3.org/2000/svg"><style/><path d="m10.016-1.5744e-5a0.30985 0.30985 0 0 0-0.085266 0.015503c-0.82851 0.2704-1.1649 1.0225-1.4903 1.6175-0.10763 0.19678-0.23896 0.4042-0.34985 0.64026-0.074347 0.15816-0.1155 0.30839-0.15399 0.43769-0.06514 0.21883-0.13408 0.44084-0.20102 0.66455-0.14625-0.43851-0.41155-0.81972-0.86401-1.0123-0.93558-0.39825-2.1033-0.29636-1.9621 0.10749 1.7684 3.0522 2.4165 3.108 2.2541 3.0453 0.00329 0.00674 0.00623 0.017327 0.0093 0.024804-0.63478-0.26437-1.3318-0.78162-1.9063-0.95704-0.97109-0.29651-2.0164-0.20015-2.9517 0.39481-0.93534 0.59496-1.0772 0.52387-1.9776 2.9837-0.90045 2.4599 0.14137 6.0412 1.4903 9.4913 1.349 3.4501 3.1168 3.956 4.7201 3.9946 1.6032 0.0385 1.471-0.39949 2.0246-0.83663 2.0852-0.0218 0.85914 0.8873 2.931 0.69762 1.1291-0.0589 1.675-0.26643 2.835-2.0319 1.1599-1.7655 2.6881-6.1219 2.5331-8.9457-0.155-2.8236-1.026-5.0836-2.5331-5.9369-1.5071-0.85332-2.3278-0.68095-3.4493-0.37774-1.1216 0.30321-1.773 0.88097-2.5512 1.512-0.11755 0.09532-0.2483 0.1426-0.38756 0.16071 0.022349-0.43732 0.05513-0.86229 0.1602-1.3281 0.10828-0.48013 0.27029-0.97146 0.42013-1.4748 0.040309-0.13539 0.075106-0.25187 0.12092-0.34932 0.089211-0.18993 0.21258-0.38885 0.33229-0.60771 0.33938-0.62055 0.58985-1.147 1.1384-1.326a0.30985 0.30985 0 0 0 0.19947-0.39068 0.30985 0.30985 0 0 0-0.28164-0.2129 0.30985 0.30985 0 0 0-0.02377 0z" fill="#FF0000"/></svg>
