<?xml version="1.0" encoding="UTF-8"?>
<svg width="299.46" height="702.12" shape-rendering="crispEdges" version="1.1" viewBox="0 0 79.232 185.77" xmlns="http://www.w3.org/2000/svg"><style/><path d="m23.074 173.33-1.206 4.8585-1.0735 1.4132-1.4412 0.0886-1.9266-1.1926-1.4705-1.693-2-5.0646-0.26476-5.683 0.0881-3.0328-0.30883-6.4778 0.33843-1.531 1.1324-0.97198 0.92647-0.27954v-0.27985l0.82354-0.80966 1.2646-0.57422 1.2353-0.14718 0.8972-0.50048-0.0148-0.48598 0.39696-0.20611 1.1472-2.3852 1.9411-2.959 2.0884-2.341 2.1322-1.7372 1.5884-2.3114 0.77124-0.79383 2.8463-2.7983 5.0734-3.769 3.3237-2.3852s0.24992-0.45646 0.19109-0.42705c-0.0588 0.0294-0.14701-0.57422-0.14701-0.57422l0.13221-0.41223 0.17662-0.1913 0.0737-0.86859-0.20589-0.41223v-2.0022l0.38217-0.45635-0.11774-0.80997-0.49991-0.7214-0.0589-0.50048 0.32362-0.26505 0.054-0.9053-0.3188-0.46376-0.0589-0.70659 0.17661-0.48598-1.309-9.0984-2.7646-0.42705-1.4853-1.1188-11.324-1.5459-1.5589 0.7359-9.2207-1.428-0.30882-0.1913 0.0296-1.2074-1.2501-1.6193-1.5148-9.0839-0.42624-0.50047-0.58838-4.0341-0.73539-4.8144-2.1029-0.25023-0.7058-0.30918 0.0589-3.3568 0.94096-0.45636-0.22036 0.0441-0.61765-0.20611-0.3529-0.25024 0.3233 0.059 1.0294 0.059 0.0148-0.23574-0.67652-0.5153-1.2205-0.3826-0.30883-0.41223 1.2205 0.17649 1.3382 0.27987 0.57358-0.059-2.0148-1.5459-1.603-0.55941-1.7793 0.41223-2.7206 0.47116-0.20589-0.27986 1.1176-0.23543 1.1028-0.50047 1.603-0.29468-0.70579-0.45635-0.0293-0.82446-2.2058-0.98646-0.41177-0.33848-0.47064-1.6048 0.19109-1.531 0.8676-0.57424-0.57358-0.33879 1.059-0.48566 0.691-0.44186-0.17629-0.25024 0.0441-0.25024 0.3381-0.0589 1.059 0.58904 2.7354 1.428 4.3088 2.5616-2.9412-2.0315-0.24996-0.42705 2.7942 1.4724 2.8235 1.9874 4.5294 2.5323 3.0883-1.3104 1.2794-0.39742 2.8528 0.13237 1.3678-4.0193 0.3677-0.98613 0.55878-0.92752 0.64692-0.5008 5.1767-2.0315-0.0148-1.0161 0.8972-6.5513 1.5001-5.3445 1.3234-5.9918 1.0587-4.5052-0.0293-1.3249 0.60286-1.4869 0.3529-0.8834 0.50023-0.45635 1.4116-3.666 1.0883-1.2074 1.0442-2.6058 0.36769-2.4441 0.49991-3.7101 0.76467-4.4463 0.73539-4.608s0.33799-1.5459 0.3233-1.6048c-0.0147-0.0589 0.69132-2.1935 0.69132-2.1935l-0.36769-0.97196-0.14702-1.3101 0.51471-1.2367 0.26476-0.85409 0.55878-1.0306 0.61765-0.9127 0.22068-0.60353 0.82354-1.5459 0.95575-0.9127 0.97055-0.82446 0.8972-0.78034 1.897-0.92752 1.8822-0.32399 2.6179-0.04412 1.9559 0.36811 1.7056 0.98646 2.1473 1.9726 1.1176 1.7227 1.6323 4.3432 0.39729 2.5468-0.66205 1.2074-0.20588 1.7665-0.0585 3.3568-0.27955 1.1633-0.0441 1.1926-0.30882 2.9887-0.7206 5.9184-0.80873 2.7971s0.97032 0.61834 1.088 0.7214c0.11765 0.10306 0.64725 0.1475 0.64725 0.1475l1.7059 0.44154 1.4264 0.51529 0.83833 0.76553 1.2942 1.3546 0.88208 2.0315 0.14734 2.8711-0.14734 2.9446-0.24963 1.4386 0.37445 1.0828 0.95639 1.9156 0.58259 2.1655 0.083 1.8737-0.62377 1.7906-1.2064 2.998-0.49927 1.6657 2.5375 0.49983 0.33264-0.58293 1.3312 0.7913 1.4972 0.12463 0.8319 0.8747-0.54044 0.91593 0.66526 2.0821-3.6187 2.0821-2.0379 1.5407-1.04-0.333 0.24963 1.2492 0.66558 2.5819 0.66559 2.998 0.74858 3.8727-0.0833 0.62446 0.8319 6.2463 1.539 6.871 0.49927 3.4978 0.8319 2.7484 2.0382 4.9136 0.45745 1.6657-0.49927 4.7056-1.9131 2.1652-1.6638 0.91625-0.58259-0.20805s-0.45738 0.74934-0.62376 0.79097c-0.16638 0.0416-0.74858-0.1665-0.74858-0.1665l-0.37445-0.83284 0.66558-0.49983 0.8734-0.79097 0.083-0.45828-2.1628 1.541-0.29113-0.70819-0.0833-0.79098-0.37413-0.0834v-0.79129l0.70708-0.79097 0.8734-1.5407 0.0415-1.5407-0.41595-2.2905-0.79008-2.5401v-1.2909l-0.62409-1.3742 0.33263-1.7076-1.4972-3.9974-0.20813 1.6657-1.6223 9.7441-1.9549 6.9123-5.6152 17.115-1.2478 3.0814 0.24964 2.54-1.123 2.5819-0.37446 0.49951 0.45745 0.87438-0.58226 2.7484-0.8319 0.79129 0.0415 0.87438-0.54077 1.999-1.7053 7.3706-2.3709 9.0362-1.4975 1.4988 0.7489 1.6241-0.24964 2.1236-0.99821 3.9561-1.7056 4.1642 0.91522 1.6657 1.4142 1.3742 2.2988 2.1909 6.8238 2.5913 1.8822 2.5913-0.94128 2.1201-7.2941-0.94233-5.4118-2.3555-3.9999-0.70691-5.4408-0.97067-0.20814-0.72881-0.27022-2.1446 0.083-1.5823 0.37446-0.47889-0.0209-0.41642-0.0206-0.4164 0.35354-0.58327-0.0209-0.68694-0.22873-0.95779 0.33264-0.79129 0.37445-0.31207-0.22873-0.39581-0.18722-0.60352 0.29113-0.2293 0.0624-0.52045 0.0209-0.70789-0.18723-2.1655v-4.3307l0.33263-1.2354 0.22068-0.98647 0.54398-1.4428 0.0148-0.69208-0.27955-0.61835-0.0145-0.85378 0.88241-3.6511 1.7793-6.6843 1.0735-4.1812-4.044 2.503-1.1179 1.0599-1.4705 0.75103-0.8824 0.8979-0.47064 0.39773-2.1911 3.2093-1.6178 1.752-1.6911 1.3252-1.7059 0.80964 0.10294 0.63317-0.66172 1.266-1.1472 0.47117-1.2942 2.1053-0.36737 0.83927-0.58838 0.10306-0.41177 0.66247-0.39697-0.059 0.0589 0.42703-0.63245 0.38262v0.25022l-0.61765 1.0013-0.11774 1.0454-0.16181 1.2071-0.29403 0.91303 0.0441 2.8119 0.3529 0.33847 0.35322 1.6638z" fill="#543A8E"/></svg>
