<?xml version="1.0" encoding="UTF-8"?>
<svg width="621.02" height="460" shape-rendering="crispEdges" version="1.1" viewBox="0 0 164.31 121.71" xmlns="http://www.w3.org/2000/svg"><style/><path d="m12.832 18.654h138.66zm-2.7901 18.113h144.24zm-2.8402 18.066h149.91zm-3.6799 18.041h157.28zm12.851-72.334-15.83 90.415v30.21h163.23v-30.21c-5.2755-30.138-10.553-60.277-15.83-90.415zm147.4 90.414h-163.23" fill="none" stroke="#0d3a2f" stroke-width="1.0848"/><path d="m86.688 91.199a0.7856 0.7856 0 0 0-0.77826 0.78601 0.7856 0.7856 0 0 0 0.7855 0.7855 0.7856 0.7856 0 0 0 0.7855-0.7855 0.7856 0.7856 0 0 0-0.7855-0.78601 0.7856 0.7856 0 0 0-0.0072 0zm-83.533 0.6501a0.7856 0.7856 0 0 0-0.77878 0.7855 0.7856 0.7856 0 0 0 0.78601 0.78601 0.7856 0.7856 0 0 0 0.7855-0.78601 0.7856 0.7856 0 0 0-0.7855-0.7855 0.7856 0.7856 0 0 0-0.00723 0zm64.445 0.30025a0.7856 0.7856 0 0 0-0.77826 0.7855 0.7856 0.7856 0 0 0 0.7855 0.7855 0.7856 0.7856 0 0 0 0.7855-0.7855 0.7856 0.7856 0 0 0-0.7855-0.7855 0.7856 0.7856 0 0 0-0.0072 0zm-29.671 0.37983a0.7856 0.7856 0 0 0-0.77826 0.7855 0.7856 0.7856 0 0 0 0.7855 0.7855 0.7856 0.7856 0 0 0 0.7855-0.7855 0.7856 0.7856 0 0 0-0.7855-0.7855 0.7856 0.7856 0 0 0-0.0072 0zm-23.056 0.37001a0.7856 0.7856 0 0 0-0.77826 0.7855 0.7856 0.7856 0 0 0 0.7855 0.7855 0.7856 0.7856 0 0 0 0.7855-0.7855 0.7856 0.7856 0 0 0-0.7855-0.7855 0.7856 0.7856 0 0 0-0.0072 0zm116.23 0a0.7856 0.7856 0 0 0-0.77826 0.7855 0.7856 0.7856 0 0 0 0.7855 0.7855 0.7856 0.7856 0 0 0 0.78601-0.7855 0.7856 0.7856 0 0 0-0.78601-0.7855 0.7856 0.7856 0 0 0-7e-3 0zm-19.659 1.14a0.7856 0.7856 0 0 0-0.77878 0.7855 0.7856 0.7856 0 0 0 0.78602 0.7855 0.7856 0.7856 0 0 0 0.78549-0.7855 0.7856 0.7856 0 0 0-0.78549-0.7855 0.7856 0.7856 0 0 0-7e-3 0zm-55.279 0.37983a0.7856 0.7856 0 0 0-0.77826 0.78601 0.7856 0.7856 0 0 0 0.7855 0.7855 0.7856 0.7856 0 0 0 0.7855-0.7855 0.7856 0.7856 0 0 0-0.7855-0.78601 0.7856 0.7856 0 0 0-0.0072 0zm-28.442 0.37001a0.7856 0.7856 0 0 0-0.77826 0.78601 0.7856 0.7856 0 0 0 0.7855 0.7855 0.7856 0.7856 0 0 0 0.7855-0.7855 0.7856 0.7856 0 0 0-0.7855-0.78601 0.7856 0.7856 0 0 0-0.0072 0zm94.3 1.14a0.7856 0.7856 0 0 0-0.77826 0.7855 0.7856 0.7856 0 0 0 0.78549 0.78602 0.7856 0.7856 0 0 0 0.7855-0.78602 0.7856 0.7856 0 0 0-0.7855-0.7855 0.7856 0.7856 0 0 0-7e-3 0zm-47.242 0.38034a0.7856 0.7856 0 0 0-0.77878 0.7855 0.7856 0.7856 0 0 0 0.78602 0.7855 0.7856 0.7856 0 0 0 0.7855-0.7855 0.7856 0.7856 0 0 0-0.7855-0.7855 0.7856 0.7856 0 0 0-0.0072 0zm27.592 0a0.7856 0.7856 0 0 0-0.77826 0.7855 0.7856 0.7856 0 0 0 0.78549 0.7855 0.7856 0.7856 0 0 0 0.78601-0.7855 0.7856 0.7856 0 0 0-0.78601-0.7855 0.7856 0.7856 0 0 0-7e-3 0zm-61.35 0.98239c-0.18816 0-0.32335 0.08239-0.40567 0.24702-0.08232 0.16464-0.14726 0.34683-0.19431 0.54675-0.01177 0-0.01757 0.0058-0.01757 0.01757-0.01175 0.03529-0.02339 0.07067-0.03514 0.10594 0 0.02352-0.0058 0.04675-0.01757 0.07028l-3.1048 9.0317-1.2702 3.634v0.0171l-0.03514 0.0708v0.2295c0 0.0823 0.01162 0.15838 0.03514 0.22894 0.03528 0.0588 0.09442 0.10632 0.17674 0.14159 0.02352 0.0235 0.04676 0.0351 0.07028 0.0351h0.10594c0.11759 0 0.22374-0.0412 0.31782-0.12351 0.10584-0.0823 0.17608-0.18794 0.21136-0.3173l0.74105-2.1875c0.02352-0.0588 0.0589-0.11742 0.10594-0.17622 0.0588-0.0588 0.12323-0.10634 0.19379-0.1416 0.02352-0.0235 0.04728-0.041 0.0708-0.0527 0.02352-0.0118 0.04676-0.0234 0.07028-0.0351 0.03528-0.0118 0.07066-0.0234 0.10594-0.0351 0.03528-0.0117 0.07066-0.0181 0.10594-0.0181 0.04704-0.0117 0.09404-0.0176 0.14108-0.0176h0.22945c0.02352 0 0.04095-6e-3 0.05271-0.0176l2.8578-0.0176h0.15865c0.07056-0.0118 0.13499-0.0118 0.19379 0 0.07056 0 0.13551 6e-3 0.19431 0.0176 0.02352 0.0118 0.04095 0.0239 0.05271 0.0357 0.02352 0.0118 0.04728 0.0234 0.0708 0.0351 0.0588 0.0353 0.09999 0.0823 0.12351 0.14108 0.03528 0.0588 0.06433 0.12323 0.08785 0.19379 0.01177 0.0235 0.0181 0.0473 0.0181 0.0708 0.01175 0.0117 0.01757 0.0292 0.01757 0.0527 0.01177 0.0118 0.01757 0.0239 0.01757 0.0357l0.01757 0.0176 0.8289 1.6935c0.12936 0.25871 0.30574 0.45253 0.52918 0.58189 0.2352 0.11758 0.49396 0.17621 0.7762 0.17621 0.10583 0 0.21198-6e-3 0.31782-0.0176 0.11759-0.0235 0.23484-0.0584 0.35244-0.10543 0.27047-0.12936 0.47062-0.31788 0.59998-0.56483 0.14112-0.24695 0.21136-0.51735 0.21136-0.81134 0-0.0941-0.01162-0.18809-0.03514-0.28216-0.01175-0.10585-0.035-0.21146-0.07028-0.3173l-3.3694-9.0317-0.84647-2.2226c0-0.0118-0.0063-0.02342-0.0181-0.03514v-0.03566c-0.07055-0.21167-0.15242-0.40549-0.2465-0.58189-0.09408-0.18815-0.25884-0.28216-0.49404-0.28216zm23.849 0.07028c-0.36455 0.01175-0.69356 0.12952-0.98756 0.35296-0.28223 0.22343-0.42324 0.51125-0.42324 0.86405l0.01757 9.0317 0.01757 2.7342v0.0176c0 0.36456 0.15262 0.6587 0.45838 0.88214 0.30578 0.2117 0.64109 0.32312 1.0056 0.33486h0.14108c0.34103-0.0235 0.65262-0.13494 0.93484-0.33486 0.294-0.19992 0.44133-0.47663 0.44133-0.82943v-9.0312l-0.0181-2.7694c0-0.37631-0.15844-0.67627-0.47595-0.8997-0.30578-0.23519-0.64109-0.35296-1.0056-0.35296h-0.07028zm62.041 0.04961c-0.36455 0-0.7057 0.11195-1.0232 0.33539-0.30578 0.22343-0.46421 0.51758-0.47595 0.88213l-0.0708 2.6108v0.0527c0 0.0823-6e-3 0.15889-0.0176 0.22945 0 0.0588-0.0296 0.11742-0.0884 0.17622l-0.0176 0.0176c-0.0118 0.0117-0.0234 0.0176-0.0351 0.0176-0.0117 0.0236-0.0292 0.0415-0.0527 0.0532s-0.0473 0.0117-0.0708 0l-1.1286 0.0176c-0.22343 0-0.42939 6e-3 -0.61755 0.0176-0.1764 0.0118-0.35278 0.0466-0.52917 0.10542-0.0941 0.0235-0.18808 0.0589-0.28216 0.10594-0.0941 0.047-0.19441 0.0999-0.30025 0.15865-0.37631 0.22344-0.67576 0.49433-0.89918 0.81185-0.22347 0.30576-0.34123 0.67597-0.35296 1.1111v5.3e-4l0.0176 5.0975c0 0.74089 0.29995 1.2996 0.8997 1.6759 0.61153 0.36455 1.2875 0.60008 2.0283 0.70591 0.18815 0.0353 0.37035 0.0585 0.54675 0.0703 0.18815 0.0235 0.37034 0.0351 0.54674 0.0351 0.85846 0.0235 1.6348-0.21149 2.3286-0.70539 0.7056-0.50567 1.0584-1.1933 1.0584-2.0635v-10.39c0-0.34104-0.14101-0.61142-0.42324-0.81134-0.28224-0.19994-0.5938-0.30608-0.93484-0.31782h-0.0527zm-33.325 0.05426c-0.89374 0-1.7107 0.25295-2.4516 0.75862-0.74088 0.49387-1.1232 1.182-1.1467 2.064l-0.05271 2.3632c-0.01175 0.81142 0.3289 1.4937 1.0227 2.0464 0.6938 0.54095 1.4585 1.0289 2.2934 1.464 0.23519 0.1176 0.45858 0.23536 0.67026 0.35296 0.22343 0.10584 0.44101 0.21727 0.65268 0.33487 0.56446 0.30576 1.0408 0.61786 1.4289 0.93536 0.38807 0.3175 0.58189 0.67608 0.58189 1.0759 0 0.16463-0.04119 0.34103-0.12351 0.52918-0.08232 0.1764-0.21751 0.3644-0.40567 0.56432l5.29e-4 0.0176c-0.25871 0.29399-0.55286 0.47618-0.88213 0.54674-0.32927 0.0706-0.69999 0.0943-1.1116 0.0708-0.43511-0.0235-0.69969-0.19409-0.79377-0.5116-0.09408-0.32929-0.1527-0.71162-0.17622-1.1467v-0.1411c0-0.0823-0.0058-0.16469-0.01757-0.24702 0-0.0823-0.0058-0.16469-0.01757-0.24701-0.03527-0.39981-0.13561-0.77585-0.30025-1.1286-0.15288-0.36455-0.47027-0.64707-0.95241-0.84699-0.0588-0.0235-0.12323-0.041-0.19379-0.0527-0.0588-0.0117-0.11794-0.0176-0.17674-0.0176-0.36458 0-0.69937 0.16425-1.0051 0.49352-0.294 0.3293-0.44714 0.69418-0.4589 1.094v1.464c0 0.7644 0.32372 1.3405 0.9705 1.7286 0.65853 0.38804 1.3757 0.60562 2.1518 0.65269 0.07056 0.0118 0.13499 0.0176 0.19379 0.0176h0.17674c0.09408 0 0.18808-6e-3 0.28216-0.0176 0.10583 0 0.19984-6e-3 0.28216-0.0176 0.04704 0 0.09404-6e-3 0.14108-0.0176 0.04704 0 0.09404-6e-3 0.14108-0.0176 0.71732-0.0941 1.3759-0.32328 1.9756-0.68783 0.61151-0.36454 0.91728-0.91745 0.91728-1.6583l0.01757-2.8753c0-0.75263-0.34698-1.3758-1.0408-1.8697-0.6938-0.50568-1.4638-0.96406-2.3105-1.3756-0.14112-0.0706-0.28212-0.14132-0.42324-0.21188-0.14111-0.0706-0.28264-0.14131-0.42376-0.21187-0.03528-0.0118-0.07647-0.0234-0.12351-0.0351l-0.10542-0.0708c-0.61153-0.31751-1.1412-0.64652-1.588-0.98756-0.43511-0.34102-0.65269-0.72918-0.65269-1.1643 0-0.24696 0.0882-0.51734 0.26459-0.81133 0.18815-0.30575 0.4823-0.63529 0.88213-0.98807 0.10584-0.0941 0.21779-0.15853 0.33539-0.19379 0.11759-0.047 0.24117-0.06444 0.37053-0.05271 0.03528 0 0.07014 0.0058 0.10542 0.01757h0.10594c0.294 0.04704 0.57019 0.18805 0.8289 0.42324 0.27048 0.23519 0.47062 0.53515 0.59998 0.8997 0.0588 0.16464 0.09999 0.34102 0.12351 0.52917 0.02352 0.17639 0.04095 0.35859 0.05271 0.54675v0.0884c0.01175 0.0235 0.01757 0.0467 0.01757 0.0703 0.03527 0.44687 0.11766 0.84664 0.24702 1.1994 0.14109 0.34101 0.51764 0.52321 1.1292 0.54675 0.38804 0.0118 0.73503-0.10549 1.0408-0.35244 0.31751-0.25873 0.47014-0.58825 0.45838-0.98808l-0.05271-1.5348c-0.02355-0.75263-0.35886-1.3288-1.0056-1.7286-0.635-0.39981-1.3347-0.62319-2.0991-0.67026-0.0588-0.01172-0.12323-0.01757-0.19379-0.01757zm51.305 0.35347a0.7856 0.7856 0 0 0-0.77827 0.7855 0.7856 0.7856 0 0 0 0.7855 0.7855 0.7856 0.7856 0 0 0 0.7855-0.7855 0.7856 0.7856 0 0 0-0.7855-0.7855 0.7856 0.7856 0 0 0-7e-3 0zm12.1 0.37983a0.7856 0.7856 0 0 0-0.77878 0.7855 0.7856 0.7856 0 0 0 0.78601 0.7855 0.7856 0.7856 0 0 0 0.7855-0.7855 0.7856 0.7856 0 0 0-0.7855-0.7855 0.7856 0.7856 0 0 0-7e-3 0zm-110.94 0.56019a0.7856 0.7856 0 0 0-0.77878 0.7855 0.7856 0.7856 0 0 0 0.78602 0.7855 0.7856 0.7856 0 0 0 0.7855-0.7855 0.7856 0.7856 0 0 0-0.7855-0.7855 0.7856 0.7856 0 0 0-0.0072 0zm41.577 0a0.7856 0.7856 0 0 0-0.77826 0.7855 0.7856 0.7856 0 0 0 0.7855 0.7855 0.7856 0.7856 0 0 0 0.78601-0.7855 0.7856 0.7856 0 0 0-0.78601-0.7855 0.7856 0.7856 0 0 0-0.0072 0zm14.388 0.47646c-0.12935 0-0.24079 0.05333-0.33487 0.15917-0.0823 0.09408-0.12351 0.19971-0.12351 0.3173v0.95241c0 0.17641-0.0354 0.32955-0.10594 0.4589-0.0706 0.12937-0.17036 0.24662-0.29972 0.35244-0.0118 0.0117-0.0297 0.0297-0.0532 0.0532-0.0118 0.0118-0.0292 0.0234-0.0527 0.0351-0.10583 0.0823-0.21779 0.14723-0.33539 0.19431-0.10583 0.0353-0.22889 0.0469-0.37001 0.0351l-1.4464 0.0527c-0.10584 0-0.19403 0.0412-0.26459 0.12351-0.07056 0.0823-0.11175 0.17049-0.12351 0.26458l0.01757 0.0181c0 0.1176 0.02905 0.22322 0.08785 0.3173 0.07055 0.0941 0.16507 0.13525 0.28268 0.12351l0.29973 0.0176c0.0588 1e-5 0.1058 6e-3 0.14108 0.0176 0.04704 0.0118 0.08823 0.0413 0.12351 0.0884 0.03528 0.0352 0.05271 0.0764 0.05271 0.12351 0.01175 0.047 0.01757 0.094 0.01757 0.14108v0.0351l-0.03514 7.1795c0 0.43509 0.17638 0.78207 0.52918 1.0408 0.36456 0.25871 0.76433 0.37596 1.1994 0.35244 0.38808-0.0118 0.72923-0.13534 1.0232-0.37053 0.30575-0.24695 0.45889-0.57015 0.45889-0.96999l-0.0181-7.1088c0-0.0353-6e-3 -0.0648-0.0176-0.0884-0.0117-0.0353-0.0292-0.0707-0.0527-0.10594-0.0118-0.0235-0.0297-0.0468-0.0532-0.0703-0.0118-0.0353-0.0176-0.0648-0.0176-0.0884 0-0.0118 6e-3 -0.0234 0.0176-0.0351v-0.0176c0.0235-0.0588 0.0589-0.1 0.10594-0.12351 0.047-0.0235 0.10036-0.0415 0.15916-0.0532l0.42324 0.0181c0.10584 0 0.18822-0.0412 0.24702-0.12351 0.0588-0.0941 0.0879-0.19441 0.0879-0.30024 0-0.10584-0.0354-0.19984-0.10594-0.28216-0.0706-0.0823-0.15875-0.12933-0.26458-0.14108l-0.37002 0.0176c-0.0588 0-0.11212-0.0116-0.15916-0.0352-0.047-0.0352-0.0819-0.0764-0.10542-0.1235-0.0353-0.0588-0.059-0.1116-0.0708-0.15865v-1.7818c0-0.14111-0.047-0.25836-0.14108-0.35244-0.0941-0.10584-0.21184-0.15916-0.35296-0.15916zm-86.897 0.96327a0.7856 0.7856 0 0 0-0.77826 0.7855 0.7856 0.7856 0 0 0 0.7855 0.78549 0.7856 0.7856 0 0 0 0.7855-0.78549 0.7856 0.7856 0 0 0-0.7855-0.7855 0.7856 0.7856 0 0 0-0.0072 0zm18.176 1.2103a0.7856 0.7856 0 0 0-0.77826 0.78549 0.7856 0.7856 0 0 0 0.7855 0.7855 0.7856 0.7856 0 0 0 0.7855-0.7855 0.7856 0.7856 0 0 0-0.7855-0.78549 0.7856 0.7856 0 0 0-0.0072 0zm82.745 0.18707c-0.882 0.047-1.6931 0.31742-2.434 0.81133-0.72913 0.48213-1.094 1.1639-1.094 2.0459l0.0708 6.1212v0.0176c0 0.32928 0.1352 0.57591 0.40567 0.74054 0.28224 0.16465 0.59381 0.26446 0.93485 0.29973h0.28214c0.0235-0.0117 0.0415-0.0176 0.0532-0.0176h0.0527c0.37631-0.0235 0.70584-0.14659 0.98808-0.37002 0.28223-0.22344 0.42323-0.52338 0.42323-0.8997v-3.0872c0-0.29399-0.10563-0.5232-0.3173-0.68783-0.21168-0.16464-0.44719-0.31145-0.70591-0.4408-0.10583-0.047-0.21146-0.0999-0.3173-0.15865-0.10583-0.0588-0.19985-0.11794-0.28216-0.17674-0.21169-0.16464-0.39387-0.37641-0.54675-0.63512-0.14111-0.25872-0.21187-0.53491-0.21187-0.8289 0.0118-0.35282 0.15277-0.68813 0.42324-1.0056s0.74098-0.54089 1.4113-0.67025h0.0527c0.0235-0.0117 0.0473-0.0176 0.0708-0.0176h0.1059c0.44684 0 0.82289 0.19433 1.1286 0.5824 0.30576 0.38809 0.45889 0.81109 0.45889 1.2697l0.0703 5.8742c0 0.36456 0.15314 0.65869 0.45889 0.88213 0.31749 0.22343 0.66448 0.33488 1.0408 0.33488h0.0527c0.0117 0 0.0292-6e-3 0.0527-0.0176h0.0884c0.37631-0.0353 0.6937-0.17628 0.95241-0.42324 0.25872-0.24695 0.3881-0.55855 0.3881-0.93485v-5.9093c0-0.84668-0.35276-1.4878-1.0584-1.9229-0.69381-0.44687-1.4638-0.69931-2.3105-0.75811-0.0706-0.0117-0.14713-0.0176-0.22945-0.0176h-0.33539zm-8.0441 0.0899c-0.047 0-0.094 6e-3 -0.14109 0.0176-0.56447 0.047-1.111 0.20598-1.6402 0.47647-0.52916 0.2587-0.96433 0.54072-1.3054 0.84647-0.17639 0.16464-0.3174 0.32359-0.42324 0.47647-0.10585 0.15287-0.16497 0.29387-0.17673 0.42324v0.1409c0 0.39983 0.14733 0.72304 0.44132 0.96999 0.30577 0.24695 0.65851 0.42967 1.0584 0.54726l-5.3e-4 0.0176c0.0588 0.0118 0.11213 0.0234 0.15916 0.0351 0.047 0.0118 0.094 0.0176 0.14108 0.0176 0.29399 0 0.54062-0.12938 0.74054-0.3881 0.19992-0.25871 0.38843-0.55286 0.56483-0.88213 0.0117-0.0118 0.0176-0.0234 0.0176-0.0351 0.0117-0.0118 0.0235-0.0234 0.0352-0.0351 0.16464-0.29399 0.33521-0.5702 0.5116-0.82891 0.18816-0.25871 0.41736-0.41767 0.68783-0.47646 0.12935-0.0236 0.25293-0.041 0.37052-0.0527 0.1176-0.0235 0.23536-0.0356 0.35296-0.0356 0.28224 0 0.53468 0.0591 0.75811 0.17673 0.23519 0.1176 0.39415 0.32885 0.47647 0.6346 0.0588 0.22344 0.1 0.42939 0.12351 0.61755 0.0353 0.17639 0.0527 0.34116 0.0527 0.49403 0 0.69382-0.25825 1.111-0.77568 1.2522-0.50567 0.1411-1.0939 0.22348-1.7643 0.24702h-0.19384c-0.0823 0-0.1647 6e-3 -0.24702 0.0176h-0.22945c-0.70556 0.0353-1.3641 0.18843-1.9756 0.4589-0.61152 0.25874-0.98171 0.88189-1.1111 1.8697-0.0117 0.047-0.0181 0.094-0.0181 0.14108v0.12351c0 0.72912 0.36487 1.3639 1.094 1.9048 0.72913 0.52921 1.5698 0.80012 2.5224 0.81185 0.1176 0 0.24117-6e-3 0.37053-0.0176 0.12935 0 0.25873-6e-3 0.38809-0.0176 0.71732-0.0588 1.3759-0.24732 1.9756-0.56483 0.59975-0.32926 0.89971-0.84679 0.89971-1.5524v-5.0272c0-0.72907-0.27673-1.2994-0.82943-1.711-0.54094-0.41158-1.1525-0.72899-1.8346-0.95242-0.15286-0.0588-0.3055-0.0942-0.45837-0.10593-0.14111-0.0235-0.29426-0.0351-0.4589-0.0351zm-29.67 0.10594c-0.79966 0.0588-1.5347 0.31175-2.2051 0.75862-0.65855 0.43514-0.98807 1.0524-0.98807 1.8521l0.03514 0.75862v0.14109c0 0.0352 0.0063 0.0764 0.0181 0.1235 0.09408 0.43512 0.35233 0.83488 0.77568 1.1994 0.43508 0.36452 0.91726 0.5409 1.4465 0.52917v0.0176h0.08837c1.2231 0 2.2111 0.0644 2.9637 0.1938 0.7526 0.11759 1.1286 0.54693 1.1286 1.2878v0.12351c0 0.0353-0.0058 0.0764-0.01757 0.12351-0.07056 0.61146-0.29976 1.035-0.68783 1.2702-0.37632 0.23519-0.80566 0.35244-1.2878 0.35244h-0.24702c-0.07056-0.0118-0.14713-0.0234-0.22945-0.0351-0.30575-0.0353-0.52913-0.17048-0.67026-0.40567-0.12935-0.23519-0.24079-0.49396-0.33487-0.7762 0-0.0118-0.0058-0.0234-0.01757-0.0351 0-0.0235-0.0058-0.0473-0.01757-0.0708-0.08231-0.25872-0.18846-0.49953-0.31782-0.72296-0.1176-0.2352-0.31142-0.39996-0.58189-0.49404-0.08231-0.0235-0.17632-0.041-0.28216-0.0527-0.09408-0.0235-0.1886-0.0357-0.28268-0.0357h-0.10542c-0.03528 0-0.06485 6e-3 -0.08837 0.0176-0.30575 0.0235-0.59409 0.11753-0.86456 0.28216-0.25871 0.15288-0.40553 0.37678-0.44081 0.67077-0.01175 0.0588-0.01757 0.11742-0.01757 0.17622-0.01175 0.0588-0.01757 0.11741-0.01757 0.17622 0 0.69382 0.31739 1.2584 0.95242 1.6935 0.6468 0.42335 1.3523 0.67631 2.1167 0.75863 0.16464 0.0117 0.31778 0.0176 0.4589 0.0176 0.15287 0.0117 0.3055 0.0117 0.45838 0 0.14111-0.0117 0.28212-0.0292 0.42324-0.0527 0.14111-0.0235 0.28263-0.0531 0.42376-0.0884 0.62324-0.1764 1.1936-0.46474 1.711-0.86457 0.51743-0.41158 0.76987-0.85837 0.75811-1.3405l-0.01757-0.86405c-0.0118-0.83491-0.37616-1.4053-1.0935-1.711-0.71733-0.30577-1.5348-0.45889-2.4521-0.45889-0.1764 0-0.35279 6e-3 -0.52918 0.0176-0.1764 0-0.35279 0.0121-0.52918 0.0357-0.09408 0.0117-0.22347 0.0117-0.3881 0-0.16464-0.0235-0.33521-0.071-0.51161-0.1416-0.28223-0.0941-0.541-0.28208-0.77619-0.56432-0.22343-0.28224-0.31744-0.71157-0.28216-1.2878 0.02352-0.36455 0.21152-0.69357 0.56432-0.98756 0.36458-0.30574 0.75902-0.4705 1.1824-0.49403h0.22893c0.04704 0 0.09404 6e-3 0.14108 0.0176 0.38808 0.0588 0.66479 0.21194 0.82942 0.45889 0.17639 0.24696 0.32902 0.51734 0.45838 0.81134 0.01175 0.0118 0.01757 0.0234 0.01757 0.0351 0.01175 0.0118 0.01757 0.0234 0.01757 0.0351 0.12936 0.29399 0.28831 0.57071 0.47647 0.82942 0.18815 0.25872 0.49392 0.42929 0.91727 0.51161 0.02352 0 0.04095 6e-3 0.05271 0.0176h0.19431c0.28223 0 0.53519-0.0882 0.75862-0.26459 0.22344-0.18816 0.42307-0.41154 0.59946-0.67026 0.08232-0.10584 0.13513-0.21199 0.15865-0.31782 0.03528-0.10583 0.05323-0.21146 0.05323-0.31729-0.01177-0.44685-0.27634-0.85245-0.79376-1.217-0.50567-0.3763-1.0702-0.65302-1.6935-0.82942-0.18816-0.0588-0.38198-0.1-0.58189-0.12351-0.18816-0.0353-0.37087-0.0585-0.54726-0.0703h-0.26459zm-7.6731 0.0527c-0.85846 0.0353-1.64 0.29404-2.3456 0.77619-0.69384 0.47041-1.0471 1.129-1.0589 1.9756v4.2686c0 0.87019 0.35911 1.5583 1.0764 2.064 0.71733 0.49391 1.5111 0.78225 2.3813 0.86457h0.21136c0.08232 0.0118 0.15889 0.0176 0.22945 0.0176 0.14111 0 0.28212-6e-3 0.42324-0.0176 0.14111-0.0118 0.27631-0.0297 0.40567-0.0532 0.0588-0.0118 0.11794-0.0292 0.17674-0.0527 0.07056-0.0117 0.13499-0.0297 0.19379-0.0532 0.50567-0.15286 0.96458-0.42327 1.3762-0.81134 0.42335-0.38809 0.6346-0.79945 0.6346-1.2346 0-0.10584-0.01744-0.21199-0.05271-0.31782-0.03528-0.10583-0.08228-0.20565-0.14108-0.29973-0.04704-0.0706-0.08823-0.13499-0.12351-0.19379s-0.07066-0.1116-0.10594-0.15865c-0.11759-0.16464-0.25279-0.2882-0.40567-0.37052-0.14111-0.094-0.3645-0.13524-0.67026-0.12351h-0.45838v0.0176c-0.30574 0.0353-0.52913 0.17627-0.67026 0.42323-0.12935 0.24695-0.24131 0.51153-0.33539 0.79377-0.08231 0.29399-0.18794 0.56439-0.3173 0.81133-0.12935 0.24693-0.34693 0.39427-0.65268 0.44133-0.11759 0.0117-0.23536 0.0292-0.35296 0.0527-0.11759 0.0117-0.22954 0.0176-0.33539 0.0176-0.14111 0-0.28212-0.0174-0.42324-0.0527-0.14112-0.0353-0.28212-0.10604-0.42324-0.21188-0.07056-0.047-0.14132-0.10566-0.21188-0.17622-0.07056-0.0706-0.1408-0.14713-0.21136-0.22945-0.11759-0.14112-0.20579-0.31168-0.26459-0.5116-0.04704-0.19991-0.0708-0.40536-0.0708-0.61703 0-0.37631 0.08819-0.71747 0.26459-1.0232 0.17639-0.31749 0.42935-0.48807 0.75862-0.5116l2.7518-0.15865c0.70557-0.047 1.2876-0.31742 1.7462-0.81134 0.47038-0.50566 0.71172-1.1114 0.72348-1.817 0.02352-0.81145-0.30601-1.4467-0.98807-1.9054-0.67027-0.47039-1.417-0.73496-2.2402-0.79377-0.0588-0.0117-0.11742-0.0176-0.17622-0.0176h-0.24702zm-20.198 0.045c-0.8114 0.0235-1.5523 0.27066-2.2226 0.74105-0.67033 0.45867-1.0056 1.0818-1.0056 1.8697l0.01757 9.0141 0.01757 0.10593c0 0.37631 0.14733 0.67576 0.44133 0.89919 0.294 0.23522 0.623 0.3588 0.98756 0.37053h0.05323c0.36455 0 0.69356-0.11144 0.98756-0.33487 0.30575-0.21168 0.45889-0.50003 0.45889-0.86457v-1.4992c0-0.0706 0.0058-0.13551 0.01757-0.19431s0.035-0.11741 0.07028-0.17621c0.04704-0.0588 0.10618-0.1 0.17673-0.12351 0.07056-0.0235 0.14713-0.0351 0.22945-0.0351h0.84648c0.36455 0 0.68775-0.0354 0.96999-0.10594 0.28223-0.0706 0.55895-0.19413 0.82942-0.37053 0.04704-0.0353 0.09404-0.0707 0.14108-0.10594 0.0588-0.0352 0.11742-0.0764 0.17622-0.12351 0.04704-0.0353 0.08823-0.0707 0.12351-0.10594 0.03528-0.0353 0.07066-0.0702 0.10594-0.10542 0.25871-0.22343 0.45834-0.45896 0.59946-0.70591 0.15288-0.24695 0.22945-0.55854 0.22945-0.93485v-4.6742c0-0.74089-0.30577-1.2996-0.91728-1.6759-0.61153-0.37631-1.2875-0.62926-2.0283-0.75862-0.18816-0.0353-0.37617-0.0585-0.56432-0.0703-0.18816-0.0236-0.37087-0.0357-0.54726-0.0357h-0.10542zm8.1139 0c-0.8114 0.0235-1.5523 0.27066-2.2226 0.74105-0.67034 0.45867-1.0056 1.0818-1.0056 1.8697l0.0181 9.0141 0.01757 0.10593c0 0.37631 0.14682 0.67576 0.44081 0.89919 0.29399 0.23522 0.62352 0.3588 0.98807 0.37053h0.05271c0.36456 0 0.69408-0.11144 0.98807-0.33487 0.30575-0.21168 0.45838-0.50003 0.45838-0.86457v-1.4992c0-0.0706 0.0058-0.13551 0.01757-0.19431 0.01175-0.0588 0.03552-0.11741 0.0708-0.17621 0.04704-0.0588 0.10566-0.1 0.17622-0.12351 0.07056-0.0235 0.14713-0.0351 0.22945-0.0351h0.84648c0.36455 0 0.68827-0.0354 0.9705-0.10594 0.28223-0.0706 0.55844-0.19413 0.82891-0.37053 0.04704-0.0353 0.09404-0.0707 0.14108-0.10594 0.0588-0.0352 0.11742-0.0764 0.17622-0.12351 0.04704-0.0353 0.08823-0.0707 0.12351-0.10594 0.03528-0.0353 0.07066-0.0702 0.10594-0.10542 0.25871-0.22343 0.45885-0.45896 0.59998-0.70591 0.15287-0.24695 0.22893-0.55854 0.22893-0.93485h5.3e-4v-4.6742c0-0.74089-0.30577-1.2996-0.91728-1.6759-0.61153-0.37631-1.288-0.62926-2.0289-0.75862-0.18816-0.0353-0.37616-0.0585-0.56432-0.0703-0.18816-0.0236-0.37036-0.0357-0.54675-0.0357h-0.10595zm-54.096 0.0894a0.7856 0.7856 0 0 0-0.77826 0.7855 0.7856 0.7856 0 0 0 0.7855 0.78549 0.7856 0.7856 0 0 0 0.7855-0.78549 0.7856 0.7856 0 0 0-0.7855-0.7855 0.7856 0.7856 0 0 0-0.00723 0zm121.41 0.724h0.1587c0.50566 0.047 0.89331 0.27675 1.1638 0.68834 0.28224 0.39983 0.42375 0.84661 0.42375 1.3405v4.1626c0 0.47036-0.17638 0.86434-0.52917 1.1819-0.34101 0.31751-0.74713 0.47647-1.2175 0.47647-0.48214 0-0.89936-0.17057-1.2522-0.51161-0.35279-0.34102-0.52917-0.75823-0.52917-1.2521l-0.0176-4.375c0-0.48213 0.18219-0.88773 0.54674-1.217 0.36454-0.32928 0.78227-0.49404 1.2527-0.49404zm-53.91 0.14728c0.16464 0 0.3294 0.0291 0.49404 0.0879 0.17639 0.047 0.34116 0.13524 0.49404 0.26459 0.22343 0.16464 0.38768 0.36479 0.49352 0.59998s0.15917 0.48815 0.15917 0.75862c0 0.19992-0.02957 0.39956-0.08837 0.59946-0.05879 0.19992-0.14699 0.38792-0.26459 0.56431-0.12936 0.19991-0.3295 0.35888-0.59998 0.47647-0.25871 0.10586-0.53491 0.17662-0.82891 0.21188-0.09407 0.0118-0.18227 0.0234-0.26459 0.0351h-0.24702c-0.29399 0-0.55276-0.0296-0.77619-0.0884-0.22343-0.0705-0.32906-0.16456-0.3173-0.28216v-0.0352l-0.01757-0.0176v-0.0532c-0.01175-0.0588-0.02339-0.12905-0.03514-0.21136v-0.31782c0-0.14112 0.0058-0.28794 0.01757-0.44081 0.01177-0.16464 0.02919-0.32939 0.05271-0.49403 0.05879-0.31751 0.1528-0.61166 0.28216-0.88214 0.14112-0.28224 0.33545-0.47605 0.58241-0.58188 0.15288-0.0588 0.29969-0.10581 0.44081-0.14108 0.14111-0.0353 0.28212-0.0527 0.42324-0.0527zm-22.017 0.0264c0.40001 0.0167 0.75952 0.16401 1.0785 0.44185 0.37631 0.30576 0.56484 0.68809 0.56484 1.1467l0.01757 4.4096c0 0.50566-0.17638 0.95296-0.52918 1.341-0.35283 0.38807-0.77632 0.58189-1.2702 0.58189h-0.05271c-0.01175 0-0.02389-6e-3 -0.03566-0.0176h-0.08785c-0.47039-0.0588-0.84111-0.27639-1.1116-0.65268-0.25872-0.37632-0.3881-0.80567-0.3881-1.2878l0.03514-4.3569 5.29e-4 0.0176c0-0.44685 0.15844-0.82341 0.47595-1.1292 0.31749-0.30574 0.69404-0.46999 1.1292-0.49352 0.0588-3e-3 0.11649-3e-3 0.17364-1e-3zm8.1144 0c0.40001 0.0167 0.75952 0.16401 1.0785 0.44185 0.37631 0.30576 0.56432 0.68809 0.56432 1.1467l0.01757 4.4096c0 0.50566-0.17638 0.95296-0.52918 1.341-0.35283 0.38807-0.77632 0.58189-1.2702 0.58189h-0.05271c-0.01177 0-0.02389-6e-3 -0.03566-0.0176h-0.08785c-0.47039-0.0588-0.84111-0.27639-1.1116-0.65268-0.25871-0.37632-0.3881-0.80567-0.3881-1.2878l0.03566-4.3394c0-0.44684 0.15895-0.8234 0.47646-1.1292 0.31749-0.30574 0.69353-0.46998 1.1286-0.49352 0.0588-3e-3 0.11701-3e-3 0.17415-1e-3zm-18.131 0.58861h0.03566l0.01757 0.0176h0.03514c0.12936 0.0235 0.21755 0.0821 0.26459 0.17622 0.0588 0.0941 0.11161 0.20022 0.15865 0.31782v0.0351c0.01175 0.0118 0.01757 0.0234 0.01757 0.0351 0.01177 0.0235 0.0181 0.0473 0.0181 0.0708 0.01175 0.0235 0.02339 0.041 0.03514 0.0527l1.1111 2.5405c0.02352 0.0588 0.04147 0.12323 0.05323 0.19379 0.01175 0.0588 0.01757 0.11742 0.01757 0.17622 0 0.047-0.0058 0.10036-0.01757 0.15917-0.01177 0.047-0.02971 0.0999-0.05323 0.15865-0.04704 0.0823-0.11728 0.15256-0.21136 0.21135-0.09407 0.0471-0.19441 0.0766-0.30024 0.0884-0.02352 0.0117-0.04676 0.0176-0.07028 0.0176-0.01175 0-0.02971-6e-3 -0.05323-0.0176h-2.1518c-0.10584 0-0.19403-0.0354-0.26459-0.10593-0.0588-0.0823-0.11161-0.16469-0.15865-0.24702 0-0.0117-0.0058-0.0176-0.01757-0.0176v-0.0352c-0.02352-0.0588-0.04147-0.11741-0.05323-0.17621-0.01175-0.0588-0.01757-0.11794-0.01757-0.17674v-0.10594c0.01175-0.0353 0.01757-0.0759 0.01757-0.12299 0.01177-0.0353 0.02389-0.0707 0.03566-0.10594 0.01177-0.0353 0.02339-0.0764 0.03514-0.12351l0.84648-2.1699v0.0181c0.01175-0.0471 0.02389-0.0883 0.03566-0.12351 0.02352-0.047 0.04095-0.094 0.05271-0.14107 0.0588-0.15289 0.12956-0.28859 0.21188-0.40619 0.09407-0.12935 0.21713-0.19379 0.37001-0.19379zm111.57 0.0233a0.7856 0.7856 0 0 0-0.7855 0.78601 0.7856 0.7856 0 0 0 0.7855 0.7855 0.7856 0.7856 0 0 0 0.78601-0.7855 0.7856 0.7856 0 0 0-0.78601-0.78601zm-15.127 0.56018a0.7856 0.7856 0 0 0-0.77826 0.7855 0.7856 0.7856 0 0 0 0.7855 0.78601 0.7856 0.7856 0 0 0 0.78549-0.78601 0.7856 0.7856 0 0 0-0.78549-0.7855 0.7856 0.7856 0 0 0-7e-3 0zm-115.29 2.08a0.7856 0.7856 0 0 0-0.77826 0.78549 0.7856 0.7856 0 0 0 0.7855 0.7855 0.7856 0.7856 0 0 0 0.78601-0.7855 0.7856 0.7856 0 0 0-0.78601-0.78549 0.7856 0.7856 0 0 0-0.0072 0zm8.5046 0a0.7856 0.7856 0 0 0-0.77826 0.78549 0.7856 0.7856 0 0 0 0.78549 0.7855 0.7856 0.7856 0 0 0 0.7855-0.7855 0.7856 0.7856 0 0 0-0.7855-0.78549 0.7856 0.7856 0 0 0-0.0072 0zm78.122 0.97257c0.27047 0 0.506 0.047 0.70591 0.14108 0.19992 0.0941 0.29973 0.24722 0.29973 0.45889v0.0527c-0.0118 0.0118-0.0176 0.0234-0.0176 0.0351v0.0181c0.0588 0.0118 0.1 0.0646 0.12351 0.15865 0.0353 0.0941 0.0527 0.21765 0.0527 0.37053 0 0.10583-6e-3 0.21726-0.0176 0.33487-0.0117 0.1176-0.0355 0.23536-0.0708 0.35295-0.047 0.19992-0.11727 0.39374-0.21136 0.58189-0.0823 0.18815-0.18845 0.33549-0.31781 0.44133v0.0176c-0.14112 0.12936-0.29374 0.24079-0.45838 0.33487-0.16463 0.0941-0.3294 0.16482-0.49404 0.21188-0.0588 0.0118-0.11742 0.0234-0.17622 0.0351h-0.15865c-0.1176 0-0.22954-0.0116-0.33538-0.0351-0.10583-0.0353-0.21146-0.0881-0.3173-0.15865-0.36455-0.25871-0.62913-0.51167-0.79377-0.75862-0.15287-0.25872-0.22945-0.50005-0.22945-0.72349 0-0.30575 0.0998-0.58776 0.29973-0.84647 0.21167-0.27048 0.45302-0.49387 0.72349-0.67026 0.12935-0.0823 0.27617-0.14724 0.44081-0.19431 0.16464-0.0588 0.3352-0.1 0.5116-0.12351 0.0823-0.0117 0.15889-0.0176 0.22945-0.0176 0.0706-0.0117 0.1408-0.0176 0.21136-0.0176zm-96.265 0.16743a0.7856 0.7856 0 0 0-0.77826 0.7855 0.7856 0.7856 0 0 0 0.7855 0.78549 0.7856 0.7856 0 0 0 0.78601-0.78549 0.7856 0.7856 0 0 0-0.78601-0.7855 0.7856 0.7856 0 0 0-0.0072 0zm133.61 1.51a0.7856 0.7856 0 0 0-0.77826 0.78549 0.7856 0.7856 0 0 0 0.78549 0.7855 0.7856 0.7856 0 0 0 0.7855-0.7855 0.7856 0.7856 0 0 0-0.7855-0.78549 0.7856 0.7856 0 0 0-7e-3 0zm-59.341 0.94001a0.7856 0.7856 0 0 0-0.77826 0.78549 0.7856 0.7856 0 0 0 0.7855 0.7855 0.7856 0.7856 0 0 0 0.7855-0.7855 0.7856 0.7856 0 0 0-0.7855-0.78549 0.7856 0.7856 0 0 0-0.0072 0zm71.441 0.94983a0.7856 0.7856 0 0 0-0.77826 0.78601 0.7856 0.7856 0 0 0 0.7855 0.7855 0.7856 0.7856 0 0 0 0.78549-0.7855 0.7856 0.7856 0 0 0-0.78549-0.78601 0.7856 0.7856 0 0 0-7e-3 0zm-84.67 1.8904a0.7856 0.7856 0 0 0-0.77826 0.7855 0.7856 0.7856 0 0 0 0.7855 0.78549 0.7856 0.7856 0 0 0 0.7855-0.78549 0.7856 0.7856 0 0 0-0.7855-0.7855 0.7856 0.7856 0 0 0-0.0072 0zm55.37 1.51a0.7856 0.7856 0 0 0-0.77826 0.7855 0.7856 0.7856 0 0 0 0.7855 0.7855 0.7856 0.7856 0 0 0 0.78601-0.7855 0.7856 0.7856 0 0 0-0.78601-0.7855 0.7856 0.7856 0 0 0-7e-3 0zm-99.964 0.27958a0.7856 0.7856 0 0 0-0.7855 0.78601 0.7856 0.7856 0 0 0 0.7855 0.7855 0.7856 0.7856 0 0 0 0.7855-0.7855 0.7856 0.7856 0 0 0-0.7855-0.78601zm74.265 0.10025a0.7856 0.7856 0 0 0-0.77826 0.7855 0.7856 0.7856 0 0 0 0.7855 0.7855 0.7856 0.7856 0 0 0 0.78549-0.7855 0.7856 0.7856 0 0 0-0.78549-0.7855 0.7856 0.7856 0 0 0-7e-3 0zm-96.951 0.57a0.7856 0.7856 0 0 0-0.77878 0.7855 0.7856 0.7856 0 0 0 0.78601 0.7855 0.7856 0.7856 0 0 0 0.7855-0.7855 0.7856 0.7856 0 0 0-0.7855-0.7855 0.7856 0.7856 0 0 0-0.00723 0zm31.183 0.17984a0.7856 0.7856 0 0 0-0.77826 0.7855 0.7856 0.7856 0 0 0 0.7855 0.78601 0.7856 0.7856 0 0 0 0.78601-0.78601 0.7856 0.7856 0 0 0-0.78601-0.7855 0.7856 0.7856 0 0 0-0.0072 0zm43.089 0a0.7856 0.7856 0 0 0-0.77826 0.7855 0.7856 0.7856 0 0 0 0.7855 0.78601 0.7856 0.7856 0 0 0 0.7855-0.78601 0.7856 0.7856 0 0 0-0.7855-0.7855 0.7856 0.7856 0 0 0-0.0072 0zm66.718 0a0.7856 0.7856 0 0 0-0.77826 0.7855 0.7856 0.7856 0 0 0 0.7855 0.78601 0.7856 0.7856 0 0 0 0.78549-0.78601 0.7856 0.7856 0 0 0-0.78549-0.7855 0.7856 0.7856 0 0 0-7e-3 0zm-29.865 0.76018a0.7856 0.7856 0 0 0-0.77878 0.78549 0.7856 0.7856 0 0 0 0.78601 0.7855 0.7856 0.7856 0 0 0 0.7855-0.7855 0.7856 0.7856 0 0 0-0.7855-0.78549 0.7856 0.7856 0 0 0-7e-3 0zm-97.518 0.57a0.7856 0.7856 0 0 0-0.77826 0.78549 0.7856 0.7856 0 0 0 0.7855 0.7855 0.7856 0.7856 0 0 0 0.7855-0.7855 0.7856 0.7856 0 0 0-0.7855-0.78549 0.7856 0.7856 0 0 0-0.0072 0zm32.601 0.0899a0.7856 0.7856 0 0 0-0.77826 0.7855 0.7856 0.7856 0 0 0 0.78549 0.78601 0.7856 0.7856 0 0 0 0.7855-0.78601 0.7856 0.7856 0 0 0-0.7855-0.7855 0.7856 0.7856 0 0 0-0.0072 0zm11.245 0.47026a0.7856 0.7856 0 0 0-0.77826 0.7855 0.7856 0.7856 0 0 0 0.78549 0.7855 0.7856 0.7856 0 0 0 0.7855-0.7855 0.7856 0.7856 0 0 0-0.7855-0.7855 0.7856 0.7856 0 0 0-0.0072 0zm27.214 0.57a0.7856 0.7856 0 0 0-0.77826 0.7855 0.7856 0.7856 0 0 0 0.7855 0.7855 0.7856 0.7856 0 0 0 0.7855-0.7855 0.7856 0.7856 0 0 0-0.7855-0.7855 0.7856 0.7856 0 0 0-0.0072 0zm21.733 0.37983a0.7856 0.7856 0 0 0-0.77826 0.7855 0.7856 0.7856 0 0 0 0.7855 0.7855 0.7856 0.7856 0 0 0 0.7855-0.7855 0.7856 0.7856 0 0 0-0.7855-0.7855 0.7856 0.7856 0 0 0-7e-3 0zm25.32 0.19018a0.7856 0.7856 0 0 0-0.77877 0.78549 0.7856 0.7856 0 0 0 0.78601 0.7855 0.7856 0.7856 0 0 0 0.7855-0.7855 0.7856 0.7856 0 0 0-0.7855-0.78549 0.7856 0.7856 0 0 0-7e-3 0zm23.25 0.37982a0.7856 0.7856 0 0 0-0.77826 0.7855 0.7856 0.7856 0 0 0 0.78549 0.7855 0.7856 0.7856 0 0 0 0.7855-0.7855 0.7856 0.7856 0 0 0-0.7855-0.7855 0.7856 0.7856 0 0 0-7e-3 0z" fill="#2A4C44"/></svg>
