<?xml version="1.0" encoding="UTF-8"?>
<svg width="42" height="42" version="1.1" viewBox="0 0 42 42" xml:space="preserve" xmlns="http://www.w3.org/2000/svg"><path d="m7 0c-3.8543 0-7 3.1457-7 7v28c0 3.8543 3.1457 7 7 7h28c3.8543 0 7-3.1457 7-7v-28c0-3.8543-3.1457-7-7-7zm0 2h28c2.7737 0 5 2.2263 5 5v28c0 2.7737-2.2263 5-5 5h-28c-2.7737 0-5-2.2263-5-5v-28c0-0.17335 0.00841-0.345 0.025391-0.51367 0.25475-2.53 2.3743-4.4863 4.9746-4.4863zm7.1797 4.1465c-1.1 0-2.0319 0.24061-2.7949 0.72461s-1.3851 1.1128-1.8691 1.8828-0.83664 1.631-1.0566 2.584-0.33008 1.9054-0.33008 2.8594c0 0.983 0.08767 1.9485 0.26367 2.8945 0.176 0.946 0.49227 1.793 0.94727 2.541 0.454 0.748 1.0612 1.3525 1.8242 1.8145 0.763 0.462 1.7248 0.69336 2.8828 0.69336 0.806 0 1.5392-0.14369 2.1992-0.42969 0.66-0.286 1.2281-0.6815 1.7051-1.1875s0.84456-1.1012 1.1016-1.7832 0.38477-1.4189 0.38477-2.2109c0-0.616-0.09516-1.2242-0.28516-1.8262-0.191-0.601-0.49234-1.1365-0.90234-1.6055-0.44-0.484-0.97447-0.8683-1.6055-1.1543-0.63-0.286-1.2775-0.42969-1.9375-0.42969-0.748 0-1.4065 0.13248-1.9785 0.39648-0.571 0.264-1.0711 0.70431-1.4961 1.3203l-0.04492-0.04492c0.015-0.425 0.07373-0.90817 0.17773-1.4512 0.102-0.543 0.26242-1.0523 0.48242-1.5293 0.221-0.477 0.51858-0.88094 0.89258-1.2109s0.83848-0.49414 1.3965-0.49414c0.543 0 0.99628 0.19127 1.3633 0.57227 0.366 0.382 0.60112 0.8288 0.70312 1.3418h2.9707c-0.088-0.689-0.27278-1.2982-0.55078-1.8262-0.279-0.528-0.63617-0.97008-1.0762-1.3301-0.44-0.359-0.94853-0.63617-1.5195-0.82617-0.573-0.19-1.1877-0.28516-1.8477-0.28516zm13.859 0.30664-6.6875 8.9766v2.8594h6.5117v3.5645h2.9707v-3.5645h2.0469v-2.5723h-2.0469v-9.2637zm-0.24023 3.916h0.06641v5.3477h-4.0488zm-13.84 3.498c0.397 0 0.74492 0.08491 1.0449 0.25391 0.3 0.169 0.54533 0.38916 0.73633 0.66016 0.191 0.272 0.33369 0.57883 0.42969 0.92383s0.14453 0.70041 0.14453 1.0664c0 0.352-0.0513 0.69716-0.1543 1.0352-0.103 0.338-0.25789 0.63639-0.46289 0.90039-0.206 0.264-0.45033 0.47667-0.73633 0.63867-0.286 0.161-0.619 0.24219-1 0.24219-0.396 0-0.74864-0.08119-1.0566-0.24219-0.308-0.161-0.56925-0.37644-0.78125-0.64844-0.213-0.271-0.37438-0.57883-0.48438-0.92383-0.109-0.344-0.16406-0.69292-0.16406-1.0449 0-0.381 0.0513-0.74484 0.1543-1.0898 0.103-0.345 0.25594-0.64811 0.46094-0.91211s0.46625-0.47295 0.78125-0.62695c0.316-0.154 0.67789-0.23242 1.0879-0.23242zm-0.75 12.285v9.9961h1.8906v-0.92383h0.02734c0.215 0.401 0.53117 0.68552 0.95117 0.85352s0.89673 0.25195 1.4277 0.25195c0.364 0 0.72312-0.07561 1.0781-0.22461 0.355-0.149 0.67498-0.37755 0.95898-0.68555 0.285-0.308 0.51536-0.70259 0.69336-1.1836 0.177-0.481 0.26562-1.0518 0.26562-1.7148s-0.08863-1.2348-0.26562-1.7148c-0.177-0.481-0.40836-0.87559-0.69336-1.1836-0.284-0.308-0.60498-0.53655-0.95898-0.68555s-0.71412-0.22266-1.0781-0.22266c-0.447 0-0.87992 0.08481-1.2949 0.25781-0.415 0.173-0.74433 0.44731-0.98633 0.82031h-0.02734v-3.6406zm8.6094 0v1.6367h1.9883v-1.6367zm4.0879 0.58789v2.1699h-1.2051v1.3301h1.2051v4.2695c0 0.364 0.06064 0.65881 0.18164 0.88281 0.121 0.224 0.28805 0.39558 0.49805 0.51758 0.21 0.121 0.45352 0.20214 0.72852 0.24414 0.274 0.042 0.566 0.06445 0.875 0.06445 0.196 0 0.39656-0.0066 0.60156-0.01563 0.206-0.01 0.39255-0.02669 0.56055-0.05469v-1.541c-0.094 0.019-0.18997 0.03397-0.29297 0.04297s-0.21127 0.01367-0.32227 0.01367c-0.336 0-0.56088-0.05597-0.67188-0.16797-0.112-0.112-0.16797-0.33588-0.16797-0.67188v-3.584h1.4551v-1.3301h-1.457v-2.1699zm-4.0879 2.1699v7.2383h1.9883v-7.2383zm-4.998 1.3027c0.299 0 0.55367 0.0615 0.76367 0.1875s0.38439 0.29672 0.52539 0.51172c0.14 0.215 0.24359 0.46219 0.30859 0.74219s0.09766 0.57286 0.09766 0.88086c0 0.299-0.03266 0.58914-0.09766 0.86914-0.066 0.28-0.16859 0.52719-0.30859 0.74219s-0.31539 0.38377-0.52539 0.50977-0.46467 0.18945-0.76367 0.18945c-0.29 0-0.54186-0.06345-0.75586-0.18945-0.215-0.126-0.39125-0.29477-0.53125-0.50977s-0.24459-0.46219-0.30859-0.74219c-0.066-0.28-0.09766-0.57014-0.09766-0.86914 0-0.308 0.03266-0.60086 0.09766-0.88086s0.16959-0.52719 0.30859-0.74219 0.31625-0.38572 0.53125-0.51172c0.214-0.126 0.46586-0.1875 0.75586-0.1875z"/></svg>
