<?xml version="1.0" encoding="UTF-8"?>
<svg width="157.34" height="98.984" version="1.1" viewBox="0 0 157.34 98.984" xml:space="preserve" xmlns="http://www.w3.org/2000/svg"><path transform="matrix(.13333 0 0 -.13333 -17.517 270.86)" d="m262.47 2031.4c-84.512-104.51-131.09-236.25-131.09-370.96 0-134.86 46.768-266.73 131.57-371.43l42.891 34.717c-76.875 94.89-119.3 214.49-119.3 336.71 0 122.17 42.212 241.56 118.81 336.21zm917.84 0-42.891-34.746c76.58-94.65 118.73-214.04 118.73-336.21 0-122.22-42.344-241.82-119.19-336.71l42.832-34.717c84.82 104.7 131.62 236.57 131.62 371.43 0 134.71-46.579 266.45-131.09 370.96zm-836.81-65.405c-69.57-86.06-107.86-194.53-107.86-305.55 0-110.99 38.418-219.49 108.16-305.64l42.759 34.702c-61.817 76.35-95.918 172.54-95.918 270.94 0 98.44 33.971 194.59 95.728 270.84zm755.71 0-42.817-34.717c61.64-76.25 95.654-172.4 95.654-270.84 0-98.4-34.068-194.59-95.918-270.94l42.847-34.702c69.78 86.15 108.18 194.65 108.18 305.64 0 111.02-38.394 219.49-107.94 305.55zm-377.84-56.44c-137.32 0-249.02-111.71-249.02-249.11 0-137.3 111.7-249.07 249.02-249.07 137.34 0 249.02 111.77 249.02 249.07 0 137.4-111.68 249.11-249.02 249.11zm-295.61-9.5655c-54.629-67.48-84.785-152.54-84.785-239.55 0-87.07 30.221-172.34 85.063-239.79l42.803 34.834c-46.953 57.66-72.744 130.45-72.744 204.96 0 74.44 25.693 147.19 72.51 204.79zm591.24 0-42.803-34.761c46.682-57.6 72.393-130.35 72.393-204.79 0-74.51-25.836-147.3-72.7-204.96l42.744-34.834c54.93 67.46 85.181 152.72 85.181 239.79 0 87.01-30.134 172.07-84.814 239.55zm-295.63-43.257c108.2 0 196.22-88.029 196.22-196.29 0-108.24-88.012-196.23-196.22-196.23-108.2 0-196.33 87.99-196.33 196.23 0 108.26 88.13 196.29 196.33 196.29z"/></svg>
