<?xml version="1.0" encoding="UTF-8"?>
<svg width="185.6" height="160.6" version="1.1" viewBox="0 0 185.6 160.6" xml:space="preserve" xmlns="http://www.w3.org/2000/svg"><path d="m92.699 0-40 69.301c1.2-0.1 2.3-0.20117 3.5-0.20117h9.8008c-1 3.8-1.5996 7.7008-1.5996 11.801v11.799h-8.2012c-9.1 0-16.5 7.4-16.5 16.5 0.1 9.1 7.5016 16.5 16.602 16.5s16.5-7.4 16.5-16.5v-28.299c0-22.1 18-40.1 40.1-40.1 1.2 0 2.4 0.099219 3.5 0.19922l-23.701-41zm20.201 64.4c-9.1 0-16.5 7.4-16.5 16.5v28.299c0 22.1-18 40.102-40.1 40.102-16.1 0-30-9.5012-36.4-23.201l-19.9 34.5h185.6l-36.299-62.799c-6.4 13.7-20.3 23.199-36.4 23.199h-9.8008c1-3.8 1.5996-7.7008 1.5996-11.801v-11.799h8.2012c9.1 0 16.5-7.4 16.5-16.5s-7.4-16.5-16.5-16.5z"/></svg>
