<?xml version="1.0" encoding="UTF-8"?>
<svg width="5240.3" height="2797.8" version="1.1" viewBox="300 0 5240.3 2797.8" xml:space="preserve" xmlns="http://www.w3.org/2000/svg"><path d="m4001 0c-57.7 0-62.701 2-94.701 33-48 47-82 48-330 13-172-25-244-30-432-34-393-9-623 30-797 134-71 42-162 121-170 148-6 16-16 17-176 17h-170l3 30 3 29.301 69 2.6992c84 3.7 163 16.601 179 30.201 22 18.5 14 58.8-22 110-56 78.9-415 545-423 547.7-5.3 1.8-94.299-105.5-406.3-491.7-55-67-99-129.5-99-139.5 0-30 37.4-45.8 120-51 149.6-9 155-10 155-41v-26h-1110v26c0 25 3 26 49 32 114 14 164 27 198 52 20 13 222 246 452 516l416 490h91l303-396c467-610 473-617 564-639 55-14 184-27 184-18 0 3-35 10-78 16-126 17-166 40-258 151l-19 24 29 28c63 60 248 139 468 199 46 12 210 51 364 87 441 101 548 142 590 223 24 49 15 90-34 139-76 76-180 111-374 125-295.5 21.1-584.3-35.8-764.3-151.4-93.5-59.5-177-148.5-223.8-239.5-19.3-36.6-22.9-38.5-72.5-44-28.4-3.6-63.3-8.2-77-11l-25.701-5.5v267l-0.1-2.5996v267h78c69 0 79-2 87-19 31.5-57 106.5-66 284.5-36 238 42 341.3 50 592 49 469.7-2 730.3-61 936.7-217 102-76 145-164 125-253-29.4-126-167.9-227-416.4-303-83.3-26-83.901-27-84.301-42-0.4-8 6.5996-24 9.5996-32 16.7-46 44.4-79 92-123l81-75.301-42-36.6-40-38.4-45-38.6s-22-1-57 0h-88v166.2c0 91-1.7996 167-4.5996 170-5 4.3-58-7.6001-445-99-426.3-101-507.3-139-519.3-240-17-129 214-215 537-202 304 13 519 99 691 273 44.7 46 80 86.4 80 92 0 5.6 27.602 9 64.602 9h64l2.7988-76c2-42 2-143 0-225l-2.4004-150zm384.25 284.88c-123.05-0.125-217.4 0.125-291.15 1.125 1.5 41.6 0.8 16.101 0 68.801l216.8 2.6992v427.5c0 267.9-3.6 441.3-9 463.3-7.4 27.6-17.5 39.499-46 54.199-36.7 18.3-123.8 34.8-211 38.5-47.7 2.8-50.301 3.7004-53.301 28.4-1.7 14.7-0.8 32.1 2 39.4l-0.5996-2.9004c4 11 89 13 576 11l572-3 3-37.199 2.6992-39-112.8-4c-124.8-3-176.2-20-197.2-62-9.2-17-12-133-12-471v-449l112 7c213.7 13 348.7 54 425.7 133 34.8 34 77 106 77 130 0 5 22.9 10 50.5 10h50.398l-1.6992-171-3-172-687-2.7012c-188.55-0.5-340.3-1-463.35-1.125zm-1970.6 1603.8-649.6 1-121 154c-334.2 423.85-567.93 724.78-578.76 744.68 31.163 3.6511 305.38 6.3242 640.66 6.3242h646l85-110 86-110h534l38-48 38-49-260-3c-144-1-261-4-261-6s48-64 106-137l106-133h531l37.6-45c21.2-24 37.699-47 37.699-50 0-2-115.6-5-256.8-5-175.3 0-257-3-257-10 0-5 33-51 73.4-100 40.4-49 73.398-92 73.398-95 0-2-291.6-5-648.6-5zm-1349.4 899.68c-1.926-0.2257-6.1426-0.443-6.1426-0.6758l4.0996 3.6992c0-0.1496 1.7838-2.547 2.043-3.0234zm3042-898.48-745.8 1-47.701 64c-26.7 34-48.699 65-48.699 68s143.2 5 317.5 5c198.1 0 315.7 4 313.7 9-0.9 5-44.899 62-97.199 128l-94.5 120h-549.5l-90 114 269.8 3c148.7 1 269.7 5 269.7 7 0 1.8-44.199 59.5-98.199 127.5l-97.301 123.8h-322l-322 1-45.801 61.299c-24.8 34-46.8 64.3-48.6 68h-0.1c-1.8 4.6 328.5 7.3008 734 7.3008h737.5l330.4-418.9c180.7-230 341.2-435 355-454l26.6-35z"/></svg>
