<?xml version="1.0" encoding="UTF-8"?>
<svg width="170" height="150" version="1.1" viewBox="0 0 170 150" xml:space="preserve" xmlns="http://www.w3.org/2000/svg"><path d="m66.004-0.0078125c-8.3976 0.1418-18.392 2.2707-30.805 7.4082l-16.199 56.4c13.1-5.4 23.499-7.9008 32.199-7.8008a53.9 53.9 0 0 1 31 11.301l16.301-56.201c-8.9375-6.0625-18.5-11.344-32.496-11.107zm40.797 17.107-16 56.4c14.3 9.7 31.499 17.7 63.199 3.5l16.301-56.301h-0.30078c-33 13.7-48.999 6.0004-63.199-3.5996zm-59.84 49.268c-8.4006 0.12715-18.387 2.232-30.762 7.332l-16.199 56.602c33-13.7 48.7-5.7016 63 3.8984l16.5-56.699c-8.9375-6.0625-18.538-11.345-32.539-11.133zm41.039 16.633c0.027773 0.018516 0.0562 0.036186 0.083984 0.054688l0.015625-0.054688h-0.099609zm0.083984 0.054688-16.283 56.045c14.3 9.7 30.199 17.401 63.199 3.7012l16.301-56.201c-32.936 13.674-48.839 6.0292-63.217-3.5449z"/></svg>
