<?xml version="1.0" encoding="UTF-8"?>
<svg width="100mm" height="100mm" version="1.1" viewBox="0 0 100 100" xmlns="http://www.w3.org/2000/svg"><path d="m46.693 5.4126e-4a4 4 0 0 0-0.41806 0.015 4 4 0 0 0-3.6349 4.3336l1.156 13.156a4 4 0 0 0 4.3341 3.6349 4 4 0 0 0 3.6349-4.3341l-1.1565-13.156a4 4 0 0 0-3.9155-3.6494zm31.116 8.306a4 4 0 0 0-0.894 0.0548 4 4 0 0 0-2.5843 1.6402l-7.9256 11.286a4 4 0 0 0 0.97462 5.5718 4 4 0 0 0 5.5723-0.9741l7.9256-11.286a4 4 0 0 0-0.97462-5.5723 4 4 0 0 0-2.0939-0.72037zm-60.261 5.2477a4 4 0 0 0-2.8262 1.1777 4 4 0 0 0 0.01188 5.6565l9.17 9.1348a4 4 0 0 0 5.6581-0.0103 4 4 0 0 0-0.01189-5.656l-9.1715-9.1369a4 4 0 0 0-2.8303-1.1658zm32.453 16.571c-10.929 0-19.875 8.9455-19.875 19.875 0 10.929 8.946 19.875 19.875 19.875s19.875-8.946 19.875-19.875c0-10.929-8.9455-19.875-19.875-19.875zm45.861 4.4504a4 4 0 0 0-0.88626 0.13178l-13.978 3.7088a4 4 0 0 0-2.8396 4.8906 4 4 0 0 0 4.8907 2.8417l13.978-3.7088a4 4 0 0 0 2.8417-4.8906 4 4 0 0 0-4.0065-2.9735zm-45.861 3.5497c6.6057 0 11.875 5.269 11.875 11.875 0 6.6057-5.269 11.875-11.875 11.875-6.6057 0-11.875-5.2695-11.875-11.875 0-6.6058 5.2695-11.875 11.875-11.875zm-46.081 4.4979a4 4 0 0 0-3.9057 3.6623 4 4 0 0 0 3.6489 4.3243l13.158 1.1152a4 4 0 0 0 4.3243-3.6468 4 4 0 0 0-3.6484-4.3243l-13.158-1.1167a4 4 0 0 0-0.41858-0.014zm75.754 17.571a4 4 0 0 0-1.3193 0.23823 4 4 0 0 0-2.2614 2.0624 4 4 0 0 0 1.9218 5.3201l13.492 6.3324a4 4 0 0 0 5.3201-1.9218 4 4 0 0 0-1.9218-5.3206l-13.492-6.3319a4 4 0 0 0-1.7394-0.37879zm-56.279 5.4679a4 4 0 0 0-2.0924 0.72347l-11.301 7.9473a4 4 0 0 0-0.97048 5.5723 4 4 0 0 0 5.5723 0.97048l11.301-7.9473a4 4 0 0 0 0.971-5.5723 4 4 0 0 0-2.5864-1.6407 4 4 0 0 0-0.89349-0.0532zm40.904 10.026a4 4 0 0 0-1.741 0.37311 4 4 0 0 0-1.941 5.3123l6.2828 13.518a4 4 0 0 0 5.3129 1.9415 4 4 0 0 0 1.9415-5.3144l-6.2833-13.516a4 4 0 0 0-2.2541-2.0722 4 4 0 0 0-1.3177-0.24185zm-21.834 2.3198a4 4 0 0 0-4.0122 2.9631l-3.7424 13.996a4 4 0 0 0 2.8319 4.8984 4 4 0 0 0 4.8969-2.8319l3.7419-13.996a4 4 0 0 0-2.8298-4.8963 4 4 0 0 0-0.88625-0.13332z" fill="#24a6b3"/></svg>
