<?xml version="1.0" encoding="UTF-8" standalone="no"?><svg xmlns:svg="http://www.w3.org/2000/svg" xmlns="http://www.w3.org/2000/svg" version="1.1" height="10.583333" width="10.583333" style="fill:#4B7071" id="svg2"><path id="path4" d="m 4.2333332,6.8791667 h 0.264584 V 6.35 h 0.264583 V 5.8208333 h -1.5875 V 5.2916666 h 0.264583 V 4.7625002 h 0.264584 V 4.2333333 h 0.264583 V 3.7041669 h 0.264583 V 3.175 h 3.175 v 0.2645834 h -0.264583 v 0.2645835 h -0.264583 v 0.2645832 h -0.264584 v 0.2645832 h -0.264583 v 0.2645835 h 0.79375 V 4.7625002 H 6.8791672 V 5.0270834 H 6.6145832 V 5.2916666 H 6.3500002 V 5.5562501 H 6.0854172 V 5.8208333 H 5.8208342 V 6.0854168 H 5.5562502 V 6.35 H 5.2916672 V 6.6145833 H 5.0270832 V 6.8791667 H 4.7625002 V 7.14375 h -0.264583 v 0.2645833 h -0.264584 z m 0.264584,-1.8520833 h 0.264583 v 0.2645832 h 0.264583 V 5.0270834 h 0.264584 v 0.2645832 h 0.264583 V 5.0270834 H 5.2916672 V 4.7625002 h 0.264583 V 4.4979168 h 0.264584 V 4.2333333 h 0.264583 V 3.9687501 h 0.264583 V 3.7041669 h -1.852083 v 0.5291664 h -0.264584 v 0.5291669 h -0.264583 v 0.2645832 h 0.264583 v 0.2645832 h 0.264584 z M 4.2333332,4.7625002 h 0.264584 v 0.2645832 h -0.264584 z m 0.529167,0 h 0.264583 v 0.2645832 h -0.264583 z m 1.322917,0.2645832 h -0.264583 v 0.2645832 h 0.264583 z" /></svg>