<?xml version="1.0" encoding="UTF-8"?>
<svg width="100mm" height="100mm" version="1.1" viewBox="0 0 100 100" xmlns="http://www.w3.org/2000/svg"><path d="m44.223 0.0020671c-0.78321 0.024289-1.465 0.22849-1.9952 0.41703-1.0606 0.37703-1.8857 0.87572-2.7316 1.4371-1.6919 1.1228-3.3928 2.5546-5.0808 4.0008-1.688 1.4462-3.3429 2.9045-4.6431 3.9383-0.55039 0.43758-0.97641 0.73568-1.325 0.96738-0.39053-0.1482-0.87121-0.34418-1.5033-0.64802-1.4937-0.71804-3.4259-1.7703-5.3878-2.804-1.9619-1.0337-3.933-2.051-5.8281-2.7683-0.94754-0.35869-1.8615-0.66069-2.9781-0.79168-1.1166-0.13099-2.8367-0.18881-4.4323 1.2671-1.5958 1.456-1.6953 3.1743-1.6671 4.2984 0.028243 1.1241 0.24531 2.0615 0.51573 3.0381 0.54085 1.953 1.3729 4.01 2.2226 6.0585 0.84968 2.0485 1.7204 4.0686 2.2986 5.6219 0.24463 0.65718 0.39616 1.1535 0.50798 1.556-0.26263 0.32598-0.59914 0.72335-1.0852 1.2314-1.1483 1.2004-2.7515 2.715-4.346 4.2638-1.5944 1.5488-3.1756 3.112-4.4483 4.6943-0.63637 0.79112-1.2081 1.5678-1.6805 2.5895-0.47249 1.0217-1.0635 2.6396-0.1757 4.6033 0.8878 1.9638 2.4909 2.5851 3.5688 2.9027 1.0779 0.31759 2.0384 0.39919 3.0515 0.44132 2.0262 0.08428 4.2408-0.07669 6.4539-0.25683 2.2132-0.18015 4.4067-0.38982 6.0642-0.46354 0.70167-0.03125 1.221-0.02275 1.6387-0.0057 0.22821 0.34964 0.50076 0.79148 0.83251 1.4092 0.78401 1.4599 1.7252 3.4486 2.7016 5.4395 0.97647 1.9909 1.9703 3.973 3.0789 5.6684 0.55425 0.84765 1.1148 1.6296 1.9394 2.3921 0.82466 0.76246 2.1793 1.8206 4.3238 1.5782 2.1445-0.24235 3.2351-1.5764 3.8731-2.5042 0.63803-0.92776 1.0148-1.8158 1.3705-2.7662 0.71137-1.9009 1.2483-4.0569 1.7663-6.2167 0.51812-2.1598 1.0022-4.3091 1.4485-5.9082 0.1889-0.67685 0.35854-1.1681 0.50488-1.5601 0.40368-0.10988 0.90872-0.23349 1.5999-0.35967 1.6329-0.29808 3.8173-0.58404 6.0151-0.90227 2.1979-0.31832 4.3937-0.65558 6.3516-1.1901 0.97893-0.26726 1.8973-0.56103 2.8794-1.1116 0.98214-0.55052 2.4103-1.5147 2.8479-3.6282s-0.49145-3.5593-1.1751-4.4504c-0.6837-0.8911-1.4118-1.5207-2.205-2.1503-1.5865-1.2591-3.4694-2.431-5.3625-3.5858-1.893-1.1547-3.7863-2.274-5.1682-3.1884-0.58461-0.38687-0.99876-0.69881-1.326-0.95808 0.02125-0.41755 0.06025-0.93609 0.15555-1.6319 0.22516-1.6441 0.63431-3.8084 1.0165-5.996 0.38195-2.1877 0.74426-4.3792 0.84594-6.4048 0.05075-1.0128 0.05746-1.9762-0.1602-3.0789-0.10883-0.55133-0.28094-1.2401-0.66042-1.9244-0.37948-0.6843-0.96573-1.3646-1.9027-1.8965-0.937-0.53193-1.8219-0.68782-2.605-0.66353zm-3.1486 10.763c-0.10359 0.67315-0.12543 1.1323-0.25063 1.8495-0.36756 2.1053-0.79034 4.3078-1.0614 6.287-0.13549 0.9895-0.23691 1.919-0.25632 2.8469-0.0194 0.92777-0.11193 1.8011 0.5426 3.2489 0.65453 1.4478 1.3707 1.9536 2.0795 2.5507 0.70879 0.59714 1.4716 1.1322 2.3032 1.6826 1.6633 1.1007 3.5951 2.2354 5.4167 3.3466 0.62039 0.37842 0.9797 0.66366 1.5529 1.0294-0.67193 0.1112-1.1151 0.2331-1.8355 0.33745-2.1152 0.30636-4.3402 0.59101-6.3056 0.94981-0.9827 0.1794-1.8974 0.37228-2.7859 0.64286-0.88844 0.2706-1.7478 0.45409-2.9244 1.5276-1.1765 1.0735-1.4373 1.9129-1.788 2.773-0.35073 0.86006-0.62698 1.7528-0.89555 2.7151-0.53714 1.9246-1.0245 4.1149-1.5229 6.1934-0.16987 0.70806-0.33107 1.1382-0.50333 1.7973-0.31179-0.60448-0.56352-0.98797-0.88367-1.6407-0.93969-1.916-1.8922-3.9436-2.836-5.7009-0.47186-0.87863-0.93535-1.6884-1.465-2.4489s-0.96753-1.5193-2.3492-2.3037c-1.3817-0.78439-2.2598-0.77208-3.1853-0.83768-0.92555-0.06559-1.8596-0.05008-2.8572-0.0057-1.9952 0.08877-4.2273 0.30814-6.3572 0.48162-0.72545 0.05906-1.1843 0.03905-1.864 0.08062 0.47928-0.48468 0.76672-0.84369 1.2893-1.3513 1.5344-1.4905 3.1714-3.0277 4.5537-4.4726 0.69111-0.72243 1.3184-1.4153 1.8795-2.1559 0.56108-0.74064 1.1497-1.394 1.4723-2.9523s0.04143-2.3886-0.17983-3.2892c-0.22127-0.90059-0.52278-1.7844-0.87075-2.7192-0.69598-1.8697-1.5889-3.9234-2.4066-5.8947-0.27854-0.67151-0.4007-1.1143-0.64854-1.7477 0.60796 0.3048 1.0374 0.46629 1.6805 0.80512 1.888 0.9948 3.853 2.0727 5.6508 2.9368 0.89898 0.43212 1.7503 0.81287 2.6267 1.1157 0.87646 0.30282 1.6782 0.65924 3.2592 0.48059 1.581-0.17865 2.2849-0.70482 3.0737-1.1958 0.7888-0.491 1.5362-1.0532 2.3187-1.6754 1.5651-1.2443 3.2455-2.7335 4.87-4.1253 0.55326-0.474 0.9365-0.72768 1.463-1.1607zm19.104 39.202c-0.48508 0.0066-0.97646 0.04031-1.4723 0.10387-3.9664 0.50867-7.8173 3.187-10.384 7.66-2.4811 4.3233-2.507 9.2853-1.4299 13.863 1.0772 4.5779 3.2396 8.9822 5.7247 12.942 2.4854 3.96 5.3023 7.457 7.8631 10.103 1.2804 1.3231 2.4876 2.4294 3.6447 3.3104 1.1571 0.88086 1.9538 1.6875 4.0799 1.9746 1.9827 0.26759 2.9709-0.2107 4.3145-0.69143 1.3436-0.48073 2.8078-1.154 4.4044-2.0076 3.1933-1.7074 6.8832-4.1327 10.412-7.121 7.0583-5.9766 14.092-14.446 12.416-24.385-0.88297-5.235-3.7683-9.0352-7.3107-10.717-3.5424-1.682-7.1977-1.4812-10.152-0.84491-3.7162 0.80002-5.8296 3.1321-7.8321 4.9981-0.04596 0.04283-0.06775 0.06443-0.11317 0.10697-1.0933-2.0645-2.4367-4.523-5.1232-6.3355-2.1828-1.4728-4.7731-2.629-7.6052-2.9006-0.47205-0.04524-0.95102-0.06556-1.4361-0.05891zm0.09198 8.0036c1.319-9.7e-4 2.9284 0.5427 4.4752 1.5865 0.5125 0.34579 1.857 2.1279 2.8277 3.9631 0.48538 0.91761 0.9178 1.8162 1.3715 2.6505 0.22686 0.41714 0.44124 0.81119 0.80822 1.3043s0.6343 1.582 3.0685 1.9105c1.4943 0.20166 2.1122-0.23159 2.5409-0.44752 0.42875-0.21592 0.6743-0.39746 0.90227-0.56844 0.45595-0.34196 0.80133-0.65783 1.1798-1.0098 0.75685-0.70384 1.5859-1.5307 2.467-2.3518 1.7623-1.6422 4.1199-3.0441 4.0602-3.0313 1.845-0.3972 3.8041-0.3336 5.0374 0.25218 1.2335 0.58569 2.2866 1.4592 2.8536 4.8204 0.8755 5.1912-3.5978 11.784-9.6976 16.949-3.05 2.5826-6.3526 4.7474-9.0134 6.1702-1.3303 0.7113-2.508 1.2376-3.3285 1.5312-0.20081 0.07185-0.29901 0.07005-0.4625 0.10129-0.14222-0.07353-0.22715-0.09204-0.39067-0.21652-0.69509-0.52914-1.673-1.4048-2.7425-2.5099-2.1389-2.2103-4.677-5.3516-6.8358-8.7912-2.1587-3.4396-3.9306-7.1967-4.7129-10.521-0.78235-3.3247-0.59274-6.0059 0.57981-8.0486 1.6574-2.8879 3.0606-3.5293 4.4648-3.7093 0.17554-0.02251 0.35832-0.03345 0.54674-0.03359z" fill="#24a6b3"/></svg>
