<?xml version="1.0" encoding="UTF-8"?>
<svg width="100mm" height="100mm" version="1.1" viewBox="0 0 100 100" xmlns="http://www.w3.org/2000/svg"><g><path d="m50 2.4474-14.833 32.157-35.167 4.1698 26 24.044-6.9019 34.734 30.902-17.297 30.901 17.297-6.9019-34.734 26-24.044-35.167-4.1698zm-10.899 38.397a3.8871 10.845 0 0 1 3.8871 10.845 3.8871 10.845 0 0 1-3.8871 10.844 3.8871 10.845 0 0 1-3.8871-10.844 3.8871 10.845 0 0 1 3.8871-10.845zm21.797 0a3.8871 10.845 0 0 1 3.8871 10.845 3.8871 10.845 0 0 1-3.8871 10.844 3.8871 10.845 0 0 1-3.8871-10.844 3.8871 10.845 0 0 1 3.8871-10.845z" fill="#24a6b3" style="paint-order:markers fill stroke"/></g></svg>
