<?xml version="1.0" encoding="UTF-8"?>
<svg width="100mm" height="100mm" version="1.1" viewBox="0 0 100 100" xmlns="http://www.w3.org/2000/svg"><path d="m22.982 0.13591a4.0004 4.0004 0 0 0-1.7932 1.0351l-20.017 20.017a4.0004 4.0004 0 0 0 0 5.657l71.983 71.983a4.0004 4.0004 0 0 0 5.657 0l20.017-20.017a4.0004 4.0004 0 0 0 0-5.657l-71.983-71.983a4.0004 4.0004 0 0 0-3.8638-1.0351zm1.0351 9.5203 66.326 66.326-14.36 14.36-3.3404-3.3404 8.5535-8.553a4 4 0 0 0 0-5.6565 4 4 0 0 0-2.8303-1.172 4 4 0 0 0-2.8283 1.172l-8.5524 8.5524-3.3409-3.3409 3.8799-3.8794a4 4 0 0 0 0-5.6565 4 4 0 0 0-2.8283-1.172 4 4 0 0 0-2.8283 1.172l-3.8794 3.8799-3.3419-3.3419 8.5535-8.5535a4 4 0 0 0 0-5.6565 4 4 0 0 0-2.8283-1.1715 4 4 0 0 0-2.8298 1.1715l-8.5514 8.5535-3.3419-3.3419 3.8793-3.8793a4 4 0 0 0 0-5.656 4 4 0 0 0-2.8277-1.172 4 4 0 0 0-2.8283 1.172l-3.8794 3.8788-3.3414-3.3414 8.5524-8.5514a4 4 0 0 0 0-5.6581 4 4 0 0 0-2.8277-1.172 4 4 0 0 0-2.8283 1.172l-8.553 8.553-3.3419-3.3419 3.8794-3.8794a4 4 0 0 0 0-5.656 4 4 0 0 0-2.8283-1.172 4 4 0 0 0-2.8283 1.172l-3.8793 3.8793-12.339-12.339zm-1.2955 9.3607a4 4 0 0 0-2.543 1.1612 4 4 0 0 0 0 5.657 4 4 0 0 0 5.657 0 4 4 0 0 0 0-5.657 4 4 0 0 0-3.114-1.1612z" fill="#24a6b3"/></svg>
