<?xml version="1.0" encoding="UTF-8"?>
<svg width="131.34mm" height="167.59mm" version="1.1" viewBox="0 0 131.34 167.59" xmlns="http://www.w3.org/2000/svg"><path d="m97.799 167.38-0.82479-0.21347-1.2421-0.6013-1.2421-0.60131-1.2797-1.3001-1.2797-1.3001-0.75052-1.5127-0.75049-1.5127 0.0393-2.7781 0.0393-2.7781 1.5813-6.0854 1.6233-5.5562 0.53276-5.5562 0.28467-3.0597 0.28463-3.0597 0.47398-1.8351 0.474-1.8351 1.1519-2.249h0.51179l1.2538 1.9844 1.0301 1.0214 1.03 1.0214 2.6458 1.2593 3.28 6e-3 4.1974-1.326 4.1643-2.7459 3.508-0.21754 2.9719 0.86395 0.94281 0.8278 0.94279 0.8278 1.0543 2.0665 1.5746 6.367 1.0127 1.9354 0.82637 0.92604 0.82635 0.92604 0.81793 1.1657 0.81791 1.1657 0.50932 1.3404 0.5093 1.3404-0.17481 1.1658-0.17484 1.1658-1.2522 1.2522-1.2522 1.2522-7.6191 3.8211-1.2008 0.69845-1.2008 0.69844-1.8521 1.223-6.8792 6.7296-1.5137 0.88758-1.5137 0.88757-1.6613 0.67268-1.6613 0.67267-4.7625 0.1658-0.82478-0.21348zm-67.692-1.63-1.5772-0.24711-2.8672-0.8335-7.028-3.1535-4.7311-1.0326-7.1928-0.79748-2.5432-0.55042-0.79375-0.30068-0.79375-0.30069-0.86017-0.63284-0.86017-0.63285-0.42968-0.83089-0.42967-0.83089v-3.2628l1.4784-5.211-0.92292-7.7439 0.18801-1.0346 0.18801-1.0346 0.4778-0.95109 0.47781-0.95109 1.9611-1.7219 2.3473-1.0062h0.67878l1.8509-0.92597 1.8509-0.92596 1.5581-2.0497 1.5581-2.0497 1.0464-1.1477 1.0464-1.1477 2.1405-1.0975 2.9348-4e-3 2.9842 1.3662 1.2362 1.2792 1.2362 1.2792 1.2551 1.8521 1.2551 1.8521 4.2825 8.4667 5.4252 7.1438 2.8256 3.7042 1.0194 2.0228 1.0194 2.0228 0.18541 1.5975 0.18541 1.5975-0.44231 1.5391-0.44232 1.5391-0.78461 1.2331-0.78461 1.2331-2.7924 1.9232-2.6068 0.79526-4.2333 0.20948-1.5772-0.2471zm18.117-1.1121 3e-3 -0.33073 0.78802-2.5976v-3.524l-0.85212-2.8742-0.53474-1.0583-0.53473-1.0583-0.92435-1.4001-0.92434-1.4001 0.13813-0.13812 0.13813-0.13813 3.5838 2.4535 3.7467 1.8872 2.9104 1.0028 3.4396 0.82122 5.2917 0.45077 5.273-0.52762 4.5166-1.0427 3.7042-1.3804 6.0937-3.0807 2.8654-2.1379h0.69819l-6e-3 0.66146-1.0749 3.4396-0.55293 2.3812-0.5529 2.3812-0.0871 3.3073-0.087 3.3073-8.0921-0.0354-8.4667-1.2167-6.8792 0.3101-4.4979 0.76397-5.7154 1.1041h-3.4127l3e-3 -0.33073zm-7.0581-20.031-0.57291-0.2426-3.8925-5.193-0.70671-1.0957-0.70671-1.0957-3.1388-6.6111-3.0613-5.2205-2.292-2.9957-3.0309-2.7014-2.1522-1.0418-2.8886-0.54781-2.7746 0.576-1.3599 0.93547-1.3599 0.93547-0.4269-0.69074-0.18643-1.9894-0.18643-1.9895 0.31346-5.3072 0.41438-2.3812 0.41439-2.3812 0.8136-2.7781 0.81361-2.7781 2.2964-5.6297 2.7482-5.4828 1.1959-2.1167 1.1959-2.1167 4.9796-7.5497 4.2899-5.6795 3.0725-3.7767 2.1766-3.2769 1.2682-2.5586 1.2682-2.5586 1.075-3.175 0.40624-1.5875 0.40625-1.5875 0.89208-6.0854-0.46628-11.112 0.0394-12.7 0.45614-2.4743 0.45614-2.4743 1.3516-4.3119 2.077-4.0158 2.9277-3.5494 3.2754-2.4142 3.6554-1.8432 3.1422-1.0038 4.315-0.92424 10.319-0.0076 4.7625 1.2476 3.7724 1.731 2.8422 2.111 1.4692 1.5562 1.4692 1.5562 1.6207 2.3812 0.688 1.3624 0.68799 1.3624 0.54102 1.4157 0.541 1.4157 0.65018 2.5135 0.65016 2.5135 0.26768 1.5875 0.26766 1.5875 0.29493 2.3812 0.2949 2.3812 0.20198 10.186 0.20196 10.186 0.43106 1.5208 0.43106 1.5208 0.79116 2.0516 0.79115 2.0516 1.3504 2.3552 1.3504 2.3552 2.4038 3.2006 2.4037 3.2006 4.3276 5.2917 3.6988 5.0271 3.1807 4.7625 3.4798 6.35 1.1106 2.5135 1.1106 2.5135 0.64032 1.8521 0.64029 1.8521 0.64133 2.5788 0.64132 2.5788 0.30911 2.316 0.30909 2.316-0.14825 4.101-0.14821 4.101-0.69144 2.7758-0.69141 2.7758-0.38047 0.58065-0.38044 0.58066-1.7264-0.49513h-1.4146l-0.11858-0.33073-0.11859-0.33073 0.25686-0.49803 0.25688-0.49804 0.0254-2.9727-0.57065-1.1153-0.57063-1.1154-2.2475-2.1848-2.6458-1.6986-4.6779-2.5385 0.16981-0.56846 0.16979-0.56846 0.15523-3.3383 0.1552-3.3383-0.323-1.8211-0.323-1.8211-0.7909-2.6159-0.79086-2.6159-0.99396-2.1466-0.99396-2.1466-1.2752-2.1167-1.2751-2.1167-3.8467-4.7625-1.869-1.9844h-0.55616v0.8071l3.0586 3.2939 1.2209 1.7198 1.2209 1.7198 0.94182 1.7198 0.94178 1.7198 1.5787 3.8288 0.67802 2.6888 0.67804 2.6888-3e-3 3.0697-3e-3 3.0697-0.49588 2.0722-0.49588 2.0722-0.2486 0.24861-0.24861 0.2486-3.3982-0.6729-0.47414-1.8521-0.4741-1.8521-0.93313-3.175-0.93311-3.175-1.5457-3.7195-1.5457-3.7194-4.9754-9.7612-2.0621-4.8684-2.0621-4.8684-3.3343-9.1189-1.605-5.2192-0.5651-1.9428-0.56512-1.9428 0.46307-0.96766 0.4631-0.96766 3e-3 -1.2128 3e-3 -1.2128-0.72347-1.2346-0.72351-1.2346-0.1873-7e-3 -0.18727-7e-3 -1.7718-1.4698 1.6586-2.4576 0.51596-1.4997 0.51599-1.4997 0.3257-4.0392-0.42-1.7859-0.42002-1.7859-0.76848-1.5223-0.76846-1.5223-0.75671-0.75826-0.75668-0.75827-2.2254-1.5335-2.7983-0.53068-2.7771 0.57652-2.7582 2.0724-1.6714 2.5212-0.59172 1.7198-0.59171 1.7198-0.04 2.4652-0.04 2.4652-6.2178 0.09658 7e-5 -1.3718 6e-5 -1.3718-0.39446-1.8752-0.39445-1.8752-0.56614-1.1187-0.56613-1.1187-0.53504-0.75906-0.53503-0.75906-2.404-1.5246-2.4099 0.0026-1.9447 1.1879-0.79782 1.0087-0.79783 1.0087-0.9053 2.7256-0.1871 1.7295-0.18709 1.7295 0.2231 1.633 0.22311 1.633 0.55557 1.4849 0.55558 1.4849 0.90363 1.1838 0.90362 1.1838v0.43206l-1.4256 1.0332-1.4257 1.0332-0.62486 0.91268-0.62487 0.91269 0.0182 1.3415 0.0182 1.3416 0.48023 0.92604 0.48022 0.92604 2.1022 2.2983-0.17317 1.7613-0.17317 1.7613-0.5464 2.7781-0.5464 2.7781-0.78051 2.6458-0.78051 2.6458-0.90381 2.5288-0.90381 2.5288-1.5659 3.6889-1.5659 3.6889-1.8516 4.101-1.8516 4.101-2.2146 4.6883-2.5712 7.7471-0.65874 3.175-0.65875 3.175-0.16324 1.9844-0.16325 1.9844-0.13693 0.88567-0.13692 0.88568-0.95514-0.86439-1.6332-3.5528-0.42119-1.5875-0.4212-1.5875-0.15416-2.249-0.15417-2.249 0.30979-2.3232 0.30979-2.3232 0.66841-2.3066 0.66842-2.3066 0.67635-1.7202 0.67635-1.7202 1.4753-2.9104 1.4753-2.9104 0.57799-1.1906 0.57798-1.1906 0.3614-1.1906h-0.46246l-3.7854 6.4823-3.1233 6.6146-0.94159 2.7781-0.9416 2.7781-0.41776 2.494-0.41775 2.494 4e-3 2.4008 4e-3 2.4008 0.77886 3.3033 0.77907 1.7182 0.77907 1.7182 1.1735 1.5249 1.1735 1.5249 2.403 2.2148 6.7958 4.4899 4.2476 3.4246 1.7422 1.8468 1.7422 1.8468 1.9098 2.8773 1.2633 2.879 0.1811 0.98826 0.1811 0.98827-0.2828 1.0502-0.28279 1.0502-1.307 1.5533-1.9958 0.79858-2.9009 0.30766-0.57292-0.2426zm62.255-15.993-1.0246-0.38245-0.95978-0.7667-0.95977-0.7667-0.81447-1.1996-0.81444-1.1996-0.63757-1.9564-0.63756-1.9564 0.0161-2.7781 0.0161-2.7781 1.1949-2.7261 1.1551-1.0851 2.0868-0.87193h2.9895l4.1673 1.1433 4.4247 2.0735 1.7212 1.2282 1.7212 1.2282 0.76764 1.2104 0.76761 1.2104v2.1738l-0.6853 1.3752-0.68527 1.3752-2.7305 2.4152-3.4447 2.0668-3.1699 1.1037-3.4396 0.24572-1.0246-0.38246zm-43.029-68.608-0.66146-0.1092-2.3634-0.8775-4.3208-3.4563-1.4912-1.0583-1.4912-1.0583-1.3368-1.9141-0.53816-1.9491 0.59716-1.8094 4.5944-3.5542 2.9589-2.527 1.3684-0.68729 1.3684-0.68728 3.6752-0.30812 2.5355 0.70127 2.887 1.2672 1.3743 0.97862 6.95 2.7084 0.80667 0.91874 0.80666 0.91874 0.1688 0.67259 0.16881 0.67259-0.14568 1.0862-0.14571 1.0862-0.75803 1.0786-0.75806 1.0786-2.8332 1.9794-2.9552 1.1057-4.4441 2.6844-1.2226 0.45501-1.2226 0.455-2.9104 0.25806zm11.906-18.557-1.7198-0.73815-0.60072-0.37917-0.60071-0.37918-0.25771-0.92604-0.2577-0.92604-2e-3 -1.1499-2e-3 -1.1499 0.8385-2.8843 0.99499-1.046 0.995-1.046h2.4872l0.62593 0.62593 0.62592 0.62593 0.53427 1.0472 0.53425 1.0472 0.18058 1.596 0.18055 1.596-0.45027 1.5595-0.45027 1.5595-1.3028 1.7198-0.63453-0.014-1.7198-0.73815zm-21.287-0.72139-0.44562-0.6801-0.37856-1.073-0.37856-1.073 2e-3 -1.2235 2e-3 -1.2235 0.57552-2.1167 1.3726-1.4552h1.1833l1.5699 1.3209 0.43224 1.0803 0.43225 1.0803 0.32152 3.0762-1.2601 1.0707-2.299 1.8966h-0.68283l-0.44562-0.6801z" fill="#f00"/></svg>
