<?xml version="1.0" encoding="UTF-8"?>
<svg width="1091pt" height="963pt" version="1.1" viewBox="0 0 1091 963" xmlns="http://www.w3.org/2000/svg"><path d="m548.1 523.06c2.55-1.66 5.68-0.6 7.94 1.04 32.57 21.98 67.36 41.34 105.03 53.05 38.61 12.27 79.54 16.33 119.91 14.09 58.19-3.08 115.11-17.61 170.18-36.01 2.14-0.66 4.66-0.56 6.4 1.04 2.94 2.4 6.17 4.53 8.76 7.33 2.41 3.42 0.33 7.55-0.56 11.13-32.33 112.67-64.57 225.38-96.88 338.06-0.55 2.48-2.72 4.06-4.94 5-61.73 26.25-127.84 44.28-195.25 45.21h-11.28c-44.54-0.8-88.93-9.56-130.29-26.17-30.28-12-58.86-27.99-85.91-46.07-2.3-1.45-4.43-3.89-4.03-6.79 0.39-2.89 1.42-5.63 2.2-8.41 33.02-114.33 66.01-228.66 99.04-342.98 1.6-4.4 5.87-7.15 9.68-9.52zm-270.13-102.9c42.99-3.68 86.91 1.19 127.47 16.19 34.26 12.37 65.92 30.85 95.96 51.26 2.8 1.43 2.41 4.92 1.48 7.42-34.41 117.8-68.9 235.58-103.3 353.39-1.07 3.73-5.22 5.07-8.17 7.02-1.94 1.46-4.27 0.33-6.02-0.82-30.03-19.33-61.41-37.26-95.57-48.21-41.35-13.63-85.74-17.19-128.89-11.96-47.98 5.68-94.54 19.77-139.62 36.76-3.4 1.1-6.66 3.13-10.3 3.21-4.26-1.87-7.98-5.03-11.01-8.55v-2.22c33.77-117.86 67.39-235.76 101.08-353.64 0.49-2.66 3.34-3.41 5.45-4.38 54.88-22.25 112.14-40.51 171.44-45.47zm390.37-313.89c4.81-2.93 9.21 1.98 13.11 4.27 23.31 15.43 47.5 29.67 73.2 40.75 34.17 14.81 71.1 23.29 108.34 24.5 44.04 1.77 87.95-5.71 130.24-17.54 26.98-7.7 53.48-17.02 79.38-27.79 2.75-1.32 6.12-1.57 8.77 0.18 3.97 2.67 7.52 6.18 9.62 10.53v0.96c-2.23 5.12-3.44 10.58-5.06 15.9-32.85 112.86-65.72 225.71-98.55 338.58-0.84 4.19-5.37 5.36-8.72 6.92-35.37 15.66-72.43 27.69-110.5 34.7-12.43 2.15-24.78 4.72-37.3 6.29-25.84 3.44-52.02 4.5-78.03 2.63-37.44-2.64-74.39-11.55-108.98-26.08-29.3-12.11-56.49-28.62-83.06-45.77-3.16-1.61-4.79-5.37-3.43-8.72 33.81-116.96 67.64-233.9 101.41-350.87 1.56-4.37 5.85-7.01 9.56-9.44zm-324.18-97.8c42.25-8.68 86.13-11.5 128.83-4.3 39.82 6.4 77.63 22.14 112.15 42.7 12.25 7.21 24.16 14.99 35.96 22.91 2.15 1.21 2.4 3.95 1.59 6.07-33.99 117.38-67.94 234.77-101.92 352.15-1.03 3.78-5.34 4.78-8.47 6.27-2.41 1.25-5.02-0.24-7.11-1.45-28.62-18.12-58.64-34.44-90.8-45.35-23.08-7.87-47.15-12.84-71.48-14.58-33.46-2.5-67.14 0.86-99.93 7.67-34.47 7.18-68.08 18.03-100.92 30.66-4.02 1.43-7.87 3.38-12.02 4.43-3.6-1.5-6.03-4.83-9.55-6.5-0.96-2.06-1.71-4.39-0.85-6.62 34.26-118.45 68.33-236.95 102.67-355.38 39.38-16.4 80.01-30.12 121.85-38.68z" fill="#f00"/></svg>
