<?xml version="1.0" encoding="UTF-8" standalone="no"?><svg xmlns:svg="http://www.w3.org/2000/svg" xmlns="http://www.w3.org/2000/svg" version="1.1" height="10.583333" width="10.583333" style="fill:#4B7071" id="svg2"><path id="path4" d="m 5.2919394,2.3776348 c -0.7914031,0 -0.890723,0.00343 -1.2015533,0.017605 C 3.7801628,2.4094436 3.5684098,2.4585589 3.3831256,2.5306205 3.1914672,2.6050497 3.0288884,2.7046127 2.8669167,2.8666451 2.7048234,3.0286167 2.6052606,3.1911955 2.5305887,3.3827932 2.4583453,3.5681379 2.4091704,3.7799517 2.3952074,4.0900537 c -0.013901,0.3108301 -0.017544,0.4102108 -0.017544,1.201614 0,0.7914031 0.00352,0.8904196 0.017605,1.2012501 0.014267,0.3102235 0.06338,0.5219756 0.1353813,0.7072601 0.07449,0.1916582 0.1740527,0.3542373 0.3360851,0.5162092 0.1619112,0.1620934 0.32449,0.2618988 0.516027,0.3363278 0.1854054,0.072061 0.3972193,0.1211758 0.7073816,0.1353817 0.3108303,0.014147 0.4100897,0.017602 1.2014321,0.017602 0.7914639,0 0.8904803,-0.00348 1.2013106,-0.017602 C 6.8031103,8.1738905 7.015106,8.1247781 7.2005116,8.0527153 7.3921094,7.9782853 7.5544453,7.8784809 7.7163562,7.7163875 7.8784494,7.5544156 7.9780121,7.3918365 8.0526843,7.200239 8.1243208,7.0148937 8.1734952,6.80308 8.1880653,6.4929788 c 0.013961,-0.3108304 0.017605,-0.4099076 0.017605,-1.2013107 0,-0.7914033 -0.00366,-0.8907232 -0.017605,-1.2015532 C 8.1734954,3.7798925 8.1243213,3.5681396 8.0526845,3.3828555 7.9780122,3.1911969 7.8784497,3.0286182 7.7163564,2.8666466 7.554263,2.7045533 7.3921698,2.6049902 7.2003299,2.530622 7.0145599,2.4585601 6.8026853,2.4094467 6.492462,2.3952409 6.1816316,2.3810956 6.0826759,2.3776348 5.29103,2.3776348 Z M 5.0305262,2.9027679 c 0.077586,-1.211e-4 0.1641573,0 0.2614132,0 0.7780473,0 0.870264,0.00282 1.1775126,0.016755 0.2841182,0.012993 0.4383196,0.060467 0.5410389,0.1003523 0.1359887,0.052815 0.2329409,0.115954 0.3348712,0.2179456 0.101991,0.1019911 0.1651289,0.1991253 0.2180668,0.3351139 0.039885,0.1025982 0.087422,0.2567991 0.1003522,0.5409175 0.013961,0.3071873 0.016997,0.3994653 0.016997,1.1771482 0,0.777683 -0.00304,0.8699602 -0.016997,1.1771477 C 7.6507885,6.7522669 7.6033148,6.9064673 7.5634289,7.0090664 7.5106141,7.1450547 7.4473531,7.2418853 7.3453621,7.3438154 7.243371,7.4458072 7.1465404,7.5089443 7.0104909,7.5617611 6.9078927,7.6018332 6.7535702,7.6491839 6.469452,7.6621738 c -0.3071876,0.013958 -0.3994653,0.016995 -1.1775126,0.016995 -0.7781077,0 -0.8703249,-0.00309 -1.1775127,-0.016995 C 3.8303084,7.649062 3.6761075,7.6015875 3.5733271,7.5617013 3.4373388,7.5088855 3.3402043,7.4457475 3.2382132,7.3437566 3.136222,7.2417649 3.0730844,7.1448735 3.0201462,7.0088247 2.9802604,6.9062256 2.9327253,6.7520253 2.9197943,6.467907 2.9058307,6.1607188 2.9030385,6.0684414 2.9030385,5.2902726 c 0,-0.7781686 0.0028,-0.8699604 0.016755,-1.1771484 C 2.9327866,3.8290058 2.9802601,3.674805 3.0201462,3.5720851 3.0729631,3.436097 3.136222,3.3389629 3.2382132,3.2369712 3.3402043,3.1349801 3.4373388,3.071843 3.5733271,3.0189045 3.6760469,2.9788341 3.8303084,2.9314835 4.1144267,2.9184312 4.3832465,2.906289 4.4874231,2.9026451 5.0305262,2.9020369 Z m 1.8169006,0.4838513 c -0.1930548,0 -0.3496842,0.1564474 -0.3496842,0.3495625 0,0.1930552 0.1566294,0.3496845 0.3496842,0.3496845 0.1930547,0 0.3496839,-0.1566293 0.3496839,-0.3496845 0,-0.1930548 -0.1566292,-0.3496841 -0.3496839,-0.3496841 z M 5.2919394,3.7951913 c -0.8264322,0 -1.4964779,0.6700454 -1.4964779,1.4964778 0,0.826432 0.6700457,1.4961744 1.4964779,1.4961744 0.8264324,0 1.4962356,-0.6697424 1.4962356,-1.4961744 0,-0.8264324 -0.6698639,-1.4964778 -1.4962961,-1.4964778 z m 0,0.5251331 c 0.5364253,0 0.9713449,0.434859 0.9713449,0.9713447 0,0.5364251 -0.4349196,0.9713444 -0.9713449,0.9713444 -0.5364858,0 -0.9713447,-0.4349193 -0.9713447,-0.9713444 0,-0.5364857 0.4348589,-0.9713447 0.9713447,-0.9713447 z" /></svg>
