<?xml version="1.0" encoding="UTF-8" standalone="no"?><svg xmlns:svg="http://www.w3.org/2000/svg" xmlns="http://www.w3.org/2000/svg" version="1.1" height="10.583333" width="10.583333" style="fill:#4B7071" id="svg2"><path id="path4" d="m 4.3644983,2.3526908 c 1.5776217,-6.065e-4 3.3632015,0.00182 3.3632015,0.00182 l 0.8554009,1.0041628 v 0.2859086 c 0,0.362489 -0.3331879,0.6810663 -0.6357401,0.6810663 -0.3632663,0 -0.6659294,-0.3061777 -0.665957,-0.669444 0,0.3632663 -0.292231,0.669444 -0.6554973,0.669444 -0.3632664,0 -0.6462,-0.3061777 -0.6462,-0.669444 3.72e-5,0.3632663 -0.3108264,0.669444 -0.6740934,0.669444 -0.3632195,0 -0.6647948,-0.3061777 -0.6647948,-0.669444 0,0.3632663 -0.2934401,0.669444 -0.6566601,0.669444 -0.3632664,0 -0.6450372,-0.3061777 -0.6450372,-0.669444 0,0.3632663 -0.3120355,0.669444 -0.675255,0.669444 -0.3632664,0 -0.6636332,-0.3061777 -0.6636332,-0.669444 V 3.3586752 L 2.9300161,2.3545089 c 0.405819,-0.00106 0.908608,-0.00163 1.4344822,-0.00182 z m 1.6012612,1.8021097 c 0.034637,0.061738 0.077963,0.1178035 0.1278454,0.1673611 0.1370965,0.1363528 0.3250988,0.2208236 0.5323014,0.2208236 0.2073416,0 0.3963665,-0.084378 0.5334628,-0.2208236 0.049697,-0.049417 0.087446,-0.1024941 0.1220345,-0.1640924 0.034585,0.061738 0.082704,0.1145348 0.1324942,0.1640924 0.1371428,0.1363528 0.3262608,0.2208236 0.5334628,0.2208236 0.053325,0 0.1894438,-0.03138 0.1894438,-0.03138 V 8.2307398 H 2.4093372 V 4.490685 c 0.085495,0.033611 0.157459,0.0523 0.2545286,0.0523 0.2074348,0 0.3963195,-0.084378 0.5334629,-0.2208236 0.049697,-0.049511 0.092142,-0.1057163 0.1266831,-0.1673612 0.034637,0.061784 0.078055,0.1177572 0.1278455,0.1673612 0.1371428,0.1362597 0.3250987,0.2208236 0.5323007,0.2208236 0.2073422,0 0.3963671,-0.084378 0.5334634,-0.2208236 0.049697,-0.049511 0.093304,-0.1057629 0.1278454,-0.1673612 0.034637,0.061738 0.076846,0.1177572 0.1266832,0.1673612 0.1371428,0.1362597 0.3262146,0.2208236 0.5334629,0.2208236 0.2073422,0 0.396367,-0.084378 0.5334635,-0.2208236 0.049743,-0.049418 0.092142,-0.1057629 0.1266831,-0.1673609 z m 0.4916233,0.6903643 c -0.2498329,0 -0.4275145,0.1617361 -0.4904611,0.4056183 H 4.5861934 c -0.0629,-0.2438822 -0.239466,-0.4056183 -0.4892989,-0.4056183 -0.3968316,0 -0.8331328,0.4074779 -0.9692994,0.9053771 L 2.8021714,6.9395026 c -0.1362135,0.4978995 0.077312,0.9053767 0.4741889,0.9053767 0.3483904,0 0.7270913,-0.3139879 0.9065394,-0.7275554 h 2.1884779 c 0.1794482,0.4135675 0.5581028,0.7275554 0.9065389,0.7275554 0.3968781,0 0.6104031,-0.4074772 0.4741901,-0.9053767 L 7.4266822,5.7505419 C 7.2904688,5.2526427 6.8542609,4.8451648 6.4573828,4.8451648 Z M 5.3000201,5.3986768 5.7662923,5.8988711 6.2326372,6.3990659 H 5.7731933 V 6.914805 H 4.8573564 V 6.3990659 H 4.3674034 L 4.8337478,5.8988711 Z" /></svg>