<?xml version="1.0" encoding="UTF-8" standalone="no"?><svg xmlns:svg="http://www.w3.org/2000/svg" xmlns="http://www.w3.org/2000/svg" version="1.1" height="10.583333" width="10.583333" style="fill:#4B7071" id="svg2"><path id="path4" d="m 1.4982311,5.3257715 c -0.016196,0 -0.029052,0.012521 -0.03114,0.030391 l -0.056769,0.4311915 0.056769,0.423761 c 0.00209,0.017862 0.014944,0.030305 0.03114,0.030305 0.015695,0 0.028468,-0.012356 0.030972,-0.03014 v 0 -8.42e-5 8.42e-5 L 1.5964911,5.787352 1.5292031,5.3560775 c -0.00242,-0.017784 -0.015361,-0.030305 -0.030972,-0.030306 z M 1.817471,5.0901817 c -0.00266,-0.01853 -0.015945,-0.031302 -0.032309,-0.031302 -0.016446,0 -0.030054,0.013189 -0.032308,0.031302 0,1.673e-4 -0.076303,0.6971681 -0.076303,0.6971681 l 0.076303,0.6817243 c 0.00217,0.018279 0.015778,0.031475 0.032308,0.031475 0.01628,0 0.029553,-0.012859 0.032224,-0.031311 L 1.9042105,5.7873469 Z M 3.0199634,4.4471105 c -0.031306,0 -0.057187,0.025631 -0.058688,0.05819 l -0.060776,1.282636 0.060776,0.8289049 c 0.00158,0.032395 0.027383,0.057939 0.058688,0.057939 0.03114,0 0.056936,-0.025631 0.058772,-0.058104 v 2.507e-4 l 0.068707,-0.8289888 -0.068706,-1.282636 c -0.00184,-0.032559 -0.027634,-0.05819 -0.058772,-0.05819 z M 2.397596,4.8929112 c -0.024043,0 -0.043661,0.019197 -0.045582,0.044828 l -0.068457,0.849859 0.068457,0.8222264 c 0.00184,0.025467 0.021539,0.044664 0.045582,0.044664 0.023793,0 0.043411,-0.019197 0.045498,-0.044664 L 2.5209004,5.7875987 2.4430938,4.9375724 c -0.00209,-0.025467 -0.021706,-0.044664 -0.045498,-0.044664 z M 3.6524324,6.674693 c 0.03882,0 0.070376,-0.031302 0.071963,-0.071379 L 3.7840024,5.788351 3.7244774,4.0807018 c -0.00158,-0.040076 -0.033143,-0.071379 -0.071963,-0.071379 -0.039154,0 -0.070793,0.031388 -0.072047,0.071466 0,8.32e-5 -0.052845,1.7074817 -0.052845,1.7074817 l 0.052845,0.8152977 c 0.00125,0.039738 0.032892,0.071127 0.071963,0.071127 z m 1.2948247,0.00381 c 0.053429,0 0.097508,-0.043997 0.09851,-0.098093 V 6.5810091 6.58041 L 5.0873424,5.7888273 5.0457672,3.8166198 c -9.158e-4,-0.054011 -0.045081,-0.098093 -0.09851,-0.098093 -0.053513,0 -0.097675,0.043997 -0.09851,0.098176 l -0.03715,1.9714566 c 0,0.0013 0.037151,0.7927568 0.037151,0.7927568 8.204e-4,0.053595 0.04508,0.097592 0.09851,0.097592 z M 4.2949192,6.675383 c 0.046499,0 0.083985,-0.03732 0.085236,-0.084906 v 6e-4 L 4.4307462,5.7884613 4.3800714,4.0684571 c -0.00125,-0.047586 -0.038736,-0.084819 -0.085236,-0.084819 -0.046835,0 -0.084318,0.037233 -0.08532,0.084819 l -0.044998,1.7200884 0.045081,0.8024403 c 0.00101,0.047084 0.038486,0.084402 0.08532,0.084402 z m -1.58735,-0.00754 c 0.027634,0 0.050007,-0.02212 0.052094,-0.051262 L 2.8329609,5.7875136 2.7596622,4.9988477 c -0.00201,-0.029135 -0.024377,-0.051089 -0.052094,-0.051089 -0.02805,0 -0.050423,0.022128 -0.052177,0.051426 l -0.064532,0.788332 0.064532,0.828988 c 0.00184,0.029222 0.024127,0.05134 0.052177,0.051339 z M 2.0901272,6.622434 c 0.020204,0 0.036566,-0.015945 0.038902,-0.037987 L 2.2113441,5.7873485 2.1291128,4.9601969 c -0.00243,-0.02212 -0.018784,-0.038065 -0.038986,-0.038065 -0.020454,0 -0.036816,0.016032 -0.038903,0.038065 0,8.33e-5 -0.072464,0.8271516 -0.072464,0.8271516 l 0.072464,0.7969298 c 0.00201,0.02212 0.018366,0.038152 0.038903,0.038152 z M 4.6198358,4.0397964 c -0.050507,0 -0.090997,0.040155 -0.091999,0.091581 l -0.041073,1.657225 0.041073,0.7974313 c 0.00101,0.05076 0.041408,0.090914 0.091999,0.090914 0.050423,0 0.090664,-0.040069 0.091832,-0.091498 v 6.624e-4 L 4.7577499,5.7886808 4.7116675,4.1312049 c -0.00117,-0.051253 -0.041408,-0.091408 -0.091832,-0.091409 z M 3.3350291,6.6762797 c 0.034896,0 0.063698,-0.028466 0.065367,-0.06478 L 3.4645119,5.7881042 3.4003971,4.2121086 c -0.00175,-0.0364 -0.030471,-0.064781 -0.065367,-0.064781 -0.03523,0 -0.063948,0.028467 -0.065451,0.064781 0,8.32e-5 -0.056769,1.5759956 -0.056769,1.5759956 l 0.056853,0.8237293 c 0.00142,0.035983 0.030137,0.064451 0.065367,0.064451 z M 4.0509812,6.5985539 V 6.5981437 L 4.1060804,5.7883573 4.0509812,4.0231881 c -0.00134,-0.04384 -0.035898,-0.078228 -0.078558,-0.078228 -0.042911,0 -0.077473,0.034311 -0.078642,0.07822 l -0.048921,1.7650857 0.049004,0.8102043 c 0.00117,0.043415 0.035732,0.077725 0.078558,0.077725 0.042743,0 0.077139,-0.034311 0.078558,-0.077977 v 3.47e-4 z M 8.2182969,4.7708562 c -0.1308181,0 -0.2556255,0.026463 -0.3693295,0.074137 -0.07597,-0.8605457 -0.797599,-1.5355909 -1.6778462,-1.5355909 -0.2153868,0 -0.425347,0.042409 -0.6107633,0.1141214 -0.072046,0.027883 -0.091247,0.056601 -0.091915,0.1122851 v 3.0304409 c 7.573e-4,0.058442 0.046083,0.1071089 0.1031016,0.1128698 0.00243,2.497e-4 2.6296386,0.00157 2.6466693,0.00157 0.5272799,0 0.9547975,-0.4275172 0.9547975,-0.9548807 0,-0.5273635 -0.4274339,-0.9549649 -0.9547143,-0.9549649 z M 5.2732591,3.5331337 c -0.057352,0 -0.1044376,0.047085 -0.1052725,0.1049386 l -0.043076,2.1509449 0.04316,0.7806523 c 7.575e-4,0.05702 0.047836,0.1040194 0.105189,0.1040194 0.057186,0 0.1042706,-0.046997 0.1051052,-0.1048544 v 9.524e-4 L 5.4251989,5.7890562 5.3783648,3.6379441 C 5.3775287,3.5802576 5.330446,3.5331727 5.2732596,3.5331727 Z" /></svg>