<?xml version="1.0" encoding="UTF-8" standalone="no"?><svg xmlns:svg="http://www.w3.org/2000/svg" xmlns="http://www.w3.org/2000/svg" version="1.1" height="10.583333" width="10.583333" style="fill:#4B7071" id="svg2"><path id="path4" d="M 8.4707957,3.8121937 C 8.4425576,4.4317934 8.0095749,5.2805713 7.1726649,6.3577089 6.307517,7.4827282 5.5753744,8.0454428 4.9762371,8.0454428 4.6054595,8.0454428 4.2915672,7.7029029 4.0349695,7.0174146 3.8639043,6.3892208 3.6924299,5.7614363 3.5213647,5.1332425 3.331065,4.4481633 3.1268508,4.1052145 2.908313,4.1052145 c -0.047473,0 -0.2144454,0.1002655 -0.4996904,0.299978 L 2.1094632,4.0192727 C 2.4233555,3.7434403 2.7331554,3.4671987 3.0380442,3.1905479 3.4571129,2.8287736 3.7714145,2.6380647 3.9813581,2.61883 4.4765468,2.571357 4.7814356,2.9102137 4.8960247,3.6349899 c 0.1235926,0.7824799 0.2091252,1.2690743 0.2570071,1.4593742 0.1428271,0.6490654 0.2999779,0.9731887 0.4714523,0.9731887 0.1334144,0 0.3335361,-0.2107619 0.6003651,-0.6314677 C 6.4912688,5.0149702 6.634096,4.6945299 6.6533306,4.4747643 6.6913907,4.1113532 6.5485634,3.9292384 6.2248492,3.9292384 c -0.1526491,0 -0.3097999,0.034785 -0.4710432,0.1043579 0.3126646,-1.0247541 0.910165,-1.5228074 1.7925012,-1.4945694 0.6539763,0.019235 0.9621396,0.4436236 0.9244885,1.2731668" /></svg>