<?xml version="1.0" encoding="UTF-8" standalone="no"?><svg xmlns:svg="http://www.w3.org/2000/svg" xmlns="http://www.w3.org/2000/svg" version="1.1" height="10.583333" width="10.583333" style="fill:#4B7071" id="svg2"><path id="path4" d="m 5.2916399,3.0478052 c 0,0 -2.0062738,-2.24e-5 -2.5078429,0.1319702 C 2.5145336,3.253691 2.2927809,3.4754571 2.2188654,3.7500001 2.0868737,4.2515692 2.0868951,5.2916532 2.0868951,5.2916532 c 0,0 -2.77e-5,1.0453635 0.1319703,1.5416526 0.073916,0.2745433 0.2903883,0.4910169 0.5649316,0.5649316 0.5068489,0.1372721 2.5078429,0.1372908 2.5078429,0.1372908 0,0 2.0062731,-6e-6 2.5078428,-0.1319973 C 8.0740257,7.3296139 8.2904983,7.1131418 8.3644142,6.8385994 8.4964062,6.3370295 8.4964115,5.296946 8.4964115,5.296946 c 0,0 0.00527,-1.0453768 -0.1319973,-1.5469459 C 8.2904983,3.4754571 8.0740257,3.2589838 7.7994827,3.1850682 7.297913,3.0477967 5.2916399,3.0478052 5.2916399,3.0478052 Z m -0.638843,1.282951 1.6683848,0.960897 -1.6683848,0.9608965 z" /></svg>