<?xml version="1.0" encoding="UTF-8"?>
<svg width="100mm" height="100mm" version="1.1" viewBox="0 0 100 100" xmlns="http://www.w3.org/2000/svg"><path d="m50 0a50 50 0 0 0-50 50 50 50 0 0 0 50 50 50 50 0 0 0 50-50 50 50 0 0 0-50-50zm-0.02429 13.867c2.4698 0 4.5709 0.86622 6.303 2.5983 1.7321 1.7 2.5983 3.7846 2.5983 6.2544 0 2.5019-0.86622 4.619-2.5983 6.351-1.7 1.7-3.8011 2.5497-6.303 2.5497-2.4698 0-4.5704-0.86571-6.3025-2.5978-1.7-1.7321-2.5502-3.8332-2.5502-6.303s0.85024-4.5544 2.5502-6.2544c1.7321-1.7321 3.8327-2.5983 6.3025-2.5983zm-7.8905 26.029h15.781v44.649h-15.781z" fill="#ff8400"/></svg>
