<?xml version="1.0" encoding="UTF-8"?>
<svg width="126.78mm" height="69.841mm" shape-rendering="crispEdges" version="1.1" viewBox="0 0 126.78 69.841" xmlns="http://www.w3.org/2000/svg"><path d="m116.2 15.609a63.39 34.92 0 0 0-87.831-9.798 63.39 34.92 0 0 0-17.826 48.399 63.39 34.92 0 0 0 87.857 9.8199 63.39 34.92 0 0 0 17.826-48.399 63.39 34.92 0 0 0-0.0263-0.0218zm-12.488-1.9105c2.2454 1.8667 1.3188 4.3826-2.0698 5.6196l-30.174 11.015c-3.3885 1.2369-7.9557 0.72645-10.201-1.1402-2.2454-1.8667-1.3184-4.3824 2.07-5.6194l30.174-11.015c3.3885-1.2369 7.9554-0.72669 10.201 1.14zm11.14 9.261c2.2454 1.8667 1.3185 4.3824-2.07 5.6194l-30.174 11.015c-3.3885 1.2369-7.9554 0.72669-10.201-1.14-2.2454-1.8667-1.3187-4.3826 2.0698-5.6196l30.174-11.015c3.3886-1.237 7.9557-0.72646 10.201 1.1402zm-30.661-15.462c2.2454 1.8667 1.3188 4.3827-2.0698 5.6196l-21.793 7.9553c-3.3885 1.2369-7.9557 0.72645-10.201-1.1402-2.2454-1.8667-1.3184-4.3824 2.07-5.6194l21.793-7.9553c3.3885-1.237 7.9554-0.7267 10.201 1.14zm33.42 27.783c2.2454 1.8667 1.3188 4.3826-2.0698 5.6196l-21.793 7.9553c-3.3885 1.2369-7.9557 0.72644-10.201-1.1402-2.2454-1.8667-1.3187-4.3827 2.0698-5.6196l21.793-7.9553c3.3885-1.237 7.9557-0.72646 10.201 1.1402zm-68.072-27.761c2.2454 1.8667 1.3187 4.3827-2.0698 5.6196l-14.294 5.2179c-3.3885 1.2369-7.9557 0.72645-10.201-1.1402-2.2454-1.8667-1.3187-4.3827 2.0698-5.6196l14.294-5.2179c3.3885-1.237 7.9557-0.72647 10.201 1.1402zm54.53 45.332c2.2454 1.8667 1.3187 4.3827-2.0698 5.6196l-14.294 5.2179c-3.3885 1.2369-7.9557 0.72644-10.201-1.1402-2.2454-1.8667-1.3187-4.3826 2.0698-5.6196l14.294-5.2179c3.3885-1.2369 7.9557-0.72645 10.201 1.1402zm-59.271-30.973c2.2454 1.8667 1.3187 4.3827-2.0698 5.6196l-21.793 7.9553c-3.3885 1.2369-7.9557 0.72645-10.201-1.1402-2.2454-1.8667-1.3184-4.3824 2.07-5.6194l21.793-7.9553c3.3885-1.237 7.9554-0.72669 10.201 1.14zm11.14 9.261c2.2454 1.8667 1.3185 4.3824-2.07 5.6194l-30.174 11.015c-3.3885 1.2369-7.9554 0.72669-10.201-1.14-2.2454-1.8667-1.3187-4.3827 2.0698-5.6196l30.174-11.015c3.3885-1.237 7.9557-0.72645 10.201 1.1402zm11.14 9.2608c2.2454 1.8666 1.3185 4.3824-2.07 5.6194l-30.174 11.015c-3.3885 1.2369-7.9554 0.72669-10.201-1.14-2.2454-1.8667-1.3187-4.3827 2.0698-5.6196l30.174-11.015c3.3885-1.2369 7.9557-0.72646 10.201 1.1402zm11.14 9.2607c2.2454 1.8667 1.3188 4.3827-2.0698 5.6196l-21.793 7.9553c-3.3885 1.237-7.9557 0.72645-10.201-1.1402-2.2454-1.8667-1.3187-4.3826 2.0698-5.6196l21.793-7.9553c3.3885-1.237 7.9557-0.72646 10.201 1.1402z" fill="#444" fill-rule="evenodd"/></svg>
