<?xml version="1.0" encoding="UTF-8"?>
<svg width="36.512mm" height="12.915mm" shape-rendering="crispEdges" version="1.1" viewBox="0 0 36.512 12.915" xmlns="http://www.w3.org/2000/svg"><path d="m20.12 11.427c0.43797-5.1248 1.7452-6.5174 3.4474-7.4773 2.1314 0.88143 2.1997 3.6179 4.4843 6.0291 0.94301 0.99526 3.2183 2.9794 4.3325 2.7129s1.2478-4.0365 1.1735-5.9511c-0.07429-1.9146-2.1176-4.8996-4.1033-5.7104-1.9695-0.80413-4.7806-0.73765-6.7801-0.47559s-4.0648 2.2149-4.5211 5.3018c0 0-1.7598-4.2078-9.2212-4.0576-7.4614 0.15022-7.7263 6.4958-5.0733 6.4166 3.5785-2.058 5.6772 0.62795 7.9653 0.59103 2.2882-0.0369 5.1691-1.5655 5.6962-1.3802 0.52706 0.18531 0.45323 3.2549 0.46686 4.0026z" fill="#00881d"/></svg>
