<?xml version="1.0" encoding="UTF-8"?>
<svg width="25.189mm" height="17.483mm" shape-rendering="crispEdges" version="1.1" viewBox="0 0 25.189 17.483" xmlns="http://www.w3.org/2000/svg"><path d="m14.801 16.898c0.0051-7.5357 1.6281-10.772 1.2563-12.609-0.37183-1.837-1.9504-2.8982-3.6412-2.5236-1.6908 0.37458-2.8777 2.4611-2.7961 4.4266 0.08161 1.9655 1.695 2.1957 1.4005 4.0331s-1.4105 3.8056-2.9875 3.1231-1.9451-3.5836-1.8188-5.2063 0.4497-3.1895 1.8009-4.3874c0.87429-2.0559 2.373-3.3565 4.5054-3.7075 2.1325-0.35102 6.1428 1.2752 6.0973 4.3967-0.04551 3.1214-1.7454 5.8271-1.6623 12.496-0.75206 0.75498-1.4687 0.70632-2.1546-0.0418z" fill="#00881d"/></svg>
