<?xml version="1.0" encoding="UTF-8"?>
<svg width="44.893mm" height="21.087mm" shape-rendering="crispEdges" version="1.1" viewBox="0 0 44.893 21.087" xmlns="http://www.w3.org/2000/svg"><path d="m20.415 14.994c0.37326-2.8735 2.4564-6.1978 4.066-5.5089 1.8502 0.81966 1.376 6.5397 4.4381 8.6623 3.062 2.1226 10.162 4.5853 12.538 1.4477 2.3759-3.1376-1.1833-7.9181-4.1742-10.169-2.9909-2.2508-9.004-1.0736-11.399-1.2472-2.395-0.17357-1.8521-0.38923-2.9386-0.105s-3.2424 1.9767-3.2424 1.9767-1.0201-0.23921-1.8717-1.5876c-0.85155-1.3484-0.0579-5.2207-1.8237-6.8765-1.7658-1.6558-5.037-1.769-7.2695-1.4355-2.2325 0.33345-4.5164 1.3044-5.0779 3.0265-0.56149 1.7222 2.5859 2.0879 4.3923 4.5566s5.7715 2.005 7.3566 2.9183c1.5851 0.91327 2.8876 4.2584 2.8876 4.2584" fill="#00881d"/></svg>
