<?xml version="1.0" encoding="UTF-8"?>
<svg width="100mm" height="100mm" version="1.1" viewBox="0 0 100 100" xmlns="http://www.w3.org/2000/svg"><path d="m62.943 1.7046a50.001 50.001 0 0 0-25.882-5.407e-4c18.218 10.117 24.027 30.305 12.942 48.297 21.123 0.60451 35.7-14.517 35.356-35.35a50.001 50.001 0 0 0-22.415-12.946zm-12.941 48.297c-11.086 17.992-5.2774 38.18 12.942 48.297a50.001 50.001 0 0 0 35.356-35.356c-17.871 10.719-38.258 5.6565-48.298-12.941zm0 0c-10.039-18.597-30.425-23.66-48.298-12.941a50.001 50.001 0 0 0 12.942 48.297c-0.34706-20.837 14.23-35.961 35.356-35.356z" fill="#24a6b3"/></svg>
