<?xml version="1.0" encoding="UTF-8"?>
<svg width="100mm" height="100mm" version="1.1" viewBox="0 0 100 100" xmlns="http://www.w3.org/2000/svg"><g><path d="m90.598 0-9.9462 7.9034-11.639-5.3955 4.793 11.481-8.9674 8.9095 9.0532-0.56637c-0.04162 0.05933-0.08062 0.1184-0.123 0.17777-2.4905 3.4876-5.9906 6.6224-10.871 6.7639-4.8865 0.14174-8.418-1.3681-11.631-3.7817-3.2133-2.4136-5.9898-5.8041-8.7436-9.1855-2.7539-3.3814-5.4465-6.793-9.1018-9.002-1.8277-1.1045-3.954-1.7896-6.2503-1.9079-2.2962-0.11831-4.7624 0.33066-7.275 1.496-4.5361 2.1039-7.4588 5.1371-8.877 8.4765-1.4182 3.3394-1.3469 6.7785-0.74208 9.7265 0.26067 1.2705 0.62217 2.4572 1.0242 3.5497l-9.248 4.548 5.8198 11.834a33.631 33.631 0 0 0-7.6388 21.341 33.631 33.631 0 0 0 33.632 33.632 33.631 33.631 0 0 0 33.632-33.632 33.631 33.631 0 0 0-33.632-33.632 33.631 33.631 0 0 0-1.8986 0.053742l-5.6658-11.522-9.4831 4.6633c-0.22386-0.66828-0.42093-1.3601-0.56481-2.0614-0.43622-2.126-0.41341-4.2418 0.3829-6.1169 0.79632-1.8751 2.3505-3.7164 5.826-5.3284 3.6035-1.6714 5.5001-1.2918 7.8026 0.09974 2.3026 1.3915 4.7861 4.2683 7.5277 7.6347 2.7416 3.3664 5.7819 7.1835 9.8102 10.209 4.0283 3.0257 9.1632 5.1869 15.473 5.0038 7.4107-0.21497 12.565-4.987 15.658-9.3183 0.23664-0.33136 0.45979-0.66131 0.67646-0.99012l4.4333 7.9282 3.1848-11.981 12.735-2.1714-10.94-6.5965z" fill="#24a6b3" style="paint-order:markers fill stroke"/></g></svg>
