<?xml version="1.0" encoding="UTF-8"?>
<svg width="95mm" height="39.673mm" version="1.1" viewBox="0 0 95 39.673" xmlns="http://www.w3.org/2000/svg"><path d="m86.266 0c-0.89768 0-1.9305 0.12814-2.6572 0.32763-0.66257 0.19236-1.1827 0.42756-1.603 0.74104-0.56283 0.42747-0.85525 0.94032-0.85525 1.496 0 0.53434 0.29231 1.0474 0.84801 1.4748 0.87631 0.6697 2.4934 1.0759 4.2602 1.0759 0.94756 0 1.8812-0.12124 2.6577-0.3421 0.69108-0.19236 1.1826-0.4131 1.5958-0.72657 0.56283-0.42035 0.86919-0.94043 0.86919-1.5033 0-0.53434-0.29241-1.0401-0.85524-1.4676-0.88343-0.6697-2.4791-1.0759-4.2602-1.0759zm6.6187 0.17828-1.1255 0.54829v0.29921l1.1255-0.54105v4.4452h0.32039v-4.7516zm-6.6187 0.07803c1.7241 0 3.2701 0.38469 4.1036 1.033 0.48447 0.37047 0.74104 0.79822 0.74104 1.2542 0 1.3394-2.0449 2.3156-4.8519 2.3156-1.7099 0-3.2772-0.39233-4.1036-1.0335-0.47734-0.37047-0.7338-0.80494-0.7338-1.2609 0-0.78369 0.69821-1.4674 1.9379-1.8877 0.76944-0.2636 1.8809-0.42065 2.9068-0.42065zm8.4641 3.9899v0.68368h0.27026v-0.68368zm0.13539 1.3059-8.4568 5.6353v0.31368l8.4568-5.6358zm-53.757 0.54828-4.8374 4.7951h0.39223l3.1347-3.1135h2.6572l3.1848 3.1135h0.39894zm21.466 0-4.8379 4.7951h0.39222l3.1347-3.1135h2.6572l3.1848 3.1135h0.39894zm5.5495 0v4.7951h0.27079v-4.346l8.3928 4.3889v-4.795h-0.27079v4.346zm-68.124 0.0429v1.9022c0 0.84068 0.11402 1.2609 0.47025 1.6955 0.68394 0.84068 2.1307 1.3394 3.869 1.3394 1.6671 0 3.0559-0.45562 3.7755-1.2464 0.42034-0.44885 0.55604-0.89808 0.55604-1.7958v-1.895h-0.27079v1.895c0 0.78369-0.0998 1.1475-0.40618 1.5322-0.62695 0.77657-2.0089 1.2464-3.6618 1.2464-1.5816 0-2.9212-0.43447-3.5838-1.1612-0.36335-0.39897-0.47749-0.79092-0.47749-1.6102v-1.9022zm9.3405 0v0.26355h4.2747v4.4886h0.27078v-4.4886h4.2674v-0.26355zm9.525 0v4.7522h0.27079v-4.7522zm1.4108 0v4.7522h7.7659v-0.26355h-7.4952v-4.4886zm8.3783 0v4.7522h0.27078v-4.7522zm0.9834 0v0.26355h4.2747v4.4886h0.27078v-4.4886h4.2674v-0.26355zm17.02 0v4.7522h0.27079v-3.1135h2.6577l5.9201 3.1135h0.59841l-5.9273-3.1135h4.517c0.49158 0 0.69098-0.0211 0.86196-0.11369 0.25648-0.12824 0.4129-0.40616 0.4129-0.70539 0-0.27073-0.13508-0.52051-0.34882-0.663-0.18523-0.12112-0.38459-0.15658-0.92604-0.15658zm10.188 0v4.7522h0.27078v-4.7522zm-9.9172 0.26355h7.7587c0.44172 0 0.61951 0.0213 0.74775 0.0925 0.17099 0.0926 0.26355 0.2498 0.26355 0.46353 0 0.20661-0.0783 0.34882-0.22789 0.44856-0.12824 0.0855-0.29885 0.10697-0.77618 0.10697h-7.7659zm-5.8136 0.0785 1.0614 1.033h-2.1084zm21.466 0 1.062 1.033h-2.1089zm-18.4 5.4452c-0.94042 0-1.8806 0.114-2.6572 0.33486-0.69107 0.19236-1.1826 0.42033-1.603 0.73381-0.56283 0.42746-0.85473 0.94032-0.85473 1.496 0 0.53433 0.29178 1.0474 0.84749 1.4748 0.87631 0.6697 2.4939 1.0759 4.2607 1.0759 2.1017 0 3.8541-0.5414 4.6592-1.432v1.2464h0.27078v-1.6387h-4.9656v0.26407h4.4457c-0.17811 0.17811-0.31348 0.29159-0.53434 0.43408-0.82644 0.53433-2.3226 0.8692-3.8757 0.8692-1.7099 0-3.2772-0.39181-4.1036-1.033-0.47734-0.37047-0.73381-0.80495-0.73381-1.2609 0-1.3394 2.0442-2.3084 4.8442-2.3084 0.78369 0 1.5818 0.0856 2.2515 0.24237 0.57708 0.13536 1.1544 0.34891 1.5177 0.55552 0.24935 0.14961 0.42728 0.27782 0.65526 0.49868h0.32039c-0.7267-0.9618-2.5292-1.5529-4.7449-1.5529zm36.1 0c-0.94043 0-1.8806 0.114-2.6572 0.33486-0.69108 0.19236-1.1827 0.42033-1.603 0.73381-0.56284 0.42746-0.85473 0.94032-0.85473 1.496 0 0.53433 0.29179 1.0474 0.8475 1.4748 0.87631 0.6697 2.4939 1.0759 4.2607 1.0759 1.5246 0 3.0206-0.32058 3.8969-0.83354 0.39897-0.2351 0.63387-0.43447 0.85473-0.72657h-0.3204c-0.21373 0.20661-0.34219 0.30584-0.5488 0.43408-0.85494 0.53433-2.3368 0.8692-3.8757 0.8692-1.717 0-3.2839-0.39181-4.1104-1.033-0.47734-0.37047-0.7338-0.80495-0.7338-1.2609 0-1.3394 2.0442-2.3084 4.8442-2.3084 0.78369 0 1.5818 0.0856 2.2515 0.24237 0.57708 0.13536 1.1544 0.34891 1.5177 0.55552 0.24936 0.14961 0.42728 0.27782 0.65526 0.49868h0.3204c-0.72669-0.9618-2.5292-1.5529-4.7449-1.5529zm-70.204 0.13539-4.8374 4.7945h0.39171l3.1347-3.113h2.6572l3.1848 3.113h0.39894zm5.55 0v4.7945h0.27027v-4.346l8.3928 4.3889v-4.7945h-0.27079v4.3455zm38.144 0-2.8784 4.7945h0.32814l2.6427-4.4168 2.6432 1.5529 2.665-1.5529 2.636 4.4168h0.31316l-2.8567-4.7945-2.7574 1.617zm11.321 0-2.8784 4.7945h0.32815l2.6427-4.4168 2.6432 1.5529 2.665-1.5529 2.636 4.4168h0.31316l-2.8567-4.7945-2.7575 1.617zm29.909 0-8.8775 1.4175v-1.3746h-0.27027v4.7516h0.27027v-3.113l8.8775 3.1559v-0.28473l-6.982-2.4867c-0.057-0.0214-0.0999-0.0354-0.2496-0.0853-0.0784-0.0285-0.16359-0.0573-0.24908-0.0858-0.27785-0.0926-0.31363-0.0995-0.47749-0.14935-0.44171-0.12824-0.50567-0.1499-0.69091-0.18552 0.18524 0 0.2564-7e-3 0.56275-0.0284 0.24223-0.0214 0.32042-0.0287 0.45579-0.0501 0.24935-0.0285 0.52717-0.064 0.69815-0.0925l6.9324-1.111zm-69.998 0.0429v0.26355h4.2747v4.4881h0.27078v-4.4881h4.2674v-0.26355zm9.5255 0v4.7516h0.27027v-4.7516zm15.481 0v4.7516h0.27078v-4.7516zm24.052 0v4.7516h0.27078v-4.7516zm-63.977 0.34158 1.0614 1.033h-2.1089zm25.854 1.9239v0.26355h2.2944v-0.26355zm-29.872 7.0652v0.37207h1.1162v-0.37207zm1.1162 0.37207v0.37207h-1.1162v-0.37207h-0.37207v1.4883h0.37207v-0.74414h1.1162v0.74414h0.37259v-1.4883zm1.1167-0.37207v1.8604h0.37207v-1.1162h0.37207v-0.37207h-0.37207v-0.37207zm0.74414 0.74414v0.37207h0.37207v-0.37207zm0.37207 0.37207v0.37207h0.37207v0.37207h0.37207v-1.8604h-0.37207v1.1162zm1.4883-1.1162v0.37207h0.37207v-0.37207zm0.37207 0.37207v0.37207h0.37207v-0.37207zm0.37207 0.37207v1.1162h0.37207v-1.1162zm0.37207 0h0.37207v-0.37207h-0.37207zm0.37207-0.37207h0.37259v-0.37207h-0.37259zm3.3492-0.37207v0.37207h1.1162v-0.37207zm1.1162 0.37207v0.37207h-1.1162v-0.37207h-0.37207v1.4883h0.37207v-0.74414h1.1162v0.74414h0.37207v-1.4883zm1.1162-0.37207v1.8604h0.37259v-0.74414h1.1162v-0.37207h-1.1162v-0.37207h1.1162v-0.37207zm1.4888 0.37207v0.37207h0.37207v-0.37207zm0 0.74414v0.74414h0.37207v-0.74414zm1.1162-1.1162v0.37207h0.74414v1.4883h0.37207v-1.4883h0.74414v-0.37207zm2.6045 0v1.8604h0.37207v-1.8604zm1.4888 0v0.37207h1.4883v-0.37207zm0 0.37207h-0.37207v0.37207h0.37207zm0 0.37207v0.37207h1.1162v-0.37207zm1.1162 0.37207v0.37207h0.37207v-0.37207zm0 0.37207h-1.4883v0.37207h1.4883zm1.1162-1.4883v0.37207h0.74414v1.4883h0.37207v-1.4883h0.74414v-0.37207zm2.605 0v1.8604h0.37207v-1.8604zm1.4883 0v0.37207h1.4883v-0.37207zm0 0.37207h-0.37207v1.1162h0.37207zm0 1.1162v0.37207h1.4883v-0.37207zm4.4654-1.4883v0.37207h1.4883v-0.37207zm0 0.37207h-0.37207v0.37207h0.37207zm0 0.37207v0.37207h1.1162v-0.37207zm1.1162 0.37207v0.37207h0.37207v-0.37207zm0 0.37207h-1.4883v0.37207h1.4883zm1.1162-1.4883v0.37207h0.74414v1.4883h0.37207v-1.4883h0.74414v-0.37207zm2.9771 0v0.37207h1.1162v-0.37207zm1.1162 0.37207v0.37207h-1.1162v-0.37207h-0.37207v1.4883h0.37207v-0.74414h1.1162v0.74414h0.37207v-1.4883zm1.1162-0.37207v0.37207h0.74414v1.4883h0.37207v-1.4883h0.74414v-0.37207zm2.605 0v1.8604h1.8604v-0.37207h-1.4883v-0.37207h1.1162v-0.37207h-1.1162v-0.37207h1.4883v-0.37207zm2.6045 0v1.8604h0.37207v-1.1162h0.37207v-0.37207h-0.37207v-0.37207zm0.74414 0.74414v0.37207h0.37207v-0.37207zm0.37207 0h0.37207v1.1162h0.37207v-1.8604h-0.37207v0.37207h-0.37207zm1.4883-0.74414v1.8604h1.8609v-0.37207h-1.4883v-0.37207h1.1162v-0.37207h-1.1162v-0.37207h1.4883v-0.37207zm2.605 0v1.8604h0.37207v-1.1162h0.37207v-0.37207h-0.37207v-0.37207zm0.74414 0.74414v0.37207h0.37207v-0.37207zm0.37207 0.37207v0.37207h0.37207v0.37207h0.37207v-1.8604h-0.37207v1.1162zm1.4883-1.1162v0.37207h0.74466v1.4883h0.37207v-1.4883h0.74414v-0.37207zm4.4654 0v1.8604h0.37207v-1.8604zm2.9771 0v1.8604h0.37207v-1.1162h0.37207v-0.37207h-0.37207v-0.37207zm0.74414 0.74414v0.37207h0.37207v-0.37207zm0.37207 0h0.37207v1.1162h0.37207v-1.8604h-0.37207v0.37207h-0.37207zm1.8604-0.74414v0.37207h1.1167v-0.37207zm1.1167 0.37207v0.37207h-1.1167v-0.37207h-0.37207v1.4883h0.37207v-0.74414h1.1167v0.74414h0.37207v-1.4883zm1.1162-0.37207v1.8604h0.37207v-0.74414h0.74415v-0.37207h-0.74415v-0.74414zm1.1162 0.74414h0.37207v-0.37207h-0.37207zm0.37207-0.37207h0.37207v-0.37207h-0.37207zm-0.37207 0.74414v0.37207h0.37207v-0.37207zm0.37207 0.37207v0.37207h0.37207v-0.37207zm1.1162-1.4883v1.8604h1.8609v-0.37207h-1.4888v-0.37207h1.1167v-0.37207h-1.1167v-0.37207h1.4888v-0.37207zm4.4654 0v1.8604h0.37207v-1.1162h0.37207v-0.37207h-0.37207v-0.37207zm0.74414 0.74414v0.37207h0.37207v-0.37207zm0.37207 0h0.37207v1.1162h0.37207v-1.8604h-0.37207v0.37207h-0.37207zm1.4888-0.74414v1.4883h0.37207v-1.4883zm0.37207 1.4883v0.37207h1.1162v-0.37207zm1.1162 0h0.37207v-1.4883h-0.37207zm1.4883-1.4883v0.37207h1.4883v-0.37207zm0 0.37207h-0.37207v0.37207h0.37207zm0 0.37207v0.37207h1.1162v-0.37207zm1.1162 0.37207v0.37207h0.37207v-0.37207zm0 0.37207h-1.4883v0.37207h1.4883zm1.1167-1.4883v0.37207h0.74414v1.4883h0.37207v-1.4883h0.74414v-0.37207zm4.4648 0v1.8604h0.37207v-1.1162h0.37207v-0.37207h-0.37207v-0.37207zm0.74414 0.74414v0.37207h0.37259v-0.37207zm0.37259 0.37207v0.37207h0.37207v0.37207h0.37207v-1.8604h-0.37207v1.1162zm1.8604-1.1162v0.37207h1.1162v-0.37207zm1.1162 0.37207v1.1162h0.37207v-1.1162zm0 1.1162h-1.1162v0.37207h1.1162zm-1.1162 0v-1.1162h-0.37207v1.1162zm2.2324-1.4883v0.37207h0.74414v1.4883h0.37207v-1.4883h0.74466v-0.37207zm-80.374 3.2747v0.37207h1.1162v-0.37207zm1.1162 0.37207v1.1162h0.37207v-1.1162zm0 1.1162h-1.1162v0.37207h1.1162zm-1.1162 0v-1.1162h-0.37259v1.1162zm2.2324-1.4883v1.1162h0.37207v-1.1162zm0.37207 1.1162v0.37207h0.37207v-0.37207zm0.37207 0.37207v0.37207h0.37207v-0.37207zm0.37207 0h0.37207v-0.37207h-0.37207zm0.37207-0.37207h0.37207v-1.1162h-0.37207zm1.1162-1.1162v1.8604h1.8609v-0.37207h-1.4888v-0.37207h1.1167v-0.37207h-1.1167v-0.37207h1.4888v-0.37207zm2.605 0v1.8604h0.37207v-0.74414h1.1162v-0.37207h-1.1162v-0.37207h1.1162v-0.37207zm1.4883 0.37207v0.37207h0.37207v-0.37207zm0 0.74414v0.74414h0.37207v-0.74414zm1.1162-1.1162v1.8604h0.37207v-0.74414h1.1167v-0.37207h-1.1167v-0.37207h1.1167v-0.37207zm1.4888 0.37207v0.37207h0.37207v-0.37207zm0 0.74414v0.74414h0.37207v-0.74414zm1.1162-1.1162v1.8604h0.37207v-1.8604zm1.1162 0v1.8604h1.4883v-0.37207h-1.1162v-1.1162h1.1162v-0.37207zm1.4883 0.37207v1.1162h0.37207v-1.1162zm1.1167-0.37207v1.8604h1.8604v-0.37207h-1.4883v-0.37207h1.1162v-0.37207h-1.1162v-0.37207h1.4883v-0.37207zm4.4648 0v0.37207h0.74414v1.4883h0.37259v-1.4883h0.74414v-0.37207zm2.605 0v1.8604h0.37207v-0.74414h1.1162v0.74414h0.37207v-1.8604h-0.37207v0.74414h-1.1162v-0.74414zm2.6045 0v1.8604h1.8609v-0.37207h-1.4888v-0.37207h1.1167v-0.37207h-1.1167v-0.37207h1.4888v-0.37207zm4.4654 0v1.4883h0.37207v-1.4883zm0.37207 1.4883v0.37207h1.1162v-0.37207zm1.1162 0h0.37207v-1.4883h-0.37207zm1.1167-1.4883v0.37207h0.74414v1.4883h0.37207v-1.4883h0.74414v-0.37207zm2.6045 0v1.8604h0.37207v-1.8604zm1.1162 0v1.8604h1.8609v-0.37207h-1.4888v-1.4883zm2.605 0v1.8604h0.37207v-1.8604zm1.1162 0v0.37207h0.74414v1.4883h0.37207v-1.4883h0.74414v-0.37207zm2.6045 0v0.37207h0.37207v-0.37207zm0.37207 0.37207v0.37207h0.37259v-0.37207zm0.37259 0.37207v1.1162h0.37207v-1.1162zm0.37207 0h0.37207v-0.37207h-0.37207zm0.37207-0.37207h0.37207v-0.37207h-0.37207zm3.3486-0.37207v0.37207h1.1167v-0.37207zm1.1167 0.37207v1.1162h0.37207v-1.1162zm0 1.1162h-1.1167v0.37207h1.1167zm-1.1167 0v-1.1162h-0.37207v1.1162zm2.2329-1.4883v1.8604h0.37207v-0.74414h0.74414v-0.37207h-0.74414v-0.37207h1.1162v-0.37207zm4.0928 0v1.8604h0.37258v-1.1162h0.37207v-0.37207h-0.37207v-0.37207zm0.74465 0.74414v0.37207h0.37207v-0.37207zm0.37207 0h0.37207v1.1162h0.37207v-1.8604h-0.37207v0.37207h-0.37207zm1.4883-0.74414v0.37207h0.37207v-0.37207zm0.37207 0.37207v0.37207h0.37207v-0.37207zm0.37207 0.37207v1.1162h0.37207v-1.1162zm0.37207 0h0.37207v-0.37207h-0.37207zm0.37207-0.37207h0.37207v-0.37207h-0.37207zm3.3492-0.37207v0.37207h1.4883v-0.37207zm0 0.37207h-0.37207v0.37207h0.37207zm0 0.37207v0.37207h1.1162v-0.37207zm1.1162 0.37207v0.37207h0.37207v-0.37207zm0 0.37207h-1.4883v0.37207h1.4883zm1.4883-1.4883v0.37207h1.1167v-0.37207zm1.1167 0.37207v1.1162h0.37207v-1.1162zm0 1.1162h-1.1167v0.37207h1.1167zm-1.1167 0v-1.1162h-0.37207v1.1162zm2.2329-1.4883v1.8604h0.37207v-0.74414h0.74414v-0.37207h-0.74414v-0.37207h1.1162v-0.37207zm2.2324 0v0.37207h0.74414v1.4883h0.37207v-1.4883h0.74466v-0.37207zm2.605 0v1.8604h0.37207v-0.37207h0.37207v-0.37207h-0.37207v-1.1162zm0.74414 1.1162h0.37207v-0.37207h-0.37207zm0.37207 0v0.37207h0.37207v0.37207h0.37207v-1.8604h-0.37207v1.1162zm1.8604-1.1162v0.37207h1.1162v-0.37207zm1.1162 0.37207v0.37207h-1.1162v-0.37207h-0.37207v1.4883h0.37207v-0.74414h1.1162v0.74414h0.37207v-1.4883zm1.1167-0.37207v1.8604h0.37207v-0.74414h1.1162v-0.37207h-1.1162v-0.37207h1.1162v-0.37207zm1.4883 0.37207v0.37207h0.37207v-0.37207zm0 0.74414v0.74414h0.37207v-0.74414zm1.1162-1.1162v1.8604h1.8604v-0.37207h-1.4883v-0.37207h1.1162v-0.37207h-1.1162v-0.37207h1.4883v-0.37207zm2.605 1.1162v0.74414h0.37207v-0.74414zm-52.839 2.158v0.37207h1.1162v-0.37207zm1.1162 0.37207v1.1162h0.37207v-1.1162zm0 1.1162h-1.1162v0.37207h1.1162zm-1.1162 0v-1.1162h-0.37207v1.1162zm2.2324-1.4883v0.37207h0.74414v1.4883h0.37207v-1.4883h0.74466v-0.37207zm2.605 0v1.8604h0.37207v-0.74415h1.1162v0.74415h0.37207v-1.8604h-0.37207v0.74414h-1.1162v-0.74414zm2.6045 0v1.8604h1.8609v-0.37207h-1.4888v-0.37208h1.1162v-0.37207h-1.1162v-0.37207h1.4888v-0.37207zm2.605 0v1.8604h0.37207v-0.74415h1.1162v-0.37207h-1.1162v-0.37207h1.1162v-0.37207zm1.4883 0.37207v0.37207h0.37207v-0.37207zm0 0.74414v0.74415h0.37207v-0.74415zm1.1162-1.1162v1.8604h0.37207v-0.37207h0.37207v-0.37208h-0.37207v-1.1162zm0.74414 1.1162h0.37207v-0.37207h-0.37207zm0.37207 0v0.37208h0.37207v0.37207h0.37207v-1.8604h-0.37207v1.1162zm1.4888-1.1162v1.8604h0.37207v-1.8604zm1.4883 0v0.37207h1.4883v-0.37207zm0 0.37207h-0.37207v0.37207h0.37207zm0 0.37207v0.37207h1.1162v-0.37207zm1.1162 0.37207v0.37208h0.37207v-0.37208zm0 0.37208h-1.4883v0.37207h1.4883zm1.1162-1.4883v1.8604h1.8609v-0.37207h-1.4888v-0.37208h1.1167v-0.37207h-1.1167v-0.37207h1.4888v-0.37207zm4.4654 0v1.8604h0.37208v-1.8604zm1.1162 0v0.37207h0.74414v1.4883h0.37258v-1.4883h0.74414v-0.37207zm4.4654 0v1.8604h0.37207v-1.8604zm1.4883 0v0.37207h1.4888v-0.37207zm0 0.37207h-0.37207v0.37207h0.37207zm0 0.37207v0.37207h1.1167v-0.37207zm1.1167 0.37207v0.37208h0.37207v-0.37208zm0 0.37208h-1.4888v0.37207h1.4888zm2.9766-1.4883v1.4883h0.37207v-1.4883zm0.37207 1.4883v0.37207h1.1162v-0.37207zm1.1162 0h0.37259v-1.4883h-0.37259zm1.4888-1.4883v0.37207h1.4883v-0.37207zm0 0.37207h-0.37207v0.37207h0.37207zm0 0.37207v0.37207h1.1162v-0.37207zm1.1162 0.37207v0.37208h0.37207v-0.37208zm0 0.37208h-1.4883v0.37207h1.4883zm1.1162-1.4883v1.8604h1.8609v-0.37207h-1.4888v-0.37208h1.1162v-0.37207h-1.1162v-0.37207h1.4888v-0.37207zm2.605 0v1.8604h1.8604v-0.37207h-1.4883v-1.4883zm2.6045 0v1.8604h1.8604v-0.37207h-1.4883v-0.37208h1.1162v-0.37207h-1.1162v-0.37207h1.4883v-0.37207zm2.9771 0v0.37207h1.4883v-0.37207zm0 0.37207h-0.37207v0.37207h0.37207zm0 0.37207v0.37207h1.1162v-0.37207zm1.1162 0.37207v0.37208h0.37207v-0.37208zm0 0.37208h-1.4883v0.37207h1.4883zm1.4883-1.4883v0.37207h1.4883v-0.37207zm0 0.37207h-0.37207v0.37207h0.37207zm0 0.37207v0.37207h1.1162v-0.37207zm1.1162 0.37207v0.37208h0.37207v-0.37208zm0 0.37208h-1.4883v0.37207h1.4883zm1.1167 0v0.37207h0.37207v-0.37207zm-81.491 5.0607v0.37207h0.74414v1.4888h0.37207v-1.4888h0.74414v-0.37207zm2.6045 0v1.8609h0.37207v-0.74414h1.1162v0.74414h0.37207v-1.8609h-0.37207v0.74414h-1.1162v-0.74414zm2.9771 0v0.37207h1.1162v-0.37207zm1.1162 0.37207v1.1167h0.37207v-1.1167zm0 1.1167h-1.1162v0.37207h1.1162zm-1.1162 0v-1.1167h-0.37207v1.1167zm2.2324-1.4888v1.4888h0.37207v-1.4888zm0.37207 1.4888v0.37207h1.1162v-0.37207zm1.1162 0h0.37208v-1.4888h-0.37208zm1.4888-1.4888v0.37207h1.4883v-0.37207zm0 0.37207h-0.37258v1.1167h0.37258zm0 1.1167v0.37207h1.4883v-1.1167h-0.74414v0.37259h0.37207v0.37207zm2.2324-1.4888v1.8609h0.37207v-0.74414h1.1162v0.74414h0.37207v-1.8609h-0.37207v0.74414h-1.1162v-0.74414zm4.4654 0v0.37207h0.74414v1.4888h0.37207v-1.4888h0.74414v-0.37207zm2.9766 0v0.37207h1.1167v-0.37207zm1.1167 0.37207v1.1167h0.37207v-1.1167zm0 1.1167h-1.1167v0.37207h1.1167zm-1.1167 0v-1.1167h-0.37207v1.1167zm2.605-1.4888v0.37207h1.1162v-0.37207zm1.1162 0.37207v1.1167h0.37207v-1.1167zm0 1.1167h-1.1162v0.37207h1.1162zm-1.1162 0v-1.1167h-0.37207v1.1167zm2.2324-1.4888v1.8609h1.8609v-0.37207h-1.4888v-1.4888zm2.9771 0v0.37207h1.4883v-0.37207zm0 0.37207h-0.37207v0.37207h0.37207zm0 0.37207v0.37259h1.1162v-0.37259zm1.1162 0.37259v0.37207h0.37207v-0.37207zm0 0.37207h-1.4883v0.37207h1.4883zm3.3492-1.4888v0.37207h1.4883v-0.37207zm0 0.37207h-0.37207v1.1167h0.37207zm0 1.1167v0.37207h1.4883v-0.37207zm2.6045-1.4888v0.37207h1.1162v-0.37207zm1.1162 0.37207v0.37207h-1.1162v-0.37207h-0.37207v1.4888h0.37207v-0.74414h1.1162v0.74414h0.37207v-1.4888zm1.1162-0.37207v1.8609h0.37259v-1.1167h0.37207v-0.37207h-0.37207v-0.37207zm0.74466 0.74414v0.37259h0.37207v-0.37259zm0.37207 0.37259v0.37207h0.37207v0.37207h0.37207v-1.8609h-0.37207v1.1167zm3.3486-1.1167v1.8609h1.4888v-0.37207h-1.1167v-0.37207h1.1167v-0.37259h-1.1167v-0.37207h1.1167v-0.37207zm1.4888 0.37207v0.37207h0.37207v-0.37207zm0 0.74466v0.37207h0.37207v-0.37207zm1.1162-1.1167v1.8609h1.8604v-0.37207h-1.4883v-0.37207h1.1162v-0.37259h-1.1162v-0.37207h1.4883v-0.37207zm4.8374 0v0.37207h1.1162v-0.37207zm1.1162 0.37207v0.37207h-1.1162v-0.37207h-0.37207v1.4888h0.37207v-0.74414h1.1162v0.74414h0.37207v-1.4888zm1.1162-0.37207v1.8609h0.37207v-0.74414h1.1162v-0.37259h-1.1162v-0.37207h1.1162v-0.37207zm1.4883 0.37207v0.37207h0.37207v-0.37207zm0 0.74466v0.74414h0.37207v-0.74414zm1.1167-1.1167v0.37207h0.74414v1.4888h0.37207v-1.4888h0.74414v-0.37207zm5.5816 0v0.37207h0.74415v1.4888h0.37207v-1.4888h0.74414v-0.37207zm2.6045 0v1.8609h0.37207v-0.74414h1.1162v0.74414h0.37207v-1.8609h-0.37207v0.74414h-1.1162v-0.74414zm2.605 0v1.8609h1.8604v-0.37207h-1.4883v-0.37207h1.1162v-0.37259h-1.1162v-0.37207h1.4883v-0.37207zm2.6045 0v0.37207h0.37207v-0.37207zm0.37207 0.37207v0.37207h0.37207v-0.37207zm0.37207 0.37207v1.1167h0.37207v-1.1167zm0.37207 0h0.37207v-0.37207h-0.37207zm0.37207-0.37207h0.37207v-0.37207h-0.37207zm2.9771-0.37207v1.8609h0.37207v-1.1167h0.37207v-0.37207h-0.37207v-0.37207zm0.74414 0.74414v0.37259h0.37207v-0.37259zm0.37207 0h0.37207v1.1167h0.37207v-1.8609h-0.37207v0.37207h-0.37207zm1.4883-0.74414v1.4888h0.37207v-1.4888zm0.37207 1.4888v0.37207h1.1167v-0.37207zm1.1167 0h0.37207v-1.4888h-0.37207zm1.4883-1.4888v0.37207h1.4883v-0.37207zm0 0.37207h-0.37207v0.37207h0.37207zm0 0.37207v0.37259h1.1162v-0.37259zm1.1162 0.37259v0.37207h0.37207v-0.37207zm0 0.37207h-1.4883v0.37207h1.4883zm1.1162-1.4888v0.37207h0.74414v1.4888h0.37207v-1.4888h0.74466v-0.37207zm-23.07 1.1167v0.74414h0.37207v-0.74414zm-49.862 2.158v0.37207h1.1162v-0.37207zm1.1162 0.37207v0.37207h-1.1162v-0.37207h-0.37207v1.4883h0.37207v-0.74415h1.1162v0.74415h0.37207v-1.4883zm1.1162-0.37207v1.8604h1.8609v-0.37207h-1.4888v-1.4883zm2.605 0v1.8604h0.37207v-0.37207h0.37207v-0.37208h-0.37207v-1.1162zm0.74414 1.1162h0.37207v-0.37207h-0.37207zm0.37207 0v0.37208h0.37207v0.37207h0.37208v-1.8604h-0.37208v1.1162zm1.8604-1.1162v0.37207h1.1167v-0.37207zm1.1167 0.37207v0.37207h-1.1167v-0.37207h-0.37207v1.4883h0.37207v-0.74415h1.1167v0.74415h0.37207v-1.4883zm1.1162-0.37207v0.37207h0.37208v-0.37207zm0.37208 0.37207v0.37207h0.37207v-0.37207zm0.37207 0.37207v1.1162h0.37207v-1.1162zm0.37207 0h0.37207v-0.37207h-0.37207zm0.37207-0.37207h0.37207v-0.37207h-0.37207zm1.4883-0.37207v0.37207h1.4888v-0.37207zm0 0.37207h-0.37207v0.37207h0.37207zm0 0.37207v0.37207h1.1162v-0.37207zm1.1162 0.37207v0.37208h0.37259v-0.37208zm0 0.37208h-1.4883v0.37207h1.4883zm2.9771-1.4883v1.8604h1.4883v-0.37207h-1.1162v-0.37208h1.1162v-0.37207h-1.1162v-0.37207h1.1162v-0.37207zm1.4883 0.37207v0.37207h0.37207v-0.37207zm0 0.74414v0.37208h0.37207v-0.37208zm1.1167-1.1162v1.8604h1.8604v-0.37207h-1.4883v-0.37208h1.1162v-0.37207h-1.1162v-0.37207h1.4883v-0.37207zm4.4648 0v1.8604h0.37207v-1.8604zm1.1167 0v1.8604h0.37207v-1.1162h0.37207v-0.37207h-0.37207v-0.37207zm0.74414 0.74414v0.37207h0.37207v-0.37207zm0.37207 0.37207v0.37208h0.37207v0.37207h0.37207v-1.8604h-0.37207v1.1162zm3.7207-1.1162v0.37207h1.4888v-0.37207zm0 0.37207h-0.37207v0.37207h0.37207zm0 0.37207v0.37207h1.1167v-0.37207zm1.1167 0.37207v0.37208h0.37207v-0.37208zm0 0.37208h-1.4888v0.37207h1.4888zm1.1162-1.4883v1.8604h1.8604v-0.37207h-1.4883v-0.37208h1.1162v-0.37207h-1.1162v-0.37207h1.4883v-0.37207zm2.6045 0v1.8604h0.37207v-0.74415h1.1167v-0.37207h-1.1167v-0.37207h1.1167v-0.37207zm1.4888 0.37207v0.37207h0.37207v-0.37207zm0 0.74414v0.74415h0.37207v-0.74415zm1.1162-1.1162v1.1162h0.37207v-1.1162zm0.37207 1.1162v0.37208h0.37207v-0.37208zm0.37207 0.37208v0.37207h0.37207v-0.37207zm0.37207 0h0.37207v-0.37208h-0.37207zm0.37207-0.37208h0.37207v-1.1162h-0.37207zm1.1162-1.1162v1.8604h0.37207v-1.8604zm1.4888 0v0.37207h1.4883v-0.37207zm0 0.37207h-0.37259v1.1162h0.37259zm0 1.1162v0.37207h1.4883v-0.37207zm2.2324-1.4883v1.8604h1.8604v-0.37207h-1.4883v-0.37208h1.1162v-0.37207h-1.1162v-0.37207h1.4883v-0.37207zm4.8374 0v0.37207h1.1162v-0.37207zm1.1162 0.37207v1.1162h0.37207v-1.1162zm0 1.1162h-1.1162v0.37207h1.1162zm-1.1162 0v-1.1162h-0.37207v1.1162zm2.2324-1.4883v1.8604h0.37207v-0.74415h0.74414v-0.37207h-0.74414v-0.37207h1.1167v-0.37207zm4.4654 0v0.37207h1.4883v-0.37207zm0 0.37207h-0.37207v1.1162h0.37207zm0 1.1162v0.37207h1.4883v-0.37207zm2.2324-1.4883v1.8604h0.37259v-0.74415h1.1162v-0.37207h-1.1162v-0.37207h1.1162v-0.37207zm1.4888 0.37207v0.37207h0.37207v-0.37207zm0 0.74414v0.74415h0.37207v-0.74415zm1.1162-1.1162v1.8604h1.8604v-0.37207h-1.4883v-0.37208h1.1162v-0.37207h-1.1162v-0.37207h1.4883v-0.37207zm2.9771 0v0.37207h1.1162v-0.37207zm1.1162 0.37207v0.37207h-1.1162v-0.37207h-0.37259v1.4883h0.37259v-0.74415h1.1162v0.74415h0.37207v-1.4883zm1.1162-0.37207v0.37207h0.74414v1.4883h0.37207v-1.4883h0.74414v-0.37207zm2.6045 0v1.8604h0.37207v-1.8604zm1.4888 0v0.37207h1.1162v-0.37207zm1.1162 0.37207v1.1162h0.37207v-1.1162zm0 1.1162h-1.1162v0.37207h1.1162zm-1.1162 0v-1.1162h-0.37207v1.1162zm2.2324-1.4883v1.8604h0.37207v-1.1162h0.37207v-0.37207h-0.37207v-0.37207zm0.74414 0.74414v0.37207h0.37207v-0.37207zm0.37207 0.37207v0.37208h0.37207v0.37207h0.37207v-1.8604h-0.37207v1.1162zm1.4888 0.37208v0.37207h0.37207v-0.37207z" stroke-width=".097071"/></svg>
