<?xml version="1.0" encoding="UTF-8"?>
<svg width="95mm" height="45.453mm" version="1.1" viewBox="0 0 95 45.453" xmlns="http://www.w3.org/2000/svg"><path d="m5.3361 2.215e-4c-0.89768 0-1.9305 0.12814-2.6572 0.32763-0.66257 0.19236-1.1826 0.42756-1.603 0.74104-0.56283 0.42747-0.85524 0.94033-0.85524 1.496 0 0.53433 0.2923 1.0474 0.84801 1.4748 0.87631 0.6697 2.4933 1.0754 4.2602 1.0754 0.94755 0 1.8812-0.12072 2.6577-0.34158 0.69107-0.19236 1.1826-0.41361 1.5958-0.72709 0.56283-0.42034 0.8692-0.94044 0.8692-1.5033 0-0.53433-0.29242-1.0401-0.85525-1.4676-0.88344-0.6697-2.4791-1.0754-4.2602-1.0754zm10.502 0c-0.83356 0-1.6031 0.056948-2.2086 0.16381-0.80506 0.14961-1.318 0.34189-1.7668 0.66249-0.29923 0.20661-0.54895 0.47721-0.69143 0.72657h0.30644l0.0284-0.042891c0.20661-0.27785 0.44197-0.47726 0.78394-0.66249 0.69108-0.38472 1.9379-0.59118 3.5124-0.59118 1.3109 0 2.5717 0.16387 3.3554 0.4346 0.45597 0.15674 0.70539 0.40605 0.70539 0.69815 0 0.28498-0.27803 0.54138-0.71262 0.66249-0.41322 0.11399-0.85476 0.14946-1.959 0.15658h-1.3038c-0.22086 0-0.40601 2.208e-4 -0.76223 0.014469-0.28498 0.00712-0.55569 0.021297-0.7338 0.028422-0.68395 0.035622-1.0618 0.078321-1.4537 0.16381-0.78369 0.17099-1.2963 0.49196-1.6454 1.0263-0.20661 0.31348-0.27802 0.64086-0.27802 1.2464v0.24236h9.1266v-0.26355h-8.8558v-0.078548c0-0.62695 0.14267-0.98995 0.51314-1.3462 0.49158-0.47734 1.154-0.66267 2.5931-0.74104 0.56995-0.028498 1.4606-0.042891 2.8143-0.042891 1.1542-0.00712 1.5957-0.042699 2.0231-0.16381 0.54858-0.14961 0.91209-0.51312 0.91209-0.91209 0-0.39184-0.32084-0.72656-0.88367-0.92604-0.81219-0.2921-2.0587-0.45579-3.4194-0.45579zm-10.502 0.25632c1.7241 0 3.2701 0.38469 4.1036 1.033 0.48446 0.37047 0.74104 0.79771 0.74104 1.2537 0 1.3394-2.0449 2.3156-4.8519 2.3156-1.7099 0-3.2772-0.39181-4.1036-1.033-0.47734-0.37047-0.73381-0.80494-0.73381-1.2609 0-0.78369 0.69821-1.4679 1.9379-1.8883 0.76944-0.2636 1.8809-0.42013 2.9068-0.42013zm16.066 3.9894v0.6842h0.27079v-0.6842zm28.491 1.7193c-0.94043 0-1.8812 0.114-2.6577 0.33486-0.69107 0.19236-1.1827 0.42033-1.603 0.73381-0.56283 0.42747-0.85473 0.94033-0.85473 1.496 0 0.53433 0.29231 1.0474 0.84801 1.4748 0.87631 0.6697 2.4933 1.0759 4.2602 1.0759 1.5246 0 3.0206-0.32058 3.8969-0.83354 0.39897-0.23511 0.63439-0.43447 0.85525-0.72657h-0.32091c-0.21373 0.20661-0.34168 0.30636-0.54829 0.4346-0.85493 0.53433-2.3368 0.8692-3.8757 0.8692-1.717 0-3.2844-0.39233-4.1109-1.0335-0.47734-0.37047-0.73381-0.80494-0.73381-1.2609 0-1.3394 2.0448-2.3084 4.8447-2.3084 0.78369 0 1.5813 0.08562 2.251 0.24236 0.57708 0.13536 1.1544 0.34891 1.5177 0.55552 0.24936 0.14961 0.42728 0.27834 0.65526 0.4992h0.32091c-0.72669-0.9618-2.5292-1.5534-4.7449-1.5534zm-24.466 0.13539-2.8779 4.7945h0.32763l2.6432-4.4168 2.6427 1.5529 2.665-1.5529 2.636 4.4168h0.31316l-2.8567-4.7945-2.7574 1.6175zm33.877 0-4.8374 4.7945h0.39171l3.1347-3.113h2.6577l3.1843 3.113h0.39894zm-59.304 0.04289 2.8784 4.7945 2.7358-1.6102 2.7569 1.6102 2.8572-4.7945h-0.31367l-2.636 4.424-2.6644-1.5601-2.6432 1.5601-2.6432-4.424zm11.848 0v4.7516h0.27079v-3.113h8.1359v3.113h0.27079v-4.7516h-0.27079v1.3751h-8.1359v-1.3751zm9.8175 0v4.7516h0.27079v-4.7516zm20.754 0c-0.59845 0-1.0188 0.04982-1.4035 0.16381-0.5557 0.17099-0.88376 0.40605-1.7244 1.2325l-0.71934 0.71262-0.71262 0.71934c-0.52721 0.53433-1.1254 0.96899-1.7167 1.2397-0.65545 0.29923-1.2258 0.42013-1.9952 0.42013h-0.24908v0.26355h0.12815c0.74094 0 1.1968-0.06373 1.7312-0.24185 0.56283-0.17811 1.0616-0.45616 1.5746-0.84801 0.35622-0.28498 0.71928-0.62679 1.4175-1.325l0.71985-0.71985c1.1399-1.1542 1.5745-1.3534 2.9709-1.3534h0.59118v-0.26355zm1.2537 0v4.7516h0.27079v-4.7516zm21.181 0v4.7516h7.7654v-0.26355h-7.4946v-4.4881zm-5.5428 0.34158 1.0614 1.0335h-2.1089zm-50.612 5.0323-8.4563 5.6353v0.31368l8.4563-5.6358zm53.146 0.54829-4.8374 4.7951h0.39171l3.1347-3.1135h2.6577l3.1848 3.1135h0.39894zm5.55 0v4.7951h0.27079v-4.346l8.3928 4.3889v-4.7951h-0.27079v4.346zm9.3757 0.04289v0.26355h4.2747v4.4886h0.27079v-4.4886h4.2674v-0.26355zm9.5255 0v4.7522h0.27079v-4.7522zm-24.444 0.3421 1.0614 1.033h-2.1089zm25.855 1.9234v0.26355h2.2939v-0.26355zm-74.733 3.6571-4.8374 4.7945h0.39171l3.1352-3.113h2.6572l3.1848 3.113h0.39894zm18.246 0-4.8374 4.7945h0.39171l3.1347-3.113h2.6577l3.1843 3.113h0.39894zm14.22 0-4.8374 4.7945h0.39171l3.1347-3.113h2.6577l3.1843 3.113h0.39894zm-44.912 0.04289v4.7516h0.27078v-3.113h7.7654c0.49159 0 0.69149-0.02158 0.86248-0.1142 0.25648-0.12824 0.41289-0.40616 0.41289-0.70538 0-0.27073-0.13508-0.52-0.34881-0.66249-0.18524-0.12112-0.3851-0.15658-0.92656-0.15658zm17.996 0v4.7516h7.7659v-0.26355h-7.4952v-4.4881zm15.446 0v0.26355h4.2747v4.4881h0.27027v-4.4881h4.268v-0.26355zm17.02 0v4.7516h5.2793c0.73382 0 1.446-0.05684 1.9875-0.15658 0.54146-0.09974 0.89073-0.22076 1.247-0.42736 0.52009-0.30635 0.79789-0.71255 0.79789-1.1756 0-0.43459-0.29205-0.86194-0.79789-1.1612-0.63407-0.38472-1.7526-0.58446-3.2417-0.58446h-0.96893c0.16387-0.09262 0.26355-0.27771 0.26355-0.49144 0-0.24936-0.13509-0.48464-0.34882-0.61288-0.18524-0.10687-0.39223-0.14211-0.92656-0.14211zm10.096 0v4.7516h7.7654v-0.26355h-7.4952v-4.4881zm8.3783 0v4.7516h9.1333v-0.26355h-8.8625v-2.8494h4.2886v-0.26407h-4.2886v-1.111h2.9208v-0.26355zm-68.666 0.26355h7.7587c0.44171 0 0.61952 0.02125 0.74776 0.0925 0.17099 0.09262 0.26355 0.24929 0.26355 0.46302 0 0.20661-0.0783 0.34932-0.22789 0.44907-0.12824 0.08549-0.29936 0.10645-0.7767 0.10645h-7.7654zm50.463 0h3.0205c0.44172 0 0.61993 0.02115 0.74104 0.08527 0.15674 0.07124 0.26355 0.23519 0.26355 0.40618 0 0.15674-0.0853 0.3061-0.22066 0.38447-0.12824 0.07837-0.30659 0.10697-0.78393 0.10697h-3.0205zm-38.28 0.07803 1.0614 1.033h-2.1089zm18.246 0 1.0614 1.033h-2.1089zm14.22 0 1.0614 1.033h-2.1089zm5.8136 1.1684h5.0012c0.71957 0 1.4179 0.05725 1.9451 0.14986 0.51296 0.09974 0.84057 0.20658 1.1612 0.39894 0.42747 0.25648 0.66249 0.57716 0.66249 0.94051 0 0.49871-0.49153 0.96884-1.2325 1.1968-0.62695 0.19236-1.5031 0.29197-2.529 0.29197h-5.0085zm-51.26 7.6357v0.37207h0.74414v1.4883h0.37207v-1.4883h0.74414v-0.37207zm2.9766 0v0.37207h1.1167v-0.37207zm1.1167 0.37207v1.1162h0.37207v-1.1162zm0 1.1162h-1.1167v0.37207h1.1167zm-1.1167 0v-1.1162h-0.37207v1.1162zm4.0933-1.4883v1.8604h1.4883v-0.37207h-1.1162v-0.37207h1.1162v-0.37207h-1.1162v-0.37207h1.1162v-0.37207zm1.4883 0.37207v0.37207h0.37207v-0.37207zm0 0.74414v0.37207h0.37207v-0.37207zm1.1167-1.1162v1.8604h1.8604v-0.37207h-1.4883v-0.37207h1.1162v-0.37207h-1.1162v-0.37207h1.4883v-0.37207zm4.4648 0v1.8604h0.37207v-0.74414h1.1167v0.74414h0.37207v-1.8604h-0.37207v0.74414h-1.1167v-0.74414zm2.605 0v1.4883h0.37207v-1.4883zm0.37207 1.4883v0.37207h1.1162v-0.37207zm1.1162 0h0.37207v-1.4883h-0.37207zm1.1162-1.4883v1.8604h0.37207v-1.1162h0.37207v-0.37207h-0.37207v-0.37207zm0.74414 0.74414v0.37207h0.37259v-0.37207zm0.37259 0h0.37207v1.1162h0.37207v-1.8604h-0.37207v0.37207h-0.37207zm1.8604-0.74414v0.37207h1.1162v-0.37207zm1.1162 0.37207v0.37207h-1.1162v-0.37207h-0.37207v1.4883h0.37207v-0.74414h1.1162v0.74414h0.37207v-1.4883zm1.1162-0.37207v1.8604h0.37207v-1.1162h0.37208v-0.37207h-0.37208v-0.37207zm0.74415 0.74414v0.37207h0.37258v-0.37207zm0.37258 0.37207v0.37207h0.37207v0.37207h0.37207v-1.8604h-0.37207v1.1162zm3.3486-1.1162v1.8604h0.37208v-1.8604zm1.4883 0v0.37207h1.4888v-0.37207zm0 0.37207h-0.37207v0.37207h0.37207zm0 0.37207v0.37207h1.1167v-0.37207zm1.1167 0.37207v0.37207h0.37207v-0.37207zm0 0.37207h-1.4888v0.37207h1.4888zm2.9766-1.4883v0.37207h0.74414v1.4883h0.37207v-1.4883h0.74465v-0.37207zm2.9771 0v0.37207h1.1162v-0.37207zm1.1162 0.37207v1.1162h0.37207v-1.1162zm0 1.1162h-1.1162v0.37207h1.1162zm-1.1162 0v-1.1162h-0.37207v1.1162zm4.0928-1.4883v1.8604h1.4888v-0.37207h-1.1162v-0.37207h1.1162v-0.37207h-1.1162v-0.37207h1.1162v-0.37207zm1.4888 0.37207v0.37207h0.37207v-0.37207zm0 0.74414v0.37207h0.37207v-0.37207zm1.1162-1.1162v1.8604h1.8604v-0.37207h-1.4883v-0.37207h1.1162v-0.37207h-1.1162v-0.37207h1.4883v-0.37207zm4.4654 0v1.8604h1.8604v-0.37207h-1.4883v-0.37207h1.1162v-0.37207h-1.1162v-0.37207h1.4883v-0.37207zm2.6045 0v0.37207h0.37207v-0.37207zm0.37207 0.37207v0.37207h0.37207v-0.37207zm0.37207 0.37207v0.37207h0.37207v-0.37207zm0.37207 0h0.37259v-0.37207h-0.37259zm0.37259-0.37207h0.37207v-0.37207h-0.37207zm-0.37259 0.74414v0.37207h0.37259v-0.37207zm0.37259 0.37207v0.37207h0.37207v-0.37207zm-0.74466-0.37207h-0.37207v0.37207h0.37207zm-0.37207 0.37207h-0.37207v0.37207h0.37207zm2.2329-1.4883v1.8604h0.37207v-0.74414h1.1162v-0.37207h-1.1162v-0.37207h1.1162v-0.37207zm1.4883 0.37207v0.37207h0.37207v-0.37207zm1.1162-0.37207v1.8604h0.37207v-0.74414h1.1162v-0.37207h-1.1162v-0.37207h1.1162v-0.37207zm1.4883 0.37207v0.37207h0.37259v-0.37207zm0 0.74414v0.74414h0.37259v-0.74414zm1.1167-1.1162v1.8604h1.8604v-0.37207h-1.4883v-0.37207h1.1162v-0.37207h-1.1162v-0.37207h1.4883v-0.37207zm2.9766 0v0.37207h1.4883v-0.37207zm0 0.37207h-0.37207v0.37207h0.37207zm0 0.37207v0.37207h1.1162v-0.37207zm1.1162 0.37207v0.37207h0.37207v-0.37207zm0 0.37207h-1.4883v0.37207h1.4883zm1.4888-1.4883v0.37207h1.4883v-0.37207zm0 0.37207h-0.37207v0.37207h0.37207zm0 0.37207v0.37207h1.1162v-0.37207zm1.1162 0.37207v0.37207h0.37207v-0.37207zm0 0.37207h-1.4883v0.37207h1.4883zm1.1162-1.4883v1.8604h0.37207v-1.8604zm1.1162 0v1.1162h0.37207v-1.1162zm0.37207 1.1162v0.37207h0.37207v-0.37207zm0.37207 0.37207v0.37207h0.37258v-0.37207zm0.37258 0h0.37207v-0.37207h-0.37207zm0.37207-0.37207h0.37207v-1.1162h-0.37207zm1.1162-1.1162v1.8604h1.8604v-0.37207h-1.4883v-0.37207h1.1162v-0.37207h-1.1162v-0.37207h1.4883v-0.37207zm2.6045 1.4883v0.37207h0.37207v-0.37207zm-73.305 5.0607v0.37207h0.74414v1.4883h0.37207v-1.4883h0.74414v-0.37207zm2.9766 0v0.37207h1.1167v-0.37207zm1.1167 0.37207v0.37207h-1.1167v-0.37207h-0.37207v1.4883h0.37207v-0.74414h1.1167v0.74414h0.37207v-1.4883zm1.1162-0.37207v1.8604h0.37207v-1.1162h0.37207v-0.37207h-0.37207v-0.37207zm0.74414 0.74414v0.37207h0.37207v-0.37207zm0.37207 0h0.37207v1.1162h0.37207v-1.8604h-0.37207v0.37207h-0.37207zm1.4883-0.74414v1.8604h0.37207v-1.8604zm1.1162 0v1.8604h0.37259v-1.1162h0.37207v-0.37207h-0.37207v-0.37207zm0.74466 0.74414v0.37207h0.37207v-0.37207zm0.37207 0.37207v0.37207h0.37207v0.37207h0.37207v-1.8604h-0.37207v1.1162zm1.8604-1.1162v0.37207h1.4883v-0.37207zm0 0.37207h-0.37207v1.1162h0.37207zm0 1.1162v0.37207h1.4883v-1.1162h-0.74414v0.37207h0.37207v0.37207zm4.0933-1.4883v1.8604h0.37207v-1.1162h0.37207v-0.37207h-0.37207v-0.37207zm0.74414 0.74414v0.37207h0.37207v-0.37207zm0.37207 0h0.37207v1.1162h0.37207v-1.8604h-0.37207v0.37207h-0.37207zm1.4883-0.74414v0.37207h0.37207v-0.37207zm0.37207 0.37207v0.37207h0.37207v-0.37207zm0.37207 0.37207v1.1162h0.37207v-1.1162zm0.37207 0h0.37207v-0.37207h-0.37207zm0.37207-0.37207h0.37259v-0.37207h-0.37259zm2.9771-0.37207v1.8604h1.8604v-0.37207h-1.4883v-0.37207h1.1162v-0.37207h-1.1162v-0.37207h1.4883v-0.37207zm2.605 0v1.8604h1.4883v-0.37207h-1.1162v-1.1162h1.1162v-0.37207zm1.4883 0.37207v1.1162h0.37207v-1.1162zm1.4883-0.37207v0.37207h1.4883v-0.37207zm0 0.37207h-0.37207v1.1162h0.37207zm0 1.1162v0.37207h1.4883v-1.1162h-0.74414v0.37207h0.37207v0.37207zm2.2324-1.4883v1.8604h1.8609v-0.37207h-1.4883v-0.37207h1.1162v-0.37207h-1.1162v-0.37207h1.4883v-0.37207zm4.4654 0v1.8604h0.37207v-1.8604zm1.1167 0v1.8604h0.37208v-1.1162h0.37207v-0.37207h-0.37207v-0.37207zm0.74415 0.74414v0.37207h0.37207v-0.37207zm0.37207 0.37207v0.37207h0.37207v0.37207h0.37207v-1.8604h-0.37207v1.1162zm3.7207-1.1162v0.37207h1.1167v-0.37207zm1.1167 0.37207v1.1162h0.37207v-1.1162zm0 1.1162h-1.1167v0.37207h1.1167zm-1.1167 0v-1.1162h-0.37207v1.1162zm2.2329-1.4883v1.8604h0.37207v-0.74414h1.1162v-0.37207h-1.1162v-0.37207h1.1162v-0.37207zm1.4883 0.37207v0.37207h0.37207v-0.37207zm0 0.74414v0.74414h0.37207v-0.74414zm1.1162-1.1162v1.8604h1.4888v-0.37207h-1.1167v-1.1162h1.1167v-0.37207zm1.4888 0.37207v1.1162h0.37207v-1.1162zm1.1162-0.37207v1.8604h1.8604v-0.37207h-1.4883v-0.37207h1.1162v-0.37207h-1.1162v-0.37207h1.4883v-0.37207zm2.6045 0v1.8604h0.37207v-0.74414h1.1167v-0.37207h-1.1167v-0.37207h1.1167v-0.37207zm1.4888 0.37207v0.37207h0.37207v-0.37207zm0 0.74414v0.74414h0.37207v-0.74414zm2.9766-1.1162v0.37207h0.74414v1.4883h0.37207v-1.4883h0.74414v-0.37207zm2.9771 0v0.37207h1.1162v-0.37207zm1.1162 0.37207v1.1162h0.37207v-1.1162zm0 1.1162h-1.1162v0.37207h1.1162zm-1.1162 0v-1.1162h-0.37207v1.1162zm4.0928-1.4883v1.8604h1.4888v-0.37207h-1.1167v-0.37207h1.1167v-0.37207h-1.1167v-0.37207h1.1167v-0.37207zm1.4888 0.37207v0.37207h0.37207v-0.37207zm0 0.74414v0.37207h0.37207v-0.37207zm1.1162-1.1162v1.8604h1.8604v-0.37207h-1.4883v-0.37207h1.1162v-0.37207h-1.1162v-0.37207h1.4883v-0.37207zm-65.491 3.2742v1.8609h0.37207v-0.74414h1.1162v-0.37259h-1.1162v-0.37207h1.1162v-0.37207zm1.4883 0.37207v0.37207h0.37207v-0.37207zm1.4883-0.37207v0.37207h1.1167v-0.37207zm1.1167 0.37207v0.37207h-1.1167v-0.37207h-0.37207v1.4888h0.37207v-0.74414h1.1167v0.74414h0.37207v-1.4888zm1.1162-0.37207v1.8609h1.8604v-0.37207h-1.4883v-1.4888zm2.9766 0v0.37207h1.1167v-0.37207zm1.1167 0.37207v0.37207h-1.1167v-0.37207h-0.37207v1.4888h0.37207v-0.74414h1.1167v0.74414h0.37207v-1.4888zm1.1162-0.37207v0.37207h0.74414v1.4888h0.37207v-1.4888h0.74414v-0.37207zm2.9766 0v0.37207h1.1162v-0.37207zm1.1162 0.37207v0.37207h-1.1162v-0.37207h-0.37207v1.4888h0.37207v-0.74414h1.1162v0.74414h0.37259v-1.4888zm1.1167-0.37207v1.8609h1.4883v-0.37207h-1.1162v-0.37207h1.1162v-0.37259h-1.1162v-0.37207h1.1162v-0.37207zm1.4883 0.37207v0.37207h0.37207v-0.37207zm0 0.74466v0.37207h0.37207v-0.37207zm1.1162-1.1167v1.8609h1.8604v-0.37207h-1.4883v-1.4888zm2.605 0v1.8609h1.8604v-0.37207h-1.4883v-0.37207h1.1162v-0.37259h-1.1162v-0.37207h1.4883v-0.37207zm4.4648 0v1.8609h0.37258v-0.37207h0.37207v-0.37207h-0.37207v-1.1167zm0.74465 1.1167h0.37207v-0.37259h-0.37207zm0.37207 0v0.37207h0.37207v0.37207h0.37207v-1.8609h-0.37207v1.1167zm1.8604-1.1167v0.37207h1.1162v-0.37207zm1.1162 0.37207v1.1167h0.37207v-1.1167zm0 1.1167h-1.1162v0.37207h1.1162zm-1.1162 0v-1.1167h-0.37207v1.1167zm2.2324-1.4888v1.4888h0.37207v-1.4888zm0.37207 1.4888v0.37207h1.1167v-0.37207zm1.1167 0h0.37207v-1.4888h-0.37207zm1.1162-1.4888v1.8609h1.8604v-0.37207h-1.4883v-1.4888zm2.6045 0v1.8609h1.4888v-0.37207h-1.1167v-1.1167h1.1167v-0.37207zm1.4888 0.37207v1.1167h0.37207v-1.1167zm2.9766-0.37207v1.8609h0.37207v-1.8609zm1.1162 0v1.8609h0.37207v-1.1167h0.37259v-0.37207h-0.37259v-0.37207zm0.74466 0.74414v0.37259h0.37207v-0.37259zm0.37207 0.37259v0.37207h0.37207v0.37207h0.37207v-1.8609h-0.37207v1.1167zm1.8604-1.1167v0.37207h1.4883v-0.37207zm0 0.37207h-0.37207v0.37207h0.37207zm0 0.37207v0.37259h1.1162v-0.37259zm1.1162 0.37259v0.37207h0.37207v-0.37207zm0 0.37207h-1.4883v0.37207h1.4883zm1.1162-1.4888v0.37207h0.74414v1.4888h0.37259v-1.4888h0.74414v-0.37207zm2.605 0v1.8609h0.37207v-1.8609zm1.1162 0v1.8609h1.8604v-0.37207h-1.4883v-1.4888zm2.605 0v1.8609h1.8604v-0.37207h-1.4883v-1.4888zm4.4648 0v0.37207h0.74414v1.4888h0.37259v-1.4888h0.74414v-0.37207zm2.605 0v1.8609h0.37207v-0.74414h1.1162v0.74414h0.37207v-1.8609h-0.37207v0.74414h-1.1162v-0.74414zm2.6045 0v1.8609h1.8609v-0.37207h-1.4888v-0.37207h1.1167v-0.37259h-1.1167v-0.37207h1.4888v-0.37207zm4.8374 0v0.37207h1.4883v-0.37207zm0 0.37207h-0.37207v0.37207h0.37207zm0 0.37207v0.37259h1.1162v-0.37259zm1.1162 0.37259v0.37207h0.37207v-0.37207zm0 0.37207h-1.4883v0.37207h1.4883zm1.4888-1.4888v0.37207h1.1162v-0.37207zm1.1162 0.37207v0.37207h-1.1162v-0.37207h-0.37207v1.4888h0.37207v-0.74414h1.1162v0.74414h0.37207v-1.4888zm1.1162-0.37207v1.8609h0.37207v-1.1167h0.37207v-0.37207h-0.37207v-0.37207zm0.74414 0.74414v0.37259h0.37207v-0.37259zm0.37207 0h0.37207v1.1167h0.37207v-1.8609h-0.37207v0.37207h-0.37207zm1.4888-0.74414v1.8609h1.8604v-0.37207h-1.4883v-0.37207h1.1162v-0.37259h-1.1162v-0.37207h1.4883v-0.37207zm-74.793 3.2747v1.1162h0.37207v-1.1162zm0.37207 1.1162v0.37207h0.37207v-0.37207zm0.37207 0.37207v0.37207h0.37207v-0.37207zm0.37207 0h0.37207v-0.37207h-0.37207zm0.37207-0.37207h0.37207v-1.1162h-0.37207zm1.4883-1.1162v0.37207h1.1167v-0.37207zm1.1167 0.37207v0.37207h-1.1167v-0.37207h-0.37207v1.4883h0.37207v-0.74414h1.1167v0.74414h0.37207v-1.4883zm1.1162-0.37207v1.8604h1.8604v-0.37207h-1.4883v-1.4883zm2.6045 0v1.4883h0.37207v-1.4883zm0.37207 1.4883v0.37207h1.1167v-0.37207zm1.1167 0h0.37207v-1.4883h-0.37207zm1.1162-1.4883v1.8604h1.8604v-0.37207h-1.4883v-0.37207h1.1162v-0.37207h-1.1162v-0.37207h1.4883v-0.37207zm2.9766 0v0.37207h1.4888v-0.37207zm0 0.37207h-0.37207v0.37207h0.37207zm0 0.37207v0.37207h1.1162v-0.37207zm1.1162 0.37207v0.37207h0.37259v-0.37207zm0 0.37207h-1.4883v0.37207h1.4883zm2.9771-1.4883v0.37207h0.74414v1.4883h0.37207v-1.4883h0.74414v-0.37207zm2.9771 0v0.37207h1.1162v-0.37207zm1.1162 0.37207v1.1162h0.37207v-1.1162zm0 1.1162h-1.1162v0.37207h1.1162zm-1.1162 0v-1.1162h-0.37259v1.1162zm4.0928-1.4883v1.8604h0.37207v-1.1162h0.37208v-0.37207h-0.37208v-0.37207zm0.74415 0.74414v0.37207h0.37258v-0.37207zm0.37258 0h0.37207v1.1162h0.37207v-1.8604h-0.37207v0.37207h-0.37207zm1.4883-0.74414v0.37207h0.37207v-0.37207zm0.37207 0.37207v0.37207h0.37207v-0.37207zm0.37207 0.37207v1.1162h0.37207v-1.1162zm0.37207 0h0.37207v-0.37207h-0.37207zm0.37207-0.37207h0.37207v-0.37207h-0.37207zm2.9771-0.37207v1.4883h0.37207v-1.4883zm0.37207 1.4883v0.37207h1.1162v-0.37207zm1.1162 0h0.37207v-1.4883h-0.37207zm1.4883-1.4883v0.37207h1.4883v-0.37207zm0 0.37207h-0.37207v0.37207h0.37207zm0 0.37207v0.37207h1.1162v-0.37207zm1.1162 0.37207v0.37207h0.37207v-0.37207zm0 0.37207h-1.4883v0.37207h1.4883zm1.1167-1.4883v1.8604h1.8604v-0.37207h-1.4883v-0.37207h1.1162v-0.37207h-1.1162v-0.37207h1.4883v-0.37207zm2.6045 0v1.8604h0.37207v-0.74414h1.1162v-0.37207h-1.1162v-0.37207h1.1162v-0.37207zm1.4883 0.37207v0.37207h0.37207v-0.37207zm0 0.74414v0.74414h0.37207v-0.74414zm1.4888-1.1162v0.37207h1.4883v-0.37207zm0 0.37207h-0.37207v0.37207h0.37207zm0 0.37207v0.37207h1.1162v-0.37207zm1.1162 0.37207v0.37207h0.37207v-0.37207zm0 0.37207h-1.4883v0.37207h1.4883zm4.0933-1.4883v1.8604h1.8604v-0.37207h-1.4883v-1.4883zm2.6045 0v1.8604h1.8604v-0.37207h-1.4883v-0.37207h1.1162v-0.37207h-1.1162v-0.37207h1.4883v-0.37207zm2.9771 0v0.37207h1.1162v-0.37207zm1.1162 0.37207v0.37207h-1.1162v-0.37207h-0.37207v1.4883h0.37207v-0.74414h1.1162v0.74414h0.37207v-1.4883zm1.1162-0.37207v1.8604h1.4883v-0.37207h-1.1162v-1.1162h1.1162v-0.37207zm1.4883 0.37207v1.1162h0.37207v-1.1162zm1.1162-0.37207v1.8604h0.37259v-1.8604zm1.1167 0v1.8604h0.37207v-1.1162h0.37207v-0.37207h-0.37207v-0.37207zm0.74414 0.74414v0.37207h0.37207v-0.37207zm0.37207 0.37207v0.37207h0.37207v0.37207h0.37207v-1.8604h-0.37207v1.1162zm1.8604-1.1162v0.37207h1.4883v-0.37207zm0 0.37207h-0.37207v1.1162h0.37207zm0 1.1162v0.37207h1.4883v-1.1162h-0.74414v0.37207h0.37207v0.37207zm4.0933-1.4883v0.37207h0.74414v1.4883h0.37207v-1.4883h0.74415v-0.37207zm2.6045 0v1.8604h0.37258v-0.74414h1.1162v0.74414h0.37207v-1.8604h-0.37207v0.74414h-1.1162v-0.74414zm2.605 0v1.8604h1.8604v-0.37207h-1.4883v-0.37207h1.1162v-0.37207h-1.1162v-0.37207h1.4883v-0.37207zm2.6045 0v1.8604h0.37207v-1.1162h0.37258v-0.37207h-0.37258v-0.37207zm0.74465 0.74414v0.37207h0.37207v-0.37207zm0.37207 0h0.37207v1.1162h0.37208v-1.8604h-0.37208v0.37207h-0.37207zm3.3486-0.74414v0.37207h0.74414v1.4883h0.37207v-1.4883h0.74466v-0.37207zm2.9771 0v0.37207h1.1162v-0.37207zm1.1162 0.37207v1.1162h0.37207v-1.1162zm0 1.1162h-1.1162v0.37207h1.1162zm-1.1162 0v-1.1162h-0.37207v1.1162zm-36.839-0.37207v0.74414h0.37207v-0.74414zm-44.28 2.1585v0.37207h1.4883v-0.37207zm0 0.37207h-0.37207v1.1162h0.37207zm0 1.1162v0.37207h1.4883v-0.37207zm2.2324-1.4883v1.8604h0.37207v-0.74414h1.1167v-0.37207h-1.1167v-0.37207h1.1167v-0.37207zm1.4888 0.37207v0.37207h0.37207v-0.37207zm0 0.74414v0.74414h0.37207v-0.74414zm1.1162-1.1162v1.8604h1.8604v-0.37207h-1.4883v-0.37207h1.1162v-0.37207h-1.1162v-0.37207h1.4883v-0.37207zm2.9766 0v0.37207h1.1167v-0.37207zm1.1167 0.37207v0.37207h-1.1167v-0.37207h-0.37207v1.4883h0.37207v-0.74414h1.1167v0.74414h0.37207v-1.4883zm1.1162-0.37207v0.37207h0.74414v1.4883h0.37207v-1.4883h0.74414v-0.37207zm2.6045 0v1.8604h1.8609v-0.37207h-1.4888v-0.37207h1.1162v-0.37207h-1.1162v-0.37207h1.4888v-0.37207zm4.4654 0v1.1162h0.37207v-1.1162zm0.37207 1.1162v0.37207h0.37207v-0.37207zm0.37207 0.37207v0.37207h0.37207v-0.37207zm0.37207 0h0.37207v-0.37207h-0.37207zm0.37207-0.37207h0.37207v-1.1162h-0.37207zm1.4888-1.1162v0.37207h1.1162v-0.37207zm1.1162 0.37207v0.37207h-1.1162v-0.37207h-0.37259v1.4883h0.37259v-0.74414h1.1162v0.74414h0.37207v-1.4883zm1.1162-0.37207v1.8604h0.37207v-0.74414h1.1162v-0.37207h-1.1162v-0.37207h1.1162v-0.37207zm1.4883 0.37207v0.37207h0.37207v-0.37207zm1.1162-0.37207v1.8604h0.37258v-1.8604zm1.1167 0v1.8604h1.4883v-0.37207h-1.1162v-1.1162h1.1162v-0.37207zm1.4883 0.37207v1.1162h0.37207v-1.1162zm3.3492-0.37207v0.37207h1.1162v-0.37207zm1.1162 0.37207v0.37207h-1.1162v-0.37207h-0.37258v1.4883h0.37258v-0.74414h1.1162v0.74414h0.37207v-1.4883zm1.1162-0.37207v1.8604h0.37207v-0.74414h1.1162v-0.37207h-1.1162v-0.37207h1.1162v-0.37207zm1.4883 0.37207v0.37207h0.37207v-0.37207zm0 0.74414v0.74414h0.37207v-0.74414zm1.1162-1.1162v0.37207h0.74466v1.4883h0.37207v-1.4883h0.74414v-0.37207zm2.605 1.4883v0.37207h0.37207v-0.37207z" stroke-width=".097071"/></svg>
