<?xml version="1.0" encoding="UTF-8"?>
<svg width="95mm" height="33.124mm" version="1.1" viewBox="0 0 95 33.124" xmlns="http://www.w3.org/2000/svg"><path d="m77.929 3e-5c-0.89769 0-1.9305 0.12814-2.6572 0.32763-0.66258 0.19236-1.1826 0.42757-1.603 0.74104-0.56283 0.42747-0.85525 0.94032-0.85525 1.496 0 0.53433 0.29231 1.0474 0.84802 1.4748 0.87631 0.6697 2.4933 1.0759 4.2602 1.0759 0.94755 0 1.8812-0.12125 2.6577-0.3421 0.69107-0.19236 1.1826-0.41309 1.5958-0.72657 0.56283-0.42034 0.8692-0.94044 0.8692-1.5033 0-0.53433-0.2919-1.0402-0.85473-1.4676-0.88344-0.6697-2.4796-1.0759-4.2607-1.0759zm6.2198 0.17777v0.26406h8.5137l-2.9497 1.4459c0.34198 0.0499 0.44878 0.0645 0.89762 0.1571 0.51296 0.0997 0.7769 0.1638 1.0904 0.26355 0.9618 0.28497 1.4888 0.67675 1.4888 1.0971 0 0.17099-0.0924 0.34173-0.25631 0.48421-0.24935 0.20661-0.62009 0.39203-1.0191 0.51314-0.94756 0.29211-2.2012 0.45579-3.4551 0.45579-1.1257 0-2.3654-0.14925-3.2132-0.37724-0.56995-0.15673-0.96887-0.34905-1.2325-0.59841-0.18523-0.17099-0.24941-0.32097-0.27079-0.5917h-0.27078c0.0142 0.56283 0.37752 0.94743 1.1968 1.2609 0.84781 0.32772 2.4154 0.56327 3.8189 0.56327 0.82643 0 1.7527-0.0859 2.5079-0.22841 0.70532-0.12824 1.1898-0.27036 1.603-0.47697 0.56996-0.27785 0.8692-0.61977 0.8692-0.99736 0-0.44172-0.37752-0.83362-1.0971-1.14-0.51296-0.22085-1.1613-0.39935-1.8025-0.49196l2.714-1.3389v-0.26406zm-6.2198 0.0786c1.7241 0 3.2701 0.38468 4.1036 1.033 0.48446 0.37047 0.74104 0.79822 0.74104 1.2542 0 1.3394-2.0449 2.3151-4.8519 2.3151-1.7099 0-3.2772-0.39181-4.1036-1.033-0.47734-0.37047-0.7338-0.80495-0.7338-1.2609 0-0.78369 0.69822-1.4674 1.9379-1.8877 0.76944-0.26361 1.8809-0.42064 2.9068-0.42064zm16.799 3.9899v0.68368h0.27078v-0.68368zm-46.975 1.3059-8.4568 5.6353v0.31368l8.4568-5.6358zm-42.754 0.54828v4.7951h0.27078v-4.346l8.3928 4.3884v-4.7945h-0.27078v4.346zm9.8035 0.0429v4.7522h9.1333v-0.26355h-8.8625v-2.85h4.2886v-0.26355h-4.2886v-1.1116h2.9208v-0.26354zm7.2311 0 2.8784 4.7945 2.7358-1.6097 2.7569 1.6097 2.8572-4.7945h-0.31368l-2.636 4.4245-2.6644-1.5606-2.6432 1.5606-2.6432-4.4245zm57.712 5.7872c-0.89768 0-1.931 0.12814-2.6577 0.32763-0.66257 0.19236-1.1827 0.42756-1.603 0.74104-0.56283 0.42747-0.85472 0.94033-0.85472 1.496 0 0.53434 0.29178 1.0474 0.84749 1.4748 0.8763 0.66969 2.4938 1.0759 4.2607 1.0759 0.94755 0 1.8806-0.12124 2.6572-0.3421 0.69107-0.19236 1.1831-0.41309 1.5963-0.72657 0.56283-0.42034 0.86868-0.94044 0.86868-1.5033 0-0.53433-0.29189-1.0401-0.85473-1.4676-0.88343-0.66969-2.4791-1.0759-4.2602-1.0759zm-49.052 0.13539-4.838 4.7945h0.39223l3.1347-3.1135h2.6572l3.1848 3.1135h0.39894zm5.5495 0v4.7945h0.27079v-4.346l8.3928 4.3889v-4.795h-0.27078v4.346zm9.3762 0.0424v0.26406h4.2747v4.4881h0.27026v-4.4881h4.268v-0.26406zm9.525 0v4.7522h0.27079v-4.7522zm11.3 0c-0.59845 0-1.0188 0.0504-1.4035 0.16433-0.5557 0.17098-0.88325 0.40604-1.7239 1.2325l-0.71985 0.7121-0.71262 0.71985c-0.52721 0.53433-1.1254 0.969-1.7167 1.2397-0.65545 0.29923-1.2253 0.42013-1.9947 0.42013h-0.2496v0.26355h0.12816c0.74094 0 1.1968-0.0642 1.7312-0.24236 0.56283-0.17811 1.0616-0.45565 1.5746-0.8475 0.35622-0.28498 0.7198-0.6273 1.418-1.3255l0.71934-0.71933c1.1399-1.1542 1.5745-1.3534 2.9709-1.3534h0.59169v-0.26406zm1.2537 0v4.7522h7.7659v-0.26355h-7.4952v-4.4886zm17.99 0v4.7522h0.27079v-3.1135h7.7654c0.49159 0 0.69098-0.0211 0.86197-0.11369 0.25648-0.12824 0.41341-0.40617 0.41341-0.70539 0-0.27073-0.13561-0.52-0.34934-0.66249-0.18524-0.12111-0.38458-0.15709-0.92604-0.15709zm-5.9418 0.0785c1.7241 0 3.2701 0.38469 4.1036 1.033 0.48446 0.37047 0.74104 0.79822 0.74104 1.2542 0 1.3394-2.0449 2.3151-4.8519 2.3151-1.7099 0-3.2772-0.39182-4.1036-1.033-0.47734-0.37047-0.7338-0.80493-0.7338-1.2609 0-0.78368 0.69821-1.4674 1.9379-1.8877 0.76944-0.26361 1.8809-0.42065 2.9068-0.42065zm6.2125 0.18552h7.7582c0.44171 0 0.62003 0.0213 0.74827 0.0925 0.17099 0.0926 0.26355 0.24928 0.26355 0.46302 0 0.2066-0.0783 0.34881-0.22789 0.44856-0.12824 0.0855-0.29936 0.10697-0.7767 0.10697h-7.7654zm-55.258 0.078 1.062 1.033h-2.1089zm25.855 1.9239v0.26355h2.2939v-0.26355zm-49.001 7.0652v1.8604h1.4883v-0.37207h-1.1162v-0.37207h1.1162v-0.37207h-1.1162v-0.37207h1.1162v-0.37207zm1.4883 0.37207v0.37207h0.37207v-0.37207zm0 0.74414v0.37207h0.37207v-0.37207zm1.1162-1.1162v0.37207h0.37207v-0.37207zm0.37207 0.37207v0.37207h0.37207v-0.37207zm0.37207 0.37207v1.1162h0.37207v-1.1162zm0.37207 0h0.37207v-0.37207h-0.37207zm0.37207-0.37207h0.37259v-0.37207h-0.37259zm2.9771-0.37207v1.8604h1.8604v-0.37207h-1.4883v-0.37207h1.1162v-0.37207h-1.1162v-0.37207h1.4883v-0.37207zm2.605 0v0.37207h0.37207v-0.37207zm0.37207 0.37207v0.37207h0.37207v-0.37207zm0.37207 0.37207v0.37207h0.37207v-0.37207zm0.37207 0h0.37207v-0.37207h-0.37207zm0.37207-0.37207h0.37207v-0.37207h-0.37207zm-0.37207 0.74414v0.37207h0.37207v-0.37207zm0.37207 0.37207v0.37207h0.37207v-0.37207zm-0.74414-0.37207h-0.37207v0.37207h0.37207zm-0.37207 0.37207h-0.37207v0.37207h0.37207zm2.2324-1.4883v1.8604h0.37207v-0.74414h1.1162v-0.37207h-1.1162v-0.37207h1.1162v-0.37207zm1.4883 0.37207v0.37207h0.37207v-0.37207zm1.1162-0.37207v1.8604h1.8609v-0.37207h-1.4883v-1.4883zm2.9771 0v0.37207h1.1162v-0.37207zm1.1162 0.37207v1.1162h0.37207v-1.1162zm0 1.1162h-1.1162v0.37207h1.1162zm-1.1162 0v-1.1162h-0.37207v1.1162zm2.2324-1.4883v1.8604h0.37207v-0.74414h1.1167v-0.37207h-1.1167v-0.37207h1.1167v-0.37207zm1.4888 0.37207v0.37207h0.37207v-0.37207zm0 0.74414v0.74414h0.37207v-0.74414zm1.1162-1.1162v1.8604h0.37207v-1.8604zm1.1162 0v1.8604h0.37207v-1.1162h0.37207v-0.37207h-0.37207v-0.37207zm0.74414 0.74414v0.37207h0.37207v-0.37207zm0.37207 0.37207v0.37207h0.37207v0.37207h0.37207v-1.8604h-0.37207v1.1162zm1.8609-1.1162v0.37207h1.4883v-0.37207zm0 0.37207h-0.37207v1.1162h0.37207zm0 1.1162v0.37207h1.4883v-1.1162h-0.74414v0.37207h0.37207v0.37207zm4.0928-1.4883v1.8604h0.37207v-1.1162h0.37258v-0.37207h-0.37258v-0.37207zm0.74465 0.74414v0.37207h0.37207v-0.37207zm0.37207 0.37207v0.37207h0.37207v0.37207h0.37207v-1.8604h-0.37207v1.1162zm1.4883-1.1162v1.8604h1.8604v-0.37207h-1.4883v-0.37207h1.1162v-0.37207h-1.1162v-0.37207h1.4883v-0.37207zm2.6045 0v1.8604h0.37207v-0.37207h0.37207v-0.37207h-0.37207v-1.1162zm0.74414 1.1162h0.37258v-0.37207h-0.37258zm0.37258 0v0.37207h0.37207v0.37207h0.37208v-1.8604h-0.37208v1.1162zm3.7207-1.1162v0.37207h1.4888v-0.37207zm0 0.37207h-0.37207v1.1162h0.37207zm0 1.1162v0.37207h1.4888v-1.1162h-0.74466v0.37207h0.37207v0.37207zm2.2329-1.4883v1.8604h0.37207v-0.74414h1.1162v-0.37207h-1.1162v-0.37207h1.1162v-0.37207zm1.4883 0.37207v0.37207h0.37207v-0.37207zm0 0.74414v0.74414h0.37207v-0.74414zm1.4883-1.1162v0.37207h1.1162v-0.37207zm1.1162 0.37207v1.1162h0.37207v-1.1162zm0 1.1162h-1.1162v0.37207h1.1162zm-1.1162 0v-1.1162h-0.37207v1.1162zm2.2329-1.4883v1.4883h0.37207v-1.4883zm0.37207 1.4883v0.37207h1.1162v-0.37207zm1.1162 0h0.37207v-1.4883h-0.37207zm1.1162-1.4883v1.8604h0.37207v-1.1162h0.37207v-0.37207h-0.37207v-0.37207zm0.74414 0.74414v0.37207h0.37207v-0.37207zm0.37207 0.37207v0.37207h0.37207v0.37207h0.37207v-1.8604h-0.37207v1.1162zm1.4888-1.1162v1.8604h1.4883v-0.37207h-1.1162v-1.1162h1.1162v-0.37207zm1.4883 0.37207v1.1162h0.37207v-1.1162zm1.4883-0.37207v0.37207h1.4883v-0.37207zm0 0.37207h-0.37207v0.37207h0.37207zm0 0.37207v0.37207h1.1162v-0.37207zm1.1162 0.37207v0.37207h0.37207v-0.37207zm0 0.37207h-1.4883v0.37207h1.4883zm2.9771-1.4883v1.8604h0.37207v-1.8604zm3.3486 0v0.37207h1.1167v-0.37207zm1.1167 0.37207v0.37207h-1.1167v-0.37207h-0.37207v1.4883h0.37207v-0.74414h1.1167v0.74414h0.37207v-1.4883zm1.1162-0.37207v1.8604h0.37207v-1.1162h0.37207v-0.37207h-0.37207v-0.37207zm0.74414 0.74414v0.37207h0.37207v-0.37207zm0.37207 0h0.37207v1.1162h0.37207v-1.8604h-0.37207v0.37207h-0.37207zm3.7212-0.74414v0.37207h1.1162v-0.37207zm1.1162 0.37207v0.37207h-1.1162v-0.37207h-0.37207v1.4883h0.37207v-0.74414h1.1162v0.74414h0.37207v-1.4883zm1.1162-0.37207v1.8604h1.4883v-0.37207h-1.1162v-0.37207h1.1162v-0.37207h-1.1162v-0.37207h1.1162v-0.37207zm1.4883 0.37207v0.37207h0.37258v-0.37207zm0 0.74414v0.37207h0.37258v-0.37207zm1.1167-1.1162v1.8604h1.8604v-0.37207h-1.4883v-1.4883zm2.6045 0v1.8604h1.8609v-0.37207h-1.4888v-0.37207h1.1162v-0.37207h-1.1162v-0.37207h1.4888v-0.37207zm4.4654 0v0.37207h0.74414v1.4883h0.37207v-1.4883h0.74414v-0.37207zm2.9771 0v0.37207h1.1162v-0.37207zm1.1162 0.37207v1.1162h0.37207v-1.1162zm0 1.1162h-1.1162v0.37207h1.1162zm-1.1162 0v-1.1162h-0.37259v1.1162zm-81.864 1.7859v1.8609h1.8609v-0.37207h-1.4883v-0.37207h1.1162v-0.37207h-1.1162v-0.37259h1.4883v-0.37207zm2.605 0v0.37207h0.37207v-0.37207zm0.37207 0.37207v0.37259h0.37207v-0.37259zm0.37207 0.37259v0.37207h0.37207v-0.37207zm0.37207 0h0.37207v-0.37259h-0.37207zm0.37207-0.37259h0.37207v-0.37207h-0.37207zm-0.37207 0.74466v0.37207h0.37207v-0.37207zm0.37207 0.37207v0.37207h0.37207v-0.37207zm-0.74414-0.37207h-0.37207v0.37207h0.37207zm-0.37207 0.37207h-0.37207v0.37207h0.37207zm2.2324-1.4888v1.8609h0.37259v-0.74414h1.1162v-0.37207h-1.1162v-0.37259h1.1162v-0.37207zm1.4888 0.37207v0.37259h0.37207v-0.37259zm1.4883-0.37207v0.37207h1.1162v-0.37207zm1.1162 0.37207v0.37259h-1.1162v-0.37259h-0.37207v1.4888h0.37207v-0.74414h1.1162v0.74414h0.37207v-1.4888zm1.1162-0.37207v1.8609h0.37207v-1.1162h0.37259v-0.37259h-0.37259v-0.37207zm0.74466 0.74466v0.37207h0.37207v-0.37207zm0.37207 0.37207v0.37207h0.37207v0.37207h0.37207v-1.8609h-0.37207v1.1167zm1.4883-1.1167v1.8609h1.4883v-0.37207h-1.1162v-1.1167h1.1162v-0.37207zm1.4883 0.37207v1.1167h0.37207v-1.1167zm2.9771-0.37207v1.8609h0.37207v-1.1162h0.37207v-0.37259h-0.37207v-0.37207zm0.74414 0.74466v0.37207h0.37207v-0.37207zm0.37207 0h0.37207v1.1162h0.37207v-1.8609h-0.37207v0.37207h-0.37207zm1.4883-0.74466v0.37207h0.37207v-0.37207zm0.37207 0.37207v0.37259h0.37207v-0.37259zm0.37207 0.37259v1.1162h0.37207v-1.1162zm0.37207 0h0.37207v-0.37259h-0.37207zm0.37207-0.37259h0.37259v-0.37207h-0.37259zm2.9771-0.37207v1.8609h0.37207v-0.74414h0.74414v-0.37207h-0.74414v-0.74466zm1.1162 0.74466h0.37208v-0.37259h-0.37208zm0.37208-0.37259h0.37207v-0.37207h-0.37207zm-0.37208 0.74466v0.37207h0.37208v-0.37207zm0.37208 0.37207v0.37207h0.37207v-0.37207zm1.1162-1.4888v1.8609h0.37258v-1.1162h0.37207v-0.37259h-0.37207v-0.37207zm0.74465 0.74466v0.37207h0.37207v-0.37207zm0.37207 0.37207v0.37207h0.37207v0.37207h0.37207v-1.8609h-0.37207v1.1167zm1.8604-1.1167v0.37207h1.1162v-0.37207zm1.1162 0.37207v1.1167h0.37207v-1.1167zm0 1.1167h-1.1162v0.37207h1.1162zm-1.1162 0v-1.1167h-0.37207v1.1167zm2.2324-1.4888v1.8609h0.37258v-0.37207h0.37207v-0.37207h-0.37207v-1.1167zm0.74465 1.1167h0.37207v-0.37207h-0.37207zm0.37207 0v0.37207h0.37208v0.37207h0.37207v-1.8609h-0.37207v1.1167zm1.4883-1.1167v1.8609h1.8604v-0.37207h-1.4883v-1.4888zm2.6045 0v1.8609h1.8609v-0.37207h-1.4888v-0.37207h1.1167v-0.37207h-1.1167v-0.37259h1.4888v-0.37207zm2.605 0v1.8609h1.4883v-0.37207h-1.1162v-1.1167h1.1162v-0.37207zm1.4883 0.37207v1.1167h0.37207v-1.1167zm1.4883-0.37207v0.37207h1.4888v-0.37207zm0 0.37207h-0.37207v1.1167h0.37207zm0 1.1167v0.37207h1.4888v-1.1162h-0.74414v0.37207h0.37207v0.37207zm2.2329-1.4888v1.8609h1.8604v-0.37207h-1.4883v-0.37207h1.1162v-0.37207h-1.1162v-0.37259h1.4883v-0.37207zm4.8374 0v0.37207h1.1162v-0.37207zm1.1162 0.37207v0.37259h-1.1162v-0.37259h-0.37207v1.4888h0.37207v-0.74414h1.1162v0.74414h0.37207v-1.4888zm1.1162-0.37207v1.8609h0.37207v-1.1162h0.37207v-0.37259h-0.37207v-0.37207zm0.74414 0.74466v0.37207h0.37207v-0.37207zm0.37207 0.37207v0.37207h0.37207v0.37207h0.37207v-1.8609h-0.37207v1.1167zm1.4888-1.1167v1.8609h1.4883v-0.37207h-1.1162v-1.1167h1.1162v-0.37207zm1.4883 0.37207v1.1167h0.37207v-1.1167zm3.3486-0.37207v0.37207h1.4888v-0.37207zm0 0.37207h-0.37207v1.1167h0.37207zm0 1.1167v0.37207h1.4888v-0.37207zm2.605-1.4888v0.37207h1.1162v-0.37207zm1.1162 0.37207v1.1167h0.37207v-1.1167zm0 1.1167h-1.1162v0.37207h1.1162zm-1.1162 0v-1.1167h-0.37207v1.1167zm2.2324-1.4888v1.8609h0.37208v-1.1162h0.37258v-0.37259h-0.37258v-0.37207zm0.74466 0.74466v0.37207h0.37207v-0.37207zm0.37207 0.37207v0.37207h0.37207v0.37207h0.37207v-1.8609h-0.37207v1.1167zm1.4883-1.1167v0.37207h0.74414v1.4888h0.37207v-1.4888h0.74415v-0.37207zm2.6045 0v1.8609h0.37207v-0.74414h1.1167v-0.37207h-1.1167v-0.37259h1.1167v-0.37207zm1.4888 0.37207v0.37259h0.37207v-0.37259zm0 0.74466v0.74414h0.37207v-0.74414zm1.1162-1.1167v1.8609h0.37207v-1.8609zm1.1162 0v1.8609h1.4883v-0.37207h-1.1162v-0.37207h1.1162v-0.37207h-1.1162v-0.37259h1.1162v-0.37207zm1.4883 0.37207v0.37259h0.37207v-0.37259zm0 0.74466v0.37207h0.37207v-0.37207zm1.1162-1.1167v1.4888h0.37259v-1.4888zm0.37259 1.4888v0.37207h1.1162v-0.37207zm1.1162 0h0.37207v-1.4888h-0.37207zm1.1162-1.4888v0.37207h0.74414v1.4888h0.37207v-1.4888h0.74414v-0.37207zm2.6045 0v1.8609h1.8609v-0.37207h-1.4883v-0.37207h1.1162v-0.37207h-1.1162v-0.37259h1.4883v-0.37207zm-78.886 3.2747v0.37207h0.74414v1.4883h0.37207v-1.4883h0.74414v-0.37207zm2.9771 0v0.37207h1.1162v-0.37207zm1.1162 0.37207v1.1162h0.37207v-1.1162zm0 1.1162h-1.1162v0.37207h1.1162zm-1.1162 0v-1.1162h-0.37259v1.1162zm4.0928-1.4883v1.8604h0.37207v-1.1162h0.37207v-0.37207h-0.37207v-0.37207zm0.74414 0.74414v0.37207h0.37207v-0.37207zm0.37207 0h0.37259v1.1162h0.37207v-1.8604h-0.37207v0.37207h-0.37259zm1.4888-0.74414v0.37207h0.37207v-0.37207zm0.37207 0.37207v0.37207h0.37207v-0.37207zm0.37207 0.37207v1.1162h0.37207v-1.1162zm0.37207 0h0.37207v-0.37207h-0.37207zm0.37207-0.37207h0.37207v-0.37207h-0.37207zm2.9771-0.37207v1.8604h0.37207v-0.74414h0.74414v-0.37207h-0.74414v-0.37207h1.1162v-0.37207zm2.2324 0v1.8604h0.37207v-1.8604zm1.1162 0v1.8604h1.8609v-0.37207h-1.4888v-0.37207h1.1162v-0.37207h-1.1162v-0.37207h1.4888v-0.37207zm2.605 0v1.8604h1.8604v-0.37207h-1.4883v-1.4883zm2.6045 0v1.8604h1.4883v-0.37207h-1.1162v-1.1162h1.1162v-0.37207zm1.4883 0.37207v1.1162h0.37207v-1.1162zm4.0933-0.37207v1.8604h1.8604v-0.37207h-1.4883v-0.37207h1.1162v-0.37207h-1.1162v-0.37207h1.4883v-0.37207zm2.9771 0v0.37207h1.1162v-0.37207zm1.1162 0.37207v0.37207h-1.1162v-0.37207h-0.37208v1.4883h0.37208v-0.74414h1.1162v0.74414h0.37207v-1.4883zm1.1162-0.37207v1.8604h0.37207v-0.74414h1.1162v-0.37207h-1.1162v-0.37207h1.1162v-0.37207zm1.4883 0.37207v0.37207h0.37207v-0.37207zm0 0.74414v0.74414h0.37207v-0.74414zm1.1167-1.1162v1.8604h0.37207v-1.1162h0.37207v-0.37207h-0.37207v-0.37207zm0.74414 0.74414v0.37207h0.37207v-0.37207zm0.37207 0.37207v0.37207h0.37207v0.37207h0.37207v-1.8604h-0.37207v1.1162zm1.4883-1.1162v1.8604h0.37207v-1.8604zm1.1162 0v1.8604h0.37207v-1.1162h0.37207v-0.37207h-0.37207v-0.37207zm0.74414 0.74414v0.37207h0.37207v-0.37207zm0.37207 0.37207v0.37207h0.37259v0.37207h0.37207v-1.8604h-0.37207v1.1162zm1.8609-1.1162v0.37207h1.4883v-0.37207zm0 0.37207h-0.37207v1.1162h0.37207zm0 1.1162v0.37207h1.4883v-1.1162h-0.74414v0.37207h0.37207v0.37207zm4.0933-1.4883v0.37207h0.74414v1.4883h0.37207v-1.4883h0.74414v-0.37207zm2.6045 0v1.8604h0.37207v-0.74414h1.1162v0.74414h0.37207v-1.8604h-0.37207v0.74414h-1.1162v-0.74414zm2.605 0v1.8604h1.8604v-0.37207h-1.4883v-0.37207h1.1162v-0.37207h-1.1162v-0.37207h1.4883v-0.37207zm4.4648 0v1.8604h1.4888v-0.37207h-1.1167v-0.37207h1.1167v-0.37207h-1.1167v-0.37207h1.1167v-0.37207zm1.4888 0.37207v0.37207h0.37207v-0.37207zm0 0.74414v0.37207h0.37207v-0.37207zm1.4883-1.1162v0.37207h1.1162v-0.37207zm1.1162 0.37207v0.37207h-1.1162v-0.37207h-0.37207v1.4883h0.37207v-0.74414h1.1162v0.74414h0.37207v-1.4883zm1.1162-0.37207v1.8604h0.37207v-1.1162h0.37208v-0.37207h-0.37208v-0.37207zm0.74415 0.74414v0.37207h0.37258v-0.37207zm0.37258 0.37207v0.37207h0.37207v0.37207h0.37207v-1.8604h-0.37207v1.1162zm1.4883-1.1162v1.8604h1.4883v-0.37207h-1.1162v-1.1162h1.1162v-0.37207zm1.4883 0.37207v1.1162h0.37208v-1.1162zm1.1162-0.37207v1.8604h0.37207v-0.37207h0.37207v-0.37207h-0.37207v-1.1162zm0.74414 1.1162h0.37207v-0.37207h-0.37207zm0.37207 0v0.37207h0.37258v0.37207h0.37207v-1.8604h-0.37207v1.1162zm1.4888-1.1162v1.8604h0.37208v-1.8604zm1.1162 0v1.8604h1.4883v-0.37207h-1.1162v-1.1162h1.1162v-0.37207zm1.4883 0.37207v1.1162h0.37207v-1.1162zm1.1162-0.37207v0.37207h0.74466v1.4883h0.37207v-1.4883h0.74414v-0.37207zm2.605 0v1.8604h0.37207v-0.74414h1.1162v0.74414h0.37207v-1.8604h-0.37207v0.74414h-1.1162v-0.74414zm4.4654 0v1.8604h0.37207v-1.8604zm-55.072 1.1162v0.74414h0.37207v-0.74414zm-20.094 2.1585v0.37207h1.1162v-0.37207zm1.1162 0.37207v1.1162h0.37207v-1.1162zm0 1.1162h-1.1162v0.37207h1.1162zm-1.1162 0v-1.1162h-0.37207v1.1162zm2.6045-1.4883v0.37207h1.4888v-0.37207zm0 0.37207h-0.37207v1.1162h0.37207zm0 1.1162v0.37207h1.4888v-0.37207zm2.605-1.4883v0.37207h1.4883v-0.37207zm0 0.37207h-0.37207v1.1162h0.37207zm0 1.1162v0.37207h1.4883v-0.37207zm2.2324-1.4883v1.4883h0.37207v-1.4883zm0.37207 1.4883v0.37207h1.1167v-0.37207zm1.1167 0h0.37207v-1.4883h-0.37207zm1.1162-1.4883v1.8604h0.37207v-0.74414h1.1162v-0.37207h-1.1162v-0.37207h1.1162v-0.37207zm1.4883 0.37207v0.37207h0.37207v-0.37207zm1.1162-0.37207v0.37207h0.37207v-0.37207zm0.37207 0.37207v0.37207h0.37207v-0.37207zm0.37207 0.37207v1.1162h0.37207v-1.1162zm0.37207 0h0.37259v-0.37207h-0.37259zm0.37259-0.37207h0.37207v-0.37207h-0.37207zm2.9766-0.37207v1.8604h0.37207v-1.8604zm1.1162 0v1.8604h0.37207v-1.1162h0.37207v-0.37207h-0.37207v-0.37207zm0.74414 0.74414v0.37207h0.37207v-0.37207zm0.37207 0.37207v0.37207h0.37258v0.37207h0.37207v-1.8604h-0.37207v1.1162zm3.7212-1.1162v0.37207h1.1162v-0.37207zm1.1162 0.37207v0.37207h-1.1162v-0.37207h-0.37207v1.4883h0.37207v-0.74414h1.1162v0.74414h0.37207v-1.4883zm4.4654-0.37207v1.4883h0.37207v-1.4883zm0 1.4883h-1.1162v0.37207h1.1162zm-1.1162 0v-0.37207h-0.37207v0.37207zm2.2324-1.4883v1.4883h0.37207v-1.4883zm0.37207 1.4883v0.37207h1.1167v-0.37207zm1.1167 0h0.37207v-1.4883h-0.37207zm1.1162-1.4883v1.8604h0.37207v-1.1162h0.37207v-0.37207h-0.37207v-0.37207zm0.74414 0.74414v0.37207h0.37207v-0.37207zm0.37207 0.37207v0.37207h0.37207v0.37207h0.37207v-1.8604h-0.37207v1.1162zm1.4883-1.1162v1.8604h0.37207v-0.74414h0.74466v-0.37207h-0.74466v-0.74414zm1.1167 0.74414h0.37207v-0.37207h-0.37207zm0.37207-0.37207h0.37207v-0.37207h-0.37207zm-0.37207 0.74414v0.37207h0.37207v-0.37207zm0.37207 0.37207v0.37207h0.37207v-0.37207zm3.7207-1.4883v1.8604h0.37207v-0.74414h0.74466v-0.37207h-0.74466v-0.37207h1.1167v-0.37207zm2.2329 0v1.8604h0.37207v-1.8604zm1.1162 0v1.8604h1.8604v-0.37207h-1.4883v-1.4883zm2.6045 0v1.8604h1.8609v-0.37207h-1.4888v-1.4883zm2.605 0v1.8604h1.8604v-0.37207h-1.4883v-0.37207h1.1162v-0.37207h-1.1162v-0.37207h1.4883v-0.37207zm2.6045 0v1.8604h1.4888v-0.37207h-1.1167v-1.1162h1.1167v-0.37207zm1.4888 0.37207v1.1162h0.37207v-1.1162zm2.9766-0.37207v1.8604h0.37207v-1.8604zm1.1162 0v1.8604h0.37208v-1.1162h0.37258v-0.37207h-0.37258v-0.37207zm0.74466 0.74414v0.37207h0.37207v-0.37207zm0.37207 0.37207v0.37207h0.37207v0.37207h0.37207v-1.8604h-0.37207v1.1162zm1.4883-1.1162v0.37207h0.74414v1.4883h0.37207v-1.4883h0.74415v-0.37207zm2.6045 0v1.8604h1.8609v-0.37207h-1.4888v-0.37207h1.1167v-0.37207h-1.1167v-0.37207h1.4888v-0.37207zm2.605 0v1.8604h0.37207v-0.74414h1.1162v-0.37207h-1.1162v-0.37207h1.1162v-0.37207zm1.4883 0.37207v0.37207h0.37207v-0.37207zm0 0.74414v0.74414h0.37207v-0.74414zm1.1162-1.1162v1.8604h0.37207v-1.1162h0.37207v-0.37207h-0.37207v-0.37207zm0.74414 0.74414v0.37207h0.37258v-0.37207zm0.37258 0.37207v0.37207h0.37208v0.37207h0.37207v-1.8604h-0.37207v1.1162zm1.4883-1.1162v1.8604h1.8604v-0.37207h-1.4883v-0.37207h1.1162v-0.37207h-1.1162v-0.37207h1.4883v-0.37207zm2.6045 0v0.37207h0.74414v1.4883h0.37207v-1.4883h0.74466v-0.37207zm-34.978 0.74414v0.37207h1.8604v-0.37207zm37.583 0.74414v0.37207h0.37207v-0.37207z" stroke-width=".097071"/></svg>
