<?xml version="1.0" encoding="UTF-8"?>
<svg width="95.004mm" height="51.603mm" version="1.1" viewBox="0 0 95.004 51.603" xmlns="http://www.w3.org/2000/svg"><path d="m5.3362 0c-0.89769 0-1.9305 0.12814-2.6572 0.32763-0.66258 0.19236-1.1826 0.42756-1.603 0.74104-0.56283 0.42747-0.85525 0.94032-0.85525 1.496 0 0.53433 0.2923 1.0474 0.84801 1.4748 0.87631 0.66969 2.4934 1.0759 4.2602 1.0759 0.94755 0 1.8812-0.12124 2.6577-0.3421 0.69107-0.19236 1.1825-0.41309 1.5958-0.72657 0.56283-0.42034 0.8692-0.94043 0.8692-1.5033 0-0.53433-0.2919-1.0401-0.85473-1.4676-0.88344-0.6697-2.4796-1.0759-4.2607-1.0759zm14.171 0.13539-8.7204 3.1564v0.26355h8.4496v1.3751h0.27078v-1.3751h0.64131v-0.26355h-0.64131zm-14.171 0.12144c1.7241 0 3.2701 0.38469 4.1036 1.033 0.48446 0.37047 0.74104 0.79771 0.74104 1.2537 0 1.3394-2.0449 2.3156-4.8519 2.3156-1.7099 0-3.2772-0.39181-4.1036-1.033-0.47734-0.37047-0.7338-0.80545-0.7338-1.2614 0-0.78369 0.69821-1.4674 1.9379-1.8877 0.76944-0.2636 1.8809-0.42013 2.9068-0.42013zm13.9 0.27027v2.7647h-6.2265c-0.35622 0-0.59865-3e-4 -0.84801 0.0139l-0.39171 0.0145c-0.24223 7e-3 -0.30628 0.0142-0.46302 0.0284 0.15674-0.0427 0.23482-0.0642 0.44855-0.13539 0.3206-0.0997 0.42044-0.13561 0.74104-0.2496 0.18524-0.0712 0.3274-0.12095 0.41289-0.15658zm2.1301 3.7192v0.6842h0.27079v-0.6842zm73.403 1.3059-8.4563 5.6353v0.31368l8.4563-5.6353zm-89.433 0.41341c-0.94043 0-1.8806 0.114-2.6572 0.33486-0.69108 0.19236-1.1826 0.42033-1.603 0.73381-0.56283 0.42746-0.85525 0.94032-0.85525 1.496 0 0.53433 0.2923 1.0474 0.84801 1.4748 0.88343 0.6697 2.4934 1.0759 4.2674 1.0759 0.85493 0 1.7098-0.10002 2.465-0.28526 0.37047-0.0926 0.57008-0.16376 0.97617-0.32763l1.5534 0.42737v-0.27802l-1.1684-0.32763c0.31347-0.18523 0.46318-0.28469 0.6413-0.44855 0.42746-0.39897 0.64802-0.85529 0.64802-1.3255 0-0.71957-0.57015-1.4317-1.4821-1.8521-0.98317-0.45597-2.2441-0.69815-3.6334-0.69815zm5.8994 0.17776v1.9022c0 0.84069 0.11404 1.2614 0.47026 1.696 0.68395 0.84069 2.1301 1.3395 3.8685 1.3395 1.6671 0 3.0564-0.45614 3.776-1.247 0.42035-0.44884 0.55553-0.89755 0.55553-1.7952v-1.8955h-0.27079v1.8955c0 0.78369-0.0998 1.147-0.40618 1.5317-0.62695 0.77657-2.0089 1.2464-3.6618 1.2464-1.5816 0-2.9212-0.43448-3.5838-1.1612-0.36334-0.39897-0.47697-0.79093-0.47697-1.6102v-1.9022zm9.7674 0v4.7522h9.1338v-0.26355h-8.863v-2.85h4.2891v-0.26355h-4.2891v-1.1116h2.9213v-0.26355zm9.7534 0v4.7522h9.1338v-0.26355h-8.863v-2.85h4.2891v-0.26355h-4.2891v-1.1116h2.9208v-0.26355zm9.7534 0v4.7522h0.27078v-3.1135h2.6572l5.9206 3.1135h0.59841l-5.9273-3.1135h4.5165c0.49159 0 0.69149-0.0211 0.86248-0.11368 0.25648-0.12824 0.41289-0.40616 0.41289-0.70539 0-0.27073-0.13508-0.52-0.34881-0.66249-0.18524-0.12112-0.3851-0.1571-0.92656-0.1571zm-35.174 0.0786c0.91192 0 1.8311 0.1139 2.5792 0.32763 0.66969 0.18524 1.1397 0.40616 1.5245 0.70539 0.48446 0.37047 0.74104 0.79822 0.74104 1.2542 0 0.66258-0.49862 1.2535-1.3963 1.6738l-3.4484-0.95446v0.28474l3.021 0.84077c-0.24223 0.0855-0.36357 0.12118-0.54881 0.17105-0.73382 0.19236-1.6174 0.29921-2.4794 0.29921-1.7099 0-3.2772-0.39182-4.1036-1.033-0.47734-0.37047-0.7338-0.80494-0.7338-1.2609 0-1.3394 2.0448-2.3084 4.8447-2.3084zm35.444 0.18501h7.7587c0.44171 0 0.61952 0.0218 0.74776 0.093 0.17099 0.0926 0.26355 0.24928 0.26355 0.46302 0 0.20661-0.0783 0.34881-0.2279 0.44855-0.12824 0.0855-0.29935 0.10697-0.77669 0.10697h-7.7654zm5.4074 5.5237c-0.89768 0-1.9305 0.12814-2.6572 0.32763-0.66257 0.19236-1.1827 0.42756-1.603 0.74104-0.56283 0.42746-0.85525 0.94032-0.85525 1.496 0 0.53433 0.29231 1.0474 0.84801 1.4748 0.87631 0.66969 2.4933 1.0759 4.2602 1.0759 0.94755 0 1.8812-0.12124 2.6577-0.3421 0.69107-0.19236 1.1825-0.41309 1.5958-0.72657 0.56283-0.42034 0.8692-0.94043 0.8692-1.5033 0-0.53433-0.29241-1.0401-0.85524-1.4676-0.88343-0.6697-2.4791-1.0759-4.2602-1.0759zm-41.343 0.13539-4.8374 4.7951h0.39171l3.1347-3.1135h2.6577l3.1843 3.1135h0.39894zm5.55 0v4.7951h0.27078v-4.346l8.3923 4.3884v-4.7945h-0.27079v4.346zm9.3756 0.0429v0.26355h4.2747v4.4886h0.27078v-4.4886h4.2674v-0.26355zm9.5255 0v4.7522h0.27078v-4.7522zm4.8447 0v4.7522h7.7654v-0.26407h-7.4946v-4.4881zm16.892 0 2.8784 4.7945 2.7358-1.6102 2.7569 1.6102 2.8572-4.7945h-0.31367l-2.636 4.424-2.6644-1.5601-2.6432 1.5601-2.6432-4.424zm11.848 0v4.7522h9.1338v-0.26407h-8.863v-2.8494h4.2891v-0.26355h-4.2891v-1.1116h2.9213v-0.26355zm17.776 0c-0.59846 0-1.0188 0.0498-1.4035 0.16382-0.55571 0.17098-0.88375 0.40604-1.7244 1.2325l-0.71934 0.71262-0.71262 0.71933c-0.52721 0.53434-1.1254 0.96899-1.7167 1.2397-0.65545 0.29923-1.2258 0.42013-1.9952 0.42013h-0.24908v0.26407h0.12815c0.74094 0 1.1968-0.0643 1.7312-0.24237 0.56283-0.17811 1.0616-0.45616 1.5746-0.84801 0.35622-0.28497 0.71981-0.62678 1.418-1.325l0.71933-0.71985c1.1399-1.1542 1.5745-1.3534 2.9709-1.3534h0.59118v-0.26355zm0.82631 0v0.26355h4.2747v4.4886h0.27079v-4.4886h4.2674v-0.26355zm-35.294 0.078c1.7241 0 3.2701 0.3852 4.1036 1.0335 0.48447 0.37047 0.74104 0.79771 0.74104 1.2537 0 1.3394-2.0449 2.3156-4.8519 2.3156-1.7099 0-3.2772-0.39181-4.1036-1.033-0.47734-0.37047-0.7338-0.80546-0.7338-1.2614 0-0.78369 0.69821-1.4674 1.9379-1.8877 0.76944-0.26361 1.8809-0.42065 2.9068-0.42065zm-41.336 0.26407 1.0614 1.033h-2.1089zm25.855 1.9234v0.26355h2.2939v-0.26355zm58.969 0v0.26355h2.2939v-0.26355zm-75.762 3.5218c-0.94043 0-1.8812 0.11401-2.6577 0.33487-0.69107 0.19236-1.1827 0.42033-1.603 0.7338-0.56283 0.42747-0.85473 0.94033-0.85473 1.496 0 0.53434 0.29179 1.0474 0.8475 1.4748 0.8763 0.6697 2.4938 1.0754 4.2607 1.0754 1.5246 0 3.0206-0.32058 3.8969-0.83354 0.39897-0.23511 0.63387-0.43447 0.85473-0.72657h-0.3204c-0.21374 0.2066-0.34219 0.30635-0.5488 0.43459-0.85493 0.53434-2.3363 0.8692-3.8752 0.8692-1.717 0-3.2844-0.39181-4.1109-1.033-0.47733-0.37047-0.7338-0.80494-0.7338-1.2609 0-1.3394 2.0448-2.3084 4.8447-2.3084 0.78369 0 1.5813 0.0856 2.251 0.24236 0.57708 0.13537 1.1544 0.34891 1.5177 0.55552 0.24935 0.14962 0.42726 0.27782 0.65525 0.49868h0.3204c-0.7267-0.9618-2.5287-1.5529-4.7444-1.5529zm10.38 0c-0.89768 0-1.931 0.12815-2.6577 0.32763-0.66257 0.19236-1.1827 0.42757-1.603 0.74104-0.56283 0.42747-0.85473 0.94033-0.85473 1.496 0 0.53434 0.2923 1.0474 0.84801 1.4748 0.8763 0.6697 2.4933 1.0754 4.2602 1.0754 0.94755 0 1.8806-0.12073 2.6572-0.34158 0.69107-0.19236 1.1831-0.41362 1.5963-0.72709 0.56283-0.42034 0.8692-0.94044 0.8692-1.5033 0-0.53433-0.29242-1.0401-0.85525-1.4676-0.88343-0.6697-2.4791-1.0754-4.2602-1.0754zm32.252 0c-0.89768 0-1.931 0.12815-2.6577 0.32763-0.66257 0.19236-1.1821 0.42757-1.6025 0.74104-0.56283 0.42747-0.85525 0.94033-0.85525 1.496 0 0.53434 0.2923 1.0474 0.84801 1.4748 0.87631 0.6697 2.4934 1.0754 4.2602 1.0754 0.94755 0 1.8812-0.12073 2.6577-0.34158 0.69107-0.19236 1.1826-0.41362 1.5958-0.72709 0.56283-0.42034 0.86919-0.94044 0.86919-1.5033 0-0.53433-0.29241-1.0401-0.85524-1.4676-0.88344-0.6697-2.4791-1.0754-4.2602-1.0754zm-24.53 0.1354-2.8779 4.7945h0.32763l2.6432-4.4173 2.6432 1.5534 2.6644-1.5534 2.636 4.4173h0.31316l-2.8567-4.7945-2.7569 1.617zm11.321 0-2.8779 4.7945h0.32763l2.6432-4.4173 2.6432 1.5534 2.6644-1.5534 2.636 4.4173h0.31316l-2.8567-4.7945-2.7569 1.617zm19.151 0v4.7945h0.27078v-4.346l8.3928 4.3889v-4.7951h-0.27078v4.346zm13.237 0.0424v4.7522h5.2788c1.5104 0 2.4798-0.24923 3.2065-0.82631 0.53433-0.42034 0.83355-0.9762 0.83355-1.5462 0-0.56996-0.29922-1.1325-0.83355-1.5529-0.7267-0.57708-1.6957-0.82682-3.2132-0.82682zm10.145 0v4.7522h9.1333v-0.26355h-8.8625v-2.85h4.2886v-0.26355h-4.2886v-1.1116h2.9208v-0.26355zm-61.577 0.0786c1.7241 0 3.2701 0.38468 4.1036 1.033 0.48447 0.37047 0.74104 0.7977 0.74104 1.2537 0 1.3394-2.0449 2.3156-4.8519 2.3156-1.7099 0-3.2772-0.39181-4.1036-1.033-0.47733-0.37047-0.73381-0.80494-0.73381-1.2609 0-0.78369 0.69821-1.4679 1.9379-1.8882 0.76944-0.26361 1.8809-0.42013 2.9068-0.42013zm32.252 0c1.7241 0 3.2701 0.38468 4.1036 1.033 0.48446 0.37047 0.74104 0.7977 0.74104 1.2537 0 1.3394-2.0449 2.3156-4.8519 2.3156-1.7099 0-3.2772-0.39181-4.1036-1.033-0.47734-0.37047-0.7338-0.80494-0.7338-1.2609 0-0.78369 0.6982-1.4679 1.9379-1.8882 0.76944-0.26361 1.8809-0.42013 2.9068-0.42013zm24.451 0.185c1.4605 0 2.3721 0.23513 3.0489 0.76946 0.45597 0.37047 0.72709 0.8551 0.72709 1.3467 0 0.48446-0.26359 0.96898-0.7338 1.3394-0.6697 0.53433-1.5892 0.76946-3.0355 0.76946h-5.0085v-4.2178zm-8.7064 2.0019v0.26407h2.2944v-0.26407zm-57.152 3.5218c-0.89769 0-1.931 0.12815-2.6577 0.32763-0.66258 0.19236-1.1826 0.42756-1.603 0.74104-0.56283 0.42747-0.85473 0.94032-0.85473 1.496 0 0.53434 0.29178 1.0474 0.84749 1.4748 0.87631 0.6697 2.4939 1.0759 4.2607 1.0759 0.94755 0 1.8806-0.12124 2.6572-0.3421 0.69107-0.19236 1.1831-0.41309 1.5963-0.72657 0.56283-0.42034 0.8692-0.94043 0.8692-1.5033 0-0.53434-0.29242-1.0402-0.85525-1.4676-0.88344-0.66969-2.4791-1.0759-4.2602-1.0759zm48.119 0c-0.89768 0-1.931 0.12815-2.6577 0.32763-0.66257 0.19236-1.1827 0.42756-1.603 0.74104-0.56283 0.42747-0.85473 0.94032-0.85473 1.496 0 0.53434 0.2923 1.0474 0.84801 1.4748 0.8763 0.6697 2.4933 1.0759 4.2602 1.0759 0.94755 0 1.8806-0.12124 2.6572-0.3421 0.69107-0.19236 1.1831-0.41309 1.5963-0.72657 0.56284-0.42034 0.8692-0.94043 0.8692-1.5033 0-0.53434-0.29241-1.0402-0.85525-1.4676-0.88343-0.66969-2.4791-1.0759-4.2602-1.0759zm-62.731 0.13539v4.7945h0.27079v-4.3455l8.3928 4.3884v-4.7945h-0.27079v4.346zm22.335 0-2.8779 4.7945h0.32763l2.6432-4.4168 2.6432 1.5529 2.6644-1.5529 2.636 4.4168h0.31316l-2.8567-4.7945-2.7569 1.6175zm10.381 0v4.7945h0.27026v-4.3455l8.3928 4.3884v-4.7945h-0.27078v4.346zm14.121 0-4.8374 4.7945h0.39171l3.1347-3.113h2.6572l3.1848 3.113h0.39894zm-15.531 0.0429v4.7516h0.27078v-4.7516zm18.281 0v0.26355h4.2747v4.4881h0.27078v-4.4881h4.2674v-0.26355zm19.087 0v4.7516h0.27079v-3.113h2.6572l5.9206 3.113h0.59841l-5.9278-3.113h4.517c0.49159 0 0.69098-0.0216 0.86196-0.1142 0.25648-0.12824 0.41341-0.40616 0.41341-0.70538 0-0.27073-0.13559-0.52001-0.34933-0.6625-0.18523-0.12111-0.38458-0.15658-0.92604-0.15658zm-54.06 0.078c1.7241 0 3.2701 0.38469 4.1036 1.033 0.48446 0.37047 0.74104 0.79822 0.74104 1.2542 0 1.3394-2.0449 2.3156-4.8519 2.3156-1.7099 0-3.2772-0.39181-4.1036-1.033-0.47734-0.37047-0.73381-0.80546-0.73381-1.2614 0-0.78369 0.69822-1.4674 1.9379-1.8877 0.76944-0.2636 1.8809-0.42065 2.9068-0.42065zm48.119 0c1.7241 0 3.2701 0.38469 4.1036 1.033 0.48446 0.37047 0.74104 0.79822 0.74104 1.2542 0 1.3394-2.0449 2.3156-4.8519 2.3156-1.7099 0-3.2772-0.39181-4.1036-1.033-0.47733-0.37047-0.73381-0.80546-0.73381-1.2614 0-0.78369 0.69821-1.4674 1.9379-1.8877 0.76944-0.2636 1.8809-0.42065 2.9068-0.42065zm6.2125 0.18552h7.7582c0.44171 0 0.62004 0.0212 0.74828 0.0925 0.17098 0.0926 0.26355 0.24929 0.26355 0.46302 0 0.20661-0.0783 0.34933-0.2279 0.44907-0.12824 0.0855-0.29935 0.10697-0.77669 0.10697h-7.7654zm-22.1 0.078 1.0614 1.0335h-2.1089zm-47.364 8.9891v1.8604h1.4883v-0.37207h-1.1162v-0.37207h1.1162v-0.37207h-1.1162v-0.37207h1.1162v-0.37207zm1.4883 0.37207v0.37207h0.37207v-0.37207zm0 0.74414v0.37207h0.37207v-0.37207zm1.1162-1.1162v0.37207h0.37207v-0.37207zm0.37207 0.37207v0.37207h0.37207v-0.37207zm0.37207 0.37207v1.1162h0.37259v-1.1162zm0.37259 0h0.37207v-0.37207h-0.37207zm0.37207-0.37207h0.37207v-0.37207h-0.37207zm2.9766-0.37207v1.8604h0.37207v-1.1162h0.37207v-0.37207h-0.37207v-0.37207zm0.74414 0.74414v0.37207h0.37207v-0.37207zm0.37207 0.37207v0.37207h0.37207v0.37207h0.37207v-1.8604h-0.37207v1.1162zm1.8609-1.1162v0.37207h1.1162v-0.37207zm1.1162 0.37207v0.37207h-1.1162v-0.37207h-0.37207v1.4883h0.37207v-0.74414h1.1162v0.74414h0.37207v-1.4883zm1.1162-0.37207v1.8604h0.37207v-0.74414h1.1162v-0.37207h-1.1162v-0.37207h1.1162v-0.37207zm1.4883 0.37207v0.37207h0.37207v-0.37207zm0 0.74414v0.74414h0.37207v-0.74414zm1.1167-1.1162v1.8604h0.37207v-0.74414h1.1162v-0.37207h-1.1162v-0.37207h1.1162v-0.37207zm1.4883 0.37207v0.37207h0.37207v-0.37207zm0 0.74414v0.74414h0.37207v-0.74414zm1.4883-1.1162v0.37207h1.1162v-0.37207zm1.1162 0.37207v1.1162h0.37208v-1.1162zm0 1.1162h-1.1162v0.37207h1.1162zm-1.1162 0v-1.1162h-0.37207v1.1162zm2.2329-1.4883v1.8604h0.37207v-0.37207h0.37207v-0.37207h-0.37207v-1.1162zm0.74414 1.1162h0.37207v-0.37207h-0.37207zm0.37207 0v0.37207h0.37207v0.37207h0.37207v-1.8604h-0.37207v1.1162zm1.4883-1.1162v1.8604h0.37208v-1.8604zm1.1162 0v1.8604h0.37207v-1.1162h0.37207v-0.37207h-0.37207v-0.37207zm0.74414 0.74414v0.37207h0.37207v-0.37207zm0.37207 0.37207v0.37207h0.37207v0.37207h0.37258v-1.8604h-0.37258v1.1162zm1.8609-1.1162v0.37207h1.4883v-0.37207zm0 0.37207h-0.37208v1.1162h0.37208zm0 1.1162v0.37207h1.4883v-1.1162h-0.74414v0.37207h0.37207v0.37207zm4.0933-1.4883v1.8604h0.37207v-1.1162h0.37207v-0.37207h-0.37207v-0.37207zm0.74414 0.74414v0.37207h0.37207v-0.37207zm0.37207 0h0.37207v1.1162h0.37207v-1.8604h-0.37207v0.37207h-0.37207zm1.4883-0.74414v0.37207h0.37207v-0.37207zm0.37207 0.37207v0.37207h0.37207v-0.37207zm0.37207 0.37207v1.1162h0.37207v-1.1162zm0.37207 0h0.37207v-0.37207h-0.37207zm0.37207-0.37207h0.37207v-0.37207h-0.37207zm2.9771-0.37207v0.37207h0.74414v1.4883h0.37207v-1.4883h0.74414v-0.37207zm2.9766 0v0.37207h1.1167v-0.37207zm1.1167 0.37207v0.37207h-1.1167v-0.37207h-0.37207v1.4883h0.37207v-0.74414h1.1167v0.74414h0.37207v-1.4883zm1.1162-0.37207v1.8604h0.37207v-0.74414h1.1162v-0.37207h-1.1162v-0.37207h1.1162v-0.37207zm1.4883 0.37207v0.37207h0.37207v-0.37207zm0 0.74414v0.74414h0.37207v-0.74414zm1.4883-1.1162v0.37207h1.4888v-0.37207zm0 0.37207h-0.37207v1.1162h0.37207zm0 1.1162v0.37207h1.4888v-1.1162h-0.74466v0.37207h0.37259v0.37207zm2.2329-1.4883v1.8604h1.8604v-0.37207h-1.4883v-0.37207h1.1162v-0.37207h-1.1162v-0.37207h1.4883v-0.37207zm2.6045 0v0.37207h0.74414v1.4883h0.37207v-1.4883h0.74466v-0.37207zm4.8374 0v0.37207h1.1162v-0.37207zm1.1162 0.37207v0.37207h-1.1162v-0.37207h-0.37207v1.4883h0.37207v-0.74414h1.1162v0.74414h0.37207v-1.4883zm1.1167-0.37207v1.4883h0.37207v-1.4883zm0.37207 1.4883v0.37207h1.1162v-0.37207zm1.1162 0h0.37207v-1.4883h-0.37207zm1.1162-1.4883v1.8604h1.4883v-0.37207h-1.1162v-1.1162h1.1162v-0.37207zm1.4883 0.37207v1.1162h0.37207v-1.1162zm1.1162-0.37207v1.8604h0.37258v-1.8604zm1.1167 0v1.8604h1.8604v-0.37207h-1.4883v-0.37207h1.1162v-0.37207h-1.1162v-0.37207h1.4883v-0.37207zm2.6045 0v1.8604h0.37207v-1.1162h0.37207v-0.37207h-0.37207v-0.37207zm0.74414 0.74414v0.37207h0.37207v-0.37207zm0.37207 0.37207v0.37207h0.37207v0.37207h0.37207v-1.8604h-0.37207v1.1162zm1.8609-1.1162v0.37207h1.4883v-0.37207zm0 0.37207h-0.37207v1.1162h0.37207zm0 1.1162v0.37207h1.4883v-0.37207zm2.2324-1.4883v1.8604h1.8604v-0.37207h-1.4883v-0.37207h1.1162v-0.37207h-1.1162v-0.37207h1.4883v-0.37207zm4.4654 0v1.8604h0.37207v-1.8604zm3.3492 0v0.37207h1.4883v-0.37207zm0 0.37207h-0.37259v1.1162h0.37259zm0 1.1162v0.37207h1.4883v-0.37207zm2.6045-1.4883v0.37207h1.1162v-0.37207zm1.1162 0.37207v0.37207h-1.1162v-0.37207h-0.37207v1.4883h0.37207v-0.74414h1.1162v0.74414h0.37207v-1.4883zm1.1162-0.37207v1.8604h0.37207v-1.1162h0.37259v-0.37207h-0.37259v-0.37207zm0.74466 0.74414v0.37207h0.37207v-0.37207zm0.37207 0.37207v0.37207h0.37207v0.37207h0.37207v-1.8604h-0.37207v1.1162zm-85.957 2.1585v1.8604h0.37207v-1.8604zm1.1162 0v1.8604h0.37207v-1.1162h0.37207v-0.37207h-0.37207v-0.37207zm0.74414 0.74414v0.37207h0.37207v-0.37207zm0.37207 0.37207v0.37207h0.37207v0.37207h0.37207v-1.8604h-0.37207v1.1162zm1.8609-1.1162v0.37207h1.4883v-0.37207zm0 0.37207h-0.37207v1.1162h0.37207zm0 1.1162v0.37207h1.4883v-0.37207zm2.2324-1.4883v1.8604h0.37207v-0.74414h1.1162v-0.37207h-1.1162v-0.37207h1.1162v-0.37207zm1.4883 0.37207v0.37207h0.37207v-0.37207zm0 0.74414v0.74414h0.37207v-0.74414zm1.1162-1.1162v1.8604h1.8609v-0.37207h-1.4883v-0.37207h1.1162v-0.37207h-1.1162v-0.37207h1.4883v-0.37207zm2.9771 0v0.37207h1.1162v-0.37207zm1.1162 0.37207v0.37207h-1.1162v-0.37207h-0.37207v1.4883h0.37207v-0.74414h1.1162v0.74414h0.37207v-1.4883zm1.4888-0.37207v0.37207h1.4883v-0.37207zm0 0.37207h-0.37259v0.37207h0.37259zm0 0.37207v0.37207h1.1162v-0.37207zm1.1162 0.37207v0.37207h0.37207v-0.37207zm0 0.37207h-1.4888v0.37207h1.4888zm1.1162-1.4883v1.8604h1.8604v-0.37207h-1.4883v-0.37207h1.1162v-0.37207h-1.1162v-0.37207h1.4883v-0.37207zm4.4654 0v0.37207h0.74414v1.4883h0.37207v-1.4883h0.74415v-0.37207zm2.6045 0v1.8604h0.37207v-0.74414h1.1162v0.74414h0.37258v-1.8604h-0.37258v0.74414h-1.1162v-0.74414zm2.605 0v1.8604h1.8604v-0.37207h-1.4883v-0.37207h1.1162v-0.37207h-1.1162v-0.37207h1.4883v-0.37207zm4.4654 0v1.8604h1.4883v-0.37207h-1.1162v-1.1162h1.1162v-0.37207zm1.4883 0.37207v1.1162h0.37207v-1.1162zm1.1162-0.37207v1.8604h1.8604v-0.37207h-1.4883v-0.37207h1.1162v-0.37207h-1.1162v-0.37207h1.4883v-0.37207zm2.6045 0v1.8604h0.37259v-0.74414h1.1162v-0.37207h-1.1162v-0.37207h1.1162v-0.37207zm1.4888 0.37207v0.37207h0.37207v-0.37207zm1.1162-0.37207v0.37207h0.74414v1.4883h0.37207v-1.4883h0.74414v-0.37207zm2.6045 0v1.8604h0.37259v-0.74414h1.1162v0.74414h0.37207v-1.8604h-0.37207v0.74414h-1.1162v-0.74414zm4.8374 0v0.37207h1.1167v-0.37207zm1.1167 0.37207v1.1162h0.37207v-1.1162zm0 1.1162h-1.1167v0.37207h1.1167zm-1.1167 0v-1.1162h-0.37207v1.1162zm2.2329-1.4883v1.8604h0.37207v-0.74414h0.74414v-0.37207h-0.74414v-0.37207h1.1162v-0.37207zm4.0928 0v1.8604h0.37259v-1.1162h0.37207v-0.37207h-0.37207v-0.37207zm0.74466 0.74414v0.37207h0.37207v-0.37207zm0.37207 0h0.37207v1.1162h0.37207v-1.8604h-0.37207v0.37207h-0.37207zm1.4883-0.74414v0.37207h0.37207v-0.37207zm0.37207 0.37207v0.37207h0.37207v-0.37207zm0.37207 0.37207v1.1162h0.37207v-1.1162zm0.37207 0h0.37207v-0.37207h-0.37207zm0.37207-0.37207h0.37207v-0.37207h-0.37207zm2.9771-0.37207v1.8604h0.37207v-1.8604zm1.1162 0v1.8604h0.37207v-1.1162h0.37207v-0.37207h-0.37207v-0.37207zm0.74414 0.74414v0.37207h0.37208v-0.37207zm0.37208 0.37207v0.37207h0.37207v0.37207h0.37207v-1.8604h-0.37207v1.1162zm1.4883-1.1162v1.8604h0.37258v-0.74414h0.74414v-0.37207h-0.74414v-0.37207h1.1162v-0.37207zm2.2329 0v1.8604h1.8604v-0.37207h-1.4883v-1.4883zm2.6045 0v1.4883h0.37207v-1.4883zm0.37207 1.4883v0.37207h1.1167v-0.37207zm1.1167 0h0.37207v-1.4883h-0.37207zm1.1162-1.4883v1.8604h1.8604v-0.37207h-1.4883v-0.37207h1.1162v-0.37207h-1.1162v-0.37207h1.4883v-0.37207zm2.6045 0v1.8604h0.37207v-1.1162h0.37207v-0.37207h-0.37207v-0.37207zm0.74414 0.74414v0.37207h0.37259v-0.37207zm0.37259 0.37207v0.37207h0.37207v0.37207h0.37207v-1.8604h-0.37207v1.1162zm1.8604-1.1162v0.37207h1.4883v-0.37207zm0 0.37207h-0.37207v1.1162h0.37207zm0 1.1162v0.37207h1.4883v-0.37207zm2.2324-1.4883v1.8604h1.8609v-0.37207h-1.4888v-0.37207h1.1167v-0.37207h-1.1167v-0.37207h1.4888v-0.37207zm2.605 1.4883v0.37207h0.37207v-0.37207zm-81.119 5.0607v1.8604h0.37207v-1.8604zm2.9766 0v1.8604h0.37207v-1.1162h0.37259v-0.37207h-0.37259v-0.37207zm0.74466 0.74414v0.37207h0.37207v-0.37207zm0.37207 0h0.37207v1.1162h0.37207v-1.8604h-0.37207v0.37207h-0.37207zm1.4883-0.74414v1.4883h0.37207v-1.4883zm0.37207 1.4883v0.37207h1.1162v-0.37207zm1.1162 0h0.37207v-1.4883h-0.37207zm1.4883-1.4883v0.37207h1.4888v-0.37207zm0 0.37207h-0.37207v0.37207h0.37207zm0 0.37207v0.37207h1.1167v-0.37207zm1.1167 0.37207v0.37207h0.37207v-0.37207zm0 0.37207h-1.4888v0.37207h1.4888zm1.1162-1.4883v0.37207h0.74414v1.4883h0.37207v-1.4883h0.74414v-0.37207zm4.8374 0v0.37207h1.1162v-0.37207zm1.1162 0.37207v0.37207h-1.1162v-0.37207h-0.37207v1.4883h0.37207v-0.74414h1.1162v0.74414h0.37207v-1.4883zm1.4883-0.37207v0.37207h1.4883v-0.37207zm0 0.37207h-0.37207v0.37207h0.37207zm0 0.37207v0.37207h1.1162v-0.37207zm1.1162 0.37207v0.37207h0.37207v-0.37207zm0 0.37207h-1.4883v0.37207h1.4883zm1.1167-1.4883v1.8604h0.37207v-0.74414h1.1162v-0.37207h-1.1162v-0.37207h1.1162v-0.37207zm1.4883 0.37207v0.37207h0.37207v-0.37207zm1.1162-0.37207v1.8604h0.37207v-1.8604zm1.1162 0v1.8604h0.37207v-0.74414h1.1167v-0.37207h-1.1167v-0.37207h1.1167v-0.37207zm1.4888 0.37207v0.37207h0.37207v-0.37207zm0 0.74414v0.74414h0.37207v-0.74414zm1.1162-1.1162v1.8604h1.8604v-0.37207h-1.4883v-0.37207h1.1162v-0.37207h-1.1162v-0.37207h1.4883v-0.37207zm4.4654 0v0.37207h0.74414v1.4883h0.37207v-1.4883h0.74414v-0.37207zm2.9766 0v0.37207h1.1162v-0.37207zm1.1162 0.37207v1.1162h0.37207v-1.1162zm0 1.1162h-1.1162v0.37207h1.1162zm-1.1162 0v-1.1162h-0.37207v1.1162zm4.0933-1.4883v1.8604h1.4883v-0.37207h-1.1162v-1.1162h1.1162v-0.37207zm1.4883 0.37207v1.1162h0.37207v-1.1162zm1.1162-0.37207v1.8604h1.8609v-0.37207h-1.4888v-0.37207h1.1167v-0.37207h-1.1167v-0.37207h1.4888v-0.37207zm2.605 0v1.1162h0.37207v-1.1162zm0.37207 1.1162v0.37207h0.37207v-0.37207zm0.37207 0.37207v0.37207h0.37207v-0.37207zm0.37207 0h0.37207v-0.37207h-0.37207zm0.37207-0.37207h0.37207v-1.1162h-0.37207zm1.1162-1.1162v1.8604h1.8609v-0.37207h-1.4888v-0.37207h1.1167v-0.37207h-1.1167v-0.37207h1.4888v-0.37207zm2.605 0v1.8604h1.8604v-0.37207h-1.4883v-1.4883zm2.9766 0v0.37207h1.1167v-0.37207zm1.1167 0.37207v1.1162h0.37207v-1.1162zm0 1.1162h-1.1167v0.37207h1.1167zm-1.1167 0v-1.1162h-0.37207v1.1162zm2.2329-1.4883v1.8604h0.37207v-0.74414h1.1162v-0.37207h-1.1162v-0.37207h1.1162v-0.37207zm1.4883 0.37207v0.37207h0.37207v-0.37207zm3.3492-0.37207v0.37207h1.4883v-0.37207zm0 0.37207h-0.37207v0.37207h0.37207zm0 0.37207v0.37207h1.1162v-0.37207zm1.1162 0.37207v0.37207h0.37207v-0.37207zm0 0.37207h-1.4883v0.37207h1.4883zm1.4883-1.4883v0.37207h1.1162v-0.37207zm1.1162 0.37207v1.1162h0.37207v-1.1162zm0 1.1162h-1.1162v0.37207h1.1162zm-1.1162 0v-1.1162h-0.37207v1.1162zm2.2329-1.4883v1.8604h0.37207v-0.74414h0.74414v-0.37207h-0.74414v-0.37207h1.1162v-0.37207zm2.2324 0v0.37207h0.74414v1.4883h0.37207v-1.4883h0.74414v-0.37207zm2.6045 0v1.8604h0.37207v-0.37207h0.37258v-0.37207h-0.37258v-1.1162zm0.74465 1.1162h0.37208v-0.37207h-0.37208zm0.37208 0v0.37207h0.37207v0.37207h0.37207v-1.8604h-0.37207v1.1162zm1.8604-1.1162v0.37207h1.1162v-0.37207zm1.1162 0.37207v0.37207h-1.1162v-0.37207h-0.37207v1.4883h0.37207v-0.74414h1.1162v0.74414h0.37207v-1.4883zm1.1162-0.37207v1.8604h0.37207v-0.74414h1.1167v-0.37207h-1.1167v-0.37207h1.1167v-0.37207zm1.4888 0.37207v0.37207h0.37207v-0.37207zm0 0.74414v0.74414h0.37207v-0.74414zm1.1162-1.1162v1.8604h1.8604v-0.37207h-1.4883v-0.37207h1.1162v-0.37207h-1.1162v-0.37207h1.4883v-0.37207zm4.8374 0v0.37207h1.1162v-0.37207zm1.1162 0.37207v0.37207h-1.1162v-0.37207h-0.37207v1.4883h0.37207v-0.74414h1.1162v0.74414h0.37207v-1.4883zm1.4883-0.37207v0.37207h1.4883v-0.37207zm0 0.37207h-0.37207v0.37207h0.37207zm0 0.37207v0.37207h1.1162v-0.37207zm1.1162 0.37207v0.37207h0.37207v-0.37207zm0 0.37207h-1.4883v0.37207h1.4883zm-84.468 1.7859v0.37259h1.1162v-0.37259zm1.1162 0.37259v0.37207h-1.1162v-0.37207h-0.37207v1.4883h0.37207v-0.74414h1.1162v0.74414h0.37207v-1.4883zm1.1162-0.37259v1.8609h0.37207v-1.1162h0.37207v-0.37207h-0.37207v-0.37259zm0.74414 0.74466v0.37207h0.37259v-0.37207zm0.37259 0.37207v0.37207h0.37207v0.37207h0.37207v-1.8609h-0.37207v1.1167zm3.7207-1.1167v0.37259h1.1162v-0.37259zm1.1162 0.37259v0.37207h-1.1162v-0.37207h-0.37207v1.4883h0.37207v-0.74414h1.1162v0.74414h0.37207v-1.4883zm1.4888-0.37259v0.37259h1.4883v-0.37259zm0 0.37259h-0.37207v1.1162h0.37207zm0 1.1162v0.37207h1.4883v-0.37207zm2.2324-1.4888v0.37259h0.74414v1.4883h0.37207v-1.4883h0.74414v-0.37259zm4.8374 0v0.37259h1.1162v-0.37259zm1.1162 0.37259v1.1162h0.37207v-1.1162zm0 1.1162h-1.1162v0.37207h1.1162zm-1.1162 0v-1.1162h-0.37207v1.1162zm2.2324-1.4888v1.8609h0.37207v-0.74414h0.74465v-0.37207h-0.74465v-0.37207h1.1167v-0.37259zm4.4654 0v0.37259h1.4883v-0.37259zm0 0.37259h-0.37207v1.1162h0.37207zm0 1.1162v0.37207h1.4883v-1.1162h-0.74414v0.37207h0.37207v0.37207zm2.2329-1.4888v1.8609h0.37207v-1.8609zm1.1162 0v1.1167h0.37207v-1.1167zm0.37207 1.1167v0.37207h0.37207v-0.37207zm0.37207 0.37207v0.37207h0.37207v-0.37207zm0.37207 0h0.37207v-0.37207h-0.37207zm0.37207-0.37207h0.37207v-1.1167h-0.37207zm1.1162-1.1167v1.8609h0.37207v-1.8609zm1.1167 0v1.8609h0.37207v-1.1162h0.37207v-0.37207h-0.37207v-0.37259zm0.74414 0.74466v0.37207h0.37207v-0.37207zm0.37207 0.37207v0.37207h0.37207v0.37207h0.37207v-1.8609h-0.37207v1.1167zm1.8604-1.1167v0.37259h1.4883v-0.37259zm0 0.37259h-0.37207v1.1162h0.37207zm0 1.1162v0.37207h1.4883v-1.1162h-0.74414v0.37207h0.37207v0.37207zm4.0933-1.4888v1.8609h1.4883v-0.37207h-1.1162v-0.37207h1.1162v-0.37207h-1.1162v-0.37207h1.1162v-0.37259zm1.4883 0.37259v0.37207h0.37207v-0.37207zm0 0.74414v0.37207h0.37207v-0.37207zm1.4883-1.1167v0.37259h1.1167v-0.37259zm1.1167 0.37259v0.37207h-1.1167v-0.37207h-0.37207v1.4883h0.37207v-0.74414h1.1167v0.74414h0.37207v-1.4883zm1.4883-0.37259v0.37259h1.4883v-0.37259zm0 0.37259h-0.37207v1.1162h0.37207zm0 1.1162v0.37207h1.4883v-0.37207zm2.2324-1.4888v1.8609h0.37207v-0.74414h0.74414v-0.37207h-0.74414v-0.74466zm1.1162 0.74466h0.37259v-0.37207h-0.37259zm0.37259-0.37207h0.37207v-0.37259h-0.37207zm-0.37259 0.74414v0.37207h0.37259v-0.37207zm0.37259 0.37207v0.37207h0.37207v-0.37207zm2.9766-1.4888v0.37259h0.74414v1.4883h0.37207v-1.4883h0.74414v-0.37259zm2.9771 0v0.37259h1.1162v-0.37259zm1.1162 0.37259v1.1162h0.37207v-1.1162zm0 1.1162h-1.1162v0.37207h1.1162zm-1.1162 0v-1.1162h-0.37207v1.1162zm4.0928-1.4888v1.8609h0.37207v-1.1162h0.37259v-0.37207h-0.37259v-0.37259zm0.74466 0.74466v0.37207h0.37207v-0.37207zm0.37207 0h0.37207v1.1162h0.37207v-1.8609h-0.37207v0.37259h-0.37207zm1.4883-0.74466v0.37259h0.37207v-0.37259zm0.37207 0.37259v0.37207h0.37207v-0.37207zm0.37207 0.37207v1.1162h0.37207v-1.1162zm0.37207 0h0.37207v-0.37207h-0.37207zm0.37207-0.37207h0.37208v-0.37259h-0.37208zm2.9771-0.37259v1.8609h0.37207v-1.8609zm1.1162 0v1.8609h0.37208v-1.1162h0.37207v-0.37207h-0.37207v-0.37259zm0.74415 0.74466v0.37207h0.37207v-0.37207zm0.37207 0h0.37207v1.1162h0.37207v-1.8609h-0.37207v0.37259h-0.37207zm1.4883-0.74466v1.8609h0.37207v-1.1162h0.37207v-0.37207h-0.37207v-0.37259zm0.74414 0.74466v0.37207h0.37258v-0.37207zm0.37258 0h0.37208v1.1162h0.37207v-1.8609h-0.37207v0.37259h-0.37208zm1.4883-0.74466v1.8609h1.8604v-0.37207h-1.4883v-0.37207h1.1162v-0.37207h-1.1162v-0.37207h1.4883v-0.37259zm2.6045 0v1.8609h1.4888v-0.37207h-1.1167v-1.1162h1.1167v-0.37259zm1.4888 0.37259v1.1162h0.37207v-1.1162zm1.1162-0.37259v1.8609h0.37207v-1.8609zm1.4883 0v0.37259h1.1162v-0.37259zm1.1162 0.37259v0.37207h-1.1162v-0.37207h-0.37207v1.4883h0.37207v-0.74414h1.1162v0.74414h0.37207v-1.4883zm1.1162-0.37259v0.37259h0.74466v1.4883h0.37207v-1.4883h0.74414v-0.37259zm2.605 0v1.8609h1.8604v-0.37207h-1.4883v-0.37207h1.1162v-0.37207h-1.1162v-0.37207h1.4883v-0.37259zm-81.863 3.2747v0.37207h1.4883v-0.37207zm0 0.37207h-0.37207v1.1162h0.37207zm0 1.1162v0.37207h1.4883v-0.37207zm2.6045-1.4883v0.37207h1.1167v-0.37207zm1.1167 0.37207v1.1162h0.37207v-1.1162zm0 1.1162h-1.1167v0.37207h1.1167zm-1.1167 0v-1.1162h-0.37207v1.1162zm2.2329-1.4883v1.8604h0.37207v-1.1162h0.37207v-0.37206h-0.37207v-0.37207zm0.74414 0.74414v0.37207h0.37207v-0.37207zm0.37207 0h0.37207v1.1162h0.37207v-1.8603h-0.37207v0.37207h-0.37207zm1.4883-0.74414v1.8604h0.37207v-1.1162h0.37207v-0.37206h-0.37207v-0.37207zm0.74414 0.74414v0.37207h0.37207v-0.37207zm0.37207 0h0.37259v1.1162h0.37207v-1.8603h-0.37207v0.37207h-0.37259zm1.4888-0.74414v1.4883h0.37207v-1.4883zm0.37207 1.4883v0.37207h1.1162v-0.37207zm1.1162 0h0.37207v-1.4883h-0.37207zm1.1162-1.4883v1.8604h0.37207v-1.1162h0.37207v-0.37206h-0.37207v-0.37207zm0.74414 0.74414v0.37207h0.37207v-0.37207zm0.37207 0.37207v0.37207h0.37259v0.37207h0.37207v-1.8603h-0.37207v1.1162zm1.4888-1.1162v1.8604h0.37207v-1.8603zm1.1162 0v0.37207h0.74414v1.4883h0.37207v-1.4883h0.74414v-0.37207zm2.6045 0v0.37207h0.37207v-0.37207zm0.37207 0.37207v0.37207h0.37258v-0.37206zm0.37258 0.37207v1.1162h0.37207v-1.1162zm0.37207 0h0.37207v-0.37206h-0.37207zm0.37207-0.37207h0.37207v-0.37207h-0.37207zm1.1162 1.1162v0.37207h0.37207v-0.37207z"/></svg>
