<?xml version="1.0" encoding="UTF-8"?>
<svg width="95mm" height="45.638mm" version="1.1" viewBox="0 0 95 45.638" xmlns="http://www.w3.org/2000/svg"><path d="m78.614 0c-0.89768 0-1.931 0.12814-2.6577 0.32763-0.66257 0.19236-1.1826 0.42756-1.603 0.74104-0.56283 0.42746-0.85473 0.94032-0.85473 1.496 0 0.53433 0.29179 1.0474 0.8475 1.4748 0.87631 0.66969 2.4939 1.0759 4.2607 1.0759 0.94755 0 1.8806-0.12124 2.6572-0.3421 0.69107-0.19236 1.1826-0.41309 1.5958-0.72657 0.56283-0.42034 0.8692-0.94044 0.8692-1.5033 0-0.53433-0.2919-1.0401-0.85473-1.4676-0.88344-0.6697-2.4791-1.0759-4.2602-1.0759zm5.7707 0.17828v1.9735h6.4973c0.91193 0 1.5104 0.14924 1.9022 0.47697 0.26361 0.21373 0.41341 0.49183 0.41341 0.78393 0 0.28498-0.1498 0.5702-0.41341 0.78393-0.39184 0.3206-0.9973 0.46974-1.895 0.46974h-6.5045v0.26407h6.5045c0.9618 0 1.61-0.16427 2.0588-0.52762 0.33485-0.2636 0.52038-0.61965 0.52038-0.99012s-0.18553-0.73375-0.52038-0.99735c-0.44884-0.36335-1.0971-0.5271-2.066-0.5271h-6.2198v-1.4464h8.6279v-0.26355zm-5.7707 0.0786c1.7241 0 3.2701 0.38469 4.1036 1.033 0.48446 0.37048 0.74052 0.79771 0.74052 1.2537 0 1.3394-2.0444 2.3156-4.8514 2.3156-1.7099 0-3.2772-0.39182-4.1036-1.033-0.47734-0.37047-0.7338-0.80545-0.7338-1.2614 0-0.78369 0.6982-1.4674 1.9379-1.8877 0.76944-0.2636 1.8809-0.42013 2.9068-0.42013zm16.115 3.9894v0.6842h0.27078v-0.6842zm-35.907 1.3059-8.4568 5.6353v0.31368l8.4568-5.6353zm-46.551 0.41341c-0.89768 0-1.9305 0.12814-2.6572 0.32763-0.66257 0.19236-1.1827 0.42756-1.603 0.74104-0.56283 0.42746-0.85525 0.94033-0.85525 1.496 0 0.53434 0.2923 1.0474 0.84801 1.4748 0.8763 0.6697 2.4933 1.0759 4.2602 1.0759 0.94755 0 1.8812-0.12124 2.6577-0.3421 0.69107-0.19236 1.1826-0.4131 1.5958-0.72657 0.56283-0.42034 0.8692-0.94044 0.8692-1.5033 0-0.53433-0.29241-1.0407-0.85524-1.4681-0.88343-0.66969-2.4791-1.0754-4.2602-1.0754zm25.727 0.13539v4.7945h0.27078v-4.346l8.3922 4.3889v-4.7951h-0.27078v4.346zm28.847 0-4.8374 4.7945h0.39171l3.1347-3.1135h2.6572l3.1848 3.1135h0.39895zm5.55 0v4.7945h0.27027v-4.346l8.3928 4.3889v-4.7951h-0.27078v4.346zm-54.182 0.0424v4.7522h0.27078v-3.1135h7.7654c0.49158 0 0.69149-0.0211 0.86248-0.11369 0.25648-0.12822 0.41289-0.40615 0.41289-0.70538 0-0.27073-0.13508-0.52-0.34881-0.66249-0.18524-0.12112-0.3851-0.1571-0.92656-0.1571zm10.031 0v4.7522h9.1333v-0.26355h-8.8625v-2.85h4.2886v-0.26355h-4.2886v-1.1116h2.9208v-0.26355zm53.526 0v0.26355h4.2747v4.4886h0.27079v-4.4886h4.2674v-0.26355zm9.5255 0v4.7522h0.27026v-4.7522zm-79.025 0.0786c1.7241 0 3.2701 0.38469 4.1036 1.033 0.48447 0.37047 0.74104 0.79822 0.74104 1.2542 0 1.3394-2.0449 2.3151-4.8519 2.3151-1.7099 0-3.2772-0.39181-4.1036-1.033-0.47734-0.37047-0.7338-0.80493-0.7338-1.2609 0-0.78369 0.6982-1.4679 1.9379-1.8883 0.76944-0.2636 1.8809-0.42013 2.9068-0.42013zm6.2125 0.185h7.7587c0.44172 0 0.61952 0.0218 0.74776 0.093 0.17099 0.0926 0.26355 0.24929 0.26355 0.46302 0 0.20661-0.0783 0.34881-0.22789 0.44855-0.12824 0.0855-0.29936 0.10697-0.7767 0.10697h-7.7654zm48.368 0.0786 1.0614 1.033h-2.1089zm25.854 1.9239v0.26355h2.2944v-0.26355zm-82.953 3.6566v4.7951h0.27078v-4.346l8.3928 4.3884v-4.7945h-0.27078v4.346zm-9.7534 0.0429v4.7522h9.1338v-0.26407h-8.863v-2.8494h4.2891v-0.26355h-4.2891v-1.1116h2.9213v-0.26355zm27.579 0c-0.59846 0-1.0188 0.0499-1.4035 0.16382-0.55571 0.17099-0.88375 0.40605-1.7244 1.2325l-0.71934 0.71262-0.71262 0.71933c-0.52721 0.53433-1.1254 0.96899-1.7167 1.2397-0.65545 0.29923-1.2258 0.42013-1.9952 0.42013h-0.24909v0.26407h0.12816c0.74095 0 1.1968-0.0642 1.7312-0.24237 0.56283-0.17811 1.0616-0.45617 1.5746-0.84801 0.35622-0.28498 0.7193-0.62678 1.4175-1.325l0.71985-0.71985c1.1399-1.1542 1.5745-1.3534 2.9709-1.3534h0.59118v-0.26355zm1.2537 0v4.7522h0.27079v-3.1135h8.1359v3.1135h0.27079v-4.7522h-0.27079v1.3751h-8.1359v-1.3751zm9.8175 0v4.7522h0.27079v-4.7522zm0.9834 0v0.26355h4.2747v4.4886h0.27027v-4.4886h8.1148v4.4886h0.27078v-4.4886h4.268v-0.26355h-8.8134zm12.855 5.7872c-0.94043 0-1.8812 0.11401-2.6577 0.33487-0.69107 0.19236-1.1827 0.42032-1.603 0.7338-0.56283 0.42746-0.85473 0.94033-0.85473 1.496 0 0.53433 0.29179 1.0474 0.8475 1.4748 0.8763 0.6697 2.4938 1.0754 4.2607 1.0754 1.5246 0 3.0206-0.32058 3.8969-0.83354 0.39897-0.2351 0.63438-0.43447 0.85524-0.72657h-0.32091c-0.21374 0.20661-0.34168 0.30636-0.54829 0.4346-0.85493 0.53433-2.3368 0.86919-3.8757 0.86919-1.717 0-3.2844-0.39181-4.1109-1.033-0.47733-0.37047-0.7338-0.80493-0.7338-1.2609 0-1.3394 2.0448-2.3084 4.8447-2.3084 0.78369 0 1.5813 0.0856 2.251 0.24236 0.57708 0.13536 1.1544 0.34891 1.5177 0.55552 0.24935 0.14961 0.42727 0.27782 0.65526 0.49868h0.32091c-0.7267-0.9618-2.5292-1.5529-4.7449-1.5529zm27.906 0c-0.89768 0-1.9305 0.12815-2.6572 0.32763-0.66257 0.19236-1.1827 0.42756-1.603 0.74104-0.56283 0.42746-0.85524 0.94033-0.85524 1.496 0 0.53433 0.2923 1.0474 0.84801 1.4748 0.87631 0.6697 2.4933 1.0754 4.2602 1.0754 0.94755 0 1.8812-0.12072 2.6577-0.34158 0.69107-0.19236 1.1826-0.41362 1.5958-0.72709 0.56283-0.42035 0.8692-0.94044 0.8692-1.5033 0-0.53434-0.29242-1.0401-0.85525-1.4676-0.88344-0.6697-2.4791-1.0754-4.2602-1.0754zm-18.495 0.1354-4.8374 4.7945h0.39171l3.1347-3.1135h2.6577l3.1843 3.1135h0.39895zm24.437 0v4.7945h0.27078v-4.346l8.3928 4.3889v-4.7951h-0.27079v4.346zm-51.232 0.0424v4.7522h0.27079v-4.7522zm1.4108 0v4.7522h0.27078v-3.1135h4.2886v-0.26355h-4.2886v-1.1116h8.8625v-0.26355zm9.7534 0v4.7522h0.27078v-4.7522zm18.381 0v0.26355h4.2747v4.4886h0.27079v-4.4886h4.268v-0.26355zm9.5255 0v4.7522h0.27079v-4.7522zm6.2198 0.0785c1.7241 0 3.2701 0.38469 4.1036 1.033 0.48446 0.37048 0.74104 0.7977 0.74104 1.2537 0 1.3394-2.0449 2.3156-4.8519 2.3156-1.7099 0-3.2772-0.39181-4.1036-1.033-0.47734-0.37047-0.73381-0.80493-0.73381-1.2609 0-0.78369 0.69821-1.4679 1.9379-1.8883 0.76944-0.2636 1.8809-0.42013 2.9068-0.42013zm-18.488 0.26355 1.0614 1.033h-2.1089zm-39.84 8.9891v1.8604h0.37207v-1.8604zm1.1162 0v1.8604h0.37259v-1.1162h0.37207v-0.37207h-0.37207v-0.37208zm0.74466 0.74415v0.37207h0.37207v-0.37207zm0.37207 0.37207v0.37207h0.37207v0.37207h0.37207v-1.8604h-0.37207v1.1162zm3.7207-1.1162v0.37208h1.1167v-0.37208zm1.1167 0.37208v0.37207h-1.1167v-0.37207h-0.37208v1.4883h0.37208v-0.74414h1.1167v0.74414h0.37207v-1.4883zm2.9766-0.37208v1.8604h0.37207v-0.74414h1.1162v-0.37207h-1.1162v-0.37207h1.1162v-0.37208zm1.4883 0.37208v0.37207h0.37207v-0.37207zm1.1167-0.37208v1.8604h0.37207v-0.74414h1.1162v-0.37207h-1.1162v-0.37207h1.1162v-0.37208zm1.4883 0.37208v0.37207h0.37207v-0.37207zm0 0.74414v0.74414h0.37207v-0.74414zm1.4883-1.1162v0.37208h1.1162v-0.37208zm1.1162 0.37208v1.1162h0.37207v-1.1162zm0 1.1162h-1.1162v0.37207h1.1162zm-1.1162 0v-1.1162h-0.37207v1.1162zm2.2329-1.4883v1.8604h0.37207v-0.74414h0.74414v-0.37207h-0.74414v-0.37207h1.1162v-0.37208zm2.2324 0v1.8604h0.37207v-1.8604zm1.1162 0v0.37208h0.74414v1.4883h0.37207v-1.4883h0.74414v-0.37208zm4.4654 0v1.8604h1.4883v-0.37207h-1.1162v-1.1162h1.1162v-0.37208zm1.4883 0.37208v1.1162h0.37207v-1.1162zm1.1162-0.37208v1.8604h0.37259v-0.74414h1.1162v-0.37207h-1.1162v-0.37207h1.1162v-0.37208zm1.4888 0.37208v0.37207h0.37207v-0.37207zm0 0.74414v0.74414h0.37207v-0.74414zm1.1162-1.1162v1.8604h0.37207v-1.8604zm1.1162 0v1.1162h0.37207v-1.1162zm0.37207 1.1162v0.37207h0.37207v-0.37207zm0.37207 0.37207v0.37207h0.37207v-0.37207zm0.37207 0h0.37207v-0.37207h-0.37207zm0.37207-0.37207h0.37207v-1.1162h-0.37207zm1.1167-1.1162v1.8604h1.8604v-0.37207h-1.4883v-0.37207h1.1162v-0.37207h-1.1162v-0.37207h1.4883v-0.37208zm2.6045 0v1.8604h0.37207v-1.1162h0.37207v-0.37207h-0.37207v-0.37208zm0.74414 0.74415v0.37207h0.37207v-0.37207zm0.37207 0.37207v0.37207h0.37207v0.37207h0.37207v-1.8604h-0.37207v1.1162zm3.7212-1.1162v0.37208h1.4883v-0.37208zm0 0.37208h-0.37207v0.37207h0.37207zm0 0.37207v0.37207h1.1162v-0.37207zm1.1162 0.37207v0.37207h0.37207v-0.37207zm0 0.37207h-1.4883v0.37207h1.4883zm1.4883-1.4883v0.37208h1.1167v-0.37208zm1.1167 0.37208v1.1162h0.37207v-1.1162zm0 1.1162h-1.1167v0.37207h1.1167zm-1.1167 0v-1.1162h-0.37208v1.1162zm2.605-1.4883v0.37208h1.4883v-0.37208zm0 0.37208h-0.37207v1.1162h0.37207zm0 1.1162v0.37207h1.4883v-0.37207zm2.2324-1.4883v1.8604h0.37207v-1.8604zm1.1167 0v1.8604h1.8604v-0.37207h-1.4883v-0.37207h1.1162v-0.37207h-1.1162v-0.37207h1.4883v-0.37208zm2.6045 0v0.37208h0.74414v1.4883h0.37207v-1.4883h0.74414v-0.37208zm2.6045 0v0.37208h0.37259v-0.37208zm0.37259 0.37208v0.37207h0.37207v-0.37207zm0.37207 0.37207v1.1162h0.37207v-1.1162zm0.37207 0h0.37207v-0.37207h-0.37207zm0.37207-0.37207h0.37207v-0.37208h-0.37207zm2.9766-0.37208v1.8604h0.37207v-1.8604zm2.9771 0v1.8604h0.37207v-1.1162h0.37207v-0.37207h-0.37207v-0.37208zm0.74414 0.74415v0.37207h0.37207v-0.37207zm0.37207 0h0.37207v1.1162h0.37207v-1.8604h-0.37207v0.37208h-0.37207zm1.4883-0.74415v1.4883h0.37207v-1.4883zm0.37207 1.4883v0.37207h1.1167v-0.37207zm1.1167 0h0.37207v-1.4883h-0.37207zm1.4883-1.4883v0.37208h1.4883v-0.37208zm0 0.37208h-0.37207v0.37207h0.37207zm0 0.37207v0.37207h1.1162v-0.37207zm1.1162 0.37207v0.37207h0.37207v-0.37207zm0 0.37207h-1.4883v0.37207h1.4883zm1.1162-1.4883v0.37208h0.74414v1.4883h0.37207v-1.4883h0.74466v-0.37208zm-90.793 3.2742v1.8609h0.37207v-0.74466h1.1162v-0.37207h-1.1162v-0.37207h1.1162v-0.37207zm1.4883 0.37207v0.37207h0.37207v-0.37207zm1.1162-0.37207v1.8609h0.37207v-0.74466h1.1162v-0.37207h-1.1162v-0.37207h1.1162v-0.37207zm1.4883 0.37207v0.37207h0.37207v-0.37207zm0 0.74414v0.74466h0.37207v-0.74466zm1.1167-1.1162v1.8609h0.37207v-1.8609zm1.4883 0v0.37207h1.1162v-0.37207zm1.1162 0.37207v1.1162h0.37207v-1.1162zm0 1.1162h-1.1162v0.37259h1.1162zm-1.1162 0v-1.1162h-0.37207v1.1162zm2.2324-1.4883v1.8609h0.37207v-0.74466h1.1167v-0.37207h-1.1167v-0.37207h1.1167v-0.37207zm1.4888 0.37207v0.37207h0.37207v-0.37207zm0 0.74414v0.74466h0.37207v-0.74466zm1.1162-1.1162v1.8609h0.37207v-1.8609zm1.1162 0v0.37207h0.74414v1.4888h0.37207v-1.4888h0.74414v-0.37207zm2.6045 0v1.8609h0.37207v-1.8609zm1.1167 0v0.37207h1.1162v0.37207h0.37207v-0.37207h0.37207v-0.37207zm1.1162 0.74414h-0.37207v0.37207h0.37207zm-0.37207 0.37207h-0.37207v0.37207h-0.37207v0.37259h1.8604v-0.37259h-1.1162zm1.8604-1.1162v1.8609h1.8604v-0.37259h-1.4883v-0.37207h1.1162v-0.37207h-1.1162v-0.37207h1.4883v-0.37207zm4.4654 0v0.37207h0.74414v1.4888h0.37207v-1.4888h0.74414v-0.37207zm2.6045 0v1.8609h0.37207v-0.74466h1.1167v0.74466h0.37207v-1.8609h-0.37207v0.74414h-1.1167v-0.74414zm2.605 0v1.8609h1.8604v-0.37259h-1.4883v-0.37207h1.1162v-0.37207h-1.1162v-0.37207h1.4883v-0.37207zm4.4654 0v1.8609h0.37208v-1.8609zm1.1162 0v1.8609h0.37207v-1.1167h0.37207v-0.37207h-0.37207v-0.37207zm0.74414 0.74414v0.37207h0.37207v-0.37207zm0.37207 0.37207v0.37207h0.37207v0.37259h0.37207v-1.8609h-0.37207v1.1162zm1.4883-1.1162v0.37207h0.74466v1.4888h0.37207v-1.4888h0.74414v-0.37207zm2.605 0v1.8609h1.8604v-0.37259h-1.4883v-0.37207h1.1162v-0.37207h-1.1162v-0.37207h1.4883v-0.37207zm2.6045 0v1.8609h0.37207v-0.74466h1.1167v-0.37207h-1.1167v-0.37207h1.1167v-0.37207zm1.4888 0.37207v0.37207h0.37207v-0.37207zm0 0.74414v0.74466h0.37207v-0.74466zm1.1162-1.1162v1.8609h1.8604v-0.37259h-1.4883v-0.37207h1.1162v-0.37207h-1.1162v-0.37207h1.4883v-0.37207zm2.9766 0v0.37207h1.4888v-0.37207zm0 0.37207h-0.37207v0.37207h0.37207zm0 0.37207v0.37207h1.1167v-0.37207zm1.1167 0.37207v0.37207h0.37207v-0.37207zm0 0.37207h-1.4888v0.37259h1.4888zm1.1162-1.4883v0.37207h0.74414v1.4888h0.37207v-1.4888h0.74414v-0.37207zm2.9766 0v0.37207h1.4888v-0.37207zm0 0.37207h-0.37207v0.37207h0.37207zm0 0.37207v0.37207h1.1167v-0.37207zm1.1167 0.37207v0.37207h0.37207v-0.37207zm0 0.37207h-1.4888v0.37259h1.4888zm3.3486-1.4883v0.37207h1.1162v-0.37207zm1.1162 0.37207v1.1162h0.37207v-1.1162zm0 1.1162h-1.1162v0.37259h1.1162zm-1.1162 0v-1.1162h-0.37207v1.1162zm2.2329-1.4883v1.8609h0.37207v-0.74466h0.74414v-0.37207h-0.74414v-0.37207h1.1162v-0.37207zm4.0928 0v1.8609h0.37207v-1.1167h0.37208v-0.37207h-0.37208v-0.37207zm0.74415 0.74414v0.37207h0.37258v-0.37207zm0.37258 0h0.37207v1.1167h0.37207v-1.8609h-0.37207v0.37207h-0.37207zm1.4883-0.74414v0.37207h0.37207v-0.37207zm0.37207 0.37207v0.37207h0.37207v-0.37207zm0.37207 0.37207v1.1167h0.37207v-1.1167zm0.37207 0h0.37207v-0.37207h-0.37207zm0.37207-0.37207h0.37207v-0.37207h-0.37207zm2.9771-0.37207v1.4883h0.37207v-1.4883zm0.37207 1.4883v0.37259h1.1162v-0.37259zm1.1162 0h0.37207v-1.4883h-0.37207zm1.4883-1.4883v0.37207h1.4883v-0.37207zm0 0.37207h-0.37207v0.37207h0.37207zm0 0.37207v0.37207h1.1162v-0.37207zm1.1162 0.37207v0.37207h0.37207v-0.37207zm0 0.37207h-1.4883v0.37259h1.4883zm1.1167-1.4883v1.8609h1.8604v-0.37259h-1.4883v-0.37207h1.1162v-0.37207h-1.1162v-0.37207h1.4883v-0.37207zm2.6045 0v1.8609h0.37207v-0.74466h1.1162v-0.37207h-1.1162v-0.37207h1.1162v-0.37207zm1.4883 0.37207v0.37207h0.37207v-0.37207zm0 0.74414v0.74466h0.37207v-0.74466zm1.4888-1.1162v0.37207h1.4883v-0.37207zm0 0.37207h-0.37207v0.37207h0.37207zm0 0.37207v0.37207h1.1162v-0.37207zm1.1162 0.37207v0.37207h0.37207v-0.37207zm0 0.37207h-1.4883v0.37259h1.4883zm3.3486-1.4883v0.37207h1.1167v-0.37207zm1.1167 0.37207v0.37207h-1.1167v-0.37207h-0.37207v1.4888h0.37207v-0.74466h1.1167v0.74466h0.37207v-1.4888zm1.1162-0.37207v1.8609h0.37207v-1.1167h0.37207v-0.37207h-0.37207v-0.37207zm0.74414 0.74414v0.37207h0.37207v-0.37207zm0.37207 0.37207v0.37207h0.37207v0.37259h0.37207v-1.8609h-0.37207v1.1162zm1.4883-1.1162v1.8609h1.4888v-0.37259h-1.1167v-1.1162h1.1167v-0.37207zm1.4888 0.37207v1.1162h0.37207v-1.1162zm-76.282 2.9027v1.8604h0.37207v-0.74414h0.74414v-0.37207h-0.74414v-0.37207h1.1162v-0.37207zm2.2324 0v1.8604h1.8604v-0.37207h-1.4883v-0.37207h1.1162v-0.37207h-1.1162v-0.37207h1.4883v-0.37207zm2.6045 0v1.8604h1.8609v-0.37207h-1.4883v-1.4883zm2.605 0v1.8604h1.8604v-0.37207h-1.4883v-1.4883zm2.9766 0v0.37207h1.1167v-0.37207zm1.1167 0.37207v1.1162h0.37207v-1.1162zm0 1.1162h-1.1167v0.37207h1.1167zm-1.1167 0v-1.1162h-0.37207v1.1162zm2.2329-1.4883v1.8604h0.37207v-0.37207h0.37208v-0.37207h-0.37208v-1.1162zm0.74415 1.1162h0.37207v-0.37207h-0.37207zm0.37207 0v0.37207h0.37207v0.37207h0.37207v-1.8604h-0.37207v1.1162zm3.3491-1.1162v1.8604h1.4883v-0.37207h-1.1162v-1.1162h1.1162v-0.37207zm1.4883 0.37207v1.1162h0.37207v-1.1162zm1.1162-0.37207v1.8604h1.8609v-0.37207h-1.4888v-0.37207h1.1162v-0.37207h-1.1162v-0.37207h1.4888v-0.37207zm2.605 0v1.1162h0.37207v-1.1162zm0.37207 1.1162v0.37207h0.37207v-0.37207zm0.37207 0.37207v0.37207h0.37207v-0.37207zm0.37207 0h0.37207v-0.37207h-0.37207zm0.37207-0.37207h0.37207v-1.1162h-0.37207zm1.1162-1.1162v1.8604h1.8604v-0.37207h-1.4883v-0.37207h1.1162v-0.37207h-1.1162v-0.37207h1.4883v-0.37207zm2.605 0v1.8604h1.8604v-0.37207h-1.4883v-1.4883zm2.9766 0v0.37207h1.1162v-0.37207zm1.1162 0.37207v1.1162h0.37207v-1.1162zm0 1.1162h-1.1162v0.37207h1.1162zm-1.1162 0v-1.1162h-0.37207v1.1162zm2.2329-1.4883v1.8604h0.37207v-0.74414h1.1162v-0.37207h-1.1162v-0.37207h1.1162v-0.37207zm1.4883 0.37207v0.37207h0.37207v-0.37207zm1.1162-0.37207v1.8604h1.8604v-0.37207h-1.4883v-0.37207h1.1162v-0.37207h-1.1162v-0.37207h1.4883v-0.37207zm2.605 0v1.8604h0.37207v-0.74414h1.1162v-0.37207h-1.1162v-0.37207h1.1162v-0.37207zm1.4883 0.37207v0.37207h0.37207v-0.37207zm0 0.74414v0.74414h0.37207v-0.74414zm1.4883-1.1162v0.37207h1.4883v-0.37207zm0 0.37207h-0.37207v0.37207h0.37207zm0 0.37207v0.37207h1.1162v-0.37207zm1.1162 0.37207v0.37207h0.37207v-0.37207zm0 0.37207h-1.4883v0.37207h1.4883zm4.4654-1.4883v0.37207h1.1162v-0.37207zm1.1162 0.37207v0.37207h-1.1162v-0.37207h-0.37207v1.4883h0.37207v-0.74414h1.1162v0.74414h0.37207v-1.4883zm1.1167-0.37207v1.1162h0.37207v-1.1162zm0.37207 1.1162v0.37207h0.37207v-0.37207zm0.37207 0.37207v0.37207h0.37207v-0.37207zm0.37207 0h0.37207v-0.37207h-0.37207zm0.37207-0.37207h0.37207v-1.1162h-0.37207zm1.4883-1.1162v0.37207h1.1162v-0.37207zm1.1162 0.37207v1.1162h0.37207v-1.1162zm0 1.1162h-1.1162v0.37207h1.1162zm-1.1162 0v-1.1162h-0.37207v1.1162zm2.2324-1.4883v1.8604h0.37258v-1.8604zm1.1167 0v1.8604h1.4883v-0.37207h-1.1162v-1.1162h1.1162v-0.37207zm1.4883 0.37207v1.1162h0.37207v-1.1162zm1.1162-0.37207v1.8604h0.37207v-1.8604zm1.1162 0v1.8604h0.37207v-1.1162h0.37207v-0.37207h-0.37207v-0.37207zm0.74414 0.74414v0.37207h0.37259v-0.37207zm0.37259 0.37207v0.37207h0.37207v0.37207h0.37207v-1.8604h-0.37207v1.1162zm1.8604-1.1162v0.37207h1.4883v-0.37207zm0 0.37207h-0.37207v1.1162h0.37207zm0 1.1162v0.37207h1.4883v-1.1162h-0.74414v0.37207h0.37207v0.37207zm4.4654-1.4883v0.37207h1.1162v-0.37207zm1.1162 0.37207v0.37207h-1.1162v-0.37207h-0.37207v1.4883h0.37207v-0.74414h1.1162v0.74414h0.37207v-1.4883zm1.1162-0.37207v1.8604h0.37207v-1.1162h0.37207v-0.37207h-0.37207v-0.37207zm0.74414 0.74414v0.37207h0.37207v-0.37207zm0.37207 0.37207v0.37207h0.37207v0.37207h0.37207v-1.8604h-0.37207v1.1162zm1.4888-1.1162v0.37207h0.74414v1.4883h0.37207v-1.4883h0.74414v-0.37207zm2.6045 0v1.8604h0.37207v-1.8604zm1.1162 0.74414v0.37207h1.8609v-0.37207zm-31.629 0.37207v0.74414h0.37259v-0.74414zm-48.373 2.158v1.8609h0.37207v-0.74414h0.74414v-0.37207h-0.74414v-0.37259h1.1162v-0.37207zm2.2324 0v1.8609h1.8604v-0.37207h-1.4883v-0.37207h1.1162v-0.37207h-1.1162v-0.37259h1.4883v-0.37207zm2.9771 0v0.37207h1.1162v-0.37207zm1.1162 0.37207v0.37259h-1.1162v-0.37259h-0.37259v1.4888h0.37259v-0.74414h1.1162v0.74414h0.37207v-1.4888zm1.1162-0.37207v0.37207h0.74414v1.4888h0.37207v-1.4888h0.74414v-0.37207zm2.6045 0v1.4888h0.37259v-1.4888zm0.37259 1.4888v0.37207h1.1162v-0.37207zm1.1162 0h0.37207v-1.4888h-0.37207zm1.1162-1.4888v1.8609h0.37207v-0.74414h1.1162v-0.37207h-1.1162v-0.37259h1.1162v-0.37207zm1.4883 0.37207v0.37259h0.37207v-0.37259zm0 0.74466v0.74414h0.37207v-0.74414zm1.1162-1.1167v1.8609h1.8609v-0.37207h-1.4888v-0.37207h1.1167v-0.37207h-1.1167v-0.37259h1.4888v-0.37207zm2.9771 0v0.37207h1.4883v-0.37207zm0 0.37207h-0.37207v0.37259h0.37207zm0 0.37259v0.37207h1.1162v-0.37207zm1.1162 0.37207v0.37207h0.37207v-0.37207zm0 0.37207h-1.4883v0.37207h1.4883zm3.3492-1.4888v0.37207h1.1162v-0.37207zm1.1162 0.37207v0.37259h-1.1162v-0.37259h-0.37208v1.4888h0.37208v-0.74414h1.1162v0.74414h0.37207v-1.4888zm1.1162-0.37207v1.8609h0.37207v-1.1162h0.37207v-0.37259h-0.37207v-0.37207zm0.74414 0.74466v0.37207h0.37207v-0.37207zm0.37207 0.37207v0.37207h0.37207v0.37207h0.37259v-1.8609h-0.37259v1.1167zm1.4888-1.1167v1.8609h1.4883v-0.37207h-1.1162v-1.1167h1.1162v-0.37207zm1.4883 0.37207v1.1167h0.37207v-1.1167zm3.3492-0.37207v0.37207h1.4883v-0.37207zm0 0.37207h-0.37259v1.1167h0.37259zm0 1.1167v0.37207h1.4883v-0.37207zm2.6045-1.4888v0.37207h1.1162v-0.37207zm1.1162 0.37207v1.1167h0.37207v-1.1167zm0 1.1167h-1.1162v0.37207h1.1162zm-1.1162 0v-1.1167h-0.37207v1.1167zm2.2324-1.4888v1.8609h0.37259v-1.1162h0.37207v-0.37259h-0.37207v-0.37207zm0.74466 0.74466v0.37207h0.37207v-0.37207zm0.37207 0h0.37207v1.1162h0.37207v-1.8609h-0.37207v0.37207h-0.37207zm1.4883-0.74466v1.8609h0.37207v-0.74414h1.1162v-0.37207h-1.1162v-0.37259h1.1162v-0.37207zm1.4883 0.37207v0.37259h0.37207v-0.37259zm1.1162-0.37207v1.8609h1.8609v-0.37207h-1.4888v-0.37207h1.1167v-0.37207h-1.1167v-0.37259h1.4888v-0.37207zm2.605 0v0.37207h0.74414v1.4888h0.37207v-1.4888h0.74414v-0.37207zm2.6045 0v1.8609h0.37207v-1.8609zm1.1167 0v0.37207h0.74414v1.4888h0.37207v-1.4888h0.74414v-0.37207zm2.6045 0v1.8609h0.37207v-1.8609zm1.1162 0v1.1167h0.37207v-1.1167zm0.37207 1.1167v0.37207h0.37207v-0.37207zm0.37207 0.37207v0.37207h0.37208v-0.37207zm0.37208 0h0.37258v-0.37207h-0.37258zm0.37258-0.37207h0.37207v-1.1167h-0.37207zm1.1162-1.1167v1.8609h1.8604v-0.37207h-1.4883v-0.37207h1.1162v-0.37207h-1.1162v-0.37259h1.4883v-0.37207zm4.4654 0v1.8609h0.37207v-0.74414h1.1162v-0.37207h-1.1162v-0.37259h1.1162v-0.37207zm1.4883 0.37207v0.37259h0.37208v-0.37259zm1.1162-0.37207v1.8609h0.37207v-0.74414h1.1162v-0.37207h-1.1162v-0.37259h1.1162v-0.37207zm1.4883 0.37207v0.37259h0.37207v-0.37259zm0 0.74466v0.74414h0.37207v-0.74414zm1.4888-1.1167v0.37207h1.1162v-0.37207zm1.1162 0.37207v0.37259h-1.1162v-0.37259h-0.37208v1.4888h0.37208v-0.74414h1.1162v0.74414h0.37207v-1.4888zm1.4883-0.37207v0.37207h1.4883v-0.37207zm0 0.37207h-0.37207v1.1167h0.37207zm0 1.1167v0.37207h1.4883v-0.37207zm2.2324-1.4888v0.37207h0.74466v1.4888h0.37207v-1.4888h0.74414v-0.37207zm2.605 0v1.8609h0.37207v-1.8609zm1.4883 0v0.37207h1.4883v-0.37207zm0 0.37207h-0.37207v1.1167h0.37207zm0 1.1167v0.37207h1.4883v-0.37207zm2.2329-1.4888v1.8609h1.8604v-0.37207h-1.4883v-0.37207h1.1162v-0.37207h-1.1162v-0.37259h1.4883v-0.37207zm2.9766 0v0.37207h1.4883v-0.37207zm0 0.37207h-0.37207v0.37259h0.37207zm0 0.37259v0.37207h1.1162v-0.37207zm1.1162 0.37207v0.37207h0.37207v-0.37207zm0 0.37207h-1.4883v0.37207h1.4883zm1.1167 0v0.37207h0.37207v-0.37207zm-93.771 5.0607v1.8604h0.37207v-1.8604zm1.1167 0v1.8604h0.37207v-0.74414h0.74414v-0.37207h-0.74414v-0.37207h1.1162v-0.37207zm4.0928 0v0.37207h0.74414v1.4883h0.37259v-1.4883h0.74414v-0.37207zm2.605 0v1.8604h0.37207v-0.74414h1.1162v0.74414h0.37207v-1.8604h-0.37207v0.74414h-1.1162v-0.74414zm2.6045 0v1.8604h1.8609v-0.37207h-1.4888v-0.37207h1.1167v-0.37207h-1.1167v-0.37207h1.4888v-0.37207zm4.4654 0v1.8604h0.37207v-0.74414h1.1162v-0.37207h-1.1162v-0.37207h1.1162v-0.37207zm1.4883 0.37207v0.37207h0.37207v-0.37207zm1.1167-0.37207v1.8604h0.37207v-0.74414h1.1162v-0.37207h-1.1162v-0.37207h1.1162v-0.37207zm1.4883 0.37207v0.37207h0.37207v-0.37207zm0 0.74414v0.74414h0.37207v-0.74414zm1.4883-1.1162v0.37207h1.1162v-0.37207zm1.1162 0.37207v1.1162h0.37207v-1.1162zm0 1.1162h-1.1162v0.37207h1.1162zm-1.1162 0v-1.1162h-0.37207v1.1162zm2.2329-1.4883v1.8604h1.4883v-0.37207h-1.1162v-1.1162h1.1162v-0.37207zm1.4883 0.37207v1.1162h0.37207v-1.1162zm1.1162-0.37207v1.4883h0.37207v-1.4883zm0.37207 1.4883v0.37207h1.1162v-0.37207zm1.1162 0h0.37208v-1.4883h-0.37208zm1.4888-1.4883v0.37207h1.4883v-0.37207zm0 0.37207h-0.37258v1.1162h0.37258zm0 1.1162v0.37207h1.4883v-0.37207zm2.2324-1.4883v0.37207h0.74415v1.4883h0.37207v-1.4883h0.74414v-0.37207zm4.4654 0v1.8604h0.37207v-1.8604zm1.4883 0v0.37207h1.4883v-0.37207zm0 0.37207h-0.37207v0.37207h0.37207zm0 0.37207v0.37207h1.1162v-0.37207zm1.1162 0.37207v0.37207h0.37207v-0.37207zm0 0.37207h-1.4883v0.37207h1.4883zm3.3492-1.4883v0.37207h1.4883v-0.37207zm0 0.37207h-0.37207v1.1162h0.37207zm0 1.1162v0.37207h1.4883v-1.1162h-0.74414v0.37207h0.37207v0.37207zm2.6045-1.4883v0.37207h1.1167v-0.37207zm1.1167 0.37207v1.1162h0.37207v-1.1162zm0 1.1162h-1.1167v0.37207h1.1167zm-1.1167 0v-1.1162h-0.37207v1.1162zm2.605-1.4883v0.37207h1.1162v-0.37207zm1.1162 0.37207v1.1162h0.37207v-1.1162zm0 1.1162h-1.1162v0.37207h1.1162zm-1.1162 0v-1.1162h-0.37207v1.1162zm2.2324-1.4883v1.8604h1.4888v-0.37207h-1.1167v-1.1162h1.1167v-0.37207zm1.4888 0.37207v1.1162h0.37207v-1.1162zm2.9766-0.37207v1.8604h0.37207v-1.1162h0.37207v-0.37207h-0.37207v-0.37207zm0.74414 0.74414v0.37207h0.37207v-0.37207zm0.37207 0h0.37207v1.1162h0.37207v-1.8604h-0.37207v0.37207h-0.37207zm1.8609-0.74414v0.37207h1.1162v-0.37207zm1.1162 0.37207v1.1162h0.37207v-1.1162zm0 1.1162h-1.1162v0.37207h1.1162zm-1.1162 0v-1.1162h-0.37207v1.1162zm2.2324-1.4883v1.8604h0.37207v-1.1162h0.37207v-0.37207h-0.37207v-0.37207zm0.74414 0.74414v0.37207h0.37207v-0.37207zm0.37207 0.37207v0.37207h0.37207v0.37207h0.37207v-1.8604h-0.37207v1.1162zm1.4883-1.1162v1.8604h1.8609v-0.37207h-1.4883v-0.37207h1.1162v-0.37207h-1.1162v-0.37207h1.4883v-0.37207zm2.605 0v0.37207h0.37207v-0.37207zm0.37207 0.37207v0.37207h0.37207v-0.37207zm0.37207 0.37207v1.1162h0.37207v-1.1162zm0.37207 0h0.37207v-0.37207h-0.37207zm0.37207-0.37207h0.37207v-0.37207h-0.37207zm2.9771-0.37207v1.8604h0.37207v-0.37207h0.37207v-0.37207h-0.37207v-1.1162zm0.74414 1.1162h0.37207v-0.37207h-0.37207zm0.37207 0v0.37207h0.37207v0.37207h0.37207v-1.8604h-0.37207v1.1162zm1.4883-1.1162v1.8604h0.37207v-1.8604zm1.1162 0v1.8604h1.8609v-0.37207h-1.4883v-1.4883zm2.605 0v1.8604h1.8604v-0.37207h-1.4883v-1.4883zm4.4654 0v1.8604h0.37207v-0.74414h0.74414v-0.37207h-0.74414v-0.37207h1.1162v-0.37207zm2.6045 0v0.37207h1.1162v-0.37207zm1.1162 0.37207v1.1162h0.37259v-1.1162zm0 1.1162h-1.1162v0.37207h1.1162zm-1.1162 0v-1.1162h-0.37207v1.1162zm2.2329-1.4883v1.8604h1.8604v-0.37207h-1.4883v-1.4883zm2.6045 0v1.8604h1.8604v-0.37207h-1.4883v-1.4883zm2.9771 0v0.37207h1.1162v-0.37207zm1.1162 0.37207v1.1162h0.37207v-1.1162zm0 1.1162h-1.1162v0.37207h1.1162zm-1.1162 0v-1.1162h-0.37207v1.1162zm2.2324-1.4883v1.8604h0.37207v-0.37207h0.37207v-0.37207h-0.37207v-1.1162zm0.74414 1.1162h0.37207v-0.37207h-0.37207zm0.37207 0v0.37207h0.37207v0.37207h0.37207v-1.8604h-0.37207v1.1162zm1.4888 0.37207v0.37207h0.37207v-0.37207z"/></svg>
