<?xml version="1.0" encoding="UTF-8"?>
<svg width="95mm" height="42.371mm" version="1.1" viewBox="0 0 95 42.371" xmlns="http://www.w3.org/2000/svg"><path d="m16.243 0c-1.1185 0-2.2227 0.12847-2.9993 0.34933-0.67682 0.18524-1.1683 0.42004-1.5958 0.74776-0.59846 0.47021-0.89762 1.019-0.89762 1.6531 0 0.98317 0.64853 1.6242 2.0164 1.9947 0.91193 0.24223 2.0444 0.37775 3.2484 0.37775 2.9495 0 5.0302-0.7197 5.0302-1.7456 0-0.34909-0.29208-0.69119-0.83354-0.97616-0.8763-0.45597-2.4437-0.72657-4.2106-0.72657-1.7027 0-3.2633 0.27101-4.161 0.71985-0.39897 0.20661-0.64824 0.43414-0.76223 0.70487-0.0285-0.14249-0.0357-0.19917-0.0357-0.31316 0-0.57708 0.26355-1.0757 0.79789-1.496 0.82643-0.65545 2.4082-1.033 4.3532-1.033 1.1114 0 2.1589 0.12095 3.0851 0.35605 0.52721 0.13537 0.8761 0.25667 1.4888 0.51315v-0.29249c-0.56271-0.23511-0.91921-0.35586-1.3823-0.47697-0.89768-0.22799-1.9878-0.35657-3.1419-0.35657zm-11.128 7e-3c-0.89768 0-1.931 0.12814-2.6577 0.32763-0.66257 0.19236-1.1827 0.42756-1.603 0.74104-0.56283 0.42747-0.85472 0.94032-0.85472 1.496 0 0.53433 0.29179 1.0474 0.84749 1.4748 0.87631 0.66969 2.4939 1.0759 4.2607 1.0759 0.94756 0 1.8806-0.12124 2.6572-0.3421 0.69108-0.19236 1.1826-0.41309 1.5958-0.72657 0.56283-0.42034 0.8692-0.94043 0.8692-1.5033 0-0.53433-0.2919-1.0401-0.85473-1.4676-0.88343-0.6697-2.4791-1.0759-4.2602-1.0759zm0 0.25631c1.7241 0 3.2701 0.38469 4.1036 1.033 0.48446 0.37047 0.74104 0.79822 0.74104 1.2542 0 1.3394-2.0449 2.3156-4.8519 2.3156-1.7099 0-3.2772-0.39232-4.1036-1.0335-0.47734-0.37048-0.73381-0.80494-0.73381-1.2609 0-0.78369 0.69822-1.4674 1.9379-1.8877 0.76944-0.2636 1.8809-0.42065 2.9068-0.42065zm10.915 1.6671c1.6956 0 3.2343 0.26407 4.0607 0.69866 0.43459 0.22798 0.67696 0.49851 0.67696 0.75499 0 0.84069-2.059 1.4821-4.7449 1.4821-1.6956 0-3.2487-0.27079-4.068-0.70538-0.43459-0.22086-0.67696-0.49903-0.67696-0.75551 0-0.83356 2.0591-1.4748 4.7522-1.4748zm6.2053 2.3228v0.68368h0.27079v-0.68367zm67.622 1.3059-8.4568 5.6353v0.31368l8.4568-5.6358zm-84.742 0.41289c-0.94043 0-1.8812 0.11401-2.6577 0.33486-0.69107 0.19236-1.1827 0.42033-1.603 0.73381-0.56283 0.42747-0.85472 0.94084-0.85472 1.4966 0 0.53433 0.29179 1.0474 0.84749 1.4748 0.87631 0.6697 2.4939 1.0754 4.2607 1.0754 1.5246 0 3.0206-0.32058 3.8969-0.83354 0.39897-0.23511 0.63439-0.43447 0.85525-0.72657h-0.32091c-0.21373 0.20661-0.34168 0.30636-0.54829 0.4346-0.85493 0.53433-2.3368 0.8692-3.8757 0.8692-1.717 0-3.2844-0.39182-4.1109-1.033-0.47734-0.37047-0.73381-0.80494-0.73381-1.2609 0-1.3394 2.0448-2.3084 4.8447-2.3084 0.78369 0 1.5813 0.0856 2.251 0.24236 0.57708 0.13537 1.1544 0.34892 1.5177 0.55553 0.24936 0.14961 0.42728 0.27782 0.65526 0.49867h0.32091c-0.72669-0.9618-2.5292-1.5534-4.7449-1.5534zm29.801 0.13539-4.8374 4.7951h0.3917l3.1347-3.1135h2.6577l3.1848 3.1135h0.39895zm-24.273 0.0429v1.9022c0 0.84069 0.11404 1.2609 0.47026 1.6955 0.68395 0.84068 2.1301 1.3394 3.8685 1.3394 1.6671 0 3.0564-0.45562 3.776-1.2464 0.42034-0.44884 0.55552-0.89807 0.55552-1.7958v-1.895h-0.27027v1.895c0 0.78369-0.0998 1.1475-0.40617 1.5322-0.62695 0.77657-2.0094 1.2464-3.6623 1.2464-1.5816 0-2.9207-0.43448-3.5832-1.1612-0.36334-0.39897-0.47749-0.79093-0.47749-1.6102v-1.9022zm9.7679 0v4.7522h0.27027v-3.1135h2.6577l5.9206 3.1135h0.59841l-5.9278-3.1135h4.517c0.49158 0 0.69097-0.0211 0.86196-0.11369 0.25648-0.12824 0.41342-0.40615 0.41342-0.70538 0-0.27073-0.13561-0.52052-0.34934-0.66301-0.18524-0.12111-0.38459-0.15658-0.92604-0.15658zm17.255 0v0.26355h4.2747v4.4886h0.27079v-4.4886h4.2674v-0.26355zm9.5255 0v4.7522h9.1333v-0.26355h-8.8625v-2.85h4.2886v-0.26355h-4.2886v-1.1116h2.9208v-0.26355zm9.7534 0v4.7522h5.2788c1.5104 0 2.4793-0.24923 3.206-0.82631 0.53433-0.42034 0.83354-0.9762 0.83354-1.5462 0-0.56995-0.29921-1.133-0.83354-1.5534-0.72669-0.57708-1.6952-0.82631-3.2127-0.82631zm-36.264 0.26355h7.7587c0.44172 0 0.62003 0.0213 0.74827 0.0925 0.17099 0.0926 0.26355 0.24981 0.26355 0.46354 0 0.20661-0.0783 0.34881-0.22789 0.44855-0.12824 0.0855-0.29937 0.10697-0.7767 0.10697h-7.7659zm41.536 0c1.4605 0 2.3721 0.23513 3.0489 0.76946 0.45596 0.37048 0.72709 0.8551 0.72709 1.3467 0 0.48446-0.26358 0.96898-0.7338 1.3395-0.66969 0.53433-1.5892 0.76946-3.0355 0.76946h-5.0085v-4.2178zm-27.294 0.0786 1.0614 1.033h-2.1089zm-27.952 5.5805-4.8374 4.7945h0.39171l3.1347-3.113h2.6572l3.1848 3.113h0.39894zm5.55 0v4.7945h0.27027v-4.346l8.3928 4.3889v-4.7945h-0.27079v4.3455zm59.346 0v0.28474l4.4318 1.5177v2.9921h0.27079v-2.9921l4.4312-1.5177v-0.28474l-4.5666 1.5674zm-49.971 0.0429v0.26355h4.2747v4.4881h0.27079v-4.4881h4.2674v-0.26355zm9.5255 0v4.7516h0.27027v-4.7516zm4.8442 0v4.7516h9.1338v-0.26355h-8.863v-2.8494h4.2891v-0.26407h-4.2891v-1.111h2.9213v-0.26355zm5.8849 0 4.916 4.7945 4.8519-4.7945h-0.39222l-4.4597 4.4168-4.5243-4.4168zm10.387 0v4.7516h9.1338v-0.26355h-8.863v-2.8494h4.2891v-0.26407h-4.2891v-1.111h2.9213v-0.26355zm9.7534 0v4.7516h0.27079v-3.113h2.6572l5.9206 3.113h0.59841l-5.9273-3.113h4.5165c0.49158 0 0.69149-0.0216 0.86248-0.1142 0.25648-0.12824 0.41289-0.40616 0.41289-0.70539 0-0.27073-0.13509-0.52-0.34882-0.66249-0.18524-0.12112-0.38509-0.15658-0.92655-0.15658zm18.894 0v0.26355h4.2747v4.4881h0.27078v-4.4881h4.2674v-0.26355zm-18.623 0.26355h7.7587c0.44172 0 0.61952 0.0213 0.74776 0.0925 0.17099 0.0926 0.26355 0.24929 0.26355 0.46302 0 0.20661-0.0783 0.34933-0.2279 0.44907-0.12824 0.0855-0.29935 0.10645-0.77669 0.10645h-7.7654zm-55.585 0.078 1.0614 1.033h-2.1089zm25.854 1.9239v0.26355h2.2944v-0.26355zm-6.6864 3.5212c-0.94042 0-1.8812 0.114-2.6577 0.33486-0.69108 0.19236-1.1826 0.42033-1.603 0.73381-0.56283 0.42746-0.85473 0.94084-0.85473 1.4965 0 0.53434 0.2923 1.0469 0.84801 1.4743 0.87631 0.6697 2.4934 1.0759 4.2602 1.0759 2.1017 0 3.8546-0.5414 4.6597-1.432v1.247h0.27027v-1.6386h-4.9656v0.26355h4.4457c-0.17812 0.17811-0.31347 0.2921-0.53433 0.43459-0.82643 0.53434-2.3226 0.8692-3.8757 0.8692-1.7099 0-3.2772-0.39181-4.1036-1.033-0.47734-0.37047-0.73381-0.80494-0.73381-1.2609 0-1.3394 2.0448-2.3084 4.8447-2.3084 0.78369 0 1.5813 0.0851 2.251 0.24184 0.57708 0.13537 1.1544 0.34943 1.5177 0.55604 0.24935 0.14962 0.42728 0.27782 0.65526 0.49868h0.32091c-0.7267-0.9618-2.5292-1.5534-4.7449-1.5534zm32.751 0c-0.94042 0-1.8806 0.114-2.6572 0.33486-0.69107 0.19236-1.1827 0.42033-1.603 0.73381-0.56283 0.42746-0.85525 0.94084-0.85525 1.4965 0 0.53434 0.2923 1.0469 0.84801 1.4743 0.87631 0.6697 2.4934 1.0759 4.2602 1.0759 2.1017 0 3.8546-0.5414 4.6597-1.432v1.247h0.27079v-1.6386h-4.9661v0.26355h4.4457c-0.17811 0.17811-0.31347 0.2921-0.53433 0.43459-0.82644 0.53434-2.3226 0.8692-3.8757 0.8692-1.7099 0-3.2772-0.39181-4.1036-1.033-0.47734-0.37047-0.7338-0.80494-0.7338-1.2609 0-1.3394 2.0448-2.3084 4.8447-2.3084 0.78369 0 1.5818 0.0851 2.2515 0.24184 0.57708 0.13537 1.1539 0.34943 1.5172 0.55604 0.24935 0.14962 0.42779 0.27782 0.65578 0.49868h0.32039c-0.7267-0.9618-2.5292-1.5534-4.7449-1.5534zm-47.364 0.13539v4.795h0.27078v-4.346l8.3928 4.3889v-4.7951h-0.27079v4.346zm37.86 0-4.8374 4.795h0.39171l3.1347-3.1135h2.6572l3.1848 3.1135h0.39894zm-49.087 0.0429v4.7522h0.27078v-3.1135h8.1359v3.1135h0.27078v-4.7522h-0.27078v1.3751h-8.1359v-1.3751zm9.8175 0v4.7522h0.27078v-4.7522zm25.284 0v4.7522h5.2793c0.73382 0 1.4466-0.0574 1.988-0.15709 0.54146-0.0997 0.89073-0.22076 1.247-0.42737 0.52009-0.30635 0.79788-0.71255 0.79788-1.1756 0-0.43459-0.29204-0.86194-0.79788-1.1612-0.63407-0.38472-1.7526-0.58394-3.2417-0.58394h-0.96894c0.16386-0.0926 0.26355-0.27823 0.26355-0.49196 0-0.24936-0.1356-0.48412-0.34933-0.61236-0.18524-0.10687-0.39171-0.14263-0.92604-0.14263zm29.318 0v4.7522h9.1333v-0.26355h-8.863v-2.85h4.2891v-0.26355h-4.2891v-1.1116h2.9213v-0.26355zm9.7529 0v4.7522h7.7659v-0.26355h-7.4952v-4.4886zm-38.8 0.26355h3.021c0.44172 0 0.61993 0.0217 0.74104 0.0858 0.15674 0.0712 0.26355 0.23467 0.26355 0.40566 0 0.15674-0.0858 0.30662-0.22118 0.38499-0.12824 0.0784-0.30607 0.10697-0.78341 0.10697h-3.021zm13.722 0.0786 1.062 1.033h-2.1089zm-13.722 1.1684h5.0018c0.71957 0 1.4174 0.0567 1.9446 0.14935 0.51296 0.0997 0.84109 0.20658 1.1617 0.39894 0.42746 0.25648 0.66249 0.57716 0.66249 0.94051 0 0.49871-0.49154 0.96884-1.2325 1.1968-0.62695 0.19236-1.5036 0.29248-2.5296 0.29248h-5.0085zm-3.7047 0.75499v0.26355h2.2944v-0.26355zm-31.974 7.0652v1.8609h1.4883v-0.37207h-1.1162v-0.37207h1.1162v-0.37207h-1.1162v-0.37258h1.1162v-0.37207zm1.4883 0.37207v0.37258h0.37207v-0.37258zm0 0.74465v0.37207h0.37207v-0.37207zm1.1162-1.1167v0.37207h0.37207v-0.37207zm0.37207 0.37207v0.37258h0.37207v-0.37258zm0.37207 0.37258v1.1162h0.37259v-1.1162zm0.37259 0h0.37207v-0.37258h-0.37207zm0.37207-0.37258h0.37207v-0.37207h-0.37207zm2.9766-0.37207v1.8609h1.8604v-0.37207h-1.4883v-0.37207h1.1162v-0.37207h-1.1162v-0.37258h1.4883v-0.37207zm2.605 0v0.37207h0.37207v-0.37207zm0.37207 0.37207v0.37258h0.37207v-0.37258zm0.37207 0.37258v0.37207h0.37207v-0.37207zm0.37207 0h0.37207v-0.37258h-0.37207zm0.37207-0.37258h0.37207v-0.37207h-0.37207zm-0.37207 0.74465v0.37207h0.37207v-0.37207zm0.37207 0.37207v0.37207h0.37207v-0.37207zm-0.74414-0.37207h-0.37207v0.37207h0.37207zm-0.37207 0.37207h-0.37207v0.37207h0.37207zm2.2324-1.4888v1.8609h0.37207v-0.74414h1.1162v-0.37207h-1.1162v-0.37258h1.1162v-0.37207zm1.4883 0.37207v0.37258h0.37207v-0.37258zm1.4888-0.37207v0.37207h1.1162v-0.37207zm1.1162 0.37207v1.1167h0.37207v-1.1167zm0 1.1167h-1.1162v0.37207h1.1162zm-1.1162 0v-1.1167h-0.37207v1.1167zm2.6045-1.4888v0.37207h1.4883v-0.37207zm0 0.37207h-0.37207v0.37258h0.37207zm0 0.37258v0.37207h1.1162v-0.37207zm1.1162 0.37207v0.37207h0.37207v-0.37207zm0 0.37207h-1.4883v0.37207h1.4883zm1.1167-1.4888v1.8609h0.37207v-1.8609zm1.1162 0v1.8609h0.37207v-1.1162h0.37207v-0.37258h-0.37207v-0.37207zm0.74414 0.74465v0.37207h0.37207v-0.37207zm0.37207 0.37207v0.37207h0.37207v0.37207h0.37207v-1.8609h-0.37207v1.1167zm1.8604-1.1167v0.37207h1.4888v-0.37207zm0 0.37207h-0.37207v1.1167h0.37207zm0 1.1167v0.37207h1.4888v-1.1162h-0.74466v0.37207h0.37207v0.37207zm4.4654-1.4888v0.37207h1.1162v-0.37207zm1.1162 0.37207v0.37258h-1.1162v-0.37258h-0.37207v1.4888h0.37207v-0.74414h1.1162v0.74414h0.37207v-1.4888zm2.9771-0.37207v1.8609h0.37207v-0.74414h1.1162v0.74414h0.37207v-1.8609h-0.37207v0.74465h-1.1162v-0.74465zm2.6045 0v1.8609h0.37207v-1.8609zm1.4888 0v0.37207h1.4883v-0.37207zm0 0.37207h-0.37207v1.1167h0.37207zm0 1.1167v0.37207h1.4883v-1.1162h-0.74415v0.37207h0.37208v0.37207zm2.2324-1.4888v1.8609h0.37207v-0.74414h1.1162v0.74414h0.37207v-1.8609h-0.37207v0.74465h-1.1162v-0.74465zm2.6045 0v1.8609h1.8609v-0.37207h-1.4883v-1.4888zm2.605 0v0.37207h0.37207v-0.37207zm0.37207 0.37207v0.37258h0.37207v-0.37258zm0.37207 0.37258v1.1162h0.37207v-1.1162zm0.37207 0h0.37207v-0.37258h-0.37207zm0.37207-0.37258h0.37207v-0.37207h-0.37207zm2.9771-0.37207v1.8609h1.8604v-0.37207h-1.4883v-1.4888zm2.6045 0v1.8609h0.37207v-1.8609zm1.1162 0v1.8609h0.37259v-1.1162h0.37207v-0.37258h-0.37207v-0.37207zm0.74466 0.74465v0.37207h0.37207v-0.37207zm0.37207 0h0.37207v1.1162h0.37207v-1.8609h-0.37207v0.37207h-0.37207zm1.4883-0.74465v1.8609h0.37207v-1.8609zm1.1162 0v0.37207h0.74414v1.4888h0.37207v-1.4888h0.74414v-0.37207zm2.605 0v1.8609h1.8604v-0.37207h-1.4883v-0.37207h1.1162v-0.37207h-1.1162v-0.37258h1.4883v-0.37207zm2.6045 0v1.8609h1.4883v-0.37207h-1.1162v-1.1167h1.1162v-0.37207zm1.4883 0.37207v1.1167h0.37207v-1.1167zm3.3492-0.37207v0.37207h1.4883v-0.37207zm0 0.37207h-0.37207v0.37258h0.37207zm0 0.37258v0.37207h1.1162v-0.37207zm1.1162 0.37207v0.37207h0.37207v-0.37207zm0 0.37207h-1.4883v0.37207h1.4883zm1.1162-1.4888v1.8609h1.8609v-0.37207h-1.4888v-0.37207h1.1167v-0.37207h-1.1167v-0.37258h1.4888v-0.37207zm2.605 0v0.37207h0.74414v1.4888h0.37207v-1.4888h0.74414v-0.37207zm4.8374 0v0.37207h1.1162v-0.37207zm1.1162 0.37207v1.1167h0.37207v-1.1167zm0 1.1167h-1.1162v0.37207h1.1162zm-1.1162 0v-1.1167h-0.37207v1.1167zm2.2324-1.4888v1.8609h0.37207v-0.74414h0.74414v-0.37207h-0.74414v-0.37258h1.1162v-0.37207zm-78.142 3.2747v1.8604h0.37207v-0.74414h1.1162v-0.37207h-1.1162v-0.37207h1.1162v-0.37207zm1.4883 0.37207v0.37207h0.37207v-0.37207zm1.4883-0.37207v0.37207h1.1167v-0.37207zm1.1167 0.37207v0.37207h-1.1167v-0.37207h-0.37207v1.4883h0.37207v-0.74414h1.1167v0.74414h0.37207v-1.4883zm1.1162-0.37207v1.8604h0.37207v-0.74414h1.1162v-0.37207h-1.1162v-0.37207h1.1162v-0.37207zm1.4883 0.37207v0.37207h0.37207v-0.37207zm0 0.74414v0.74414h0.37207v-0.74414zm1.4883-1.1162v0.37207h1.1167v-0.37207zm1.1167 0.37207v0.37207h-1.1167v-0.37207h-0.37207v1.4883h0.37207v-0.74414h1.1167v0.74414h0.37207v-1.4883zm1.1162-0.37207v1.8604h0.37207v-1.1162h0.37207v-0.37207h-0.37207v-0.37207zm0.74414 0.74414v0.37207h0.37207v-0.37207zm0.37207 0h0.37207v1.1162h0.37207v-1.8604h-0.37207v0.37207h-0.37207zm1.4883-0.74414v1.8604h1.8609v-0.37207h-1.4888v-0.37207h1.1167v-0.37207h-1.1167v-0.37207h1.4888v-0.37207zm2.605 0v0.37207h0.74414v1.4883h0.37207v-1.4883h0.74414v-0.37207zm2.6045 0v1.8604h1.8609v-0.37207h-1.4888v-0.37207h1.1162v-0.37207h-1.1162v-0.37207h1.4888v-0.37207zm2.605 0v1.8604h0.37207v-0.74414h1.1162v-0.37207h-1.1162v-0.37207h1.1162v-0.37207zm1.4883 0.37207v0.37207h0.37207v-0.37207zm0 0.74414v0.74414h0.37207v-0.74414zm1.4883-1.1162v0.37207h1.4883v-0.37207zm0 0.37207h-0.37207v0.37207h0.37207zm0 0.37207v0.37207h1.1162v-0.37207zm1.1162 0.37207v0.37207h0.37207v-0.37207zm0 0.37207h-1.4883v0.37207h1.4883zm2.9771-1.4883v1.8604h0.37207v-1.8604zm3.3492 0v0.37207h1.1162v-0.37207zm1.1162 0.37207v0.37207h-1.1162v-0.37207h-0.37207v1.4883h0.37207v-0.74414h1.1162v0.74414h0.37207v-1.4883zm1.4883-0.37207v0.37207h1.4883v-0.37207zm0 0.37207h-0.37207v1.1162h0.37207zm0 1.1162v0.37207h1.4883v-0.37207zm2.2324-1.4883v1.8604h0.37258v-0.74414h1.1162v0.74414h0.37208v-1.8604h-0.37208v0.74414h-1.1162v-0.74414zm2.605 0v1.8604h0.37207v-1.8604zm1.1162 0v1.8604h1.8604v-0.37207h-1.4883v-0.37207h1.1162v-0.37207h-1.1162v-0.37207h1.4883v-0.37207zm2.605 0v1.1162h0.37207v-1.1162zm0.37207 1.1162v0.37207h0.37207v-0.37207zm0.37207 0.37207v0.37207h0.37207v-0.37207zm0.37207 0h0.37207v-0.37207h-0.37207zm0.37207-0.37207h0.37207v-1.1162h-0.37207zm1.1162-1.1162v1.8604h1.8604v-0.37207h-1.4883v-0.37207h1.1162v-0.37207h-1.1162v-0.37207h1.4883v-0.37207zm4.8374 0v0.37207h1.1162v-0.37207zm1.1162 0.37207v0.37207h-1.1162v-0.37207h-0.37207v1.4883h0.37207v-0.74414h1.1162v0.74414h0.37207v-1.4883zm2.9771-0.37207v1.8604h0.37207v-0.74414h1.1162v-0.37207h-1.1162v-0.37207h1.1162v-0.37207zm1.4883 0.37207v0.37207h0.37207v-0.37207zm1.1162-0.37207v1.8604h0.37207v-0.74414h1.1162v-0.37207h-1.1162v-0.37207h1.1162v-0.37207zm1.4883 0.37207v0.37207h0.37259v-0.37207zm0 0.74414v0.74414h0.37259v-0.74414zm1.4888-1.1162v0.37207h1.1162v-0.37207zm1.1162 0.37207v1.1162h0.37207v-1.1162zm0 1.1162h-1.1162v0.37207h1.1162zm-1.1162 0v-1.1162h-0.37207v1.1162zm2.2324-1.4883v1.8604h1.4883v-0.37207h-1.1162v-1.1162h1.1162v-0.37207zm1.4883 0.37207v1.1162h0.37259v-1.1162zm1.1167-0.37207v1.4883h0.37207v-1.4883zm0.37207 1.4883v0.37207h1.1162v-0.37207zm1.1162 0h0.37207v-1.4883h-0.37207zm1.4883-1.4883v0.37207h1.4883v-0.37207zm0 0.37207h-0.37207v1.1162h0.37207zm0 1.1162v0.37207h1.4883v-0.37207zm2.2329-1.4883v0.37207h0.74414v1.4883h0.37207v-1.4883h0.74414v-0.37207zm4.4648 0v0.37207h0.74465v1.4883h0.37207v-1.4883h0.74414v-0.37207zm2.605 0v1.8604h0.37208v-0.74414h1.1162v0.74414h0.37207v-1.8604h-0.37207v0.74414h-1.1162v-0.74414zm2.9766 0v0.37207h1.1167v-0.37207zm1.1167 0.37207v0.37207h-1.1167v-0.37207h-0.37207v1.4883h0.37207v-0.74414h1.1167v0.74414h0.37207v-1.4883zm1.1162-0.37207v0.37207h0.74414v1.4883h0.37207v-1.4883h0.74414v-0.37207zm-81.863 3.2747v1.8604h0.37207v-0.74414h1.1162v0.74414h0.37207v-1.8604h-0.37207v0.74414h-1.1162v-0.74414zm2.9766 0v0.37207h1.1167v-0.37207zm1.1167 0.37207v0.37207h-1.1167v-0.37207h-0.37207v1.4883h0.37207v-0.74414h1.1167v0.74414h0.37207v-1.4883zm1.4883-0.37207v0.37207h1.4883v-0.37207zm0 0.37207h-0.37207v0.37207h0.37207zm0 0.37207v0.37207h1.1162v-0.37207zm1.1162 0.37207v0.37207h0.37207v-0.37207zm0 0.37207h-1.4883v0.37207h1.4883zm3.3492-1.4883v0.37207h1.4883v-0.37207zm0 0.37207h-0.37207v1.1162h0.37207zm0 1.1162v0.37207h1.4883v-0.37207zm2.2324-1.4883v1.8604h0.37207v-0.74414h1.1162v0.74414h0.37207v-1.8604h-0.37207v0.74414h-1.1162v-0.74414zm2.9771 0v0.37207h1.1162v-0.37207zm1.1162 0.37207v0.37207h-1.1162v-0.37207h-0.37207v1.4883h0.37207v-0.74414h1.1162v0.74414h0.37207v-1.4883zm1.1162-0.37207v1.8604h0.37207v-0.74414h1.1162v-0.37207h-1.1162v-0.37207h1.1162v-0.37207zm1.4883 0.37207v0.37207h0.37207v-0.37207zm0 0.74414v0.74414h0.37207v-0.74414zm1.4888-1.1162v0.37207h1.1162v-0.37207zm1.1162 0.37207v0.37207h-1.1162v-0.37207h-0.37207v1.4883h0.37207v-0.74414h1.1162v0.74414h0.37207v-1.4883zm1.4883-0.37207v0.37207h1.4883v-0.37207zm0 0.37207h-0.37207v1.1162h0.37207zm0 1.1162v0.37207h1.4883v-0.37207zm2.2324-1.4883v0.37207h0.74466v1.4883h0.37207v-1.4883h0.74414v-0.37207zm2.605 0v1.8604h1.8604v-0.37207h-1.4883v-0.37207h1.1162v-0.37207h-1.1162v-0.37207h1.4883v-0.37207zm2.6045 0v1.8604h0.37258v-0.74414h1.1162v-0.37207h-1.1162v-0.37207h1.1162v-0.37207zm1.4888 0.37207v0.37207h0.37207v-0.37207zm0 0.74414v0.74414h0.37207v-0.74414zm4.0928-1.1162v1.8604h0.37258v-1.1162h0.37207v-0.37207h-0.37207v-0.37207zm0.74465 0.74414v0.37207h0.37207v-0.37207zm0.37207 0h0.37207v1.1162h0.37208v-1.8604h-0.37208v0.37207h-0.37207zm1.8604-0.74414v0.37207h1.1162v-0.37207zm1.1162 0.37207v0.37207h-1.1162v-0.37207h-0.37207v1.4883h0.37207v-0.74414h1.1162v0.74414h0.37207v-1.4883zm1.1162-0.37207v1.8604h0.37207v-1.8604zm1.1167 0v1.8604h0.37207v-1.1162h0.37207v-0.37207h-0.37207v-0.37207zm0.74414 0.74414v0.37207h0.37207v-0.37207zm0.37207 0.37207v0.37207h0.37207v0.37207h0.37207v-1.8604h-0.37207v1.1162zm1.4883-1.1162v0.37207h0.74414v1.4883h0.37207v-1.4883h0.74414v-0.37207zm2.9771 0v0.37207h1.1162v-0.37207zm1.1162 0.37207v0.37207h-1.1162v-0.37207h-0.37207v1.4883h0.37207v-0.74414h1.1162v0.74414h0.37207v-1.4883zm1.1162-0.37207v1.8604h0.37207v-1.8604zm1.1162 0v1.8604h0.37207v-1.1162h0.37207v-0.37207h-0.37207v-0.37207zm0.74414 0.74414v0.37207h0.37207v-0.37207zm0.37207 0.37207v0.37207h0.37259v0.37207h0.37207v-1.8604h-0.37207v1.1162zm1.8609-1.1162v0.37207h1.4883v-0.37207zm0 0.37207h-0.37207v0.37207h0.37207zm0 0.37207v0.37207h1.1162v-0.37207zm1.1162 0.37207v0.37207h0.37207v-0.37207zm0 0.37207h-1.4883v0.37207h1.4883zm3.3492-1.4883v0.37207h1.1162v-0.37207zm1.1162 0.37207v0.37207h-1.1162v-0.37207h-0.37207v1.4883h0.37207v-0.74414h1.1162v0.74414h0.37207v-1.4883zm3.3486-0.37207v0.37207h1.4888v-0.37207zm0 0.37207h-0.37207v1.1162h0.37207zm0 1.1162v0.37207h1.4888v-0.37207zm2.2329-1.4883v1.8604h0.37207v-0.74414h1.1162v-0.37207h-1.1162v-0.37207h1.1162v-0.37207zm1.4883 0.37207v0.37207h0.37207v-0.37207zm0 0.74414v0.74414h0.37207v-0.74414zm1.1162-1.1162v1.8604h1.8609v-0.37207h-1.4888v-0.37207h1.1167v-0.37207h-1.1167v-0.37207h1.4888v-0.37207zm2.9771 0v0.37207h1.1162v-0.37207zm1.1162 0.37207v0.37207h-1.1162v-0.37207h-0.37207v1.4883h0.37207v-0.74414h1.1162v0.74414h0.37207v-1.4883zm1.1162-0.37207v0.37207h0.74414v1.4883h0.37258v-1.4883h0.74414v-0.37207zm2.605 0v1.8604h0.37207v-1.8604zm1.1162 0v1.1162h0.37207v-1.1162zm0.37207 1.1162v0.37207h0.37207v-0.37207zm0.37207 0.37207v0.37207h0.37207v-0.37207zm0.37207 0h0.37207v-0.37207h-0.37207zm0.37207-0.37207h0.37207v-1.1162h-0.37207zm1.1162-1.1162v1.8604h1.8609v-0.37207h-1.4883v-0.37207h1.1162v-0.37207h-1.1162v-0.37207h1.4883v-0.37207zm-46.513 1.1162v0.74414h0.37207v-0.74414zm-33.117 2.158v1.8609h0.37207v-0.37258h0.37207v-0.37207h-0.37207v-1.1162zm0.74414 1.1162h0.37207v-0.37207h-0.37207zm0.37207 0v0.37207h0.37207v0.37258h0.37207v-1.8609h-0.37207v1.1162zm1.8604-1.1162v0.37207h1.1167v-0.37207zm1.1167 0.37207v1.1162h0.37207v-1.1162zm0 1.1162h-1.1167v0.37258h1.1167zm-1.1167 0v-1.1162h-0.37207v1.1162zm2.2329-1.4883v1.8609h0.37207v-0.74465h1.1162v-0.37207h-1.1162v-0.37207h1.1162v-0.37207zm1.4883 0.37207v0.37207h0.37207v-0.37207zm0 0.74414v0.74465h0.37207v-0.74465zm1.1162-1.1162v1.8609h0.37207v-0.74465h0.74414v-0.37207h-0.74414v-0.74414zm1.1162 0.74414h0.37259v-0.37207h-0.37259zm0.37259-0.37207h0.37207v-0.37207h-0.37207zm-0.37259 0.74414v0.37207h0.37259v-0.37207zm0.37259 0.37207v0.37258h0.37207v-0.37258zm1.1162-1.4883v1.8609h0.37207v-0.74465h0.74414v-0.37207h-0.74414v-0.37207h1.1162v-0.37207zm2.2324 0v1.8609h1.8609v-0.37258h-1.4888v-1.4883zm2.9771 0v0.37207h1.1162v-0.37207zm1.1162 0.37207v1.1162h0.37207v-1.1162zm0 1.1162h-1.1162v0.37258h1.1162zm-1.1162 0v-1.1162h-0.37207v1.1162zm2.2324-1.4883v1.8609h0.37207v-0.37258h0.37207v-0.37207h-0.37207v-1.1162zm0.74414 1.1162h0.37207v-0.37207h-0.37207zm0.37207 0v0.37207h0.37207v0.37258h0.37207v-1.8609h-0.37207v1.1162zm4.8374-1.1162v0.37207h1.1162v-0.37207zm1.1162 0.37207v0.37207h-1.1162v-0.37207h-0.37207v1.4888h0.37207v-0.74465h1.1162v0.74465h0.37207v-1.4888zm1.1167-0.37207v1.8609h0.37207v-1.1167h0.37207v-0.37207h-0.37207v-0.37207zm0.74414 0.74414v0.37207h0.37207v-0.37207zm0.37207 0.37207v0.37207h0.37207v0.37258h0.37207v-1.8609h-0.37207v1.1162zm1.4883-1.1162v1.8609h1.4883v-0.37258h-1.1162v-1.1162h1.1162v-0.37207zm1.4883 0.37207v1.1162h0.37208v-1.1162zm2.9771-0.37207v1.8609h0.37207v-1.8609zm1.4883 0v0.37207h1.4883v-0.37207zm0 0.37207h-0.37207v0.37207h0.37207zm0 0.37207v0.37207h1.1162v-0.37207zm1.1162 0.37207v0.37207h0.37207v-0.37207zm0 0.37207h-1.4883v0.37258h1.4883zm3.3492-1.4883v0.37207h1.1162v-0.37207zm1.1162 0.37207v0.37207h-1.1162v-0.37207h-0.37207v1.4888h0.37207v-0.74465h1.1162v0.74465h0.37207v-1.4888zm1.4883-0.37207v0.37207h1.4888v-0.37207zm0 0.37207h-0.37207v1.1162h0.37207zm0 1.1162v0.37258h1.4888v-0.37258zm2.605-1.4883v0.37207h1.4883v-0.37207zm0 0.37207h-0.37207v1.1162h0.37207zm0 1.1162v0.37258h1.4883v-0.37258zm2.2324-1.4883v1.8609h1.8609v-0.37258h-1.4888v-0.37207h1.1167v-0.37207h-1.1167v-0.37207h1.4888v-0.37207zm2.9771 0v0.37207h1.4883v-0.37207zm0 0.37207h-0.37207v0.37207h0.37207zm0 0.37207v0.37207h1.1162v-0.37207zm1.1162 0.37207v0.37207h0.37207v-0.37207zm0 0.37207h-1.4883v0.37258h1.4883zm1.4883-1.4883v0.37207h1.4888v-0.37207zm0 0.37207h-0.37207v0.37207h0.37207zm0 0.37207v0.37207h1.1167v-0.37207zm1.1167 0.37207v0.37207h0.37207v-0.37207zm0 0.37207h-1.4888v0.37258h1.4888zm1.1162-1.4883v1.8609h0.37207v-1.8609zm1.1162 0v1.8609h1.4883v-0.37258h-1.1162v-0.37207h1.1162v-0.37207h-1.1162v-0.37207h1.1162v-0.37207zm1.4883 0.37207v0.37207h0.37207v-0.37207zm0 0.74414v0.37207h0.37207v-0.37207zm1.1162-1.1162v1.8609h1.8609v-0.37258h-1.4883v-1.4883zm2.605 0v1.8609h1.8604v-0.37258h-1.4883v-0.37207h1.1162v-0.37207h-1.1162v-0.37207h1.4883v-0.37207zm4.4654 0v1.8609h0.37207v-0.74465h1.1162v-0.37207h-1.1162v-0.37207h1.1162v-0.37207zm1.4883 0.37207v0.37207h0.37207v-0.37207zm0 0.74414v0.74465h0.37207v-0.74465zm1.4883-1.1162v0.37207h1.1167v-0.37207zm1.1167 0.37207v0.37207h-1.1167v-0.37207h-0.37207v1.4888h0.37207v-0.74465h1.1167v0.74465h0.37207v-1.4888zm1.1162-0.37207v0.37207h0.74414v1.4888h0.37207v-1.4888h0.74414v-0.37207zm2.6045 0v1.8609h0.37208v-0.74465h1.1162v0.74465h0.37258v-1.8609h-0.37258v0.74414h-1.1162v-0.74414zm2.605 0v1.8609h1.8604v-0.37258h-1.4883v-0.37207h1.1162v-0.37207h-1.1162v-0.37207h1.4883v-0.37207zm2.6045 0v1.8609h0.37207v-0.74465h1.1162v-0.37207h-1.1162v-0.37207h1.1162v-0.37207zm1.4883 0.37207v0.37207h0.37258v-0.37207zm0 0.74414v0.74465h0.37258v-0.74465zm-59.164 0v0.74465h0.37207v-0.74465zm-20.466 2.1585v0.37207h0.74414v1.4883h0.37207v-1.4883h0.74414v-0.37207zm2.6045 0v1.8604h0.37207v-0.74414h1.1167v0.74414h0.37207v-1.8604h-0.37207v0.74414h-1.1167v-0.74414zm2.9771 0v0.37207h1.1162v-0.37207zm1.1162 0.37207v0.37207h-1.1162v-0.37207h-0.37207v1.4883h0.37207v-0.74414h1.1162v0.74414h0.37207v-1.4883zm1.1162-0.37207v1.8604h0.37207v-1.1162h0.37207v-0.37207h-0.37207v-0.37207zm0.74414 0.74414v0.37207h0.37207v-0.37207zm0.37207 0.37207v0.37207h0.37259v0.37207h0.37207v-1.8604h-0.37207v1.1162zm3.7212-1.1162v0.37207h1.1162v-0.37207zm1.1162 0.37207v1.1162h0.37207v-1.1162zm0 1.1162h-1.1162v0.37207h1.1162zm-1.1162 0v-1.1162h-0.37207v1.1162zm2.2329-1.4883v1.1162h0.37207v-1.1162zm0.37207 1.1162v0.37207h0.37207v-0.37207zm0.37207 0.37207v0.37207h0.37207v-0.37207zm0.37207 0h0.37207v-0.37207h-0.37207zm0.37207-0.37207h0.37207v-1.1162h-0.37207zm1.1162-1.1162v1.8604h1.8604v-0.37207h-1.4883v-0.37207h1.1162v-0.37207h-1.1162v-0.37207h1.4883v-0.37207zm2.605 0v1.8604h0.37207v-0.74414h1.1162v-0.37207h-1.1162v-0.37207h1.1162v-0.37207zm1.4883 0.37207v0.37207h0.37207v-0.37207zm0 0.74414v0.74414h0.37207v-0.74414zm1.1162-1.1162v1.8604h0.37207v-0.37207h0.37207v-0.37207h-0.37207v-1.1162zm0.74414 1.1162h0.37207v-0.37207h-0.37207zm0.37207 0v0.37207h0.37207v0.37207h0.37207v-1.8604h-0.37207v1.1162zm1.4883-1.1162v1.8604h0.37259v-0.74414h1.1162v0.74414h0.37207v-1.8604h-0.37207v0.74414h-1.1162v-0.74414zm2.605 0v1.8604h1.8604v-0.37207h-1.4883v-0.37207h1.1162v-0.37207h-1.1162v-0.37207h1.4883v-0.37207zm2.6045 0v1.8604h1.8609v-0.37207h-1.4883v-1.4883zm2.605 0v1.8604h0.37207v-1.1162h0.37207v-0.37207h-0.37207v-0.37207zm0.74414 0.74414v0.37207h0.37208v-0.37207zm0.37208 0h0.37207v1.1162h0.37207v-1.8604h-0.37207v0.37207h-0.37207zm1.4883-0.74414v1.8604h0.37207v-1.8604zm1.1167 0v1.8604h0.37207v-1.1162h0.37207v-0.37207h-0.37207v-0.37207zm0.74414 0.74414v0.37207h0.37208v-0.37207zm0.37208 0.37207v0.37207h0.37207v0.37207h0.37207v-1.8604h-0.37207v1.1162zm1.8604-1.1162v0.37207h1.4883v-0.37207zm0 0.37207h-0.37207v1.1162h0.37207zm0 1.1162v0.37207h1.4883v-1.1162h-0.74414v0.37207h0.37207v0.37207zm2.2329 0v0.37207h0.37207v-0.37207z"/></svg>
