<?xml version="1.0" encoding="UTF-8"?>
<svg width="92.699mm" height="3.5177mm" version="1.1" viewBox="0 0 92.699 3.5177" xmlns="http://www.w3.org/2000/svg"><path d="m2.9e-4 1.4056v1.9724c0 0.093 0.0465 0.13947 0.13946 0.13947h8.3215c0.81023 0 1.0759-0.20588 1.0759-0.56119v-0.18927c0-0.20256-0.17267-0.34203-0.44496-0.39516 0.27229-0.0498 0.44496-0.18927 0.44496-0.39516v-0.14942c0-0.35531-0.26565-0.56119-1.0759-0.56119h-8.3215c-0.093 0-0.13946 0.0465-0.13946 0.13947zm9.2546 0.57114c0 0.1594-0.21252 0.25569-0.89325 0.25569h-8.0791v-0.68404h8.1787c0.59439 0 0.79363 0.0863 0.79363 0.27893zm-8.9724 0.53463h8.0791c0.68073 0 0.89325 0.0996 0.89325 0.25569v0.18927c0 0.19592-0.19924 0.27894-0.79363 0.27894h-8.1787zm14.166 0.0564v0.9497h0.28226v-0.9497h3.3306c0.85341 0 1.2486-0.20256 1.2486-0.75378v-0.5479h-0.28225v0.5479c0 0.3221-0.1926 0.47485-0.96631 0.47485h-6.9468c-0.77039 0-0.96299-0.15275-0.96299-0.47485v-0.5479h-0.28225v0.5479c0 0.55122 0.39516 0.75378 1.2452 0.75378zm11.479-1.0194h4.7219v1.9691h0.27893v-1.9691h3.7756c0.77039 0 0.96298 0.15275 0.96298 0.47485v1.4943h0.28226v-1.4943c0-0.55123-0.39516-0.7571-1.2452-0.7571h-8.9192c-0.093 0-0.13947 0.0465-0.13947 0.13946v2.1119h0.28226zm10.736 0.95302h9.2114v-0.27893h-9.2114v-0.19924c0-0.3221 0.1926-0.47485 0.96299-0.47485h8.2817v-0.28225h-8.2817c-0.85008 0-1.2452 0.20587-1.2452 0.7571v0.73718c0 0.55123 0.39516 0.7571 1.2452 0.7571h8.285v-0.28225h-8.285c-0.77039 0-0.96299-0.14943-0.96299-0.47485zm19.15 0.73386h-8.1721c-0.77038 0-0.96298-0.14943-0.96298-0.47485v-1.4943h-0.28225v1.4943c0 0.55123 0.39516 0.7571 1.2452 0.7571h8.1721zm0.28225-1.212v0.73718c0 0.55123 0.39516 0.7571 1.2452 0.7571h8.9906c0.85008 0 1.2452-0.20587 1.2452-0.7571v-0.73718c0-0.55123-0.39516-0.7571-1.2452-0.7571h-8.9906c-0.85008 0-1.2452 0.20587-1.2452 0.7571zm1.2452-0.47485h8.9906c0.7704 0 0.96298 0.15275 0.96298 0.47485v0.73718c0 0.32542-0.19258 0.47485-0.96298 0.47485h-8.9906c-0.77039 0-0.96299-0.14943-0.96299-0.47485v-0.73718c0-0.3221 0.1926-0.47485 0.96299-0.47485zm10.701-0.14279v1.9725c0 0.093 0.0465 0.13946 0.13947 0.13946h13.467c0.85007 0 1.2452-0.20587 1.2452-0.7571v-0.73718c0-0.55123-0.39516-0.7571-1.2452-0.7571h-13.467c-0.093 0-0.13947 0.0465-0.13947 0.13946zm0.28226 0.14279h13.324c0.7737 0 0.9663 0.15275 0.9663 0.47485v0.73718c0 0.32542-0.1926 0.47485-0.9663 0.47485h-13.324zm19.514 1.0194v0.9497h0.28226v-0.9497h3.3306c0.8534 0 1.2485-0.20256 1.2486-0.75378l2e-5 -0.5479h-0.28227v0.5479c0 0.3221-0.1926 0.47485-0.9663 0.47485h-6.9468c-0.77039 0-0.96299-0.15275-0.96299-0.47485v-0.5479h-0.28225v0.5479c0 0.55122 0.39516 0.75378 1.2452 0.75378z" stroke-width=".10377"/></svg>
