<?xml version="1.0" encoding="UTF-8"?>
<svg width="92.703mm" height="9.5195mm" version="1.1" viewBox="0 0 92.703 9.5195" xmlns="http://www.w3.org/2000/svg"><path d="m0 4.8e-6v0.28267h4.6886v1.9689h0.28215v-1.9689h4.6555v-0.28267zm9.9586 0v2.2515h0.28216v-1.0196h9.0718v1.0196h0.27906v-2.2515h-0.27906v0.94981h-9.0718v-0.94981zm11.343 0c-0.85008 0-1.2449 0.20635-1.2449 0.75758v0.73691c0 0.55123 0.39481 0.75706 1.2449 0.75706h8.2853v-0.28215h-8.2853c-0.77039 0-0.96273-0.14948-0.96273-0.47491v-0.2589h9.2113v-0.27905h-9.2113v-0.19895c0-0.3221 0.19234-0.47491 0.96273-0.47491h8.2817v-0.28267zm42.538 0c-0.85008 0-1.2454 0.20635-1.2454 0.75758v1.494h0.28215v-1.494c0-0.3221 0.19286-0.47491 0.96325-0.47491h7.013c0.77039 0 0.96325 0.1528 0.96325 0.47491v1.494h0.28215v-1.494c0-0.55122-0.39532-0.75758-1.2454-0.75758zm9.9353 0c-0.85008 0-1.2454 0.20635-1.2454 0.75758v0.73691c0 0.55123 0.39532 0.75706 1.2454 0.75706h8.2848v-0.28215h-8.2848c-0.77039 0-0.96325-0.14948-0.96325-0.47491v-0.2589h9.2118v-0.27905h-9.2118v-0.19895c0-0.3221 0.19286-0.47491 0.96325-0.47491h8.2817v-0.28267zm8.7364 0v1.4945c0 0.55123 0.39532 0.75706 1.2454 0.75706h7.6972c0.85007 0 1.2455-0.20583 1.2454-0.75706l-5.2e-4 -1.4945h-0.28215v1.4945c0 0.32542-0.19236 0.47491-0.96274 0.47491h-3.7093v-1.9694h-0.27905v1.9694h-3.7088c-0.77039 0-0.96325-0.14948-0.96325-0.47491v-1.4945zm-81.436 3.0003c-0.81024 0-1.0759 0.2059-1.0759 0.56121v0.11317c0 0.35531 0.26566 0.55759 1.0759 0.55759h7.4977c0.59439 0 0.79375 0.08646 0.79375 0.27905v0.17932c0 0.19592-0.19936 0.27905-0.79375 0.27905h-8.4708v0.28215h8.4708c0.80691 0 1.0728-0.2059 1.0728-0.56121v-0.17932c0-0.35199-0.2659-0.55811-1.0728-0.55811h-7.4977c-0.59439 0-0.79375-0.08594-0.79375-0.27854v-0.11317c0-0.1926 0.19936-0.27905 0.79375-0.27905h8.5075v-0.28215zm10.168 0c-0.85008 0-1.2454 0.20583-1.2454 0.75706v0.73742c0 0.55123 0.39533 0.75706 1.2454 0.75706h19.433c0.85008 0 1.2454-0.20583 1.2454-0.75706v-0.73742c0-0.55122-0.39533-0.75706-1.2454-0.75706zm22.389 0c-0.85008 0-1.2449 0.20583-1.2449 0.75706v1.4945h0.28216v-0.96635h9.095v-0.28215h-9.095v-0.24598c0-0.3221 0.19234-0.47491 0.96273-0.47491h8.1721v-0.28215zm8.3483 0v0.28215h4.6886v1.9694h0.28215v-1.9694h4.6555v-0.28215zm9.9255 0v1.4945c0 0.55123 0.3948 0.75706 1.2449 0.75706h7.6972c0.85008 0 1.2454-0.20583 1.2454-0.75706v-1.4945h-0.28215v1.4945c0 0.32542-0.19286 0.47491-0.96325 0.47491h-3.7088v-1.9694h-0.27905v1.9694h-3.7093c-0.77039 0-0.96274-0.14948-0.96274-0.47491v-1.4945zm10.825 0c-0.093 0-0.13953 0.046551-0.13953 0.13953v2.112h0.28216v-0.9865h8.9989v0.9865h0.27905v-2.112c0-0.092979-0.0465-0.13953-0.13952-0.13953zm10.091 0c-0.093 0-0.13952 0.046551-0.13952 0.13953v2.112h0.28215v-1.003h8.0791c0.68073 0 0.89349 0.09663 0.89349 0.2527v0.75034h0.28215v-0.75034c0-0.20256-0.17263-0.3422-0.44493-0.39532 0.2723-0.04981 0.44493-0.18944 0.44493-0.39532v-0.14935c0-0.35531-0.26567-0.56121-1.0759-0.56121zm11.054 0c-0.85008 0-1.2449 0.20583-1.2449 0.75706v0.73742c0 0.55123 0.39481 0.75706 1.2449 0.75706h8.8258v-0.28215h-8.8258c-0.77039 0-0.96273-0.14948-0.96273-0.47491v-0.2589h9.7519v-0.27905h-9.7519v-0.19947c0-0.3221 0.19234-0.47491 0.96273-0.47491h8.8222v-0.28215zm-72.633 0.28215h19.433c0.77038 0 0.96325 0.1528 0.96325 0.47491v0.73742c0 0.32542-0.19287 0.47491-0.96325 0.47491h-19.433c-0.77039 0-0.96325-0.14948-0.96325-0.47491v-0.73742c0-0.3221 0.19286-0.47491 0.96325-0.47491zm51.63 0h8.9989v0.70073h-8.9989zm10.091 0h8.1788c0.5944 0 0.79375 0.086455 0.79375 0.27905v0.14935c0 0.15939-0.21276 0.2558-0.89349 0.2558h-8.0791zm-72.826 2.7182c-0.093 0-0.13952 0.04655-0.13952 0.13953v2.112h0.28215v-1.9694h4.7222v1.9694h0.27854v-1.9694h3.7755c0.77039 0 0.96325 0.1528 0.96325 0.47491v1.4945h0.28215v-1.4945c0-0.55123-0.39531-0.75706-1.2454-0.75706zm10.802 0c-0.093 0-0.13953 0.04655-0.13953 0.13953v2.112h0.28216v-0.9865h8.9989v0.9865h0.27905v-2.112c0-0.09298-0.0465-0.13953-0.13952-0.13953zm11.164 0c-0.85008 0-1.2449 0.20583-1.2449 0.75706v1.4945h0.28216v-1.4945c0-0.3221 0.19235-0.47491 0.96273-0.47491h10.718c0.77039 0 0.96273 0.1528 0.96273 0.47491v1.4945h0.28267v-1.4945c0-0.55123-0.39532-0.75706-1.2454-0.75706zm12.494 0v2.2515h0.28215v-2.2515zm2.0919 0c-0.85008 0-1.2454 0.20583-1.2454 0.75706v1.4945h0.28215v-0.96635h9.0956v-0.28215h-9.0956v-0.24598c0-0.3221 0.19286-0.47491 0.96325-0.47491h8.1721v-0.28215zm9.726 0c-0.85008 0-1.2454 0.20583-1.2454 0.75706v0.73742c0 0.55123 0.39532 0.75706 1.2454 0.75706h8.2853v-0.28215h-8.2853c-0.77039 0-0.96273-0.14948-0.96273-0.47491v-0.25942h9.2113v-0.27854h-9.2113v-0.19947c0-0.3221 0.19234-0.47491 0.96273-0.47491h8.2817v-0.28215zm9.7493 0c-0.81023 0-1.0759 0.2059-1.0759 0.56121v0.11266c0 0.35531 0.26568 0.55811 1.0759 0.55811h7.4982c0.5944 0 0.79375 0.08646 0.79375 0.27905v0.17932c0 0.19592-0.19935 0.27905-0.79375 0.27905h-8.4708v0.28215h8.4708c0.80692 0 1.0723-0.2059 1.0723-0.56121v-0.17932c0-0.35199-0.26536-0.5581-1.0723-0.5581h-7.4982c-0.59439 0-0.79324-0.08646-0.79324-0.27905v-0.11266c0-0.1926 0.19885-0.27905 0.79324-0.27905h8.5075v-0.28215zm8.7896 0v0.28215h4.6891v1.9694h0.28215v-1.9694h4.6555v-0.28215zm11.138 0c-0.85009 0-1.2454 0.20583-1.2454 0.75706v0.73742c0 0.55123 0.39531 0.75706 1.2454 0.75706h15.36c0.85009 0 1.2449-0.20583 1.2449-0.75706v-0.73742c0-0.55123-0.3948-0.75706-1.2449-0.75706zm-65.01 0.28215h8.9989v0.70073h-8.9989zm65.01 0h15.36c0.77039 0 0.96274 0.1528 0.96274 0.47491v0.73742c0 0.32542-0.19235 0.47491-0.96274 0.47491h-15.36c-0.77039 0-0.96325-0.14948-0.96325-0.47491v-0.73742c0-0.3221 0.19286-0.47491 0.96325-0.47491z" stroke-width=".10377"/></svg>
