<?xml version="1.0" encoding="UTF-8"?>
<svg width="21.21mm" height="1.8605mm" version="1.1" viewBox="0 0 21.21 1.8605" xmlns="http://www.w3.org/2000/svg"><path transform="translate(3.5941 -314.99)" d="m-2.1056 316.48v-1.1163h-1.1163v1.1163zm-1.4884 0.3721v-1.8605h1.4884v0.37211h0.37211v1.1163h-0.37211v0.3721zm4.0932-0.3721v0.3721h-1.1163v-0.3721zm0 0v-1.1163h0.37211v1.1163zm-1.1163 0h-0.37211v-1.1163h0.37211zm1.1163-1.1163h-1.1163v-0.37211h1.1163zm2.6047 1.4884v-0.3721h-0.37211v-0.37211h0.37211v-1.1163h0.37211v1.8605zm-1.4884 0v-1.8605h0.37211v1.1163h0.37211v0.37211h-0.37211v0.3721zm1.1163-0.74421h-0.37211v-0.37211h0.37211zm2.9768 0.74421v-0.3721h-0.37211v-0.37211h0.37211v-1.1163h0.37211v1.8605zm-1.4884 0v-1.8605h0.37211v0.37211h0.37211v0.3721h0.37211v0.37211h-0.37211v-0.37211h-0.37211v1.1163zm4.4653-0.3721v0.3721h-1.8605v-1.8605h0.37211v1.4884zm2.2326 0v0.3721h-1.1163v-0.3721zm0 0v-1.1163h0.3721v1.1163zm-1.1163 0h-0.37211v-1.1163h0.37211zm1.1163-1.1163h-1.1163v-0.37211h1.1163zm2.6047 1.4884v-0.74421h-1.1163v0.74421h-0.37211v-1.4884h0.37211v0.3721h1.1163v-0.3721h0.3721v1.4884zm0-1.4884h-1.1163v-0.37211h1.1163zm2.6047 1.1163v-1.1163h-1.1163v1.1163zm-1.4884 0.3721v-1.8605h1.4884v0.37211h0.37211v1.1163h-0.37211v0.3721zm2.6047-0.3721v-0.37211h0.3721v0.37211zm0-0.74422v-0.3721h0.3721v0.3721z" stroke-width=".097071" aria-label="download:"/></svg>
