<?xml version="1.0" encoding="UTF-8"?>
<svg width="95mm" height="22.94mm" version="1.1" viewBox="0 0 95 22.94" xmlns="http://www.w3.org/2000/svg"><path d="m5.0008 11.256v0.37207h0.74414v1.4883h0.37207v-1.4883h0.74466v-0.37207zm2.605 0v1.8604h0.37207v-0.74415h1.1162v0.74415h0.37207v-1.8604h-0.37207v0.74414h-1.1162v-0.74414zm2.6045 0v1.8604h1.8604v-0.37207h-1.4883v-0.37208h1.1162v-0.37207h-1.1162v-0.37207h1.4883v-0.37207zm4.4654 0v1.8604h0.37207v-1.1162h0.37207v-0.37207h-0.37207v-0.37207zm0.74414 0.74414v0.37207h0.37207v-0.37207zm0.37207 0.37207v0.37208h0.37207v0.37207h0.37207v-1.8604h-0.37207v1.1162zm1.4883-1.1162v1.8604h1.8609v-0.37207h-1.4883v-0.37208h1.1162v-0.37207h-1.1162v-0.37207h1.4883v-0.37207zm2.605 0v1.8604h0.37207v-0.37207h0.37207v-0.37208h-0.37207v-1.1162zm0.74414 1.1162h0.37207v-0.37207h-0.37207zm0.37207 0v0.37208h0.37207v0.37207h0.37207v-1.8604h-0.37207v1.1162zm3.7212-1.1162v0.37207h1.4883v-0.37207zm0 0.37207h-0.37207v0.37207h0.37207zm0 0.37207v0.37207h1.1162v-0.37207zm1.1162 0.37207v0.37208h0.37207v-0.37208zm0 0.37208h-1.4883v0.37207h1.4883zm1.4883-1.4883v0.37207h1.1162v-0.37207zm1.1162 0.37207v1.1162h0.37259v-1.1162zm0 1.1162h-1.1162v0.37207h1.1162zm-1.1162 0v-1.1162h-0.37207v1.1162zm2.2329-1.4883v1.8604h0.37207v-0.74415h0.74414v-0.37207h-0.74414v-0.37207h1.1162v-0.37207zm2.2324 0v0.37207h0.74414v1.4883h0.37207v-1.4883h0.74414v-0.37207zm2.605 0v1.8604h0.37207v-0.37207h0.37207v-0.37208h-0.37207v-1.1162zm0.74414 1.1162h0.37207v-0.37207h-0.37207zm0.37207 0v0.37208h0.37207v0.37207h0.37207v-1.8604h-0.37207v1.1162zm1.8604-1.1162v0.37207h1.1162v-0.37207zm1.1162 0.37207v0.37207h-1.1162v-0.37207h-0.37207v1.4883h0.37207v-0.74415h1.1162v0.74415h0.37207v-1.4883zm1.1167-0.37207v1.8604h0.37207v-0.74415h1.1162v-0.37207h-1.1162v-0.37207h1.1162v-0.37207zm1.4883 0.37207v0.37207h0.37207v-0.37207zm0 0.74414v0.74415h0.37207v-0.74415zm1.1162-1.1162v1.8604h1.8604v-0.37207h-1.4883v-0.37208h1.1162v-0.37207h-1.1162v-0.37207h1.4883v-0.37207zm4.4654 0v1.8604h0.37207v-1.1162h0.37207v-0.37207h-0.37207v-0.37207zm0.74414 0.74414v0.37207h0.37207v-0.37207zm0.37207 0h0.37207v1.1162h0.37207v-1.8604h-0.37207v0.37207h-0.37207zm1.8604-0.74414v0.37207h1.1167v-0.37207zm1.1167 0.37207v0.37207h-1.1167v-0.37207h-0.37207v1.4883h0.37207v-0.74415h1.1167v0.74415h0.37207v-1.4883zm1.1162-0.37207v1.8604h0.37207v-1.1162h0.37207v-0.37207h-0.37207v-0.37207zm0.74414 0.74414v0.37207h0.37207v-0.37207zm0.37207 0.37207v0.37208h0.37207v0.37207h0.37207v-1.8604h-0.37207v1.1162zm1.4883-1.1162v1.8604h0.37207v-1.8604zm1.1162 0v1.8604h0.37259v-0.74415h0.74414v-0.37207h-0.74414v-0.37207h1.1162v-0.37207zm2.2329 0v1.8604h1.8604v-0.37207h-1.4883v-0.37208h1.1162v-0.37207h-1.1162v-0.37207h1.4883v-0.37207zm2.9766 0v0.37207h1.4888v-0.37207zm0 0.37207h-0.37207v0.37207h0.37207zm0 0.37207v0.37207h1.1167v-0.37207zm1.1167 0.37207v0.37208h0.37207v-0.37208zm0 0.37208h-1.4888v0.37207h1.4888zm1.1162-1.4883v0.37207h0.74414v1.4883h0.37207v-1.4883h0.74414v-0.37207zm2.9766 0v0.37207h1.1167v-0.37207zm1.1167 0.37207v1.1162h0.37207v-1.1162zm0 1.1162h-1.1167v0.37207h1.1167zm-1.1167 0v-1.1162h-0.37207v1.1162zm-61.025 1.7864v1.8604h1.4883v-0.37207h-1.1162v-0.37207h1.1162v-0.37207h-1.1162v-0.37207h1.1162v-0.37207zm1.4883 0.37207v0.37207h0.37259v-0.37207zm0 0.74414v0.37207h0.37259v-0.37207zm1.1167-1.1162v0.37207h0.37207v-0.37207zm0.37207 0.37207v0.37207h0.37207v-0.37207zm0.37207 0.37207v1.1162h0.37207v-1.1162zm0.37207 0h0.37207v-0.37207h-0.37207zm0.37207-0.37207h0.37207v-0.37207h-0.37207zm2.9766-0.37207v1.8604h0.37259v-1.1162h0.37207v-0.37207h-0.37207v-0.37207zm0.74466 0.74414v0.37207h0.37207v-0.37207zm0.37207 0h0.37207v1.1162h0.37207v-1.8604h-0.37207v0.37207h-0.37207zm1.4883-0.74414v1.8604h1.8604v-0.37207h-1.4883v-0.37207h1.1162v-0.37207h-1.1162v-0.37207h1.4883v-0.37207zm2.6045 0v1.8604h1.8609v-0.37207h-1.4883v-1.4883zm2.9771 0v0.37207h1.1162v-0.37207zm1.1162 0.37207v1.1162h0.37207v-1.1162zm0 1.1162h-1.1162v0.37207h1.1162zm-1.1162 0v-1.1162h-0.37207v1.1162zm2.2324-1.4883v1.8604h1.4888v-0.37207h-1.1167v-1.1162h1.1167v-0.37207zm1.4888 0.37207v1.1162h0.37207v-1.1162zm1.1162-0.37207v0.37207h0.37207v-0.37207zm0.37207 0.37207v0.37207h0.37207v-0.37207zm0.37207 0.37207v1.1162h0.37207v-1.1162zm0.37207 0h0.37207v-0.37207h-0.37207zm0.37207-0.37207h0.37207v-0.37207h-0.37207zm18.978-0.37155v0.37207h0.37207v1.1162h-0.37207v0.37207h1.1162v-0.37207h-0.37207v-1.4883zm2.6045 0v0.37207h-0.37207v0.37207h0.37207v0.37207h-0.37207v-0.37207h-0.37207v0.74414h0.74414v0.37207h0.37258v-0.37207h0.37207v-0.37207h-0.37207v-1.1162zm2.9771 0v0.37207h0.37207v-0.37207zm0 0.37207h-0.37207v0.37207h0.37207zm-0.37207 0.37207h-0.37208v0.37207h0.37208zm-0.37208 0.37207h-0.37207v0.37207h0.37207zm-0.37207 0.37207h-0.37206v0.37207h0.37206zm2.6045-1.4883v0.37207h0.74414v-0.37207zm0.74414 0.37207v1.1162h0.37207v-1.1162zm0 1.1162h-0.74414v0.37207h0.74414zm-0.74414 0v-1.1162h-0.37207v1.1162zm2.605-1.4883v0.37207h-0.37207v0.37207h0.37207v0.37207h-0.37207v-0.37207h-0.37207v0.74414h0.74414v0.37207h0.37207v-0.37207h0.37207v-0.37207h-0.37207v-1.1162zm2.9766 0v0.37207h0.37207v-0.37207zm0 0.37207h-0.37207v0.37207h0.37207zm-0.37207 0.37207h-0.37207v0.37207h0.37207zm-0.37207 0.37207h-0.37207v0.37207h0.37207zm-0.37207 0.37207h-0.37207v0.37207h0.37207zm2.2324-1.4883v0.37207h1.1167v-0.37207zm1.1167 0.37207v0.37207h0.37207v-0.37207zm0 0.37207h-0.74414v0.37207h0.74414zm-0.74414 0.37207h-0.37259v0.74414h1.4888v-0.37207h-1.1162zm2.2324-1.1162v0.37207h0.74414v-0.37207zm0.74414 0.37207v1.1162h0.37207v-1.1162zm0 1.1162h-0.74414v0.37207h0.74414zm-0.74414 0v-1.1162h-0.37207v1.1162zm1.8604-1.4883v0.37207h1.1167v-0.37207zm1.1167 0.37207v0.37207h0.37207v-0.37207zm0 0.37207h-0.74466v0.37207h0.74466zm-0.74466 0.37207h-0.37207v0.74414h1.4888v-0.37207h-1.1167zm2.2329-1.1162v0.37207h0.74414v-0.37207zm0 0.37207h-0.37207v1.1162h0.37207v-0.37207h0.74414v-0.37207h-0.74414zm0.74414 0.74414v0.37207h0.37207v-0.37207zm0 0.37207h-0.74414v0.37207h0.74414zm-45.397 1.7854v1.8609h0.37207v-0.74414h1.1167v0.74414h0.37207v-1.8609h-0.37207v0.74414h-1.1167v-0.74414zm2.605 0v0.37207h0.74414v1.4888h0.37207v-1.4888h0.74414v-0.37207zm2.6045 0v0.37207h0.74414v1.4888h0.37207v-1.4888h0.74466v-0.37207zm2.605 0v1.8609h0.37207v-0.74414h1.1162v-0.37259h-1.1162v-0.37207h1.1162v-0.37207zm1.4883 0.37207v0.37207h0.37207v-0.37207zm1.4883-0.37207v0.37207h1.4883v-0.37207zm0 0.37207h-0.37207v0.37207h0.37207zm0 0.37207v0.37259h1.1162v-0.37259zm1.1162 0.37259v0.37207h0.37207v-0.37207zm0 0.37207h-1.4883v0.37207h1.4883zm3.7212-1.4888v0.37207h0.37207v-0.37207zm0 0.37207h-0.37207v0.37207h0.37207zm-0.37207 0.37207h-0.37207v0.37259h0.37207zm-0.37207 0.37259h-0.37207v0.37207h0.37207zm-0.37207 0.37207h-0.37207v0.37207h0.37207zm3.7212-1.4888v0.37207h0.37207v-0.37207zm0 0.37207h-0.37207v0.37207h0.37207zm-0.37207 0.37207h-0.37258v0.37259h0.37258zm-0.37258 0.37259h-0.37208v0.37207h0.37208zm-0.37208 0.37207h-0.37207v0.37207h0.37207zm2.2329-1.4888v1.4888h0.37207v-1.4888zm0.37207 1.4888v0.37207h1.1162v-0.37207zm1.1162 0h0.37208v-1.4888h-0.37208zm1.1162-1.4888v1.8609h0.37207v-1.1167h0.37207v-0.37207h-0.37207v-0.37207zm0.74414 0.74414v0.37259h0.37207v-0.37259zm0.37207 0.37259v0.37207h0.37258v0.37207h0.37259v-1.8609h-0.37259v1.1167zm1.4888-1.1167v1.8609h0.37207v-0.74414h1.1162v-0.37259h-1.1162v-0.37207h1.1162v-0.37207zm1.4883 0.37207v0.37207h0.37207v-0.37207zm1.1162-0.37207v1.8609h1.8609v-0.37207h-1.4888v-1.4888zm2.605 0v1.4888h0.37207v-1.4888zm0.37207 1.4888v0.37207h1.1162v-0.37207zm1.1162 0h0.37207v-1.4888h-0.37207zm1.4883-1.4888v0.37207h1.4888v-0.37207zm0 0.37207h-0.37207v1.1167h0.37207zm0 1.1167v0.37207h1.4888v-1.1167h-0.74466v0.37259h0.37207v0.37207zm3.3492-1.4888v1.8609h0.37207v-0.74414h1.1162v-0.37259h-1.1162v-0.37207h1.1162v-0.37207zm1.4883 0.37207v0.37207h0.37207v-0.37207zm0 0.74466v0.74414h0.37207v-0.74414zm1.1162-1.1167v1.8609h1.8609v-0.37207h-1.4888v-0.37207h1.1167v-0.37259h-1.1167v-0.37207h1.4888v-0.37207zm2.605 0v1.8609h1.4883v-0.37207h-1.1162v-1.1167h1.1162v-0.37207zm1.4883 0.37207v1.1167h0.37207v-1.1167zm2.605-0.37207v0.37207h0.37207v-0.37207zm0 0.37207h-0.37207v0.37207h0.37207zm-0.37207 0.37207h-0.37259v0.37259h0.37259zm-0.37259 0.37259h-0.37207v0.37207h0.37207zm-0.37207 0.37207h-0.37207v0.37207h0.37207zm-31.256-1.1167v0.37207h0.37207v-0.37207zm0 0.74466v0.37207h0.37207v-0.37207zm21.954 0.37207v0.37207h0.37207v-0.37207zm-51.723 1.7859v1.8604h1.8609v-0.37207h-1.4888v-1.4883zm2.605 0v1.8604h0.37207v-1.8604zm1.4883 0v0.37207h1.4883v-0.37207zm0 0.37207h-0.37207v1.1162h0.37207zm0 1.1162v0.37207h1.4883v-0.37207zm2.2324-1.4883v1.8604h1.8609v-0.37207h-1.4888v-0.37208h1.1167v-0.37207h-1.1167v-0.37207h1.4888v-0.37207zm2.605 0v1.8604h0.37207v-1.1162h0.37207v-0.37207h-0.37207v-0.37207zm0.74414 0.74414v0.37207h0.37207v-0.37207zm0.37207 0.37207v0.37208h0.37207v0.37207h0.37207v-1.8604h-0.37207v1.1162zm1.8604-1.1162v0.37207h1.4888v-0.37207zm0 0.37207h-0.37207v0.37207h0.37207zm0 0.37207v0.37207h1.1167v-0.37207zm1.1167 0.37207v0.37208h0.37207v-0.37208zm0 0.37208h-1.4888v0.37207h1.4888zm1.1162-1.4883v1.8604h1.8604v-0.37207h-1.4883v-0.37208h1.1162v-0.37207h-1.1162v-0.37207h1.4883v-0.37207zm2.6045 0v1.8604h1.4888v-0.37207h-1.1167v-1.1162h1.1167v-0.37207zm1.4888 0.37207v1.1162h0.37207v-1.1162zm3.3486-0.37207v0.37207h1.4883v-0.37207zm0 0.37207h-0.37207v1.1162h0.37207zm0 1.1162v0.37207h1.4883v-0.37207zm2.605-1.4883v0.37207h1.4883v-0.37207zm0 0.37207h-0.37207v1.1162h0.37207zm0 1.1162v0.37207h1.4883v-0.37207zm4.0928-1.4883v1.8604h1.4888v-0.37207h-1.1167v-0.37208h1.1167v-0.37207h-1.1167v-0.37207h1.1167v-0.37207zm1.4888 0.37207v0.37207h0.37207v-0.37207zm0 0.74414v0.37208h0.37207v-0.37208zm1.1162-1.1162v0.37207h0.37207v-0.37207zm0.37207 0.37207v0.37207h0.37207v-0.37207zm0.37207 0.37207v1.1162h0.37207v-1.1162zm0.37207 0h0.37207v-0.37207h-0.37207zm0.37207-0.37207h0.37207v-0.37207h-0.37207zm4.0933-0.37207v0.37207h1.4883v-0.37207zm0 0.37207h-0.37207v0.37207h0.37207zm0 0.37207v0.37207h1.1162v-0.37207zm1.1162 0.37207v0.37208h0.37208v-0.37208zm0 0.37208h-1.4883v0.37207h1.4883zm1.4883-1.4883v0.37207h1.1167v-0.37207zm1.1167 0.37207v0.37207h-1.1167v-0.37207h-0.37207v1.4883h0.37207v-0.74415h1.1167v0.74415h0.37207v-1.4883zm3.7207-0.37207v0.37207h-0.37207v0.37207h0.37207v0.37207h-0.37207v-0.37207h-0.37207v0.74415h0.74414v0.37207h0.37207v-0.37207h0.37207v-0.37208h-0.37207v-1.1162zm2.9771 0v0.37207h0.74414v-0.37207zm0.74414 0.37207v1.1162h0.37207v-1.1162zm0 1.1162h-0.74414v0.37207h0.74414zm-0.74414 0v-1.1162h-0.37207v1.1162zm10.419-1.4883v0.37207h0.74414v-0.37207zm0.74414 0.37207v1.1162h0.37207v-1.1162zm0 1.1162h-0.74414v0.37207h0.74414zm-0.74414 0v-1.1162h-0.37207v1.1162zm2.2324-1.4883v0.37207h0.74414v-0.37207zm0.74414 0.37207v1.1162h0.37207v-1.1162zm0 1.1162h-0.74414v0.37207h0.74414zm-0.74414 0v-1.1162h-0.37207v1.1162zm1.8604-1.4883v0.37207h0.37259v1.1162h-0.37259v0.37207h1.1167v-0.37207h-0.37207v-1.4883zm-27.908 0.74414v0.37207h1.8609v-0.37207zm11.908 0.74415v0.37207h0.37208v-0.37207z" stroke-width=".097071"/></svg>
