<?xml version="1.0" encoding="UTF-8"?>
<svg width="11.163mm" height="1.861mm" version="1.1" viewBox="0 0 11.163 1.861" xmlns="http://www.w3.org/2000/svg"><path transform="translate(-22.908 -314.99)" d="m24.396 314.99h0.37218v1.8609h-1.8602v-0.3721l1.116 1.6e-4v-0.37227h0.37203zm-0.37203 1.1167h-0.3721v-0.37211h0.3721zm-0.3721-0.37211h-0.37211v-0.3721h0.37211zm-0.37211-0.3721h-0.37176l-3.51e-4 -0.37211h0.37211zm4.0932 1.4884v-1.8605h1.4884v0.37211h0.37211v0.3721h-0.37211v-0.3721h-1.1163v0.3721h1.1163v0.37211h-1.1163v0.74421zm4.0932-0.3721v-1.1163h-1.1163v1.1163zm-1.4884 0.3721v-1.8605h1.4884v0.37211h0.3721v1.1163h-0.3721v0.3721zm2.6047 0v-1.8605h1.4884v0.37211h-1.1163v0.3721h0.74421v0.37211h-0.74421v0.74421z" stroke-width=".097071" aria-label="\ pdf   \ zine   \ poster"/></svg>
