<?xml version="1.0" encoding="UTF-8"?>
<svg width="19.349mm" height="1.861mm" version="1.1" viewBox="0 0 19.349 1.861" xmlns="http://www.w3.org/2000/svg"><path transform="translate(-59.374 -314.99)" d="m60.49 316.48v-0.37211h0.37168v-1.1167h0.37253v1.8609h-1.8605v-0.3721zm0-0.37211h-0.37211v-0.37211h0.37211zm-0.37211-0.37211h-0.37211v-0.3721h0.37211zm-0.37211-0.3721h-0.3721v-0.37211l0.3721-4.1e-4zm4.0932 1.4884v-1.8605h1.4884v0.37211h0.3721v0.3721h-0.3721v-0.3721h-1.1163v0.3721h1.1163v0.37211h-1.1163v0.74421zm4.0932-0.3721v0.3721h-1.1163v-0.3721zm0 0v-1.1163h0.3721v1.1163zm-1.1163 0h-0.37211v-1.1163h0.37211zm1.1163-1.1163h-1.1163v-0.37211h1.1163zm2.6047 1.1163v0.3721h-1.4884v-0.3721zm0 0v-0.37211h0.3721v0.37211zm0-0.37211h-1.1163v-0.37211h1.1163zm-1.1163-0.37211h-0.37211v-0.3721h0.37211zm1.1163-0.74421h0.3721v0.37211h-1.4884v-0.37211zm1.8605 1.8605v-1.4884h-0.74421v-0.37211h1.8605v0.37211h-0.74421v1.4884zm3.7211-0.3721v0.3721h-1.8605v-1.8605h1.8605v0.37211h-1.4884v0.3721h1.1163v0.37211h-1.1163v0.37211zm2.2326 0.3721v-0.74421h0.37211v0.74421zm-1.4884 0v-1.8605h1.4884v0.37211h0.37211v0.3721h-0.37211v-0.3721h-1.1163v0.3721h1.1163v0.37211h-1.1163v0.74421z" stroke-width=".097071" aria-label="\ pdf   \ zine   \ poster"/></svg>
