<?xml version="1.0" encoding="UTF-8"?>
<svg width="12.652mm" height="1.861mm" version="1.1" viewBox="0 0 12.652 1.861" xmlns="http://www.w3.org/2000/svg"><path transform="translate(-40.397 -314.99)" d="m41.513 316.48v-0.37211h0.37207v-1.1167h0.37214v1.8609h-1.8601v-0.3721zm0-0.37211h-0.3721v-0.37211h0.3721zm-0.3721-0.37211h-0.37211v-0.3721h0.37211zm-0.37211-0.3721-0.37172 4.8e-4 -3.87e-4 -0.373 0.37211 4.1e-4zm5.5816 1.1163h0.37211v0.3721h-1.8605v-0.3721h0.3721v-0.37211h0.37211v0.37211zm-0.74421-0.37211v-0.37211h0.3721v0.37211zm0.3721-0.37211v-0.3721h-1.1163v-0.37211h1.8605v0.37211h-0.37211v0.3721zm1.4884 1.1163v-1.8605h0.3721v1.8605zm2.6047 0v-0.3721h-0.37211v-0.37211h0.37211v-1.1163h0.37211v1.8605zm-1.4884 0v-1.8605h0.37211v0.37211h0.37211v0.3721h0.3721v0.37211h-0.3721v-0.37211h-0.37211v1.1163zm4.4653-0.3721v0.3721h-1.8605v-1.8605h1.8605v0.37211h-1.4884v0.3721h1.1163v0.37211h-1.1163v0.37211z" stroke-width=".097071" aria-label="\ pdf   \ zine   \ poster"/></svg>
