<?xml version="1.0" encoding="UTF-8"?>
<svg width="100mm" height="100mm" version="1.1" viewBox="0 0 100 100" xmlns="http://www.w3.org/2000/svg"><g><path d="m40.535 23.706c-22.531 0.23891-40.535 26.291-40.535 26.291 8.9598 13.945 19.633 25.821 40.535 26.291 20.902 0.47048 33.216-17.528 33.216-17.528 7.8772 8.2604 16.045 10.368 26.25 8.7638-2.9374-10.041-6.8717-13.893-12.552-17.528 10.465-8.6978 10.339-10.034 12.552-17.527-7.0913 0.82838-14.839-3.3241-26.25 8.7638 0 0-10.685-17.767-33.216-17.528zm-27.12 20.806a4.3356 4.3356 0 0 1 4.3356 4.3357 4.3356 4.3356 0 0 1-4.3356 4.3357 4.3356 4.3356 0 0 1-4.3357-4.3357 4.3356 4.3356 0 0 1 4.3357-4.3357z" fill="#24a6b3"/></g></svg>
