<?xml version="1.0" encoding="UTF-8"?>
<svg width="140.35mm" height="140.35mm" shape-rendering="crispEdges" version="1.1" viewBox="0 0 140.35 140.35" xmlns="http://www.w3.org/2000/svg"><g transform="translate(-34.826 -73.226)"><path transform="matrix(1.0373 0 0 1.0373 -6.4028 -8.7722)" d="m107.39 79.051c-37.313 3e-6 -67.646 30.334-67.646 67.646 5e-6 37.313 30.334 67.646 67.646 67.646s67.646-30.334 67.646-67.646c0-37.313-30.334-67.646-67.646-67.646zm0 8.0645c32.954 0 59.582 26.628 59.582 59.582 0 32.954-26.628 59.582-59.582 59.582-32.954-1e-5 -59.584-26.628-59.584-59.582-2e-6 -32.954 26.63-59.582 59.584-59.582z" color="#000000" color-rendering="optimizeSpeed" fill="#f00" shape-rendering="crispEdges" solid-color="#000000" stop-color="#000000"/><circle cx="105" cy="104.72" r="8.8683"/><path d="m63.489 116.89c-2.3489 0-5.0058 1.5387-4.7821 4.2535 0.21792 2.6452 2.4333 4.2524 4.7821 4.2524h26.52c1.5135 0 3.0788 1.5879 2.8686 3.5057l-6.151 56.099c-0.37048 3.3789 1.2194 5.8111 3.4422 6.38 2.4807 0.63489 5.8363-0.56744 6.7593-5.1382l6.7432-33.392c0.41251-2.0427 0.54132-3.4027 1.3286-3.4044 0.78733-2e-3 1.0722 2.135 1.3571 3.5459l6.7137 33.249c0.92299 4.5708 4.2786 5.7731 6.7593 5.1382 2.2228-0.56889 3.8127-3.0011 3.4422-6.38l-6.151-56.099c-0.21028-1.9178 1.355-3.5052 2.8686-3.5052h26.52c2.3489 0 4.5642-1.6077 4.7821-4.253 0.22365-2.7148-2.4333-4.2535-4.7821-4.2535z"/></g></svg>
