<?xml version="1.0" encoding="UTF-8"?>
<svg width="100mm" height="100mm" version="1.1" viewBox="0 0 100 100" xmlns="http://www.w3.org/2000/svg"><g><path d="m34.666 14.492c-5.227 0-9.306 3.1368-11.648 6.7441s-3.6649 7.7358-5.1445 11.57c-1.4796 3.8345-3.0801 7.315-5.1367 9.5859s-4.3275 3.6074-8.7363 3.6074a4 4 0 0 0-4 4 4 4 0 0 0 4 4c6.3595 1e-6 11.372-2.6014 14.666-6.2383 3.2937-3.6369 5.11-8.0336 6.6699-12.076s2.8988-7.7914 4.3926-10.092 2.4243-3.1016 4.9375-3.1016c0.57812 0 0.96636 0.11505 1.9004 1.25 0.93402 1.135 2.0289 3.2331 3.0078 5.9512 1.9578 5.4361 3.5554 13.234 5.25 21.145 1.6946 7.9104 3.476 15.939 6.2676 22.408 1.3958 3.2345 3.039 6.1202 5.3262 8.3926s5.4452 3.8691 8.916 3.8691c5.8567 0 10.348-3.149 12.611-7.0176 2.2638-3.8685 3.0673-8.1571 4.0938-12.018 1.0265-3.8605 2.2171-7.1828 4.0469-9.2363 1.8298-2.0535 4.2412-3.4174 9.7852-3.2383a4 4 0 0 0 4.127-3.8691 4 4 0 0 0-3.8691-4.127c-7.2085-0.23293-12.65 2.1351-16.016 5.9121-3.3654 3.777-4.7113 8.3844-5.8066 12.504-1.0954 4.1195-1.9989 7.8632-3.2676 10.031s-2.1349 3.0586-5.7051 3.0586c-1.2426 0-2.0959-0.37113-3.2773-1.5449-1.1814-1.1738-2.4655-3.2134-3.6191-5.8867-2.3072-5.3466-4.1107-13.07-5.791-20.914-1.6803-7.8437-3.2473-15.8-5.5449-22.18-1.1488-3.1898-2.4553-6.013-4.3574-8.3242s-4.7862-4.166-8.0781-4.166z" color="#000000" color-rendering="auto" dominant-baseline="auto" fill="#24a6b3" image-rendering="auto" shape-rendering="auto" solid-color="#000000" stop-color="#000000" style="font-feature-settings:normal;font-variant-alternates:normal;font-variant-caps:normal;font-variant-east-asian:normal;font-variant-ligatures:normal;font-variant-numeric:normal;font-variant-position:normal;font-variation-settings:normal;inline-size:0;isolation:auto;mix-blend-mode:normal;paint-order:markers fill stroke;shape-margin:0;shape-padding:0;text-decoration-color:#000000;text-decoration-line:none;text-decoration-style:solid;text-indent:0;text-orientation:mixed;text-transform:none;white-space:normal"/></g></svg>
