<?xml version="1.0" encoding="UTF-8"?>
<svg width="100mm" height="100mm" version="1.1" viewBox="0 0 100 100" xmlns="http://www.w3.org/2000/svg"><g><path d="m50 0c-10.814 9.3103-11.123 17.604-12.454 25.062-1.6886-15.104-15.258-20.951-26.761-21.128 2.5841 3.8257 4.2083 7.6308 5.8353 17.126 3.8196 22.291 15.677 32.988 28.198 35.355v23.26a41.268 41.895 0 0 0-36.086-21.57 41.268 41.895 0 0 0 41.268 41.896 41.268 41.895 0 0 0 41.268-41.896 41.268 41.895 0 0 0-36.087 21.571v-23.335c13.493-3.1123 27.254-18.203 28.566-35.282 0.59142-7.6973 1.9609-12.696 5.4679-17.126-12.333-0.16947-23.295 8.0593-27.188 21.128-1.0957-6.0582-1.5067-15.361-12.027-25.062z" fill="#24a6b3" stroke-linecap="round" stroke-linejoin="round" stroke-width="2.3413" style="paint-order:markers fill stroke"/></g></svg>
