<?xml version="1.0" encoding="UTF-8"?>
<svg width="100mm" height="100mm" version="1.1" viewBox="0 0 100 100" xmlns="http://www.w3.org/2000/svg"><g><path d="m50 0c-27.614-3.3137e-5 -50 22.386-50 50-2.6458e-5 27.614 22.386 50 50 50 27.614 0 50-22.386 50-50 0-27.614-22.386-50-50-50zm0 8.5524c22.891-1.238e-4 41.448 18.557 41.448 41.448-1.85e-4 22.891-18.557 41.447-41.448 41.447-22.891-1.5e-4 -41.447-18.557-41.447-41.447-1.058e-4 -22.891 18.556-41.447 41.447-41.448zm-10.062 7.7954a4 4 0 0 0-1.217 0.19534 4 4 0 0 0-2.5704 5.039l10.045 30.974a4 4 0 0 0 4.8194 2.6365 4 4 0 0 0 0.21963-0.06408 4 4 0 0 0 0.43048-0.16847 4 4 0 0 0 0.04961-0.02273l0.0026-5.29e-4a4 4 0 0 0 0.01402-0.0067l17.27-8.1923a4 4 0 0 0 1.9006-5.3278 4 4 0 0 0-3.6427-2.2856 4 4 0 0 0-1.6857 0.38499l-13.172 6.2477-8.6403-26.642a4 4 0 0 0-3.822-2.7673z" color="#000000" color-rendering="auto" dominant-baseline="auto" fill="#24a6b3" image-rendering="auto" shape-rendering="auto" solid-color="#000000" stop-color="#000000" style="font-feature-settings:normal;font-variant-alternates:normal;font-variant-caps:normal;font-variant-east-asian:normal;font-variant-ligatures:normal;font-variant-numeric:normal;font-variant-position:normal;font-variation-settings:normal;inline-size:0;isolation:auto;mix-blend-mode:normal;paint-order:markers fill stroke;shape-margin:0;shape-padding:0;text-decoration-color:#000000;text-decoration-line:none;text-decoration-style:solid;text-indent:0;text-orientation:mixed;text-transform:none;white-space:normal"/></g></svg>
