<?xml version="1.0" encoding="UTF-8"?>
<svg width="100mm" height="100mm" version="1.1" viewBox="0 0 100 100" xmlns="http://www.w3.org/2000/svg"><path d="m50 0a50 50 0 0 0-50 50 50 50 0 0 0 50 50 50 50 0 0 0 50-50 50 50 0 0 0-50-50zm-1.186 18.679c6.6409 0 12.047 2.0432 16.219 6.1299 4.1718 4.0441 6.258 9.1951 6.258 15.453 0 6.6834-1.9797 11.877-5.9387 15.58-2.9799 2.8096-6.0021 4.2147-9.0671 4.2147v3.3843h-12.835v-15.581c2.2988 0.9791 4.0869 1.4686 5.364 1.4686 2.5116 0 4.6188-0.87257 6.3216-2.6179 1.7028-1.7454 2.5539-3.8525 2.5539-6.3216 0-2.469-0.89408-4.5762-2.682-6.3216-1.7879-1.7879-3.8521-2.682-6.1934-2.682-2.0859 0-4.0441 0.80908-5.8746 2.4267-1.8305 1.6176-2.8736 3.4693-3.129 5.5552l-13.218-1.7239c1.1068-5.4063 3.533-9.8337 7.2791-13.282 4.0867-3.7887 9.0676-5.6829 14.942-5.6829zm1.0852 47.635c2.0859 0 3.8526 0.74507 5.2999 2.235 1.4899 1.4899 2.235 3.2776 2.235 5.3635 0 2.0859-0.74506 3.8526-2.235 5.2999-1.4474 1.4048-3.214 2.1074-5.2999 2.1074-2.1285 0-3.9376-0.70257-5.4276-2.1074-1.4474-1.4474-2.1709-3.214-2.1709-5.2999 0-2.0859 0.72355-3.8736 2.1709-5.3635 1.4899-1.4899 3.2991-2.235 5.4276-2.235z" fill="#ff8400"/></svg>
