<?xml version="1.0" encoding="UTF-8"?>
<svg width="100mm" height="100mm" version="1.1" viewBox="0 0 100 100" xmlns="http://www.w3.org/2000/svg"><g><path d="m17.387 17.42a4 4 0 0 0-2.2696 0.71468 4 4 0 0 0-1.0041 5.5666l5.4581 7.8595c-12.952 9.0079-19.134 21.082-19.134 21.082a4 4 0 0 0 1.742 5.3806 4 4 0 0 0 5.3831-1.7399s5.3371-10.461 16.537-18.202l29.709 42.78a4 4 0 0 0 5.5666 1.0041 4 4 0 0 0 1.0041-5.5666l-29.319-42.217c5.3541-2.4903 11.656-4.1538 18.939-4.1538 28.998 0 42.438 26.355 42.438 26.355a4 4 0 0 0 5.3826 1.7399 4 4 0 0 0 1.742-5.3806s-15.721-30.715-49.562-30.715c-9.158 0-16.986 2.2513-23.538 5.5325l-5.779-8.3215a4 4 0 0 0-3.2964-1.7188z" color="#000000" color-rendering="auto" dominant-baseline="auto" fill="#24a6b3" image-rendering="auto" shape-rendering="auto" solid-color="#000000" stop-color="#000000" style="font-feature-settings:normal;font-variant-alternates:normal;font-variant-caps:normal;font-variant-east-asian:normal;font-variant-ligatures:normal;font-variant-numeric:normal;font-variant-position:normal;font-variation-settings:normal;inline-size:0;isolation:auto;mix-blend-mode:normal;shape-margin:0;shape-padding:0;text-decoration-color:#000000;text-decoration-line:none;text-decoration-style:solid;text-indent:0;text-orientation:mixed;text-transform:none;white-space:normal"/></g></svg>
