<?xml version="1.0" encoding="UTF-8"?>
<svg width="100mm" height="100mm" version="1.1" viewBox="0 0 100 100" xmlns="http://www.w3.org/2000/svg"><path d="m17.387 17.42a4 4 0 0 0-2.2696 0.71468 4 4 0 0 0-1.0041 5.5666l5.4581 7.8595c-12.952 9.0079-19.134 21.082-19.134 21.082a4 4 0 0 0 1.742 5.3806 4 4 0 0 0 5.3831-1.7399s5.3371-10.461 16.537-18.202l29.709 42.78a4 4 0 0 0 5.5666 1.0041 4 4 0 0 0 1.0041-5.5666l-29.319-42.217c5.3541-2.4903 11.656-4.1538 18.939-4.1538 28.998 0 42.438 26.355 42.438 26.355a4 4 0 0 0 5.3826 1.7399 4 4 0 0 0 1.742-5.3806s-15.721-30.715-49.562-30.715c-9.158 0-16.986 2.2513-23.538 5.5325l-5.779-8.3215a4 4 0 0 0-3.2964-1.7188z" fill="#24a6b3"/></svg>
