<?xml version="1.0" encoding="UTF-8"?>
<svg width="191.86mm" height="34.255mm" shape-rendering="crispEdges" version="1.1" viewBox="0 0 191.86 34.255" xmlns="http://www.w3.org/2000/svg"><path d="m20.29 0c-6.2342 0-10.955 0.38034-14.163 1.141-1.3064 0.31419-2.497 0.9095-3.5719 1.7859-1.7033 1.3725-2.5549 3.5801-2.5549 6.6229 0 1.6536 0.23151 3.1502 0.69453 4.4896 0.49609 1.4221 1.4965 2.5714 3.0014 3.4479 1.7363 1.0253 4.5889 1.5379 8.5576 1.5379h10.964c3.0592 0.01654 5.2421 0.14056 6.5484 0.37207 1.1906 0.21498 2.0092 0.69453 2.4557 1.4387 0.46302 0.79375 0.69453 2.0092 0.69453 3.6463 0 2.8608-1.0831 4.531-3.2494 5.0105-2.1994 0.49609-5.8208 0.74414-10.864 0.74414-6.5154 0-10.476-0.22325-11.881-0.66973-1.0087-0.31419-1.6785-0.85162-2.0092-1.6123-0.24805-0.57877-0.38861-1.8603-0.42168-3.8447-0.016533-0.11575-0.024805-0.3638-0.024805-0.74414h-4.3904c-0.016533 0.95912-0.024805 1.5958-0.024805 1.91 0 1.0749 0.066144 2.0174 0.19844 2.8277 0.29765 1.6536 1.1079 2.9766 2.4309 3.9688 1.141 0.84336 2.8856 1.4056 5.2338 1.6867 1.6867 0.21497 4.316 0.32246 7.8879 0.32246 4.9609 0 8.6486-0.09922 11.063-0.29766 2.6624-0.23151 4.7129-0.64492 6.1516-1.2402 1.4552-0.59531 2.5301-1.48 3.2246-2.6541 0.85989-1.4056 1.2898-3.3404 1.2898-5.8043 0-3.7042-1.1576-6.2673-3.4727-7.6895-1.3229-0.82683-3.6049-1.2485-6.8461-1.265-8.8635-0.03309-13.849-0.08269-14.957-0.14883-4.0184-0.23151-6.3665-0.91778-7.0445-2.0588-0.39688-0.69453-0.59531-1.8107-0.59531-3.3486 0-1.0253 0.14056-1.8769 0.42168-2.5549 0.49609-1.1906 1.5379-1.9678 3.1254-2.3316 2.497-0.57877 6.4327-0.86816 11.807-0.86816 3.4561 0 6.1764 0.19844 8.1607 0.59531 1.7529 0.36381 2.8856 1.0253 3.3982 1.9844 0.28112 0.5457 0.42995 1.6123 0.44648 3.1998v0.5209h4.5145c-0.016537-0.77721-0.033076-1.3312-0.04961-1.6619-0.14882-2.249-0.66972-3.9026-1.5627-4.9609-1.0087-1.1906-2.3068-2.0092-3.8943-2.4557-2.4474-0.69453-6.011-1.0418-10.691-1.0418zm150.99 4.5889v5.8291h-5.7795v3.175h5.7795v11.46c0 2.0174 0.13229 3.5471 0.39687 4.5889 0.41341 1.6206 1.3146 2.7699 2.7037 3.4479 1.6206 0.77721 4.0762 1.1658 7.367 1.1658 3.1089 0 5.4157-0.38034 6.9205-1.141 1.6371-0.82682 2.621-2.2242 2.9518-4.192 0.16536-1.0418 0.24805-2.4143 0.24805-4.1176v-1.4883h-3.6959v1.4883c0 1.4717-0.0579 2.5466-0.17364 3.2246-0.19843 1.2568-0.85989 2.0919-1.9844 2.5053-0.82682 0.29765-2.1497 0.44648-3.9688 0.44648-2.8939 0-4.7873-0.37207-5.6803-1.1162-0.678-0.5457-1.0749-1.232-1.1906-2.0588-0.0827-0.51263-0.14056-1.8438-0.17363-3.9936v-10.22h16.47v-3.175h-16.47v-5.8291zm-115.94 5.5314c-3.423 0-5.9118 0.1571-7.4662 0.47129-2.6954 0.54571-4.6219 1.819-5.7795 3.8199-1.0087 1.7529-1.5131 4.3656-1.5131 7.8383 0 4.5145 0.95912 7.6646 2.8773 9.4506 1.1079 1.0087 2.7781 1.695 5.0105 2.0588 2.0505 0.33073 5.1759 0.49609 9.3762 0.49609 2.8773 0 5.0767-0.16537 6.598-0.49609 2.249-0.49609 3.8861-1.3394 4.9113-2.5301 0.87644-1.0418 1.3395-2.5549 1.3891-4.5393h-3.8943c-0.04961 0.62839-0.10749 1.0666-0.17363 1.3146-0.24805 0.94258-0.85163 1.6288-1.8107 2.0588-0.79375 0.34726-1.7281 0.58704-2.8029 0.71934-1.0749 0.13229-2.6376 0.19844-4.6881 0.19844-3.1089 0-5.3578-0.09095-6.7469-0.27285-2.0836-0.28112-3.5223-0.83509-4.316-1.6619-1.0583-1.0914-1.6371-3.1006-1.7363-6.0275h26.219c-0.033073-3.4396-0.339-5.9035-0.91777-7.3918-0.99219-2.5797-2.9931-4.2168-6.0027-4.9113-1.7363-0.39687-4.5806-0.59531-8.5328-0.59531zm33.114 0c-3.5719 0-6.1598 0.19017-7.7639 0.57051-2.5466 0.59531-4.3656 1.8521-5.457 3.7703-1.0087 1.7529-1.5131 4.3408-1.5131 7.7639 0 4.4814 0.95912 7.6398 2.8773 9.4754 1.0087 0.95912 2.5135 1.6288 4.5145 2.0092 1.8355 0.3638 5.0684 0.5457 9.6986 0.5457 2.8112 0 4.87-0.14056 6.1764-0.42168 1.8852-0.41341 3.3073-1.1245 4.2664-2.1332 1.2568-1.3064 1.91-3.39 1.9596-6.2508h-3.7951c-0.03307 1.0749-0.1571 1.9265-0.37207 2.5549-0.38034 1.1079-1.1576 1.8603-2.3316 2.2572-1.4056 0.47956-3.6546 0.71934-6.7469 0.71934-3.2577 0-5.6555-0.14056-7.1934-0.42168-1.8355-0.33073-3.1337-1.0666-3.8943-2.2076-0.79375-1.1741-1.1906-3.1089-1.1906-5.8043 0-2.1828 0.19844-3.9191 0.59531-5.209 0.3638-1.1906 0.98392-2.0753 1.8604-2.6541 1.3064-0.85989 4.0762-1.2898 8.3096-1.2898 2.9104 0 5.0602 0.1323 6.4492 0.39688 1.5544 0.31419 2.6293 0.80202 3.2246 1.4635 0.67799 0.77721 1.0335 1.9678 1.0666 3.5719h3.8943c-0.0992-2.0505-0.45475-3.638-1.0666-4.7625-0.8599-1.571-2.4226-2.6541-4.6881-3.2494-1.7694-0.46302-4.7294-0.69453-8.8801-0.69453zm32.742 0c-2.0505 0-3.6132 0.04961-4.6881 0.14883-1.4552 0.13229-2.588 0.40515-3.3982 0.81856-1.1906 0.61185-2.0753 1.4469-2.6541 2.5053h-0.24804v-3.175h-3.7207v23.54h3.7207v-10.864c0-2.4143 0.16536-4.2251 0.49609-5.4322 0.46302-1.7529 1.4304-2.8939 2.9022-3.423 1.5214-0.56224 3.8778-0.84336 7.0693-0.84336 1.9017 0 3.3652 0.14883 4.3904 0.44648 1.2733 0.38034 2.0753 1.1576 2.4061 2.3316 0.21497 0.74415 0.32246 1.7942 0.32246 3.1502v1.6867h3.8199v-2.4309c0-4.1837-1.4139-6.7717-4.2416-7.7639-1.356-0.46302-3.4148-0.69453-6.1764-0.69453zm27.558 0c-3.423 0-5.9118 0.1571-7.4662 0.47129-2.6954 0.54571-4.6219 1.819-5.7795 3.8199-1.0087 1.7529-1.5131 4.3656-1.5131 7.8383 0 4.5145 0.95911 7.6646 2.8773 9.4506 1.108 1.0087 2.7781 1.695 5.0106 2.0588 2.0505 0.33073 5.1759 0.49609 9.3762 0.49609 2.8774 0 5.0767-0.16537 6.598-0.49609 2.249-0.49609 3.8861-1.3394 4.9113-2.5301 0.87643-1.0418 1.3394-2.5549 1.3891-4.5393h-3.8943c-0.0496 0.62839-0.10748 1.0666-0.17363 1.3146-0.24805 0.94258-0.85163 1.6288-1.8107 2.0588-0.79375 0.34726-1.7281 0.58704-2.8029 0.71934-1.0749 0.13229-2.6376 0.19844-4.6881 0.19844-3.1088 0-5.3578-0.09095-6.7469-0.27285-2.0836-0.28112-3.5223-0.83509-4.316-1.6619-1.0583-1.0914-1.6371-3.1006-1.7363-6.0275h26.219c-0.0331-3.4396-0.339-5.9035-0.91777-7.3918-0.99219-2.5797-2.9931-4.2168-6.0027-4.9113-1.7363-0.39687-4.5806-0.59531-8.5328-0.59531zm-93.538 3.2742c1.9844 0 3.7124 0.07442 5.1842 0.22324 1.9844 0.19844 3.4644 0.66973 4.44 1.4139 1.2072 0.90951 1.819 2.5135 1.8355 4.8121h-21.977c0.08268-1.2402 0.29766-2.2655 0.64492-3.0758 0.64492-1.571 1.9348-2.5549 3.8695-2.9518 1.4552-0.28112 3.4561-0.42168 6.0027-0.42168zm93.414 0c1.9844 0 3.7124 0.07442 5.1842 0.22324 1.9844 0.19844 3.4644 0.66973 4.44 1.4139 1.2072 0.90951 1.819 2.5135 1.8356 4.8121h-21.977c0.0827-1.2402 0.29765-2.2655 0.64492-3.0758 0.64492-1.571 1.9348-2.5549 3.8695-2.9518 1.4552-0.28112 3.4561-0.42168 6.0027-0.42168z" fill="#6d807c"/></svg>
