<?xml version="1.0" encoding="UTF-8"?>
<svg width="100mm" height="100mm" version="1.1" viewBox="0 0 100 100" xmlns="http://www.w3.org/2000/svg"><path d="m50 0a50 50 0 0 0-50 50 50 50 0 0 0 50 50 50 50 0 0 0 50-50 50 50 0 0 0-50-50zm14.733 27.651c0.7348 0.01262 1.4988 0.07333 2.2934 0.18603 8.4758 1.2022 14.962 14.372 11.678 23.981-3.2835 9.6095-10.429 16.163-28.648 25.826-16.968-9.2373-24.702-15.304-28.648-25.826-3.9464-10.522 2.5886-22.981 11.678-23.981 9.0898-1.0001 13.022 3.7297 16.97 9.7436 3.1859-5.6639 7.573-10.052 14.676-9.9296z" fill="#ff8400"/></svg>
